# Mesh "Mesh1" exported with Unity Assets Bundle Extractor; 96 vertices, 144 indices, 384 bits per vertex
g Mesh1
# SubMesh 0
# Vertices
v 0.841744 0.341312 -0.485981
vt -4.994748 28.760527
vn -0.776379 0.443072 0.448243
v 0.470701 0.000000 -0.271759
vt -4.127891 13.796532
vn -0.776379 0.443072 0.448243
v 0.384326 0.000000 -0.384326
vt 4.127891 13.796532
vn -0.633911 0.443072 0.633911
v 0.687281 0.341312 -0.687281
vt 4.994748 28.760527
vn -0.633911 0.443072 0.633911
v 0.384326 0.000000 -0.384326
vt -4.127891 13.796532
vn -0.633911 0.443072 0.633911
v 0.271759 0.000000 -0.470701
vt 4.127891 13.796532
vn -0.448243 0.443072 0.776379
v 0.485981 0.341312 -0.841744
vt 4.994748 28.760527
vn -0.448243 0.443072 0.776379
v 0.687281 0.341312 -0.687281
vt -4.994748 28.760527
vn -0.633911 0.443072 0.633911
v 0.271759 0.000000 -0.470701
vt -4.127891 13.796532
vn -0.448243 0.443072 0.776379
v 0.140673 0.000000 -0.524998
vt 4.127891 13.796532
vn -0.232028 0.443072 0.865939
v 0.251562 0.341312 -0.938844
vt 4.994748 28.760527
vn -0.232028 0.443072 0.865939
v 0.485981 0.341312 -0.841744
vt -4.994748 28.760527
vn -0.448243 0.443072 0.776379
v -0.271759 -0.000000 0.470701
vt -4.127891 13.796532
vn 0.448243 0.443072 -0.776379
v -0.140673 -0.000000 0.524998
vt 4.127891 13.796532
vn 0.232028 0.443072 -0.865939
v -0.251562 0.341312 0.938844
vt 4.994748 28.760527
vn 0.232028 0.443072 -0.865939
v -0.485981 0.341312 0.841744
vt -4.994748 28.760527
vn 0.448243 0.443072 -0.776379
v -0.140673 -0.000000 0.524998
vt -4.127891 13.796532
vn 0.232028 0.443072 -0.865939
v 0.000000 -0.000000 0.543518
vt 4.127891 13.796532
vn -0.000000 0.443072 -0.896486
v -0.000000 0.341312 0.971963
vt 4.994748 28.760527
vn -0.000000 0.443072 -0.896486
v -0.251562 0.341312 0.938844
vt -4.994748 28.760527
vn 0.232028 0.443072 -0.865939
v 0.000000 -0.000000 0.543518
vt -4.127891 13.796532
vn -0.000000 0.443072 -0.896486
v 0.140673 -0.000000 0.524998
vt 4.127891 13.796532
vn -0.232028 0.443072 -0.865939
v 0.251562 0.341312 0.938844
vt 4.994748 28.760527
vn -0.232028 0.443072 -0.865939
v -0.000000 0.341312 0.971963
vt -4.994748 28.760527
vn -0.000000 0.443072 -0.896486
v 0.140673 -0.000000 0.524998
vt -4.127891 13.796532
vn -0.232028 0.443072 -0.865939
v 0.271759 -0.000000 0.470701
vt 4.127891 13.796532
vn -0.448243 0.443072 -0.776379
v 0.485981 0.341312 0.841744
vt 4.994748 28.760527
vn -0.448243 0.443072 -0.776379
v 0.251562 0.341312 0.938844
vt -4.994748 28.760527
vn -0.232028 0.443072 -0.865939
v 0.271759 -0.000000 0.470701
vt -4.127891 13.796532
vn -0.448243 0.443072 -0.776379
v 0.384326 -0.000000 0.384326
vt 4.127891 13.796532
vn -0.633911 0.443072 -0.633911
v 0.687281 0.341312 0.687281
vt 4.994748 28.760527
vn -0.633911 0.443072 -0.633911
v 0.485981 0.341312 0.841744
vt -4.994748 28.760527
vn -0.448243 0.443072 -0.776379
v 0.687281 0.341312 0.687281
vt -4.994748 28.760527
vn -0.633911 0.443072 -0.633911
v 0.384326 -0.000000 0.384326
vt -4.127891 13.796532
vn -0.633911 0.443072 -0.633911
v 0.470701 -0.000000 0.271759
vt 4.127891 13.796532
vn -0.776379 0.443072 -0.448243
v 0.841744 0.341312 0.485981
vt 4.994748 28.760527
vn -0.776379 0.443072 -0.448243
v 0.841744 0.341312 0.485981
vt -4.994748 28.760527
vn -0.776379 0.443072 -0.448243
v 0.470701 -0.000000 0.271759
vt -4.127891 13.796532
vn -0.776379 0.443072 -0.448243
v 0.524998 -0.000000 0.140673
vt 4.127891 13.796532
vn -0.865939 0.443072 -0.232028
v 0.938844 0.341312 0.251562
vt 4.994748 28.760527
vn -0.865939 0.443072 -0.232028
v 0.938844 0.341312 0.251562
vt -4.994748 28.760527
vn -0.865939 0.443072 -0.232028
v 0.524998 -0.000000 0.140673
vt -4.127891 13.796532
vn -0.865939 0.443072 -0.232028
v 0.543518 0.000000 0.000000
vt 4.127891 13.796532
vn -0.896486 0.443072 0.000000
v 0.971963 0.341312 0.000000
vt 4.994748 28.760527
vn -0.896486 0.443072 0.000000
v 0.971963 0.341312 0.000000
vt -4.994748 28.760527
vn -0.896486 0.443072 0.000000
v 0.543518 0.000000 0.000000
vt -4.127891 13.796532
vn -0.896486 0.443072 0.000000
v 0.524998 0.000000 -0.140673
vt 4.127891 13.796532
vn -0.865939 0.443072 0.232028
v 0.938844 0.341312 -0.251562
vt 4.994748 28.760527
vn -0.865939 0.443072 0.232028
v 0.938844 0.341312 -0.251562
vt -4.994748 28.760527
vn -0.865939 0.443072 0.232028
v 0.524998 0.000000 -0.140673
vt -4.127891 13.796532
vn -0.865939 0.443072 0.232028
v 0.470701 0.000000 -0.271759
vt 4.127891 13.796532
vn -0.776379 0.443072 0.448243
v 0.841744 0.341312 -0.485981
vt 4.994748 28.760527
vn -0.776379 0.443072 0.448243
v 0.140673 0.000000 -0.524998
vt -4.127891 13.796532
vn -0.232028 0.443072 0.865939
v 0.000000 0.000000 -0.543518
vt 4.127891 13.796532
vn -0.000000 0.443072 0.896486
v 0.000000 0.341312 -0.971963
vt 4.994748 28.760527
vn -0.000000 0.443072 0.896486
v 0.251562 0.341312 -0.938844
vt -4.994748 28.760527
vn -0.232028 0.443072 0.865939
v 0.000000 0.000000 -0.543518
vt -4.127891 13.796532
vn -0.000000 0.443072 0.896486
v -0.140673 0.000000 -0.524998
vt 4.127891 13.796532
vn 0.232028 0.443072 0.865939
v -0.251562 0.341312 -0.938844
vt 4.994748 28.760527
vn 0.232028 0.443072 0.865939
v 0.000000 0.341312 -0.971963
vt -4.994748 28.760527
vn -0.000000 0.443072 0.896486
v -0.140673 0.000000 -0.524998
vt -4.127891 13.796532
vn 0.232028 0.443072 0.865939
v -0.271759 0.000000 -0.470701
vt 4.127891 13.796532
vn 0.448243 0.443072 0.776379
v -0.485981 0.341312 -0.841744
vt 4.994748 28.760527
vn 0.448243 0.443072 0.776379
v -0.251562 0.341312 -0.938844
vt -4.994748 28.760527
vn 0.232028 0.443072 0.865939
v -0.271759 0.000000 -0.470701
vt -4.127891 13.796532
vn 0.448243 0.443072 0.776379
v -0.384325 0.000000 -0.384326
vt 4.127891 13.796532
vn 0.633911 0.443072 0.633911
v -0.687281 0.341312 -0.687281
vt 4.994748 28.760527
vn 0.633911 0.443072 0.633911
v -0.485981 0.341312 -0.841744
vt -4.994748 28.760527
vn 0.448243 0.443072 0.776379
v -0.470701 0.000000 -0.271759
vt 4.127891 13.796532
vn 0.776379 0.443072 0.448243
v -0.841744 0.341312 -0.485981
vt 4.994748 28.760527
vn 0.776379 0.443072 0.448243
v -0.687281 0.341312 -0.687281
vt -4.994748 28.760527
vn 0.633911 0.443072 0.633911
v -0.384325 0.000000 -0.384326
vt -4.127891 13.796532
vn 0.633911 0.443072 0.633911
v -0.524998 0.000000 -0.140673
vt 4.127891 13.796532
vn 0.865939 0.443072 0.232028
v -0.938844 0.341312 -0.251562
vt 4.994748 28.760527
vn 0.865939 0.443072 0.232028
v -0.841744 0.341312 -0.485981
vt -4.994748 28.760527
vn 0.776379 0.443072 0.448243
v -0.470701 0.000000 -0.271759
vt -4.127891 13.796532
vn 0.776379 0.443072 0.448243
v -0.543518 0.000000 0.000000
vt 4.127891 13.796532
vn 0.896486 0.443072 0.000000
v -0.971963 0.341312 -0.000000
vt 4.994748 28.760527
vn 0.896486 0.443072 0.000000
v -0.938844 0.341312 -0.251562
vt -4.994748 28.760527
vn 0.865939 0.443072 0.232028
v -0.524998 0.000000 -0.140673
vt -4.127891 13.796532
vn 0.865939 0.443072 0.232028
v -0.524998 -0.000000 0.140673
vt 4.127891 13.796532
vn 0.865939 0.443072 -0.232028
v -0.938844 0.341312 0.251562
vt 4.994748 28.760527
vn 0.865939 0.443072 -0.232028
v -0.971963 0.341312 -0.000000
vt -4.994748 28.760527
vn 0.896486 0.443072 0.000000
v -0.543518 0.000000 0.000000
vt -4.127891 13.796532
vn 0.896486 0.443072 0.000000
v -0.470701 -0.000000 0.271759
vt 4.127891 13.796532
vn 0.776379 0.443072 -0.448243
v -0.841744 0.341312 0.485981
vt 4.994748 28.760527
vn 0.776379 0.443072 -0.448243
v -0.938844 0.341312 0.251562
vt -4.994748 28.760527
vn 0.865939 0.443072 -0.232028
v -0.524998 -0.000000 0.140673
vt -4.127891 13.796532
vn 0.865939 0.443072 -0.232028
v -0.384325 -0.000000 0.384326
vt 4.127891 13.796532
vn 0.633911 0.443072 -0.633911
v -0.687281 0.341312 0.687281
vt 4.994748 28.760527
vn 0.633911 0.443072 -0.633911
v -0.841744 0.341312 0.485981
vt -4.994748 28.760527
vn 0.776379 0.443072 -0.448243
v -0.470701 -0.000000 0.271759
vt -4.127891 13.796532
vn 0.776379 0.443072 -0.448243
v -0.384325 -0.000000 0.384326
vt -4.127891 13.796532
vn 0.633911 0.443072 -0.633911
v -0.271759 -0.000000 0.470701
vt 4.127891 13.796532
vn 0.448243 0.443072 -0.776379
v -0.485981 0.341312 0.841744
vt 4.994748 28.760527
vn 0.448243 0.443072 -0.776379
v -0.687281 0.341312 0.687281
vt -4.994748 28.760527
vn 0.633911 0.443072 -0.633911
# Faces (1 to 96)
g Mesh1_0
f -94/-94/-94 -95/-95/-95 -96/-96/-96
f -93/-93/-93 -94/-94/-94 -96/-96/-96
f -90/-90/-90 -91/-91/-91 -92/-92/-92
f -89/-89/-89 -90/-90/-90 -92/-92/-92
f -86/-86/-86 -87/-87/-87 -88/-88/-88
f -85/-85/-85 -86/-86/-86 -88/-88/-88
f -82/-82/-82 -83/-83/-83 -84/-84/-84
f -81/-81/-81 -82/-82/-82 -84/-84/-84
f -78/-78/-78 -79/-79/-79 -80/-80/-80
f -77/-77/-77 -78/-78/-78 -80/-80/-80
f -74/-74/-74 -75/-75/-75 -76/-76/-76
f -73/-73/-73 -74/-74/-74 -76/-76/-76
f -70/-70/-70 -71/-71/-71 -72/-72/-72
f -69/-69/-69 -70/-70/-70 -72/-72/-72
f -66/-66/-66 -67/-67/-67 -68/-68/-68
f -65/-65/-65 -66/-66/-66 -68/-68/-68
f -62/-62/-62 -63/-63/-63 -64/-64/-64
f -61/-61/-61 -62/-62/-62 -64/-64/-64
f -58/-58/-58 -59/-59/-59 -60/-60/-60
f -57/-57/-57 -58/-58/-58 -60/-60/-60
f -54/-54/-54 -55/-55/-55 -56/-56/-56
f -53/-53/-53 -54/-54/-54 -56/-56/-56
f -50/-50/-50 -51/-51/-51 -52/-52/-52
f -49/-49/-49 -50/-50/-50 -52/-52/-52
f -46/-46/-46 -47/-47/-47 -48/-48/-48
f -45/-45/-45 -46/-46/-46 -48/-48/-48
f -42/-42/-42 -43/-43/-43 -44/-44/-44
f -41/-41/-41 -42/-42/-42 -44/-44/-44
f -38/-38/-38 -39/-39/-39 -40/-40/-40
f -37/-37/-37 -38/-38/-38 -40/-40/-40
f -34/-34/-34 -35/-35/-35 -36/-36/-36
f -33/-33/-33 -34/-34/-34 -36/-36/-36
f -30/-30/-30 -31/-31/-31 -32/-32/-32
f -29/-29/-29 -30/-30/-30 -32/-32/-32
f -26/-26/-26 -27/-27/-27 -28/-28/-28
f -25/-25/-25 -26/-26/-26 -28/-28/-28
f -22/-22/-22 -23/-23/-23 -24/-24/-24
f -21/-21/-21 -22/-22/-22 -24/-24/-24
f -18/-18/-18 -19/-19/-19 -20/-20/-20
f -17/-17/-17 -18/-18/-18 -20/-20/-20
f -14/-14/-14 -15/-15/-15 -16/-16/-16
f -13/-13/-13 -14/-14/-14 -16/-16/-16
f -10/-10/-10 -11/-11/-11 -12/-12/-12
f -9/-9/-9 -10/-10/-10 -12/-12/-12
f -6/-6/-6 -7/-7/-7 -8/-8/-8
f -5/-5/-5 -6/-6/-6 -8/-8/-8
f -2/-2/-2 -3/-3/-3 -4/-4/-4
f -1/-1/-1 -2/-2/-2 -4/-4/-4

