# Mesh "PlateReturn2" exported with Unity Assets Bundle Extractor; 117 vertices, 276 indices, 448 bits per vertex
g PlateReturn2
# SubMesh 0
# Vertices
v -0.600000 0.000000 0.600000
vt 0.000000 0.032472
vn -0.000000 0.000000 1.000000
v -0.600000 0.376637 0.600000
vt 0.000046 0.125094
vn -0.000000 0.000000 1.000000
v 0.600000 0.376637 0.600000
vt 0.245965 0.124971
vn -0.000000 0.000000 1.000000
v 0.600000 0.000000 0.600000
vt 0.245577 0.031960
vn -0.000000 0.000000 1.000000
v -0.600000 0.000000 -0.600000
vt 0.741607 0.032494
vn -1.000000 0.000000 0.000000
v -0.600000 0.376637 -0.600000
vt 0.741669 0.124827
vn -1.000000 0.000000 0.000000
v -0.600000 0.376637 0.600000
vt 0.987424 0.125245
vn -1.000000 0.000000 0.000000
v -0.600000 0.000000 0.600000
vt 0.987769 0.033942
vn -1.000000 0.000000 0.000000
v 0.600000 0.000000 0.600000
vt 0.245577 0.031960
vn 1.000000 0.000000 0.000000
v 0.600000 0.376637 0.600000
vt 0.245965 0.124971
vn 1.000000 0.000000 0.000000
v 0.600000 0.376637 -0.600000
vt 0.493778 0.124720
vn 1.000000 0.000000 0.000000
v 0.600000 0.000000 -0.600000
vt 0.493432 0.031965
vn 1.000000 0.000000 0.000000
v 0.504953 0.500000 0.504953
vt 0.189216 0.263279
vn -0.000000 1.000000 0.000000
v 0.454875 0.500000 0.000000
vt 0.499916 0.303202
vn -0.000000 1.000000 0.000000
v 0.504953 0.500000 -0.504953
vt 0.810784 0.263279
vn -0.000000 1.000000 0.000000
v 0.420250 0.500000 -0.174073
vt 0.604215 0.321410
vn -0.000000 1.000000 0.000000
v 0.321645 0.500000 -0.321645
vt 0.694065 0.379988
vn -0.000000 1.000000 0.000000
v 0.174073 0.500000 -0.420249
vt 0.752622 0.469763
vn -0.000000 1.000000 0.000001
v 0.000000 0.500000 -0.454875
vt 0.770861 0.573979
vn -0.000000 1.000000 -0.000002
v -0.504953 0.500000 -0.504953
vt 0.810784 0.884848
vn -0.000000 1.000000 0.000000
v -0.174073 0.500000 -0.420250
vt 0.752654 0.678278
vn -0.000000 1.000000 0.000000
v -0.321645 0.500000 -0.321645
vt 0.694075 0.768128
vn -0.000000 1.000000 0.000000
v -0.420249 0.500000 -0.174073
vt 0.604300 0.826685
vn -0.000000 1.000000 0.000000
v -0.454875 0.500000 -0.000000
vt 0.500086 0.844924
vn -0.000000 1.000000 0.000000
v -0.504953 0.500000 0.504953
vt 0.189216 0.884848
vn -0.000000 1.000000 0.000000
v 0.420249 0.500000 0.174073
vt 0.395700 0.321441
vn -0.000000 1.000000 0.000000
v 0.321645 0.500000 0.321645
vt 0.305925 0.379998
vn -0.000000 1.000000 0.000000
v 0.174073 0.500000 0.420250
vt 0.247346 0.469848
vn -0.000000 1.000000 0.000000
v -0.000000 0.500000 0.454875
vt 0.229139 0.574150
vn -0.000000 1.000000 0.000000
v -0.174073 0.500000 0.420249
vt 0.247378 0.678363
vn -0.000000 1.000000 0.000001
v -0.321645 0.500000 0.321645
vt 0.305935 0.768138
vn -0.000000 1.000000 0.000000
v -0.420250 0.500000 0.174073
vt 0.395785 0.826717
vn -0.000000 1.000000 0.000000
v -0.600000 0.376637 -0.600000
vt 0.741669 0.124827
vn -0.000000 0.000000 -1.000000
v -0.600000 0.000000 -0.600000
vt 0.741607 0.032494
vn -0.000000 0.000000 -1.000000
v 0.600000 0.000000 -0.600000
vt 0.493432 0.031965
vn -0.000000 0.000000 -1.000000
v 0.600000 0.376637 -0.600000
vt 0.493778 0.124720
vn -0.000000 0.000000 -1.000000
v 0.420250 0.500000 -0.174073
vt 0.604215 0.321410
vn -0.391606 0.905722 0.162208
v 0.310468 0.444390 -0.128600
vt 0.573516 0.395704
vn -0.391606 0.905722 0.162208
v 0.237622 0.444390 -0.237621
vt 0.636421 0.437018
vn -0.299722 0.905722 0.299722
v 0.321645 0.500000 -0.321645
vt 0.694065 0.379988
vn -0.299722 0.905722 0.299722
v 0.454875 0.500000 0.000000
vt 0.499916 0.303202
vn -0.423871 0.905723 0.000000
v 0.336048 0.444390 0.000000
vt 0.499543 0.381684
vn -0.423871 0.905723 0.000000
v 0.128600 0.444390 -0.310467
vt 0.678105 0.499684
vn -0.162208 0.905723 0.391605
v 0.174073 0.500000 -0.420249
vt 0.752622 0.469763
vn -0.162208 0.905723 0.391605
v 0.420249 0.500000 0.174073
vt 0.395700 0.321441
vn -0.391605 0.905723 -0.162208
v 0.310468 0.444390 0.128600
vt 0.425621 0.395958
vn -0.391605 0.905723 -0.162208
v -0.000000 0.444390 -0.336048
vt 0.692379 0.573606
vn -0.000000 0.905722 0.423871
v 0.000000 0.500000 -0.454875
vt 0.770861 0.573979
vn -0.000000 0.905722 0.423871
v 0.321645 0.500000 0.321645
vt 0.305925 0.379998
vn -0.299722 0.905722 -0.299722
v 0.237621 0.444390 0.237622
vt 0.362955 0.437644
vn -0.299722 0.905722 -0.299722
v -0.128600 0.444390 -0.310468
vt 0.678359 0.647580
vn 0.162208 0.905722 0.391606
v -0.174073 0.500000 -0.420250
vt 0.752654 0.678278
vn 0.162208 0.905722 0.391606
v 0.174073 0.500000 0.420250
vt 0.247346 0.469848
vn -0.162208 0.905722 -0.391606
v 0.128600 0.444390 0.310468
vt 0.321641 0.500547
vn -0.162208 0.905722 -0.391606
v -0.237621 0.444390 -0.237622
vt 0.637045 0.710485
vn 0.299722 0.905722 0.299722
v -0.321645 0.500000 -0.321645
vt 0.694075 0.768128
vn 0.299722 0.905722 0.299722
v -0.000000 0.500000 0.454875
vt 0.229139 0.574150
vn -0.000000 0.905722 -0.423871
v -0.000000 0.444390 0.336048
vt 0.307621 0.574522
vn -0.000000 0.905722 -0.423871
v -0.310468 0.444390 -0.128600
vt 0.574379 0.752169
vn 0.391605 0.905723 0.162208
v -0.420249 0.500000 -0.174073
vt 0.604300 0.826685
vn 0.391605 0.905723 0.162208
v -0.174073 0.500000 0.420249
vt 0.247378 0.678363
vn 0.162208 0.905723 -0.391605
v -0.128600 0.444390 0.310468
vt 0.321894 0.648442
vn 0.162208 0.905723 -0.391605
v -0.336048 0.444390 -0.000000
vt 0.500459 0.766443
vn 0.423871 0.905722 0.000000
v -0.454875 0.500000 -0.000000
vt 0.500086 0.844924
vn 0.423871 0.905722 0.000000
v -0.321645 0.500000 0.321645
vt 0.305935 0.768138
vn 0.299722 0.905722 -0.299722
v -0.237622 0.444390 0.237622
vt 0.363581 0.711108
vn 0.299722 0.905722 -0.299722
v -0.310468 0.444390 0.128600
vt 0.426483 0.752425
vn 0.391605 0.905723 -0.162208
v -0.420250 0.500000 0.174073
vt 0.395785 0.826717
vn 0.391606 0.905722 -0.162208
v 0.237622 0.444390 -0.237621
vt 0.636421 0.437018
vn -0.000000 1.000000 0.000000
v 0.310468 0.444390 -0.128600
vt 0.573516 0.395704
vn -0.000000 1.000000 0.000000
v -0.000000 0.444390 0.000000
vt 0.500001 0.574064
vn -0.000000 1.000000 0.000000
v 0.336048 0.444390 0.000000
vt 0.499543 0.381684
vn -0.000000 1.000000 0.000000
v 0.128600 0.444390 -0.310467
vt 0.678105 0.499684
vn -0.000000 1.000000 0.000000
v 0.310468 0.444390 0.128600
vt 0.425621 0.395958
vn -0.000000 1.000000 0.000000
v -0.000000 0.444390 -0.336048
vt 0.692379 0.573606
vn -0.000000 1.000000 0.000000
v 0.237621 0.444390 0.237622
vt 0.362955 0.437644
vn -0.000000 1.000000 0.000000
v -0.128600 0.444390 -0.310468
vt 0.678359 0.647580
vn -0.000000 1.000000 0.000000
v 0.128600 0.444390 0.310468
vt 0.321641 0.500547
vn -0.000000 1.000000 0.000000
v -0.237621 0.444390 -0.237622
vt 0.637045 0.710485
vn -0.000000 1.000000 0.000000
v -0.000000 0.444390 0.336048
vt 0.307621 0.574522
vn -0.000000 1.000000 0.000000
v -0.310468 0.444390 -0.128600
vt 0.574379 0.752169
vn -0.000000 1.000000 0.000000
v -0.128600 0.444390 0.310468
vt 0.321894 0.648442
vn -0.000000 1.000000 0.000000
v -0.336048 0.444390 -0.000000
vt 0.500459 0.766443
vn -0.000000 1.000000 0.000000
v -0.237622 0.444390 0.237622
vt 0.363581 0.711108
vn -0.000000 1.000000 0.000000
v -0.310468 0.444390 0.128600
vt 0.426483 0.752425
vn -0.000000 1.000000 0.000000
v -0.554456 0.376637 0.554455
vt 0.093145 0.915315
vn -0.000000 0.372409 0.928069
v -0.504953 0.500000 0.504953
vt 0.189216 0.884848
vn -0.000000 0.372409 0.928069
v 0.504953 0.500000 0.504953
vt 0.189216 0.263279
vn -0.000000 0.372409 0.928069
v 0.554455 0.376637 0.554455
vt 0.093145 0.232812
vn -0.000000 0.372409 0.928069
v -0.554456 0.376637 -0.554455
vt 0.841251 0.980918
vn -0.928069 0.372409 0.000000
v -0.504953 0.500000 -0.504953
vt 0.810784 0.884848
vn -0.928069 0.372409 0.000000
v -0.504953 0.500000 0.504953
vt 0.189216 0.884848
vn -0.928069 0.372409 0.000000
v -0.554456 0.376637 0.554455
vt 0.158749 0.980918
vn -0.928069 0.372409 0.000000
v -0.504953 0.500000 -0.504953
vt 0.810784 0.884848
vn -0.000000 0.372409 -0.928069
v -0.554456 0.376637 -0.554455
vt 0.906855 0.915315
vn -0.000000 0.372409 -0.928069
v 0.554455 0.376637 -0.554455
vt 0.906855 0.232812
vn -0.000000 0.372409 -0.928069
v 0.504953 0.500000 -0.504953
vt 0.810784 0.263279
vn -0.000000 0.372409 -0.928069
v 0.554455 0.376637 0.554455
vt 0.158749 0.167208
vn 0.928069 0.372409 0.000000
v 0.504953 0.500000 0.504953
vt 0.189216 0.263279
vn 0.928069 0.372409 0.000000
v 0.504953 0.500000 -0.504953
vt 0.810784 0.263279
vn 0.928069 0.372409 0.000000
v 0.554455 0.376637 -0.554455
vt 0.841251 0.167208
vn 0.928069 0.372409 0.000000
v 0.554455 0.376637 0.554455
vt 0.216942 0.153481
vn -0.000000 1.000000 0.000000
v 0.600000 0.376637 0.600000
vt 0.245965 0.124971
vn -0.000000 1.000000 0.000000
v -0.600000 0.376637 0.600000
vt 0.000046 0.125094
vn -0.000000 1.000000 0.000000
v -0.554456 0.376637 0.554455
vt 0.024184 0.153578
vn -0.000000 1.000000 0.000000
v -0.554456 0.376637 0.554455
vt 0.958359 0.153672
vn -0.000000 1.000000 0.000000
v -0.600000 0.376637 0.600000
vt 0.987424 0.125245
vn -0.000000 1.000000 0.000000
v -0.600000 0.376637 -0.600000
vt 0.741669 0.124827
vn -0.000000 1.000000 0.000000
v -0.554456 0.376637 -0.554455
vt 0.765729 0.153345
vn -0.000000 1.000000 0.000000
v 0.554455 0.376637 -0.554455
vt 0.464547 0.153465
vn -0.000000 1.000000 0.000000
v 0.600000 0.376637 -0.600000
vt 0.493778 0.124720
vn -0.000000 1.000000 0.000000
v 0.600000 0.376637 0.600000
vt 0.245965 0.124971
vn -0.000000 1.000000 0.000000
v 0.554455 0.376637 0.554455
vt 0.270304 0.153663
vn -0.000000 1.000000 0.000000
v -0.554456 0.376637 -0.554455
vt 0.712388 0.153538
vn -0.000000 1.000000 0.000000
v -0.600000 0.376637 -0.600000
vt 0.741669 0.124827
vn -0.000000 1.000000 0.000000
v 0.600000 0.376637 -0.600000
vt 0.493778 0.124720
vn -0.000000 1.000000 0.000000
v 0.554455 0.376637 -0.554455
vt 0.518084 0.153455
vn -0.000000 1.000000 0.000000
# Faces (1 to 117)
g PlateReturn2_0
f -115/-115/-115 -116/-116/-116 -117/-117/-117
f -114/-114/-114 -115/-115/-115 -117/-117/-117
f -111/-111/-111 -112/-112/-112 -113/-113/-113
f -110/-110/-110 -111/-111/-111 -113/-113/-113
f -107/-107/-107 -108/-108/-108 -109/-109/-109
f -106/-106/-106 -107/-107/-107 -109/-109/-109
f -103/-103/-103 -104/-104/-104 -105/-105/-105
f -103/-103/-103 -102/-102/-102 -104/-104/-104
f -103/-103/-103 -101/-101/-101 -102/-102/-102
f -103/-103/-103 -100/-100/-100 -101/-101/-101
f -103/-103/-103 -99/-99/-99 -100/-100/-100
f -103/-103/-103 -98/-98/-98 -99/-99/-99
f -98/-98/-98 -97/-97/-97 -99/-99/-99
f -98/-98/-98 -96/-96/-96 -97/-97/-97
f -98/-98/-98 -95/-95/-95 -96/-96/-96
f -98/-98/-98 -94/-94/-94 -95/-95/-95
f -94/-94/-94 -98/-98/-98 -93/-93/-93
f -105/-105/-105 -104/-104/-104 -92/-92/-92
f -105/-105/-105 -92/-92/-92 -91/-91/-91
f -105/-105/-105 -91/-91/-91 -90/-90/-90
f -105/-105/-105 -90/-90/-90 -89/-89/-89
f -105/-105/-105 -89/-89/-89 -93/-93/-93
f -89/-89/-89 -88/-88/-88 -93/-93/-93
f -88/-88/-88 -87/-87/-87 -93/-93/-93
f -87/-87/-87 -86/-86/-86 -93/-93/-93
f -86/-86/-86 -94/-94/-94 -93/-93/-93
f -83/-83/-83 -84/-84/-84 -85/-85/-85
f -82/-82/-82 -83/-83/-83 -85/-85/-85
f -79/-79/-79 -80/-80/-80 -81/-81/-81
f -78/-78/-78 -79/-79/-79 -81/-81/-81
f -81/-81/-81 -80/-80/-80 -77/-77/-77
f -80/-80/-80 -76/-76/-76 -77/-77/-77
f -75/-75/-75 -79/-79/-79 -78/-78/-78
f -74/-74/-74 -75/-75/-75 -78/-78/-78
f -77/-77/-77 -76/-76/-76 -73/-73/-73
f -76/-76/-76 -72/-72/-72 -73/-73/-73
f -71/-71/-71 -75/-75/-75 -74/-74/-74
f -70/-70/-70 -71/-71/-71 -74/-74/-74
f -73/-73/-73 -72/-72/-72 -69/-69/-69
f -72/-72/-72 -68/-68/-68 -69/-69/-69
f -67/-67/-67 -71/-71/-71 -70/-70/-70
f -66/-66/-66 -67/-67/-67 -70/-70/-70
f -69/-69/-69 -68/-68/-68 -65/-65/-65
f -68/-68/-68 -64/-64/-64 -65/-65/-65
f -63/-63/-63 -67/-67/-67 -66/-66/-66
f -62/-62/-62 -63/-63/-63 -66/-66/-66
f -65/-65/-65 -64/-64/-64 -61/-61/-61
f -64/-64/-64 -60/-60/-60 -61/-61/-61
f -59/-59/-59 -63/-63/-63 -62/-62/-62
f -58/-58/-58 -59/-59/-59 -62/-62/-62
f -61/-61/-61 -60/-60/-60 -57/-57/-57
f -60/-60/-60 -56/-56/-56 -57/-57/-57
f -55/-55/-55 -59/-59/-59 -58/-58/-58
f -54/-54/-54 -55/-55/-55 -58/-58/-58
f -57/-57/-57 -56/-56/-56 -53/-53/-53
f -56/-56/-56 -52/-52/-52 -53/-53/-53
f -51/-51/-51 -55/-55/-55 -54/-54/-54
f -50/-50/-50 -51/-51/-51 -54/-54/-54
f -52/-52/-52 -51/-51/-51 -50/-50/-50
f -53/-53/-53 -52/-52/-52 -50/-50/-50
f -47/-47/-47 -48/-48/-48 -49/-49/-49
f -47/-47/-47 -46/-46/-46 -48/-48/-48
f -47/-47/-47 -49/-49/-49 -45/-45/-45
f -47/-47/-47 -44/-44/-44 -46/-46/-46
f -47/-47/-47 -45/-45/-45 -43/-43/-43
f -47/-47/-47 -42/-42/-42 -44/-44/-44
f -47/-47/-47 -43/-43/-43 -41/-41/-41
f -47/-47/-47 -40/-40/-40 -42/-42/-42
f -47/-47/-47 -41/-41/-41 -39/-39/-39
f -47/-47/-47 -38/-38/-38 -40/-40/-40
f -47/-47/-47 -39/-39/-39 -37/-37/-37
f -47/-47/-47 -36/-36/-36 -38/-38/-38
f -47/-47/-47 -37/-37/-37 -35/-35/-35
f -47/-47/-47 -34/-34/-34 -36/-36/-36
f -47/-47/-47 -35/-35/-35 -33/-33/-33
f -47/-47/-47 -33/-33/-33 -34/-34/-34
f -30/-30/-30 -31/-31/-31 -32/-32/-32
f -29/-29/-29 -30/-30/-30 -32/-32/-32
f -26/-26/-26 -27/-27/-27 -28/-28/-28
f -25/-25/-25 -26/-26/-26 -28/-28/-28
f -22/-22/-22 -23/-23/-23 -24/-24/-24
f -21/-21/-21 -22/-22/-22 -24/-24/-24
f -18/-18/-18 -19/-19/-19 -20/-20/-20
f -17/-17/-17 -18/-18/-18 -20/-20/-20
f -14/-14/-14 -15/-15/-15 -16/-16/-16
f -13/-13/-13 -14/-14/-14 -16/-16/-16
f -10/-10/-10 -11/-11/-11 -12/-12/-12
f -9/-9/-9 -10/-10/-10 -12/-12/-12
f -6/-6/-6 -7/-7/-7 -8/-8/-8
f -5/-5/-5 -6/-6/-6 -8/-8/-8
f -2/-2/-2 -3/-3/-3 -4/-4/-4
f -1/-1/-1 -2/-2/-2 -4/-4/-4

