# Mesh "Hat_Cap" exported with Unity Assets Bundle Extractor; 97 vertices, 384 indices, 384 bits per vertex
g Hat_Cap
# SubMesh 0
# Vertices
v -0.204329 1.134778 0.037154
vt 0.274345 0.707432
vn -0.749282 0.369920 0.549304
v -0.206358 1.292888 -0.071598
vt 0.274345 0.755909
vn -0.740591 0.534792 0.406845
v -0.114684 1.331238 -0.025781
vt 0.308552 0.755168
vn -0.379113 0.681901 0.625527
v -0.109325 1.164572 0.082818
vt 0.308552 0.707432
vn -0.376930 0.503130 0.777679
v -0.009105 1.345762 -0.006003
vt 0.339035 0.750262
vn -0.045221 0.717483 0.695107
v -0.008723 1.178076 0.101642
vt 0.339040 0.707432
vn -0.046811 0.541001 0.839718
v -0.257734 1.076468 -0.055481
vt 0.233690 0.707432
vn -0.949531 0.204017 0.238260
v -0.253508 1.220555 -0.157556
vt 0.233690 0.755909
vn -0.930370 0.352966 0.099126
v -0.286306 1.012526 -0.152687
vt 0.191325 0.707432
vn -0.995615 0.088930 -0.029028
v -0.269897 1.145359 -0.245224
vt 0.191325 0.755909
vn -0.962312 0.226219 -0.150930
v -0.269587 0.949401 -0.247115
vt 0.147699 0.707432
vn -0.933953 -0.067714 -0.350922
v -0.250661 1.070054 -0.315943
vt 0.147699 0.755909
vn -0.906386 0.042043 -0.420353
v -0.207939 0.891373 -0.342963
vt 0.106001 0.707432
vn -0.692790 -0.258436 -0.673241
v -0.193829 0.998319 -0.397477
vt 0.106001 0.755909
vn -0.648918 -0.155881 -0.744719
v -0.092049 0.867482 -0.385273
vt 0.058926 0.707432
vn -0.278424 -0.409166 -0.868944
v -0.090318 0.965031 -0.432016
vt 0.058926 0.755909
vn -0.265653 -0.238053 -0.934216
v 0.022862 0.860396 -0.399747
vt 0.010686 0.707432
vn 0.051374 -0.431791 -0.900509
v 0.021086 0.954124 -0.445521
vt 0.010686 0.755909
vn 0.047427 -0.263092 -0.963604
v -0.006419 1.345709 -0.081736
vt 0.339035 0.774742
vn -0.016182 0.970630 -0.240031
v 0.093629 1.170892 0.090470
vt 0.369527 0.707432
vn 0.287867 0.524763 0.801097
v 0.098174 1.336666 -0.018128
vt 0.369527 0.755168
vn 0.293273 0.702971 0.647937
v 0.193469 1.147320 0.051942
vt 0.403735 0.707432
vn 0.682342 0.415827 0.601246
v 0.194460 1.303586 -0.056820
vt 0.403735 0.755909
vn 0.676266 0.578186 0.456469
v 0.257389 1.092754 -0.036903
vt 0.444389 0.707432
vn 0.914362 0.265871 0.305377
v 0.251393 1.235156 -0.138887
vt 0.444389 0.755909
vn 0.895868 0.412361 0.165464
v 0.298352 1.031168 -0.132157
vt 0.486755 0.707432
vn 0.984566 0.165970 0.055531
v 0.279076 1.162090 -0.227168
vt 0.486755 0.755909
vn 0.949213 0.304365 -0.079723
v 0.295067 0.972044 -0.221488
vt 0.530380 0.707432
vn 0.962484 0.004221 -0.271304
v 0.272425 1.089895 -0.295614
vt 0.530380 0.755909
vn 0.928272 0.119308 -0.352246
v 0.245563 0.908575 -0.325339
vt 0.572078 0.707432
vn 0.765473 -0.203061 -0.610588
v 0.227671 1.014307 -0.381097
vt 0.572078 0.755909
vn 0.718825 -0.102785 -0.687551
v 0.135440 0.876110 -0.376432
vt 0.619153 0.707432
vn 0.375076 -0.384378 -0.843547
v 0.129964 0.973386 -0.423455
vt 0.619153 0.755909
vn 0.354495 -0.214530 -0.910116
v 0.022862 0.860396 -0.399747
vt 0.667393 0.707432
vn 0.051374 -0.431791 -0.900509
v 0.021086 0.954124 -0.445521
vt 0.667393 0.755909
vn 0.047427 -0.263092 -0.963604
v 0.194460 1.303586 -0.056820
vt 0.406483 0.775805
vn 0.676266 0.578186 0.456469
v 0.079391 1.337459 -0.092618
vt 0.364687 0.779280
vn 0.146503 0.957548 -0.248272
v 0.160176 1.309408 -0.128006
vt 0.391664 0.796303
vn 0.367889 0.883515 -0.289930
v 0.105000 1.284276 -0.206122
vt 0.371524 0.822252
vn 0.153368 0.842323 -0.516692
v 0.207449 1.252370 -0.196323
vt 0.407436 0.829119
vn 0.454364 0.778401 -0.433180
v -0.000733 1.292941 -0.204586
vt 0.339035 0.818462
vn -0.004336 0.862156 -0.506624
v -0.090718 1.333145 -0.098665
vt 0.313392 0.779280
vn -0.178106 0.949078 -0.259863
v -0.105532 1.278814 -0.213776
vt 0.306555 0.822252
vn -0.161225 0.832856 -0.529488
v -0.167335 1.300915 -0.139918
vt 0.286416 0.796303
vn -0.395238 0.861801 -0.317942
v -0.206599 1.240861 -0.211579
vt 0.270643 0.829119
vn -0.470209 0.747905 -0.468553
v -0.106026 1.206967 -0.304943
vt 0.304130 0.863360
vn -0.171413 0.764733 -0.621128
v -0.219019 1.176352 -0.286961
vt 0.264695 0.864809
vn -0.505077 0.655855 -0.561027
v 0.004988 1.216394 -0.307309
vt 0.339035 0.863419
vn 0.002135 0.775292 -0.631599
v -0.096448 1.122502 -0.405720
vt 0.305586 0.904319
vn -0.166751 0.579701 -0.797584
v -0.201662 1.108945 -0.383276
vt 0.269527 0.900146
vn -0.486022 0.486562 -0.725976
v 0.010888 1.124176 -0.411649
vt 0.339035 0.907334
vn 0.013001 0.570625 -0.821108
v -0.069627 1.031028 -0.427399
vt 0.311700 0.945508
vn -0.156894 0.167914 -0.973236
v -0.154243 1.058617 -0.397631
vt 0.283888 0.929531
vn -0.378596 0.111902 -0.918773
v 0.018280 1.021614 -0.439199
vt 0.339035 0.951995
vn 0.032025 0.176671 -0.983749
v -0.206358 1.292888 -0.071598
vt 0.271596 0.775805
vn -0.740591 0.534792 0.406845
v -0.253508 1.220555 -0.157556
vt 0.250393 0.817070
vn -0.930370 0.352966 0.099126
v -0.269897 1.145359 -0.245224
vt 0.242008 0.860652
vn -0.962312 0.226219 -0.150930
v -0.250661 1.070054 -0.315943
vt 0.247033 0.905599
vn -0.906386 0.042043 -0.420353
v -0.090318 0.965031 -0.432016
vt 0.301749 0.966129
vn -0.265653 -0.238053 -0.934216
v -0.193829 0.998319 -0.397477
vt 0.266499 0.945220
vn -0.648918 -0.155881 -0.744719
v 0.021086 0.954124 -0.445521
vt 0.339040 0.974274
vn 0.047427 -0.263092 -0.963604
v 0.115953 1.213241 -0.296771
vt 0.373950 0.863360
vn 0.173503 0.773577 -0.609487
v 0.229124 1.189618 -0.270452
vt 0.413384 0.864809
vn 0.490735 0.693074 -0.528041
v 0.117482 1.127924 -0.398138
vt 0.372493 0.904319
vn 0.188527 0.594588 -0.781615
v 0.221396 1.119667 -0.368282
vt 0.408552 0.900146
vn 0.492770 0.528663 -0.691154
v 0.104044 1.037615 -0.420650
vt 0.366379 0.945508
vn 0.218652 0.185098 -0.958087
v 0.183769 1.071438 -0.384495
vt 0.394192 0.929531
vn 0.434873 0.155993 -0.886878
v 0.279076 1.162090 -0.227168
vt 0.436071 0.860652
vn 0.949213 0.304365 -0.079723
v 0.251393 1.235156 -0.138887
vt 0.427686 0.817070
vn 0.895868 0.412361 0.165464
v 0.272425 1.089895 -0.295614
vt 0.431046 0.905599
vn 0.928272 0.119308 -0.352246
v 0.129964 0.973386 -0.423455
vt 0.376331 0.966129
vn 0.354495 -0.214530 -0.910116
v 0.227671 1.014307 -0.381097
vt 0.411580 0.945220
vn 0.718825 -0.102785 -0.687551
v -0.207939 0.891373 -0.342963
vt 0.179072 0.952220
vn 0.007093 -0.856113 0.516739
v -0.269587 0.949401 -0.247115
vt 0.195178 0.916231
vn 0.006142 -0.839845 0.542792
v -0.127057 0.939294 -0.264680
vt 0.153041 0.925372
vn 0.005885 -0.846241 0.532768
v -0.092049 0.867482 -0.385273
vt 0.145255 0.968834
vn 0.008847 -0.858074 0.513449
v 0.015094 0.938235 -0.268632
vt 0.110575 0.928857
vn 0.010278 -0.848353 0.529331
v 0.022862 0.860396 -0.399747
vt 0.111313 0.975693
vn 0.011408 -0.859319 0.511313
v -0.141246 1.018124 -0.144912
vt 0.154384 0.879098
vn 0.000871 -0.836611 0.547797
v -0.286306 1.012526 -0.152687
vt 0.198115 0.879098
vn 0.004388 -0.834391 0.551156
v 0.005877 1.023894 -0.135130
vt 0.110096 0.879098
vn 0.009096 -0.838209 0.545273
v -0.131048 1.093620 -0.029898
vt 0.149117 0.835298
vn -0.000749 -0.840552 0.541731
v -0.257734 1.076468 -0.055481
vt 0.187637 0.838250
vn 0.004117 -0.838728 0.544536
v -0.002043 1.104102 -0.010476
vt 0.110096 0.831941
vn 0.007928 -0.839620 0.543117
v -0.109325 1.164572 0.082818
vt 0.140647 0.794658
vn 0.000554 -0.842378 0.538887
v -0.204329 1.134778 0.037154
vt 0.165451 0.810156
vn 0.009090 -0.847755 0.530310
v -0.008723 1.178076 0.101642
vt 0.110096 0.788580
vn 0.006829 -0.840678 0.541492
v 0.135440 0.876110 -0.376432
vt 0.077353 0.969261
vn 0.015103 -0.859634 0.510687
v 0.155999 0.948521 -0.254766
vt 0.068463 0.925327
vn 0.014583 -0.847021 0.531360
v 0.245563 0.908575 -0.325339
vt 0.043572 0.953650
vn 0.019852 -0.859084 0.511449
v 0.295067 0.972044 -0.221488
vt 0.026523 0.918494
vn 0.010985 -0.840704 0.541384
v 0.152915 1.027927 -0.135348
vt 0.062790 0.879098
vn 0.014216 -0.836928 0.547128
v 0.298352 1.031168 -0.132157
vt 0.022077 0.879098
vn 0.007503 -0.835679 0.549167
v 0.128183 1.101813 -0.020963
vt 0.071075 0.835298
vn 0.015145 -0.841809 0.539563
v 0.257389 1.092754 -0.036903
vt 0.032555 0.838250
vn 0.006734 -0.841418 0.540343
v 0.093629 1.170892 0.090470
vt 0.079545 0.794658
vn 0.012998 -0.843275 0.537325
v 0.193469 1.147320 0.051942
vt 0.049022 0.810156
vn 0.004188 -0.849975 0.526807
# Faces (1 to 97)
g Hat_Cap_0
f -95/-95/-95 -96/-96/-96 -97/-97/-97
f -94/-94/-94 -95/-95/-95 -97/-97/-97
f -93/-93/-93 -95/-95/-95 -94/-94/-94
f -92/-92/-92 -93/-93/-93 -94/-94/-94
f -97/-97/-97 -96/-96/-96 -91/-91/-91
f -96/-96/-96 -90/-90/-90 -91/-91/-91
f -91/-91/-91 -90/-90/-90 -89/-89/-89
f -90/-90/-90 -88/-88/-88 -89/-89/-89
f -89/-89/-89 -88/-88/-88 -87/-87/-87
f -88/-88/-88 -86/-86/-86 -87/-87/-87
f -87/-87/-87 -86/-86/-86 -85/-85/-85
f -86/-86/-86 -84/-84/-84 -85/-85/-85
f -83/-83/-83 -85/-85/-85 -84/-84/-84
f -82/-82/-82 -83/-83/-83 -84/-84/-84
f -81/-81/-81 -83/-83/-83 -82/-82/-82
f -80/-80/-80 -81/-81/-81 -82/-82/-82
f -93/-93/-93 -79/-79/-79 -95/-95/-95
f -93/-93/-93 -92/-92/-92 -78/-78/-78
f -77/-77/-77 -93/-93/-93 -78/-78/-78
f -77/-77/-77 -78/-78/-78 -76/-76/-76
f -75/-75/-75 -77/-77/-77 -76/-76/-76
f -75/-75/-75 -76/-76/-76 -74/-74/-74
f -73/-73/-73 -75/-75/-75 -74/-74/-74
f -73/-73/-73 -74/-74/-74 -72/-72/-72
f -71/-71/-71 -73/-73/-73 -72/-72/-72
f -71/-71/-71 -72/-72/-72 -70/-70/-70
f -69/-69/-69 -71/-71/-71 -70/-70/-70
f -69/-69/-69 -70/-70/-70 -68/-68/-68
f -67/-67/-67 -69/-69/-69 -68/-68/-68
f -68/-68/-68 -66/-66/-66 -67/-67/-67
f -66/-66/-66 -65/-65/-65 -67/-67/-67
f -66/-66/-66 -64/-64/-64 -65/-65/-65
f -64/-64/-64 -63/-63/-63 -65/-65/-65
f -61/-61/-61 -77/-77/-77 -62/-62/-62
f -60/-60/-60 -61/-61/-61 -62/-62/-62
f -59/-59/-59 -61/-61/-61 -60/-60/-60
f -58/-58/-58 -59/-59/-59 -60/-60/-60
f -59/-59/-59 -57/-57/-57 -61/-61/-61
f -57/-57/-57 -79/-79/-79 -61/-61/-61
f -79/-79/-79 -57/-57/-57 -56/-56/-56
f -57/-57/-57 -55/-55/-55 -56/-56/-56
f -56/-56/-56 -55/-55/-55 -54/-54/-54
f -55/-55/-55 -53/-53/-53 -54/-54/-54
f -55/-55/-55 -52/-52/-52 -53/-53/-53
f -52/-52/-52 -51/-51/-51 -53/-53/-53
f -50/-50/-50 -52/-52/-52 -55/-55/-55
f -57/-57/-57 -50/-50/-50 -55/-55/-55
f -50/-50/-50 -57/-57/-57 -59/-59/-59
f -52/-52/-52 -49/-49/-49 -51/-51/-51
f -49/-49/-49 -48/-48/-48 -51/-51/-51
f -47/-47/-47 -49/-49/-49 -52/-52/-52
f -50/-50/-50 -47/-47/-47 -52/-52/-52
f -49/-49/-49 -46/-46/-46 -48/-48/-48
f -46/-46/-46 -45/-45/-45 -48/-48/-48
f -44/-44/-44 -46/-46/-46 -49/-49/-49
f -47/-47/-47 -44/-44/-44 -49/-49/-49
f -56/-56/-56 -54/-54/-54 -43/-43/-43
f -95/-95/-95 -56/-56/-56 -43/-43/-43
f -79/-79/-79 -56/-56/-56 -95/-95/-95
f -54/-54/-54 -53/-53/-53 -42/-42/-42
f -43/-43/-43 -54/-54/-54 -42/-42/-42
f -53/-53/-53 -51/-51/-51 -41/-41/-41
f -42/-42/-42 -53/-53/-53 -41/-41/-41
f -51/-51/-51 -48/-48/-48 -40/-40/-40
f -41/-41/-41 -51/-51/-51 -40/-40/-40
f -45/-45/-45 -46/-46/-46 -39/-39/-39
f -38/-38/-38 -45/-45/-45 -39/-39/-39
f -48/-48/-48 -45/-45/-45 -38/-38/-38
f -40/-40/-40 -48/-48/-48 -38/-38/-38
f -46/-46/-46 -44/-44/-44 -37/-37/-37
f -39/-39/-39 -46/-46/-46 -37/-37/-37
f -47/-47/-47 -50/-50/-50 -36/-36/-36
f -36/-36/-36 -50/-50/-50 -59/-59/-59
f -36/-36/-36 -59/-59/-59 -58/-58/-58
f -35/-35/-35 -36/-36/-36 -58/-58/-58
f -34/-34/-34 -36/-36/-36 -35/-35/-35
f -33/-33/-33 -34/-34/-34 -35/-35/-35
f -34/-34/-34 -47/-47/-47 -36/-36/-36
f -32/-32/-32 -34/-34/-34 -33/-33/-33
f -31/-31/-31 -32/-32/-32 -33/-33/-33
f -44/-44/-44 -47/-47/-47 -34/-34/-34
f -32/-32/-32 -44/-44/-44 -34/-34/-34
f -44/-44/-44 -32/-32/-32 -37/-37/-37
f -35/-35/-35 -58/-58/-58 -30/-30/-30
f -58/-58/-58 -29/-29/-29 -30/-30/-30
f -58/-58/-58 -60/-60/-60 -29/-29/-29
f -60/-60/-60 -62/-62/-62 -29/-29/-29
f -35/-35/-35 -30/-30/-30 -28/-28/-28
f -33/-33/-33 -35/-35/-35 -28/-28/-28
f -32/-32/-32 -31/-31/-31 -27/-27/-27
f -31/-31/-31 -26/-26/-26 -27/-27/-27
f -33/-33/-33 -28/-28/-28 -26/-26/-26
f -31/-31/-31 -33/-33/-33 -26/-26/-26
f -32/-32/-32 -27/-27/-27 -37/-37/-37
f -23/-23/-23 -24/-24/-24 -25/-25/-25
f -22/-22/-22 -23/-23/-23 -25/-25/-25
f -21/-21/-21 -23/-23/-23 -22/-22/-22
f -20/-20/-20 -21/-21/-21 -22/-22/-22
f -23/-23/-23 -19/-19/-19 -24/-24/-24
f -19/-19/-19 -18/-18/-18 -24/-24/-24
f -17/-17/-17 -19/-19/-19 -23/-23/-23
f -21/-21/-21 -17/-17/-17 -23/-23/-23
f -19/-19/-19 -16/-16/-16 -18/-18/-18
f -16/-16/-16 -15/-15/-15 -18/-18/-18
f -14/-14/-14 -16/-16/-16 -19/-19/-19
f -17/-17/-17 -14/-14/-14 -19/-19/-19
f -16/-16/-16 -13/-13/-13 -15/-15/-15
f -13/-13/-13 -12/-12/-12 -15/-15/-15
f -11/-11/-11 -13/-13/-13 -16/-16/-16
f -14/-14/-14 -11/-11/-11 -16/-16/-16
f -21/-21/-21 -20/-20/-20 -10/-10/-10
f -9/-9/-9 -21/-21/-21 -10/-10/-10
f -17/-17/-17 -21/-21/-21 -9/-9/-9
f -9/-9/-9 -10/-10/-10 -8/-8/-8
f -7/-7/-7 -9/-9/-9 -8/-8/-8
f -6/-6/-6 -9/-9/-9 -7/-7/-7
f -6/-6/-6 -17/-17/-17 -9/-9/-9
f -14/-14/-14 -17/-17/-17 -6/-6/-6
f -5/-5/-5 -6/-6/-6 -7/-7/-7
f -4/-4/-4 -6/-6/-6 -5/-5/-5
f -4/-4/-4 -14/-14/-14 -6/-6/-6
f -11/-11/-11 -14/-14/-14 -4/-4/-4
f -3/-3/-3 -4/-4/-4 -5/-5/-5
f -2/-2/-2 -4/-4/-4 -3/-3/-3
f -2/-2/-2 -11/-11/-11 -4/-4/-4
f -1/-1/-1 -2/-2/-2 -3/-3/-3
f -79/-79/-79 -93/-93/-93 -77/-77/-77
f -61/-61/-61 -79/-79/-79 -77/-77/-77

