# Mesh "CrateLid_mesh" exported with Unity Assets Bundle Extractor; 50 vertices, 84 indices, 384 bits per vertex
g CrateLid_mesh
# SubMesh 0
# Vertices
v -0.496148 0.900000 0.500000
vt 0.015903 0.913944
vn -0.000000 0.000000 1.000000
v -0.495000 1.000000 0.500000
vt 0.015903 0.990049
vn -0.000000 0.000000 1.000000
v 0.505000 1.000000 0.500000
vt 0.462117 0.990049
vn -0.000000 0.000000 1.000000
v 0.503852 0.900000 0.500000
vt 0.462117 0.913944
vn -0.000000 0.000000 1.000000
v -0.495000 1.000000 -0.500000
vt 0.462986 0.988891
vn -0.000000 0.000000 -1.000000
v -0.496148 0.900000 -0.500000
vt 0.463000 0.914064
vn -0.000000 0.000000 -1.000000
v 0.503852 0.900000 -0.500000
vt 0.016781 0.913426
vn -0.000000 0.000000 -1.000000
v 0.505000 1.000000 -0.500000
vt 0.016775 0.989450
vn -0.000000 0.000000 -1.000000
v -0.496148 0.900000 -0.500000
vt 0.821929 0.985131
vn -0.000000 -1.000000 0.000000
v -0.496148 0.900000 0.500000
vt 0.821969 0.654002
vn -0.000000 -1.000000 0.000000
v 0.503852 0.900000 0.500000
vt 0.490840 0.653962
vn -0.000000 -1.000000 0.000000
v 0.503852 0.900000 -0.500000
vt 0.490798 0.986726
vn -0.000000 -1.000000 0.000000
v 0.503852 0.900000 0.500000
vt 0.017150 0.913944
vn 0.999934 -0.011477 0.000000
v 0.505000 1.000000 0.500000
vt 0.017150 0.990049
vn 0.999934 -0.011477 0.000000
v 0.505000 1.000000 -0.500000
vt 0.463362 0.989450
vn 0.999934 -0.011477 0.000000
v 0.503852 0.900000 -0.500000
vt 0.463368 0.913426
vn 0.999934 -0.011477 0.000000
v -0.496148 0.900000 -0.500000
vt 0.014655 0.913944
vn -0.999934 0.011477 0.000000
v -0.495000 1.000000 -0.500000
vt 0.014655 0.990049
vn -0.999934 0.011477 0.000000
v -0.495000 1.000000 0.500000
vt 0.460870 0.990049
vn -0.999934 0.011477 0.000000
v -0.496148 0.900000 0.500000
vt 0.460870 0.913944
vn -0.999934 0.011477 0.000000
# Faces (1 to 20)
g CrateLid_mesh_0
f -18/-18/-18 -19/-19/-19 -20/-20/-20
f -17/-17/-17 -18/-18/-18 -20/-20/-20
f -14/-14/-14 -15/-15/-15 -16/-16/-16
f -13/-13/-13 -14/-14/-14 -16/-16/-16
f -10/-10/-10 -11/-11/-11 -12/-12/-12
f -9/-9/-9 -10/-10/-10 -12/-12/-12
f -6/-6/-6 -7/-7/-7 -8/-8/-8
f -5/-5/-5 -6/-6/-6 -8/-8/-8
f -2/-2/-2 -3/-3/-3 -4/-4/-4
f -1/-1/-1 -2/-2/-2 -4/-4/-4

# SubMesh 1
# Vertices
v -0.365000 0.930000 0.370000
vt 0.088643 0.586389
vn -0.000000 1.000000 0.000000
v -0.365000 0.930000 -0.370000
vt 0.088643 0.913668
vn -0.000000 1.000000 0.000000
v 0.375000 0.930000 -0.370000
vt 0.415921 0.913668
vn -0.000000 1.000000 0.000000
v 0.375000 0.930000 0.370000
vt 0.415921 0.586389
vn -0.000000 1.000000 0.000000
v -0.495000 1.000000 0.500000
vt 0.005917 0.503663
vn -0.000000 1.000000 0.000000
v -0.365000 1.000000 0.370000
vt 0.071699 0.569445
vn -0.000000 1.000000 0.000000
v 0.375000 1.000000 0.370000
vt 0.432865 0.569445
vn -0.000000 1.000000 0.000000
v 0.505000 1.000000 0.500000
vt 0.498647 0.503663
vn -0.000000 1.000000 0.000000
v 0.375000 1.000000 -0.370000
vt 0.432865 0.930611
vn -0.000000 1.000000 0.000000
v 0.505000 1.000000 -0.500000
vt 0.498647 0.996393
vn -0.000000 1.000000 0.000000
v -0.365000 1.000000 -0.370000
vt 0.071699 0.930611
vn -0.000000 1.000000 0.000000
v -0.495000 1.000000 -0.500000
vt 0.005917 0.996393
vn -0.000000 1.000000 0.000000
v -0.365000 1.000000 0.370000
vt 0.071699 0.569445
vn -0.000000 0.000000 -1.000000
v -0.365000 0.930000 0.370000
vt 0.088643 0.586389
vn -0.000000 0.000000 -1.000000
v 0.375000 0.930000 0.370000
vt 0.415921 0.586389
vn -0.000000 0.000000 -1.000000
v 0.375000 1.000000 0.370000
vt 0.432865 0.569445
vn -0.000000 0.000000 -1.000000
v 0.375000 1.000000 0.370000
vt 0.432865 0.569445
vn -1.000000 0.000000 0.000000
v 0.375000 0.930000 0.370000
vt 0.415921 0.586389
vn -1.000000 0.000000 0.000000
v 0.375000 0.930000 -0.370000
vt 0.415921 0.913668
vn -1.000000 0.000000 0.000000
v 0.375000 1.000000 0.370000
vt 0.432865 0.569445
vn -1.000000 0.000000 0.000000
v 0.375000 1.000000 -0.370000
vt 0.432865 0.930611
vn -1.000000 0.000000 0.000000
v 0.375000 1.000000 -0.370000
vt 0.432865 0.930611
vn -0.000000 0.000000 1.000000
v 0.375000 0.930000 -0.370000
vt 0.415921 0.913668
vn -0.000000 0.000000 1.000000
v -0.365000 0.930000 -0.370000
vt 0.088643 0.913668
vn -0.000000 0.000000 1.000000
v -0.365000 1.000000 -0.370000
vt 0.071699 0.930611
vn -0.000000 0.000000 1.000000
v -0.365000 1.000000 -0.370000
vt 0.071699 0.930611
vn 1.000000 0.000000 0.000000
v -0.365000 0.930000 -0.370000
vt 0.088643 0.913668
vn 1.000000 0.000000 0.000000
v -0.365000 0.930000 0.370000
vt 0.088643 0.586389
vn 1.000000 0.000000 0.000000
v -0.365000 1.000000 -0.370000
vt 0.071699 0.930611
vn 1.000000 0.000000 0.000000
v -0.365000 1.000000 0.370000
vt 0.071699 0.569445
vn 1.000000 0.000000 0.000000
# Faces (21 to 50)
g CrateLid_mesh_1
f -28/-28/-28 -29/-29/-29 -30/-30/-30
f -27/-27/-27 -28/-28/-28 -30/-30/-30
f -24/-24/-24 -25/-25/-25 -26/-26/-26
f -23/-23/-23 -24/-24/-24 -26/-26/-26
f -22/-22/-22 -24/-24/-24 -23/-23/-23
f -21/-21/-21 -22/-22/-22 -23/-23/-23
f -20/-20/-20 -22/-22/-22 -21/-21/-21
f -19/-19/-19 -20/-20/-20 -21/-21/-21
f -25/-25/-25 -20/-20/-20 -19/-19/-19
f -26/-26/-26 -25/-25/-25 -19/-19/-19
f -16/-16/-16 -17/-17/-17 -18/-18/-18
f -15/-15/-15 -16/-16/-16 -18/-18/-18
f -12/-12/-12 -13/-13/-13 -14/-14/-14
f -10/-10/-10 -12/-12/-12 -11/-11/-11
f -7/-7/-7 -8/-8/-8 -9/-9/-9
f -6/-6/-6 -7/-7/-7 -9/-9/-9
f -3/-3/-3 -4/-4/-4 -5/-5/-5
f -1/-1/-1 -3/-3/-3 -2/-2/-2

