#
#
#

mtllib Path_120-9.mtl


#
# Path_120_0 메시
#
g Path_120_0 메시

v -0.144074 -0.113882 -0.366326
v -0.144074 0.064713 -0.366326
v -0.157600 0.088666 -0.566127
v -0.164262 -0.089929 -0.564783
v -0.103299 -0.113863 -0.193198
v -0.105684 0.064732 -0.180041
v -0.036999 0.072725 -0.017604
v -0.022364 -0.105790 -0.020475
v 0.106750 -0.110601 0.106402
v 0.110304 0.067914 0.119327
v 0.323380 0.070940 0.227833
v 0.323380 -0.107655 0.227833
v 0.547924 -0.107655 0.242764
v 0.547924 0.070940 0.242764
v -0.044964 0.115715 -0.396741
v 0.171235 0.115715 -0.467067
v 0.171144 0.139667 -0.568046
v -0.055292 0.139667 -0.566228
v -0.016042 0.115733 -0.228635
v 0.186741 0.115733 -0.341896
v 0.047800 0.120984 -0.076909
v 0.244377 0.114566 -0.216104
v 0.176200 0.116450 0.039945
v 0.325152 0.110835 -0.138021
v 0.350279 0.121942 0.127706
v 0.412570 0.121942 -0.090764
v 0.547852 0.121942 0.140524
v 0.549090 0.121942 -0.085784
v 0.269882 0.064713 -0.498601
v 0.269882 -0.084150 -0.498601
v 0.265072 -0.089929 -0.568738
v 0.273322 0.088666 -0.568738
v 0.276287 0.064732 -0.391165
v 0.261327 -0.113863 -0.391165
v 0.326499 0.060857 -0.275237
v 0.321204 -0.117658 -0.274483
v 0.388721 0.057397 -0.216455
v 0.383531 -0.121118 -0.215167
v 0.440602 0.070940 -0.190469
v 0.440602 -0.107655 -0.190469
v 0.549605 0.070940 -0.187893
v 0.549605 -0.107655 -0.187893
v -0.044964 0.064713 -0.396741
v -0.044964 0.115715 -0.396741
v -0.055292 0.139667 -0.566228
v -0.055292 0.088666 -0.566228
v -0.016042 0.064732 -0.228635
v -0.016042 0.115733 -0.228635
v 0.046288 0.070006 -0.076694
v 0.047800 0.120984 -0.076909
v 0.174718 0.065471 0.040312
v 0.176200 0.116450 0.039945
v 0.350279 0.070940 0.127706
v 0.350279 0.121942 0.127706
v 0.547852 0.070940 0.140524
v 0.547852 0.121942 0.140524
v 0.171235 0.115715 -0.467067
v 0.171235 0.064713 -0.467067
v 0.171144 0.088666 -0.568046
v 0.171144 0.139667 -0.568046
v 0.186741 0.115733 -0.341896
v 0.186741 0.064732 -0.341896
v 0.242866 0.063588 -0.215889
v 0.244377 0.114566 -0.216104
v 0.325152 0.110835 -0.138021
v 0.323669 0.059857 -0.137653
v 0.412569 0.070940 -0.090763
v 0.412570 0.121942 -0.090764
v 0.549090 0.121942 -0.085784
v 0.549089 0.070940 -0.085784
v -0.157600 0.088666 -0.566127
v -0.144074 0.064713 -0.366326
v -0.044964 0.064713 -0.396741
v -0.055292 0.088666 -0.566228
v -0.105684 0.064732 -0.180041
v -0.016042 0.064732 -0.228635
v 0.046288 0.070006 -0.076694
v -0.036999 0.072725 -0.017604
v 0.110304 0.067914 0.119327
v 0.174718 0.065471 0.040312
v 0.350279 0.070940 0.127706
v 0.323380 0.070940 0.227833
v 0.547924 0.070940 0.242764
v 0.547852 0.070940 0.140524
v 0.171235 0.064713 -0.467067
v 0.269882 0.064713 -0.498601
v 0.273322 0.088666 -0.568738
v 0.171144 0.088666 -0.568046
v 0.276287 0.064732 -0.391165
v 0.186741 0.064732 -0.341896
v 0.242866 0.063588 -0.215889
v 0.326499 0.060857 -0.275237
v 0.388721 0.057397 -0.216455
v 0.323669 0.059857 -0.137653
v 0.412569 0.070940 -0.090763
v 0.440602 0.070940 -0.190469
v 0.549605 0.070940 -0.187893
v 0.549089 0.070940 -0.085784
vn -0.990833 0.012653 0.134496
vn -0.985976 -0.009336 0.166625
vn -0.996061 0.018936 0.086627
vn -0.993683 0.037859 0.105649
vn -0.990833 0.012653 0.134496
vn -0.948749 -0.037650 0.313781
vn -0.954006 -0.034674 0.297776
vn -0.815807 -0.058603 0.575347
vn -0.813237 -0.075948 0.576955
vn -0.815807 -0.058603 0.575347
vn -0.586496 -0.041322 0.808897
vn -0.572324 -0.047874 0.818629
vn -0.815807 -0.058603 0.575347
vn -0.274794 -0.014181 0.961398
vn -0.586496 -0.041322 0.808897
vn -0.284659 -0.000000 0.958629
vn -0.066351 0.000000 0.997796
vn -0.066351 0.000001 0.997796
vn -0.274794 -0.014181 0.961398
vn 0.025443 0.991965 0.123925
vn 0.025077 0.996706 0.077125
vn 0.038050 0.981945 0.185300
vn 0.001123 0.990170 0.139866
vn 0.025443 0.991965 0.123925
vn -0.005252 0.999942 -0.009419
vn 0.004626 0.999931 -0.010815
vn 0.015922 0.999821 -0.010220
vn 0.035249 0.999379 0.000429
vn 0.015922 0.999821 -0.010220
vn 0.021730 0.999695 -0.011721
vn -0.026058 0.999403 -0.022708
vn 0.035249 0.999379 0.000429
vn 0.021730 0.999695 -0.011721
vn -0.040174 0.998904 -0.024001
vn -0.036509 0.999279 -0.010409
vn -0.040174 0.998904 -0.024001
vn 0.000000 1.000000 0.000000
vn -0.000000 1.000000 0.000000
vn 0.999382 -0.015392 -0.031607
vn 0.999325 -0.027847 -0.023973
vn 0.999578 -0.023095 -0.017620
vn 0.998383 -0.046119 0.033225
vn 0.989118 -0.054405 -0.136697
vn 0.959522 -0.064542 -0.274138
vn 0.999325 -0.027847 -0.023973
vn 0.989118 -0.054405 -0.136697
vn 0.842999 -0.043447 -0.536158
vn 0.764081 -0.025980 -0.644597
vn 0.959522 -0.064542 -0.274138
vn 0.614392 -0.022956 -0.788667
vn 0.518585 -0.015118 -0.854892
vn 0.764081 -0.025980 -0.644597
vn 0.296627 -0.006653 -0.954970
vn 0.150603 -0.000000 -0.988594
vn 0.518585 -0.015118 -0.854892
vn 0.023620 -0.000000 -0.999721
vn 0.023620 0.000000 -0.999721
vn -0.995265 -0.000000 0.097197
vn -0.991050 0.000000 0.133490
vn -0.998149 -0.000000 0.060823
vn -0.998149 -0.000001 0.060823
vn -0.995265 -0.000000 0.097197
vn -0.970568 0.000000 0.240827
vn -0.949463 0.009712 0.313729
vn -0.991050 0.000000 0.133490
vn -0.858267 0.017730 0.512897
vn -0.771806 0.026195 0.635319
vn -0.949463 0.009712 0.313729
vn -0.602154 0.022654 0.798059
vn -0.527250 0.014894 0.849580
vn -0.326099 0.006592 0.945313
vn -0.196738 -0.000001 0.980456
vn -0.064742 -0.000001 0.997902
vn -0.064742 -0.000002 0.997902
vn -0.196738 -0.000001 0.980456
vn 0.999132 -0.000000 -0.041648
vn 0.996600 0.000001 -0.082393
vn 1.000000 -0.000001 -0.000901
vn 1.000000 -0.000003 -0.000901
vn 0.999132 -0.000000 -0.041648
vn 0.962715 -0.007257 -0.270419
vn 0.963466 -0.000001 -0.267830
vn 0.817422 -0.019780 -0.575699
vn 0.962715 -0.007257 -0.270419
vn 0.815609 -0.026620 -0.577990
vn 0.588892 -0.017418 -0.808024
vn 0.587357 -0.022915 -0.809003
vn 0.260946 -0.005132 -0.965340
vn 0.262898 -0.000003 -0.964824
vn 0.036454 -0.000001 -0.999335
vn 0.036453 -0.000001 -0.999335
vn 0.017959 0.991576 0.128275
vn 0.017905 0.998136 0.058345
vn 0.008976 0.997896 0.064216
vn 0.000139 0.990162 0.139925
vn -0.004302 0.999805 -0.019252
vn -0.007721 0.999869 -0.014243
vn 0.008976 0.997896 0.064216
vn 0.012985 0.999725 -0.019512
vn -0.004302 0.999805 -0.019252
vn 0.015459 0.999587 -0.024216
vn 0.012985 0.999725 -0.019512
vn 0.011340 0.999873 -0.011153
vn 0.012603 0.999708 -0.020632
vn -0.005925 0.999924 -0.010846
vn -0.006247 0.999979 -0.001678
vn -0.005925 0.999924 -0.010846
vn -0.000000 1.000000 -0.000000
vn 0.000000 1.000000 -0.000001
vn -0.005925 0.999924 -0.010846
vn 0.026722 0.989683 0.140761
vn 0.052884 0.984802 0.165433
vn 0.053025 0.958791 0.279121
vn 0.001563 0.973001 0.230796
vn 0.011741 0.999916 0.005429
vn 0.001968 0.999992 0.003575
vn 0.026722 0.989683 0.140761
vn 0.032997 0.999406 0.009932
vn 0.011741 0.999916 0.005429
vn 0.042767 0.998983 0.014297
vn -0.053522 0.997965 -0.034663
vn -0.016260 0.998873 -0.044603
vn 0.032997 0.999406 0.009932
vn -0.074742 0.996439 -0.039039
vn -0.112072 0.993200 -0.031510
vn -0.053522 0.997965 -0.034663
vn 0.000000 1.000000 -0.000000
vn -0.074742 0.996439 -0.039039
vn 0.000000 1.000000 -0.000000
vt 0.749983 0.998360
vt 0.749977 0.900000
vt 0.874932 0.900000
vt 0.874918 0.998360
vt 0.625002 0.998360
vt 0.624992 0.900000
vt 0.500004 0.900000
vt 0.500013 0.998360
vt 0.375014 0.998360
vt 0.375014 0.900000
vt 0.250026 0.900000
vt 0.250022 0.998360
vt 0.125045 0.998360
vt 0.125045 0.900000
vt 0.749972 0.749993
vt 0.749967 0.550006
vt 0.874966 0.549995
vt 0.874945 0.750008
vt 0.624987 0.749982
vt 0.624981 0.550013
vt 0.499995 0.749977
vt 0.499992 0.550016
vt 0.375015 0.749982
vt 0.375015 0.550014
vt 0.250028 0.749992
vt 0.250032 0.550007
vt 0.125045 0.750004
vt 0.125045 0.549998
vt 0.749962 0.400000
vt 0.749957 0.300000
vt 0.874992 0.300000
vt 0.874979 0.400000
vt 0.624976 0.400000
vt 0.624969 0.300000
vt 0.499987 0.400000
vt 0.499997 0.300000
vt 0.375016 0.400000
vt 0.375017 0.300000
vt 0.250035 0.400000
vt 0.250038 0.300000
vt 0.125046 0.400000
vt 0.125046 0.300000
vt 0.749974 0.800000
vt 0.874941 0.800000
vt 0.624990 0.800000
vt 0.499998 0.800000
vt 0.375015 0.800000
vt 0.250027 0.800000
vt 0.125045 0.800000
vt 0.749965 0.499914
vt 0.874970 0.500071
vt 0.624978 0.499811
vt 0.499990 0.499763
vt 0.375016 0.499800
vt 0.250033 0.499897
vt 0.125045 0.500030
f 1/1/1 2/2/2 3/3/3
f 4/4/4 1/1/1 3/3/3
f 2/2/2 1/1/5 5/5/6
f 6/6/7 2/2/2 5/5/6
f 6/6/7 5/5/6 7/7/8
f 5/5/6 8/8/9 7/7/8
f 7/7/10 8/8/9 9/9/11
f 10/10/12 7/7/13 9/9/11
f 10/10/12 9/9/11 11/11/14
f 9/9/15 12/12/16 11/11/14
f 11/11/14 12/12/16 13/13/17
f 14/14/18 11/11/19 13/13/17
f 15/15/20 16/16/21 17/17/22
f 18/18/23 15/15/20 17/17/22
f 15/15/24 19/19/25 16/16/21
f 19/19/25 20/20/26 16/16/21
f 19/19/25 21/21/27 20/20/26
f 21/21/27 22/22/28 20/20/26
f 21/21/29 23/23/30 22/22/28
f 23/23/30 24/24/31 22/22/32
f 23/23/33 25/25/34 24/24/31
f 25/25/34 26/26/35 24/24/31
f 25/25/36 27/27/37 26/26/35
f 27/27/37 28/28/38 26/26/35
f 29/29/39 30/30/40 31/31/41
f 32/32/42 29/29/39 31/31/41
f 29/29/39 33/33/43 30/30/40
f 33/33/43 34/34/44 30/30/45
f 33/33/46 35/35/47 34/34/44
f 35/35/47 36/36/48 34/34/49
f 35/35/47 37/37/50 36/36/48
f 37/37/50 38/38/51 36/36/52
f 37/37/50 39/39/53 38/38/51
f 39/39/53 40/40/54 38/38/55
f 39/39/53 41/41/56 40/40/54
f 41/41/56 42/42/57 40/40/54
f 43/43/58 44/15/59 45/18/60
f 46/44/61 43/43/58 45/18/60
f 43/43/62 47/45/63 44/15/59
f 47/45/63 48/19/64 44/15/65
f 47/45/63 49/46/66 48/19/64
f 49/46/66 50/21/67 48/19/68
f 49/46/66 51/47/69 50/21/67
f 51/47/69 52/23/70 50/21/67
f 51/47/69 53/48/71 52/23/70
f 53/48/71 54/25/72 52/23/70
f 53/48/71 55/49/73 54/25/72
f 55/49/73 56/27/74 54/25/75
f 57/16/76 58/50/77 59/51/78
f 60/17/79 57/16/76 59/51/78
f 58/50/77 57/16/80 61/20/81
f 62/52/82 58/50/77 61/20/81
f 62/52/82 61/20/81 63/53/83
f 61/20/84 64/22/85 63/53/83
f 63/53/83 64/22/85 65/24/86
f 66/54/87 63/53/83 65/24/86
f 66/54/87 65/24/86 67/55/88
f 65/24/86 68/26/89 67/55/88
f 67/55/88 68/26/89 69/28/90
f 70/56/91 67/55/88 69/28/90
f 71/3/92 72/2/93 73/43/94
f 74/44/95 71/3/92 73/43/94
f 73/43/94 72/2/93 75/6/96
f 76/45/97 73/43/98 75/6/96
f 76/45/97 75/6/96 77/46/99
f 75/6/100 78/7/101 77/46/99
f 77/46/102 78/7/101 79/10/103
f 80/47/104 77/46/99 79/10/103
f 80/47/104 79/10/103 81/48/105
f 79/10/103 82/11/106 81/48/105
f 81/48/107 82/11/106 83/14/108
f 84/49/109 81/48/110 83/14/108
f 85/50/111 86/29/112 87/32/113
f 88/51/114 85/50/111 87/32/113
f 89/33/115 86/29/112 85/50/111
f 90/52/116 89/33/115 85/50/117
f 90/52/116 91/53/118 89/33/119
f 91/53/118 92/35/120 89/33/119
f 93/37/121 92/35/120 91/53/118
f 94/54/122 93/37/121 91/53/123
f 94/54/122 95/55/124 93/37/121
f 95/55/124 96/39/125 93/37/126
f 97/41/127 96/39/125 95/55/128
f 98/56/129 97/41/127 95/55/128
