#
#
#

mtllib Path_120-13.mtl


#
# Path_120_0 메시
#
g Path_120_0 메시

v -0.083298 -0.113882 -0.301021
v -0.083298 0.064713 -0.301021
v 0.011363 0.064713 -0.055155
v 0.011363 -0.113882 -0.055155
v 0.013875 0.115715 -0.331913
v 0.234322 0.115715 -0.405072
v 0.097005 0.115715 -0.110844
v 0.299131 0.115715 -0.242009
v 0.331528 0.064713 -0.436645
v 0.331528 -0.113882 -0.436645
v 0.385129 0.064713 -0.297941
v 0.385129 -0.113882 -0.297941
v 0.013875 0.064713 -0.331913
v 0.013875 0.115715 -0.331913
v 0.097005 0.064713 -0.110844
v 0.097005 0.115715 -0.110844
v 0.234322 0.115715 -0.405072
v 0.234322 0.064713 -0.405072
v 0.299131 0.064713 -0.242009
v 0.299131 0.115715 -0.242009
v -0.083298 0.064713 -0.301021
v 0.013875 0.064713 -0.331913
v 0.097005 0.064713 -0.110844
v 0.011363 0.064713 -0.055155
v 0.331528 0.064713 -0.436645
v 0.234322 0.064713 -0.405072
v 0.299131 0.064713 -0.242009
v 0.385129 0.064713 -0.297941
vn -0.933222 0.000000 0.359301
vn -0.933222 0.000000 0.359301
vn -0.933222 0.000000 0.359301
vn 0.000000 1.000000 0.000000
vn 0.000000 1.000000 -0.000000
vn 0.000000 1.000000 -0.000000
vn 0.932774 0.000000 -0.360463
vn 0.932774 0.000000 -0.360463
vn 0.932774 0.000000 -0.360463
vn -0.936011 0.000000 0.351971
vn -0.936011 0.000000 0.351971
vn 0.929293 0.000000 -0.369344
vn 0.929293 0.000000 -0.369344
vn 0.000000 1.000000 0.000000
vt 0.624992 0.900000
vt 0.625002 0.998360
vt 0.500004 0.900000
vt 0.500013 0.998360
vt 0.624987 0.749982
vt 0.499995 0.749977
vt 0.624981 0.550013
vt 0.499992 0.550016
vt 0.624976 0.400000
vt 0.499987 0.400000
vt 0.624969 0.300000
vt 0.499997 0.300000
vt 0.624990 0.800000
vt 0.499998 0.800000
vt 0.624978 0.499811
vt 0.499990 0.499763
f 2/1/1 1/2/2 3/3/2
f 1/2/2 4/4/3 3/3/2
f 5/5/4 7/6/5 6/7/5
f 7/6/5 8/8/6 6/7/5
f 9/9/7 11/10/8 10/11/8
f 11/10/8 12/12/9 10/11/8
f 13/13/10 15/14/10 14/5/10
f 15/14/10 16/6/11 14/5/10
f 18/15/12 17/7/13 19/16/13
f 17/7/13 20/8/13 19/16/13
f 22/13/14 21/1/14 23/14/14
f 21/1/14 24/3/14 23/14/14
f 26/15/14 27/16/14 25/9/14
f 27/16/14 28/10/14 25/9/14
