#
#
#

mtllib Path_120.mtl


#
# Path_120_0 메시
#
g Path_120_0 메시

v -0.240358 -0.128299 -0.269394
v -0.250904 0.049985 -0.269394
v -0.295959 0.047319 -0.509710
v -0.285413 -0.130964 -0.509710
v -0.063650 -0.117846 -0.020519
v -0.074196 0.060437 -0.020519
v 0.131271 0.072591 0.176611
v 0.141817 -0.105692 0.176611
v 0.351625 -0.093281 0.316230
v 0.341079 0.085002 0.316230
v 0.584745 0.099416 0.468788
v 0.592977 -0.079004 0.463735
v 0.843316 -0.064196 0.542242
v 0.832770 0.114087 0.542242
v 1.104501 0.130161 0.606379
v 1.115047 -0.048122 0.606379
v -0.327811 -0.133472 -0.755072
v -0.338357 0.044811 -0.755072
v -0.154692 0.106766 -0.298857
v 0.061794 0.119572 -0.367107
v 0.024549 0.117369 -0.564890
v -0.198208 0.104192 -0.526394
v 0.004193 0.116165 -0.081740
v 0.187841 0.127028 -0.223529
v 0.195210 0.127464 0.099554
v 0.353293 0.136815 -0.082054
v 0.393822 0.139213 0.230914
v 0.523245 0.146868 0.038349
v 0.616656 0.152394 0.371193
v 0.696439 0.157113 0.158538
v 0.851807 0.166304 0.442417
v 0.901974 0.169271 0.221754
v 1.110662 0.181616 0.504324
v 1.131212 0.182831 0.275653
v -0.239070 0.101775 -0.758978
v -0.010037 0.115323 -0.767720
v 0.163577 0.074502 -0.397692
v 0.174123 -0.103781 -0.397692
v 0.138646 -0.105879 -0.582135
v 0.128100 0.072404 -0.582135
v 0.272059 0.080919 -0.285404
v 0.282605 -0.097364 -0.285404
v 0.423530 0.089879 -0.159443
v 0.434076 -0.088404 -0.159443
v 0.582666 0.099293 -0.046823
v 0.593212 -0.078990 -0.046823
v 0.735468 0.108331 0.061456
v 0.746014 -0.069952 0.061456
v 0.927580 0.119695 0.122183
v 0.938126 -0.058588 0.122183
v 1.143396 0.132462 0.173595
v 1.153942 -0.045822 0.173595
v 0.095280 0.070462 -0.771627
v 0.105826 -0.107821 -0.771627
v -0.151680 0.055854 -0.298857
v -0.154692 0.106766 -0.298857
v -0.198208 0.104192 -0.526394
v -0.195196 0.053280 -0.526394
v 0.007204 0.065252 -0.081740
v 0.004193 0.116165 -0.081740
v 0.198221 0.076552 0.099554
v 0.195210 0.127464 0.099554
v 0.396834 0.088300 0.230914
v 0.393822 0.139213 0.230914
v 0.616445 0.101291 0.338855
v 0.616656 0.152394 0.371193
v 0.854818 0.115391 0.442417
v 0.851807 0.166304 0.442417
v 1.113673 0.130703 0.504324
v 1.110662 0.181616 0.504324
v -0.236059 0.050863 -0.758978
v -0.239070 0.101775 -0.758978
v 0.061794 0.119572 -0.367107
v 0.064805 0.068660 -0.367107
v 0.027560 0.066457 -0.564890
v 0.024549 0.117369 -0.564890
v 0.187841 0.127028 -0.223529
v 0.190853 0.076116 -0.223529
v 0.356305 0.085903 -0.082054
v 0.353293 0.136815 -0.082054
v 0.523245 0.146868 0.038349
v 0.526257 0.095956 0.038349
v 0.699451 0.106201 0.158538
v 0.696439 0.157113 0.158538
v 0.901974 0.169271 0.221754
v 0.904986 0.118359 0.221753
v 1.134224 0.131919 0.275653
v 1.131212 0.182831 0.275653
v -0.010037 0.115323 -0.767720
v -0.007026 0.064411 -0.767720
v -0.295959 0.047319 -0.509710
v -0.250904 0.049985 -0.269394
v -0.151680 0.055854 -0.298857
v -0.195196 0.053280 -0.526394
v -0.074196 0.060437 -0.020519
v 0.007204 0.065252 -0.081740
v 0.198221 0.076552 0.099554
v 0.131271 0.072591 0.176611
v 0.341079 0.085002 0.316230
v 0.396834 0.088300 0.230914
v 0.619667 0.101481 0.371193
v 0.584744 0.099416 0.468788
v 0.832770 0.114087 0.542242
v 0.854818 0.115391 0.442417
v 1.113673 0.130703 0.504324
v 1.104501 0.130161 0.606379
v -0.236059 0.050863 -0.758978
v -0.338357 0.044811 -0.755072
v 0.064805 0.068660 -0.367107
v 0.163577 0.074502 -0.397692
v 0.128100 0.072404 -0.582135
v 0.027560 0.066457 -0.564890
v 0.272059 0.080919 -0.285404
v 0.190853 0.076116 -0.223529
v 0.356305 0.085903 -0.082054
v 0.423530 0.089879 -0.159443
v 0.582666 0.099293 -0.046823
v 0.526257 0.095956 0.038349
v 0.699451 0.106201 0.158538
v 0.735468 0.108331 0.061456
v 0.927580 0.119695 0.122183
v 0.904986 0.118359 0.221753
v 1.134224 0.131919 0.275653
v 1.143396 0.132462 0.173595
v -0.007026 0.064411 -0.767720
v 0.095280 0.070462 -0.771627
vn -0.944769 -0.055886 0.322938
vn -0.887712 -0.052511 0.457395
vn -0.982390 -0.058111 0.177577
vn -0.755336 -0.044680 0.653813
vn -0.755336 -0.044680 0.653813
vn -0.623879 -0.036904 0.780649
vn -0.538249 -0.036195 0.842009
vn -0.540775 -0.031988 0.840559
vn -0.410356 -0.034504 0.911273
vn -0.538249 -0.036195 0.842008
vn -0.410862 -0.044746 0.910599
vn -0.410356 -0.034504 0.911273
vn -0.259570 -0.021148 0.965493
vn -0.256076 -0.015149 0.966538
vn -0.259570 -0.021148 0.965493
vn -0.228939 -0.013543 0.973347
vn -0.228939 -0.013543 0.973347
vn -0.983627 -0.058184 0.170563
vn -0.983628 -0.058184 0.170563
vn -0.059050 0.998255 -0.000000
vn -0.059050 0.998255 -0.000000
vn -0.059050 0.998255 0.000000
vn -0.059050 0.998255 0.000000
vn -0.059050 0.998255 -0.000000
vn -0.059050 0.998255 -0.000000
vn -0.059050 0.998255 -0.000000
vn -0.059050 0.998255 0.000000
vn -0.059050 0.998255 0.000000
vn -0.059050 0.998255 -0.000000
vn -0.059050 0.998255 0.000000
vn -0.059050 0.998255 0.000000
vn -0.059050 0.998255 -0.000000
vn -0.059050 0.998255 -0.000000
vn -0.059050 0.998255 -0.000000
vn -0.059050 0.998255 -0.000000
vn -0.059050 0.998255 -0.000000
vn 0.926754 0.054820 -0.371648
vn 0.835769 0.049438 -0.546852
vn 0.981935 0.058084 -0.180084
vn 0.691670 0.040914 -0.721054
vn 0.665063 0.039340 -0.745750
vn 0.617490 0.036526 -0.785731
vn 0.596935 0.035310 -0.801512
vn 0.576160 0.034082 -0.816626
vn 0.576327 0.034091 -0.816508
vn 0.576160 0.034082 -0.816626
vn 0.489677 0.028966 -0.871423
vn 0.396655 0.023463 -0.917668
vn 0.576327 0.034091 -0.816508
vn 0.277410 0.016410 -0.960611
vn 0.254248 0.015040 -0.967022
vn 0.230952 0.013662 -0.972869
vn 0.230951 0.013662 -0.972869
vn 0.983560 0.058180 -0.170951
vn 0.983560 0.058180 -0.170951
vn -0.942447 -0.055749 0.329675
vn -0.882708 -0.052215 0.467013
vn -0.981813 -0.058077 0.180751
vn -0.942447 -0.055749 0.329675
vn -0.768347 -0.045450 0.638418
vn -0.728696 -0.043105 0.683479
vn -0.643239 -0.038049 0.764720
vn -0.597565 -0.035348 0.801041
vn -0.514178 -0.030415 0.857144
vn -0.491767 -0.183107 0.851256
vn -0.514178 -0.030415 0.857144
vn -0.413589 -0.345939 0.842182
vn -0.363229 -0.344166 0.865803
vn -0.288592 -0.184618 0.939484
vn -0.250941 -0.014844 0.967889
vn -0.363229 -0.344166 0.865803
vn -0.288592 -0.184618 0.939484
vn -0.231807 -0.013712 0.972665
vn -0.231807 -0.013712 0.972665
vn -0.981813 -0.058077 0.180750
vn -0.983145 -0.058156 0.173330
vn -0.981813 -0.058077 0.180750
vn -0.983145 -0.058156 0.173330
vn 0.933272 0.055206 -0.354903
vn 0.853646 0.050496 -0.518399
vn 0.982515 0.058119 -0.176881
vn 0.982515 0.058119 -0.176881
vn 0.933272 0.055206 -0.354903
vn 0.700642 0.041445 -0.712308
vn 0.700642 0.041445 -0.712308
vn 0.612886 0.036254 -0.789339
vn 0.572439 0.033861 -0.819248
vn 0.572438 0.033861 -0.819248
vn 0.435883 0.025785 -0.899634
vn 0.435884 0.025784 -0.899634
vn 0.260697 0.015420 -0.965298
vn 0.260697 0.015424 -0.965297
vn 0.260697 0.015420 -0.965297
vn 0.228105 0.013490 -0.973543
vn 0.228104 0.013484 -0.973543
vn 0.982515 0.058119 -0.176881
vn 0.984002 0.058207 -0.168378
vn 0.982515 0.058119 -0.176881
vn 0.984003 0.058207 -0.168378
vn -0.059050 0.998255 0.000000
vn -0.059050 0.998255 0.000000
vn -0.059050 0.998255 0.000000
vn -0.059050 0.998255 -0.000000
vn -0.059050 0.998255 0.000000
vn -0.059050 0.998255 0.000000
vn -0.059050 0.998255 0.000000
vn -0.059050 0.998255 0.000000
vn -0.059050 0.998255 0.000000
vn -0.059050 0.998255 -0.000000
vn -0.059050 0.998255 -0.000000
vn -0.059050 0.998255 -0.000000
vn -0.059050 0.998255 -0.000000
vn -0.059050 0.998255 -0.000000
vn -0.059050 0.998255 0.000000
vn -0.059050 0.998255 0.000000
vn -0.059050 0.998255 0.000000
vn -0.059050 0.998255 0.000000
vn -0.059050 0.998255 0.000000
vn -0.059050 0.998255 0.000000
vn -0.059050 0.998255 0.000000
vn -0.059050 0.998255 0.000000
vn -0.059050 0.998255 0.000000
vn -0.059050 0.998255 0.000000
vn -0.059050 0.998255 0.000000
vn -0.059050 0.998255 -0.000000
vn -0.059050 0.998255 -0.000000
vn -0.059050 0.998255 0.000000
vn -0.059050 0.998255 -0.000000
vn -0.059050 0.998255 0.000000
vn -0.059050 0.998255 0.000000
vn -0.059050 0.998255 0.000000
vt 0.749983 0.998360
vt 0.749977 0.900000
vt 0.874932 0.900000
vt 0.874918 0.998360
vt 0.625002 0.998360
vt 0.624992 0.900000
vt 0.500004 0.900000
vt 0.500013 0.998360
vt 0.375014 0.998360
vt 0.375014 0.900000
vt 0.250026 0.900000
vt 0.250022 0.998360
vt 0.125045 0.998360
vt 0.125045 0.900000
vt 0.000060 0.900000
vt 0.000060 0.998360
vt 0.999941 0.998360
vt 0.999940 0.900000
vt 0.749972 0.749993
vt 0.749967 0.550006
vt 0.874966 0.549995
vt 0.874945 0.750008
vt 0.624987 0.749982
vt 0.624981 0.550013
vt 0.499995 0.749977
vt 0.499992 0.550016
vt 0.375015 0.749982
vt 0.375015 0.550014
vt 0.250028 0.749992
vt 0.250032 0.550007
vt 0.125045 0.750004
vt 0.125045 0.549998
vt 0.000060 0.750020
vt 0.000061 0.549986
vt 0.999940 0.750023
vt 0.999940 0.549984
vt 0.749962 0.400000
vt 0.749957 0.300000
vt 0.874992 0.300000
vt 0.874979 0.400000
vt 0.624976 0.400000
vt 0.624969 0.300000
vt 0.499987 0.400000
vt 0.499997 0.300000
vt 0.375016 0.400000
vt 0.375017 0.300000
vt 0.250035 0.400000
vt 0.250038 0.300000
vt 0.125046 0.400000
vt 0.125046 0.300000
vt 0.000061 0.400000
vt 0.000061 0.300000
vt 0.999940 0.400000
vt 0.999940 0.300000
vt 0.749974 0.800000
vt 0.874941 0.800000
vt 0.624990 0.800000
vt 0.499998 0.800000
vt 0.375015 0.800000
vt 0.250027 0.800000
vt 0.125045 0.800000
vt 0.000060 0.800000
vt 0.999940 0.800000
vt 0.749965 0.499914
vt 0.874970 0.500071
vt 0.624978 0.499811
vt 0.499990 0.499763
vt 0.375016 0.499800
vt 0.250033 0.499897
vt 0.125045 0.500030
vt 0.000061 0.500205
vt 0.999940 0.500237
f 1/1/1 2/2/2 3/3/3
f 4/4/3 1/1/1 3/3/3
f 2/2/2 1/1/1 5/5/4
f 6/6/5 2/2/2 5/5/4
f 6/6/5 5/5/4 7/7/6
f 5/5/5 8/8/6 7/7/6
f 7/7/6 8/8/6 9/9/7
f 10/10/8 7/7/6 9/9/7
f 10/10/8 9/9/7 11/11/9
f 9/9/10 12/12/11 11/11/9
f 11/11/12 12/12/11 13/13/13
f 14/14/14 11/11/12 13/13/13
f 14/14/14 13/13/15 15/15/16
f 13/13/13 16/16/17 15/15/16
f 4/4/3 3/3/3 17/17/18
f 3/3/3 18/18/19 17/17/18
f 19/19/20 20/20/21 21/21/22
f 22/22/23 19/19/20 21/21/22
f 19/19/20 23/23/24 20/20/21
f 23/23/24 24/24/25 20/20/21
f 23/23/26 25/25/27 24/24/25
f 25/25/27 26/26/28 24/24/29
f 25/25/27 27/27/30 26/26/28
f 27/27/30 28/28/31 26/26/28
f 27/27/30 29/29/32 28/28/31
f 29/29/32 30/30/32 28/28/31
f 29/29/32 31/31/33 30/30/32
f 31/31/33 32/32/34 30/30/32
f 31/31/33 33/33/35 32/32/34
f 33/33/35 34/34/36 32/32/34
f 22/22/23 21/21/22 35/35/23
f 21/21/22 36/36/31 35/35/23
f 37/37/37 38/38/38 39/39/39
f 40/40/39 37/37/37 39/39/39
f 37/37/37 41/41/40 38/38/38
f 41/41/40 42/42/41 38/38/38
f 41/41/40 43/43/42 42/42/41
f 43/43/42 44/44/43 42/42/41
f 43/43/42 45/45/44 44/44/43
f 45/45/44 46/46/45 44/44/43
f 45/45/46 47/47/47 46/46/45
f 47/47/47 48/48/48 46/46/49
f 47/47/47 49/49/50 48/48/48
f 49/49/50 50/50/51 48/48/48
f 49/49/50 51/51/52 50/50/51
f 51/51/52 52/52/53 50/50/51
f 40/40/39 39/39/39 53/53/54
f 39/39/39 54/54/55 53/53/54
f 55/55/56 56/19/57 57/22/58
f 58/56/58 55/55/56 57/22/58
f 55/55/59 59/57/60 56/19/57
f 59/57/60 60/23/61 56/19/57
f 59/57/60 61/58/62 60/23/61
f 61/58/62 62/25/63 60/23/61
f 61/58/62 63/59/64 62/25/63
f 63/59/64 64/27/65 62/25/63
f 63/59/66 65/60/67 64/27/65
f 65/60/67 66/29/68 64/27/65
f 65/60/67 67/61/69 66/29/68
f 67/61/69 68/31/70 66/29/71
f 67/61/72 69/62/73 68/31/70
f 69/62/73 70/33/74 68/31/70
f 58/56/58 57/22/75 71/63/76
f 57/22/77 72/35/78 71/63/76
f 73/20/79 74/64/80 75/65/81
f 76/21/82 73/20/79 75/65/81
f 74/64/80 73/20/83 77/24/84
f 78/66/85 74/64/80 77/24/84
f 78/66/85 77/24/84 79/67/86
f 77/24/84 80/26/86 79/67/86
f 79/67/86 80/26/86 81/28/87
f 82/68/88 79/67/86 81/28/87
f 82/68/88 81/28/87 83/69/89
f 81/28/87 84/30/90 83/69/89
f 83/69/89 84/30/90 85/32/91
f 86/70/92 83/69/89 85/32/91
f 86/70/92 85/32/93 87/71/94
f 85/32/91 88/34/95 87/71/94
f 76/21/82 75/65/96 89/36/97
f 75/65/98 90/72/99 89/36/97
f 91/3/100 92/2/101 93/55/102
f 94/56/103 91/3/100 93/55/102
f 93/55/102 92/2/101 95/6/104
f 96/57/105 93/55/106 95/6/104
f 96/57/105 95/6/104 97/58/107
f 95/6/104 98/7/108 97/58/107
f 97/58/107 98/7/108 99/10/31
f 100/59/31 97/58/107 99/10/31
f 100/59/31 99/10/31 101/60/109
f 99/10/31 102/11/110 101/60/109
f 101/60/109 102/11/110 103/14/111
f 104/61/112 101/60/109 103/14/111
f 104/61/112 103/14/111 105/62/113
f 103/14/111 106/15/114 105/62/113
f 94/56/103 107/63/115 91/3/100
f 107/63/115 108/18/116 91/3/100
f 109/64/117 110/37/31 111/40/118
f 112/65/119 109/64/117 111/40/118
f 113/41/120 110/37/31 109/64/117
f 114/66/121 113/41/120 109/64/117
f 114/66/121 115/67/122 113/41/120
f 115/67/122 116/43/123 113/41/120
f 117/45/124 116/43/123 115/67/122
f 118/68/125 117/45/124 115/67/122
f 118/68/125 119/69/126 117/45/124
f 119/69/126 120/47/31 117/45/124
f 121/49/127 120/47/31 119/69/126
f 122/70/128 121/49/127 119/69/126
f 122/70/128 123/71/129 121/49/127
f 123/71/129 124/51/130 121/49/131
f 112/65/119 111/40/118 125/72/119
f 111/40/118 126/53/31 125/72/119
