#
#
#



#
# Path_120_0 메시
#
g Path_120_0 메시

v -0.090576 -0.113882 -0.297955
v -0.090576 0.064713 -0.297955
v 0.006956 0.064713 -0.053768
v 0.006956 -0.113882 -0.053768
v 0.156971 -0.113882 0.149116
v 0.156971 0.064713 0.149116
v 0.004488 0.115715 -0.334830
v 0.219958 0.115715 -0.421557
v 0.096268 0.115715 -0.103358
v 0.307038 0.115715 -0.220129
v 0.238553 0.115715 0.087941
v 0.426065 0.115715 -0.048915
v 0.315012 0.064713 -0.459115
v 0.315012 -0.113882 -0.459115
v 0.396722 0.064713 -0.269937
v 0.396722 -0.113882 -0.269937
v 0.508217 0.064713 -0.109732
v 0.508217 -0.113882 -0.109732
v 0.004488 0.064713 -0.334830
v 0.004488 0.115715 -0.334830
v 0.096268 0.064713 -0.103358
v 0.096268 0.115715 -0.103358
v 0.238553 0.064713 0.087941
v 0.238553 0.115715 0.087941
v 0.219958 0.115715 -0.421557
v 0.219958 0.064713 -0.421557
v 0.307038 0.064713 -0.220129
v 0.307038 0.115715 -0.220129
v 0.426065 0.115715 -0.048915
v 0.426065 0.064713 -0.048915
v -0.090576 0.064713 -0.297955
v 0.004488 0.064713 -0.334830
v 0.096268 0.064713 -0.103358
v 0.006956 0.064713 -0.053768
v 0.156971 0.064713 0.149116
v 0.238553 0.064713 0.087941
v 0.315012 0.064713 -0.459115
v 0.219958 0.064713 -0.421557
v 0.307038 0.064713 -0.220129
v 0.396722 0.064713 -0.269937
v 0.508217 0.064713 -0.109732
v 0.426065 0.064713 -0.048915
vn -0.928663 0.000000 0.370926
vn -0.873551 0.000000 0.486733
vn -0.804071 0.000000 0.594534
vn 0.000000 1.000000 0.000000
vn 0.000000 1.000000 0.000000
vn 0.000000 1.000000 0.000000
vn 0.000000 1.000000 0.000000
vn 0.000000 1.000000 -0.000000
vn 0.918028 0.000000 -0.396515
vn 0.889576 0.000000 -0.456786
vn 0.918028 0.000000 -0.396515
vn 0.857019 0.000000 -0.515284
vn 0.889576 0.000000 -0.456786
vn 0.820791 0.000000 -0.571228
vn 0.820791 0.000000 -0.571228
vn -0.929593 0.000000 0.368588
vn -0.893998 0.000000 0.448072
vn -0.929593 0.000000 0.368588
vn -0.851270 0.000000 0.524727
vn -0.893998 0.000000 0.448072
vn -0.802387 0.000000 0.596804
vn -0.802387 0.000000 0.596804
vn 0.917898 0.000000 -0.396817
vn 0.917898 0.000000 -0.396817
vn 0.873831 0.000000 -0.486230
vn 0.873831 0.000000 -0.486230
vn 0.821081 0.000000 -0.570812
vn 0.821081 0.000000 -0.570812
vn 0.000000 1.000000 -0.000000
vn 0.000000 1.000000 0.000000
vn 0.000000 1.000000 0.000000
vn 0.000000 1.000000 0.000000
vn 0.000000 1.000000 0.000000
vn 0.000000 1.000000 -0.000000
vn 0.000000 1.000000 0.000000
vn 0.000000 1.000000 0.000000
vn 0.000000 1.000000 0.000000
vt 0.624992 0.900000
vt 0.625002 0.998360
vt 0.500004 0.900000
vt 0.500013 0.998360
vt 0.375014 0.998360
vt 0.375014 0.900000
vt 0.624987 0.749982
vt 0.499995 0.749977
vt 0.624981 0.550013
vt 0.499992 0.550016
vt 0.375015 0.749982
vt 0.375015 0.550014
vt 0.624976 0.400000
vt 0.499987 0.400000
vt 0.624969 0.300000
vt 0.499997 0.300000
vt 0.375016 0.400000
vt 0.375017 0.300000
vt 0.624990 0.800000
vt 0.499998 0.800000
vt 0.375015 0.800000
vt 0.624978 0.499811
vt 0.499990 0.499763
vt 0.375016 0.499800
f 2/1/1 1/2/1 3/3/2
f 1/2/1 4/4/2 3/3/2
f 3/3/2 4/4/2 5/5/3
f 6/6/3 3/3/2 5/5/3
f 7/7/4 9/8/5 8/9/4
f 9/8/5 10/10/6 8/9/4
f 9/8/5 11/11/7 10/10/6
f 11/11/7 12/12/8 10/10/6
f 13/13/9 15/14/10 14/15/11
f 15/14/10 16/16/12 14/15/11
f 15/14/13 17/17/14 16/16/12
f 17/17/14 18/18/15 16/16/12
f 19/19/16 21/20/17 20/7/18
f 21/20/17 22/8/19 20/7/18
f 21/20/20 23/21/21 22/8/19
f 23/21/21 24/11/22 22/8/19
f 26/22/23 25/9/24 27/23/25
f 25/9/24 28/10/26 27/23/25
f 27/23/25 28/10/26 29/12/27
f 30/24/28 27/23/25 29/12/27
f 32/19/29 31/1/30 33/20/31
f 31/1/30 34/3/32 33/20/31
f 33/20/31 34/3/32 35/6/33
f 36/21/34 33/20/35 35/6/33
f 38/22/4 39/23/36 37/13/37
f 39/23/36 40/14/37 37/13/37
f 41/17/4 40/14/37 39/23/36
f 42/24/4 41/17/4 39/23/36
