#
#
#

mtllib Path_120-8.mtl


#
# Path_120_0 메시
#
g Path_120_0 메시

v -0.855562 -0.113882 0.339104
v -0.855562 0.064713 0.339104
v -0.868877 0.064713 0.147824
v -0.875480 -0.113882 0.071927
v -0.814787 -0.113863 0.512232
v -0.817171 0.064732 0.525389
v -0.748486 0.072725 0.687827
v -0.733852 -0.105790 0.684955
v -0.604737 -0.110601 0.811833
v -0.601183 0.067914 0.824757
v -0.388107 0.070940 0.933263
v -0.388107 -0.107655 0.933263
v -0.163562 -0.107655 0.948194
v -0.163562 0.070940 0.948194
v -0.001366 0.070940 0.958674
v -0.001366 -0.107655 0.958674
v -0.870675 -0.113882 0.002191
v -0.870675 0.064713 0.002191
v -0.756451 0.115715 0.308689
v -0.540252 0.115715 0.238363
v -0.540467 0.115715 0.132878
v -0.766653 0.115715 0.143669
v -0.727529 0.115734 0.476795
v -0.524747 0.115733 0.363534
v -0.663688 0.120984 0.628521
v -0.467110 0.114566 0.489326
v -0.535287 0.116450 0.745375
v -0.386335 0.110835 0.567409
v -0.361207 0.121942 0.833136
v -0.298917 0.121942 0.614666
v -0.163634 0.121942 0.845954
v -0.162396 0.121942 0.619646
v -0.001190 0.121942 0.856205
v -0.000793 0.121942 0.626611
v -0.768121 0.115715 0.002204
v -0.538524 0.115715 0.002231
v -0.441606 0.064713 0.206829
v -0.441606 -0.113882 0.206829
v -0.438397 -0.113882 0.128137
v -0.438397 0.064713 0.128137
v -0.435200 0.064732 0.314265
v -0.435200 -0.113863 0.314265
v -0.384988 0.060857 0.430193
v -0.390283 -0.117658 0.430947
v -0.322765 0.057397 0.488975
v -0.327955 -0.121118 0.490263
v -0.270884 0.070940 0.514961
v -0.270884 -0.107655 0.514961
v -0.161881 0.070940 0.517537
v -0.161881 -0.107655 0.517537
v -0.000618 0.070940 0.524141
v -0.000617 -0.107655 0.524141
v -0.435965 0.064713 0.002243
v -0.435965 -0.113882 0.002243
v -0.756451 0.064713 0.308689
v -0.756451 0.115715 0.308689
v -0.766653 0.115715 0.143669
v -0.766653 0.064713 0.143669
v -0.727529 0.064732 0.476795
v -0.727529 0.115734 0.476795
v -0.665200 0.070006 0.628736
v -0.663688 0.120984 0.628521
v -0.536769 0.065471 0.745743
v -0.535287 0.116450 0.745375
v -0.361207 0.070940 0.833136
v -0.361207 0.121942 0.833136
v -0.163634 0.070940 0.845954
v -0.163634 0.121942 0.845954
v -0.001190 0.070940 0.856205
v -0.001190 0.121942 0.856205
v -0.768121 0.064713 0.002204
v -0.768121 0.115715 0.002204
v -0.540252 0.115715 0.238363
v -0.540252 0.064713 0.238363
v -0.540467 0.064713 0.132878
v -0.540467 0.115715 0.132878
v -0.524747 0.115733 0.363534
v -0.524747 0.064732 0.363534
v -0.468621 0.063588 0.489541
v -0.467110 0.114566 0.489326
v -0.386335 0.110835 0.567409
v -0.387818 0.059857 0.567777
v -0.298917 0.070940 0.614667
v -0.298917 0.121942 0.614666
v -0.162396 0.121942 0.619646
v -0.162397 0.070940 0.619646
v -0.000794 0.070940 0.626611
v -0.000793 0.121942 0.626611
v -0.538524 0.115715 0.002231
v -0.538524 0.064713 0.002231
v -0.868877 0.064713 0.147824
v -0.855562 0.064713 0.339104
v -0.756451 0.064713 0.308689
v -0.766653 0.064713 0.143669
v -0.817171 0.064732 0.525389
v -0.727529 0.064732 0.476795
v -0.665200 0.070006 0.628736
v -0.748486 0.072725 0.687827
v -0.601183 0.067914 0.824757
v -0.536769 0.065471 0.745743
v -0.361207 0.070940 0.833136
v -0.388107 0.070940 0.933263
v -0.163562 0.070940 0.948194
v -0.163634 0.070940 0.845954
v -0.001190 0.070940 0.856205
v -0.001366 0.070940 0.958674
v -0.768121 0.064713 0.002204
v -0.870675 0.064713 0.002191
v -0.540252 0.064713 0.238363
v -0.441606 0.064713 0.206829
v -0.438397 0.064713 0.128137
v -0.540467 0.064713 0.132878
v -0.435200 0.064732 0.314265
v -0.524747 0.064732 0.363534
v -0.468621 0.063588 0.489541
v -0.384988 0.060857 0.430193
v -0.322765 0.057397 0.488975
v -0.387818 0.059857 0.567777
v -0.298917 0.070940 0.614667
v -0.270884 0.070940 0.514961
v -0.161881 0.070940 0.517537
v -0.162397 0.070940 0.619646
v -0.000794 0.070940 0.626611
v -0.000618 0.070940 0.524141
v -0.538524 0.064713 0.002231
v -0.435965 0.064713 0.002243
vn -0.992193 0.001764 0.124697
vn -0.985870 -0.009336 0.167250
vn -0.999600 0.017846 0.021932
vn -0.999357 0.035726 0.002886
vn -0.992193 0.001764 0.124697
vn -0.948749 -0.037650 0.313781
vn -0.954006 -0.034673 0.297775
vn -0.815807 -0.058603 0.575347
vn -0.813237 -0.075948 0.576955
vn -0.586495 -0.041322 0.808898
vn -0.572324 -0.047874 0.818629
vn -0.586495 -0.041322 0.808898
vn -0.274793 -0.014181 0.961399
vn -0.586495 -0.041322 0.808898
vn -0.284657 -0.000000 0.958629
vn -0.065415 0.000000 0.997858
vn -0.065415 0.000001 0.997858
vn -0.274793 -0.014181 0.961399
vn -0.064478 0.000000 0.997919
vn -0.065415 0.000000 0.997858
vn -0.064478 0.000000 0.997919
vn -0.999600 0.017846 0.021932
vn -0.999058 0.033024 -0.028159
vn -0.999924 0.000000 0.012349
vn -0.000011 1.000000 -0.000035
vn -0.000038 1.000000 -0.000082
vn 0.000000 1.000000 0.000000
vn 0.000000 1.000000 0.000000
vn -0.000011 1.000000 -0.000035
vn -0.005252 0.999942 -0.009419
vn 0.004626 0.999931 -0.010815
vn -0.000038 1.000000 -0.000082
vn -0.005252 0.999942 -0.009419
vn 0.015922 0.999821 -0.010219
vn 0.035249 0.999379 0.000429
vn 0.015922 0.999821 -0.010219
vn 0.021730 0.999695 -0.011721
vn -0.026058 0.999402 -0.022708
vn 0.035249 0.999379 0.000429
vn -0.040174 0.998904 -0.024001
vn -0.036509 0.999279 -0.010409
vn -0.026058 0.999403 -0.022708
vn 0.000000 1.000000 0.000000
vn -0.000000 1.000000 0.000000
vn 0.000000 1.000000 0.000000
vn -0.000000 1.000000 0.000000
vn -0.000000 1.000000 0.000000
vn 0.000000 1.000000 0.000001
vn 0.000000 1.000000 0.000000
vn -0.000000 1.000000 0.000001
vn 0.999973 0.000000 0.007333
vn 0.999659 0.000000 -0.026124
vn 0.999549 0.000000 0.030031
vn 0.999549 0.000000 0.030031
vn 0.999973 0.000000 0.007333
vn 0.984654 0.000001 -0.174517
vn 0.961203 -0.009846 -0.275667
vn 0.862836 -0.017893 -0.505166
vn 0.786097 -0.026525 -0.617534
vn 0.862836 -0.017893 -0.505166
vn 0.614390 -0.022956 -0.788668
vn 0.518584 -0.015118 -0.854893
vn 0.786097 -0.026525 -0.617534
vn 0.614390 -0.022956 -0.788668
vn 0.296626 -0.006653 -0.954970
vn 0.150603 -0.000000 -0.988594
vn 0.029387 0.000000 -0.999568
vn 0.035153 0.000000 -0.999382
vn 0.150603 -0.000000 -0.988594
vn 0.029387 0.000000 -0.999568
vn 0.040917 0.000000 -0.999163
vn 0.040918 -0.000000 -0.999163
vn 0.999549 0.000000 0.030031
vn 0.999814 0.000000 0.019314
vn -0.995208 -0.000001 0.097784
vn -0.991011 0.000000 0.133781
vn -0.999350 -0.000002 0.036052
vn -0.999350 -0.000003 0.036052
vn -0.970568 0.000000 0.240828
vn -0.949463 0.009711 0.313729
vn -0.858267 0.017729 0.512897
vn -0.771806 0.026194 0.635318
vn -0.949463 0.009711 0.313729
vn -0.858267 0.017729 0.512897
vn -0.602154 0.022654 0.798059
vn -0.527249 0.014894 0.849580
vn -0.771806 0.026194 0.635318
vn -0.602154 0.022654 0.798059
vn -0.326098 0.006592 0.945313
vn -0.196738 -0.000001 0.980456
vn -0.326098 0.006592 0.945313
vn -0.064154 -0.000002 0.997940
vn -0.063565 -0.000001 0.997978
vn -0.196738 -0.000001 0.980456
vn -0.062977 0.000000 0.998015
vn -0.062976 0.000003 0.998015
vn -0.063565 -0.000001 0.997978
vn -0.999946 -0.000001 0.010375
vn -0.999350 -0.000002 0.036052
vn -0.999946 0.000000 0.010374
vn 0.999101 0.000001 -0.042406
vn 0.996569 0.000001 -0.082770
vn 0.999979 -0.000000 0.006416
vn 0.999979 -0.000001 0.006416
vn 0.999101 0.000001 -0.042406
vn 0.962715 -0.007257 -0.270419
vn 0.963466 -0.000001 -0.267830
vn 0.996569 0.000001 -0.082770
vn 0.817421 -0.019781 -0.575701
vn 0.815608 -0.026621 -0.577992
vn 0.817421 -0.019781 -0.575701
vn 0.588891 -0.017418 -0.808025
vn 0.587356 -0.022915 -0.809004
vn 0.260946 -0.005132 -0.965340
vn 0.588891 -0.017418 -0.808025
vn 0.262898 -0.000002 -0.964824
vn 0.039754 -0.000001 -0.999210
vn 0.039754 -0.000001 -0.999210
vn 0.043055 -0.000001 -0.999073
vn 0.043054 -0.000001 -0.999073
vn 0.999979 -0.000000 0.006416
vn 0.999889 -0.000001 0.014871
vn 0.999889 0.000000 0.014871
vn 0.000000 1.000000 0.000000
vn -0.000015 1.000000 -0.000048
vn -0.000021 1.000000 -0.000049
vn 0.000000 1.000000 0.000000
vn -0.004302 0.999805 -0.019253
vn -0.007721 0.999869 -0.014243
vn 0.012985 0.999725 -0.019512
vn 0.015459 0.999587 -0.024216
vn 0.011340 0.999873 -0.011153
vn 0.012603 0.999708 -0.020632
vn 0.011340 0.999873 -0.011153
vn -0.005925 0.999924 -0.010846
vn -0.006246 0.999979 -0.001678
vn -0.005925 0.999924 -0.010846
vn -0.000000 1.000000 -0.000000
vn -0.000000 1.000000 -0.000001
vn -0.005925 0.999924 -0.010846
vn -0.000000 1.000000 -0.000000
vn 0.000000 1.000000 -0.000000
vn -0.000000 1.000000 -0.000000
vn 0.000001 1.000000 0.000001
vn 0.000000 1.000000 0.000000
vn 0.000000 1.000000 0.000000
vn 0.000000 1.000000 0.000000
vn -0.000033 1.000000 -0.000078
vn -0.000028 1.000000 -0.000086
vn -0.000000 1.000000 0.000000
vn -0.000001 1.000000 0.000000
vn 0.011741 0.999916 0.005429
vn 0.001968 0.999992 0.003575
vn 0.032997 0.999406 0.009932
vn 0.042767 0.998983 0.014297
vn 0.011741 0.999916 0.005429
vn -0.053522 0.997965 -0.034663
vn -0.016260 0.998873 -0.044603
vn 0.032997 0.999406 0.009932
vn -0.074742 0.996439 -0.039039
vn -0.053522 0.997965 -0.034663
vn -0.112072 0.993200 -0.031510
vn 0.000000 1.000000 -0.000000
vn -0.000000 1.000000 -0.000000
vn -0.074742 0.996439 -0.039039
vn -0.000000 1.000000 -0.000000
vn -0.000000 1.000000 -0.000000
vn -0.000000 1.000000 0.000000
vn -0.000000 1.000000 0.000000
vn -0.000000 1.000000 0.000000
vt 0.749983 0.998360
vt 0.749977 0.900000
vt 0.874932 0.900000
vt 0.874918 0.998360
vt 0.625002 0.998360
vt 0.624992 0.900000
vt 0.500004 0.900000
vt 0.500013 0.998360
vt 0.375014 0.998360
vt 0.375014 0.900000
vt 0.250026 0.900000
vt 0.250022 0.998360
vt 0.125045 0.998360
vt 0.125045 0.900000
vt 0.000060 0.900000
vt 0.000060 0.998360
vt 0.999941 0.998360
vt 0.999940 0.900000
vt 0.749972 0.749993
vt 0.749967 0.550006
vt 0.874966 0.549995
vt 0.874945 0.750008
vt 0.624987 0.749982
vt 0.624981 0.550013
vt 0.499995 0.749977
vt 0.499992 0.550016
vt 0.375015 0.749982
vt 0.375015 0.550014
vt 0.250028 0.749992
vt 0.250032 0.550007
vt 0.125045 0.750004
vt 0.125045 0.549998
vt 0.000060 0.750020
vt 0.000061 0.549986
vt 0.999940 0.750023
vt 0.999940 0.549984
vt 0.749962 0.400000
vt 0.749957 0.300000
vt 0.874992 0.300000
vt 0.874979 0.400000
vt 0.624976 0.400000
vt 0.624969 0.300000
vt 0.499987 0.400000
vt 0.499997 0.300000
vt 0.375016 0.400000
vt 0.375017 0.300000
vt 0.250035 0.400000
vt 0.250038 0.300000
vt 0.125046 0.400000
vt 0.125046 0.300000
vt 0.000061 0.400000
vt 0.000061 0.300000
vt 0.999940 0.400000
vt 0.999940 0.300000
vt 0.749974 0.800000
vt 0.874941 0.800000
vt 0.624990 0.800000
vt 0.499998 0.800000
vt 0.375015 0.800000
vt 0.250027 0.800000
vt 0.125045 0.800000
vt 0.000060 0.800000
vt 0.999940 0.800000
vt 0.749965 0.499914
vt 0.874970 0.500071
vt 0.624978 0.499811
vt 0.499990 0.499763
vt 0.375016 0.499800
vt 0.250033 0.499897
vt 0.125045 0.500030
vt 0.000061 0.500205
vt 0.999940 0.500237
f 1/1/1 2/2/2 3/3/3
f 4/4/4 1/1/1 3/3/3
f 2/2/2 1/1/5 5/5/6
f 6/6/7 2/2/2 5/5/6
f 6/6/7 5/5/6 7/7/8
f 5/5/6 8/8/9 7/7/8
f 7/7/8 8/8/9 9/9/10
f 10/10/11 7/7/8 9/9/10
f 10/10/11 9/9/12 11/11/13
f 9/9/14 12/12/15 11/11/13
f 11/11/13 12/12/15 13/13/16
f 14/14/17 11/11/18 13/13/16
f 14/14/17 13/13/16 15/15/19
f 13/13/20 16/16/21 15/15/19
f 4/4/4 3/3/22 17/17/23
f 3/3/22 18/18/24 17/17/23
f 19/19/25 20/20/26 21/21/27
f 22/22/28 19/19/25 21/21/27
f 19/19/29 23/23/30 20/20/26
f 23/23/30 24/24/31 20/20/32
f 23/23/33 25/25/34 24/24/31
f 25/25/34 26/26/35 24/24/31
f 25/25/36 27/27/37 26/26/35
f 27/27/37 28/28/38 26/26/39
f 27/27/37 29/29/40 28/28/38
f 29/29/40 30/30/41 28/28/42
f 29/29/40 31/31/43 30/30/41
f 31/31/43 32/32/44 30/30/41
f 31/31/45 33/33/46 32/32/44
f 33/33/46 34/34/47 32/32/44
f 22/22/28 21/21/27 35/35/48
f 21/21/49 36/36/50 35/35/48
f 37/37/51 38/38/52 39/39/53
f 40/40/54 37/37/51 39/39/53
f 37/37/55 41/41/56 38/38/52
f 41/41/56 42/42/57 38/38/52
f 41/41/56 43/43/58 42/42/57
f 43/43/58 44/44/59 42/42/57
f 43/43/60 45/45/61 44/44/59
f 45/45/61 46/46/62 44/44/63
f 45/45/64 47/47/65 46/46/62
f 47/47/65 48/48/66 46/46/62
f 47/47/65 49/49/67 48/48/66
f 49/49/67 50/50/68 48/48/69
f 49/49/70 51/51/71 50/50/68
f 51/51/71 52/52/72 50/50/68
f 40/40/54 39/39/73 53/53/74
f 39/39/73 54/54/74 53/53/74
f 55/55/75 56/19/76 57/22/77
f 58/56/78 55/55/75 57/22/77
f 55/55/75 59/57/79 56/19/76
f 59/57/79 60/23/80 56/19/76
f 59/57/79 61/58/81 60/23/80
f 61/58/81 62/25/82 60/23/83
f 61/58/84 63/59/85 62/25/82
f 63/59/85 64/27/86 62/25/87
f 63/59/88 65/60/89 64/27/86
f 65/60/89 66/29/90 64/27/86
f 65/60/91 67/61/92 66/29/90
f 67/61/92 68/31/93 66/29/94
f 67/61/92 69/62/95 68/31/93
f 69/62/95 70/33/96 68/31/97
f 58/56/78 57/22/77 71/63/98
f 57/22/99 72/35/100 71/63/98
f 73/20/101 74/64/102 75/65/103
f 76/21/104 73/20/101 75/65/103
f 74/64/102 73/20/105 77/24/106
f 78/66/107 74/64/108 77/24/106
f 78/66/107 77/24/106 79/67/109
f 77/24/106 80/26/110 79/67/109
f 79/67/111 80/26/110 81/28/112
f 82/68/113 79/67/109 81/28/112
f 82/68/113 81/28/112 83/69/114
f 81/28/115 84/30/116 83/69/114
f 83/69/114 84/30/116 85/32/117
f 86/70/118 83/69/114 85/32/117
f 86/70/118 85/32/117 87/71/119
f 85/32/117 88/34/120 87/71/119
f 76/21/104 75/65/121 89/36/122
f 75/65/103 90/72/123 89/36/122
f 91/3/124 92/2/125 93/55/126
f 94/56/127 91/3/124 93/55/126
f 93/55/126 92/2/125 95/6/128
f 96/57/129 93/55/126 95/6/128
f 96/57/129 95/6/128 97/58/130
f 95/6/128 98/7/131 97/58/130
f 97/58/130 98/7/131 99/10/132
f 100/59/133 97/58/130 99/10/132
f 100/59/133 99/10/134 101/60/135
f 99/10/132 102/11/136 101/60/135
f 101/60/137 102/11/136 103/14/138
f 104/61/139 101/60/140 103/14/138
f 104/61/139 103/14/141 105/62/142
f 103/14/143 106/15/144 105/62/142
f 94/56/127 107/63/145 91/3/146
f 107/63/145 108/18/147 91/3/124
f 109/64/148 110/37/149 111/40/150
f 112/65/151 109/64/148 111/40/150
f 113/41/152 110/37/149 109/64/148
f 114/66/153 113/41/152 109/64/148
f 114/66/153 115/67/154 113/41/152
f 115/67/154 116/43/155 113/41/156
f 117/45/157 116/43/155 115/67/154
f 118/68/158 117/45/157 115/67/159
f 118/68/158 119/69/160 117/45/161
f 119/69/160 120/47/162 117/45/157
f 121/49/163 120/47/162 119/69/160
f 122/70/164 121/49/163 119/69/165
f 122/70/164 123/71/166 121/49/163
f 123/71/166 124/51/167 121/49/163
f 112/65/151 111/40/168 125/72/169
f 111/40/150 126/53/170 125/72/169
