g CrateLid_mesh
v -0.4961478 0.8999997 0.5
v -0.495 1 0.5
v 0.505 1 0.5
v 0.5038522 0.8999997 0.5
v -0.495 1 -0.5
v -0.4961478 0.8999997 -0.5
v 0.5038522 0.8999997 -0.5
v 0.505 1 -0.5
v -0.4961478 0.8999997 -0.5
v -0.4961478 0.8999997 0.5
v 0.5038522 0.8999997 0.5
v 0.5038522 0.8999997 -0.5
v 0.5038522 0.8999997 0.5
v 0.505 1 0.5
v 0.505 1 -0.5
v 0.5038522 0.8999997 -0.5
v -0.4961478 0.8999997 -0.5
v -0.495 1 -0.5
v -0.495 1 0.5
v -0.4961478 0.8999997 0.5
v -0.365 0.93 0.37
v -0.365 0.93 -0.37
v 0.375 0.93 -0.37
v 0.375 0.93 0.37
v -0.495 1 0.5
v -0.365 1 0.37
v 0.375 1 0.37
v 0.505 1 0.5
v 0.375 1 -0.37
v 0.505 1 -0.5
v -0.365 1 -0.37
v -0.495 1 -0.5
v -0.365 1 0.37
v -0.365 0.93 0.37
v 0.375 0.93 0.37
v 0.375 1 0.37
v 0.375 1 0.37
v 0.375 0.93 0.37
v 0.375 0.93 -0.37
v 0.375 1 0.37
v 0.375 1 -0.37
v 0.375 1 -0.37
v 0.375 0.93 -0.37
v -0.365 0.93 -0.37
v -0.365 1 -0.37
v -0.365 1 -0.37
v -0.365 0.93 -0.37
v -0.365 0.93 0.37
v -0.365 1 -0.37
v -0.365 1 0.37
vt 0.01590264 0.9139435
vt 0.01590264 0.9900488
vt 0.4621174 0.9900488
vt 0.4621174 0.9139435
vt 0.4629864 0.9888906
vt 0.4629999 0.9140642
vt 0.01678097 0.9134256
vt 0.01677477 0.98945
vt 0.8219293 0.9851308
vt 0.8219692 0.6540018
vt 0.4908403 0.6539622
vt 0.4907979 0.9867259
vt 0.01714981 0.9139435
vt 0.01714981 0.9900488
vt 0.4633617 0.98945
vt 0.4633679 0.9134256
vt 0.01465523 0.9139435
vt 0.01465523 0.9900488
vt 0.4608704 0.9900488
vt 0.4608704 0.9139435
vt 0.08864269 0.5863889
vt 0.08864269 0.9136677
vt 0.4159213 0.9136677
vt 0.4159213 0.5863889
vt 0.005917392 0.5036634
vt 0.07169922 0.5694453
vt 0.4328651 0.5694453
vt 0.4986471 0.5036634
vt 0.4328651 0.9306114
vt 0.4986471 0.9963931
vt 0.07169922 0.9306114
vt 0.005917392 0.9963931
vt 0.07169922 0.5694453
vt 0.08864269 0.5863889
vt 0.4159213 0.5863889
vt 0.4328651 0.5694453
vt 0.4328651 0.5694453
vt 0.4159213 0.5863889
vt 0.4159213 0.9136677
vt 0.4328651 0.5694453
vt 0.4328651 0.9306114
vt 0.4328651 0.9306114
vt 0.4159213 0.9136677
vt 0.08864269 0.9136677
vt 0.07169922 0.9306114
vt 0.07169922 0.9306114
vt 0.08864269 0.9136677
vt 0.08864269 0.5863889
vt 0.07169922 0.9306114
vt 0.07169922 0.5694453
vn 0 0 1
vn 0 0 1
vn 0 0 1
vn 0 0 1
vn 0 0 -1
vn 0 0 -1
vn 0 0 -1
vn 0 0 -1
vn 0 -1 0
vn 0 -1 0
vn 0 -1 0
vn 0 -1 0
vn 0.9999342 -0.01147725 0
vn 0.9999342 -0.01147725 0
vn 0.9999342 -0.01147725 0
vn 0.9999342 -0.01147725 0
vn -0.9999342 0.01147725 0
vn -0.9999342 0.01147725 0
vn -0.9999342 0.01147725 0
vn -0.9999342 0.01147725 0
vn 0 1 0
vn 0 1 0
vn 0 1 0
vn 0 1 0
vn 0 1 0
vn 0 1 0
vn 0 1 0
vn 0 1 0
vn 0 1 0
vn 0 1 0
vn 0 1 0
vn 0 1 0
vn 0 0 -1
vn 0 0 -1
vn 0 0 -1
vn 0 0 -1
vn -1 0 0
vn -1 0 0
vn -1 0 0
vn -1 0 0
vn -1 0 0
vn 0 0 1
vn 0 0 1
vn 0 0 1
vn 0 0 1
vn 1 0 0
vn 1 0 0
vn 1 0 0
vn 1 0 0
vn 1 0 0
g CrateLid_mesh_0
f 3/3/3 2/2/2 1/1/1
f 4/4/4 3/3/3 1/1/1
f 7/7/7 6/6/6 5/5/5
f 8/8/8 7/7/7 5/5/5
f 11/11/11 10/10/10 9/9/9
f 12/12/12 11/11/11 9/9/9
f 15/15/15 14/14/14 13/13/13
f 16/16/16 15/15/15 13/13/13
f 19/19/19 18/18/18 17/17/17
f 20/20/20 19/19/19 17/17/17
g CrateLid_mesh_1
f 23/23/23 22/22/22 21/21/21
f 24/24/24 23/23/23 21/21/21
f 27/27/27 26/26/26 25/25/25
f 28/28/28 27/27/27 25/25/25
f 29/29/29 27/27/27 28/28/28
f 30/30/30 29/29/29 28/28/28
f 31/31/31 29/29/29 30/30/30
f 32/32/32 31/31/31 30/30/30
f 26/26/26 31/31/31 32/32/32
f 25/25/25 26/26/26 32/32/32
f 35/35/35 34/34/34 33/33/33
f 36/36/36 35/35/35 33/33/33
f 39/39/39 38/38/38 37/37/37
f 41/41/41 39/39/39 40/40/40
f 44/44/44 43/43/43 42/42/42
f 45/45/45 44/44/44 42/42/42
f 48/48/48 47/47/47 46/46/46
f 50/50/50 48/48/48 49/49/49
