g Fish_Plate_Cooked
v 0.2084564 0.215198 0.3376188
v 0.2099835 0.141355 0.3503442
v 0.07485534 0.1425869 0.4168356
v 0.07543395 0.2182051 0.3953056
v -0.07216675 0.152344 0.3856612
v -0.06769104 0.2263697 0.3721942
v -0.04317627 0.09399143 0.3382039
v 0.06572022 0.07700232 0.364264
v 0.1682629 0.08410341 0.3320673
v 0.07582519 0.2328564 0.365359
v -0.05347046 0.2400574 0.3435779
v 0.05276917 0.2311279 0.1768946
v -0.1173401 0.2246903 0.2014763
v 0.03054321 0.2362755 0.003607067
v 0.1832452 0.2074391 -0.01591401
v 0.1372443 0.2381538 -0.1891705
v 0.009968261 0.2527054 -0.1696896
v 0.07052734 0.2785998 -0.3288957
v -0.01406982 0.2825665 -0.3576177
v -0.1210925 0.2555587 -0.1585324
v -0.08704529 0.2881519 -0.3122268
v -0.1294391 0.2250969 0.02287045
v 0.2177545 0.2092406 0.1599803
v 0.195528 0.2293651 0.3127666
v 0.07260254 0.2704454 -0.3592533
v -0.02078247 0.2760215 -0.3901058
v 0.06805847 0.2269592 -0.3826112
v -0.02604675 0.234867 -0.4219282
v 0.04675232 0.1911478 -0.366143
v -0.02076233 0.1909531 -0.3796257
v -0.1064258 0.2374692 -0.3638241
v -0.07971314 0.1976693 -0.3322525
v -0.1020837 0.2808974 -0.3404458
v 0.1453284 0.2292622 -0.2074407
v 0.1420196 0.1726108 -0.2225268
v 0.06805847 0.2269592 -0.3826112
v 0.1921692 0.1272624 -0.02492606
v 0.1967871 0.1934547 -0.01963674
v 0.144389 0.06770264 -0.02459086
v 0.0983142 0.1380035 -0.2410501
v -0.004022827 0.1297375 -0.2273405
v 0.01741577 0.0650752 -0.00959166
v -0.1006439 0.1615619 -0.2212674
v -0.1074207 0.08294042 0.007082845
v -0.07971314 0.1976693 -0.3322525
v -0.02076233 0.1909531 -0.3796257
v 0.04675232 0.1911478 -0.366143
v 0.04351379 0.04805706 0.2088205
v -0.09370788 0.07638492 0.2332967
v 0.06572022 0.07700232 0.364264
v 0.1682629 0.08410341 0.3320673
v 0.1848865 0.05807255 0.1945432
v -0.04317627 0.09399143 0.3382039
v 0.2319385 0.1163882 0.175289
v 0.2340607 0.194503 0.1714186
v 0.2099835 0.141355 0.3503442
v -0.1074207 0.08294042 0.007082845
v -0.1006439 0.1615619 -0.2212674
v -0.1393951 0.1955422 -0.1886056
v -0.150592 0.1466644 0.01811532
v -0.1383111 0.2477142 -0.1735783
v -0.1499469 0.2124104 0.02388657
v -0.1064258 0.2374692 -0.3638241
v -0.07971314 0.1976693 -0.3322525
v -0.1376062 0.2105214 0.217984
v -0.1414416 0.1344444 0.2221412
v -0.07216675 0.152344 0.3856612
v -0.09370788 0.07638492 0.2332967
v -0.04317627 0.09399143 0.3382039
vt 0.4842142 0.8002381
vt 0.4731901 0.8798214
vt 0.608881 0.897158
vt 0.6141247 0.8329032
vt 0.7570946 0.8908586
vt 0.74914 0.8073769
vt 0.7300881 0.9809654
vt 0.6035728 0.9766428
vt 0.4962603 0.9511047
vt 0.6120448 0.8036826
vt 0.7279063 0.7773271
vt 0.6120034 0.6365677
vt 0.7645269 0.6375591
vt 0.6051428 0.4838523
vt 0.4661986 0.4953943
vt 0.473659 0.3425164
vt 0.5893485 0.3296214
vt 0.4975377 0.1931591
vt 0.5702177 0.1536809
vt 0.7112483 0.3139066
vt 0.6467267 0.1741351
vt 0.7545813 0.4737024
vt 0.4690556 0.6391382
vt 0.5004492 0.773148
vt 0.4826797 0.1633437
vt 0.5692369 0.1251388
vt 0.4733184 0.1058146
vt 0.5673492 0.08719385
vt 0.4800849 0.04909205
vt 0.5598808 0.03408187
vt 0.6502361 0.08561456
vt 0.6394587 0.02612516
vt 0.6576141 0.1417397
vt 0.4560158 0.3275962
vt 0.4059324 0.3197832
vt 0.434248 0.1448549
vt 0.3895683 0.4948152
vt 0.4453537 0.4955405
vt 0.3254961 0.4907497
vt 0.3602085 0.2946726
vt 0.2668404 0.2663514
vt 0.2129267 0.4774233
vt 0.1718926 0.2197488
vt 0.08683921 0.4622625
vt 0.2511426 0.1144207
vt 0.3344549 0.1069839
vt 0.3891268 0.1556288
vt 0.2083047 0.6815158
vt 0.0705751 0.6977052
vt 0.2302463 0.8344846
vt 0.3358453 0.7996356
vt 0.3283875 0.6723697
vt 0.1179278 0.8079718
vt 0.3890651 0.6574444
vt 0.4502155 0.6512352
vt 0.4086033 0.8157234
vt 0.9188958 0.4449849
vt 0.8131667 0.2265764
vt 0.7752011 0.2732055
vt 0.8408521 0.4626989
vt 0.7289318 0.2953434
vt 0.7778507 0.4719152
vt 0.6968524 0.1092262
vt 0.7544353 0.1205265
vt 0.7889063 0.6495249
vt 0.8576721 0.6559786
vt 0.8269668 0.8271058
vt 0.9288272 0.6797338
vt 0.9068661 0.8006985
vn 0.7880434 0.3044087 0.5350915
vn 0.8014272 -0.2036291 0.5623606
vn 0.1008976 -0.1845475 0.9776308
vn 0.1253664 0.4221364 0.897822
vn -0.6255146 -0.1775927 0.7597317
vn -0.5966365 0.3981624 0.6967723
vn -0.3639379 -0.8289627 0.4247
vn 0.0001561942 -0.8895683 0.4568021
vn 0.4003835 -0.8401001 0.3659575
vn 0.0509753 0.9977564 0.04340101
vn -0.07253421 0.9969765 0.02787135
vn 0.04702861 0.9985737 -0.02527668
vn -0.118365 0.9929413 0.007569119
vn 0.06184063 0.9964641 0.05687809
vn 0.2349249 0.9718798 0.01611794
vn 0.2253417 0.968926 0.1019973
vn 0.07573094 0.9865497 0.1448608
vn 0.1755516 0.9772016 0.1194098
vn 0.07564493 0.9926933 0.09400935
vn -0.06814287 0.9870553 0.1451841
vn -0.02071822 0.9905715 0.1354212
vn -0.1101883 0.991151 0.07401351
vn 0.2114124 0.9763219 -0.04582872
vn 0.1747622 0.9846085 -0.002062479
vn 0.7379916 0.4379039 -0.5134281
vn -0.03488438 0.7139164 -0.6993614
vn 0.7213638 -0.1114083 -0.6835367
vn -0.1545907 -0.05907262 -0.986211
vn 0.2765841 -0.8120199 -0.5139309
vn -0.1447656 -0.8553139 -0.4974747
vn -0.8576286 -0.1123506 -0.5018471
vn -0.4952657 -0.7858311 -0.3703799
vn -0.800419 0.5059948 -0.3214012
vn 0.9385191 0.1900406 -0.2882125
vn 0.8666731 -0.3290305 -0.374989
vn 0.7213638 -0.1114083 -0.6835367
vn 0.8866745 -0.3876166 -0.2521143
vn 0.970859 0.1114854 -0.2121412
vn 0.2825191 -0.9358813 -0.2104973
vn 0.2731764 -0.8840759 -0.3791891
vn -0.1227814 -0.9403251 -0.3173539
vn -0.09260625 -0.9816325 -0.1667985
vn -0.4763665 -0.8289087 -0.2932326
vn -0.4334345 -0.8903399 -0.1393891
vn -0.4952657 -0.7858311 -0.3703799
vn -0.1447656 -0.8553139 -0.4974747
vn 0.2765841 -0.8120199 -0.5139309
vn -0.05625688 -0.9977115 0.03750753
vn -0.4272976 -0.8976017 0.1082964
vn 0.0001561942 -0.8895683 0.4568021
vn 0.4003835 -0.8401001 0.3659575
vn 0.3613304 -0.9323347 0.01387122
vn -0.3639379 -0.8289627 0.4247
vn 0.9323353 -0.3595397 -0.0384986
vn 0.9907816 0.1315201 -0.03247
vn 0.8014272 -0.2036291 0.5623606
vn -0.4334345 -0.8903399 -0.1393891
vn -0.4763665 -0.8289087 -0.2932326
vn -0.9379138 -0.2975842 -0.1782174
vn -0.9379281 -0.3429615 -0.05165394
vn -0.9518467 0.3011704 -0.057308
vn -0.9722875 0.2326005 0.0235339
vn -0.8576286 -0.1123506 -0.5018471
vn -0.4952657 -0.7858311 -0.3703799
vn -0.9400349 0.2658439 0.2136855
vn -0.9332868 -0.3049282 0.1897222
vn -0.6255146 -0.1775927 0.7597317
vn -0.4272976 -0.8976017 0.1082964
vn -0.3639379 -0.8289627 0.4247
g Fish_Plate_Cooked_0
f 3/3/3 2/2/2 1/1/1
f 4/4/4 3/3/3 1/1/1
f 5/5/5 3/3/3 4/4/4
f 6/6/6 5/5/5 4/4/4
f 5/5/5 7/7/7 3/3/3
f 7/7/7 8/8/8 3/3/3
f 3/3/3 8/8/8 2/2/2
f 8/8/8 9/9/9 2/2/2
f 4/4/4 10/10/10 6/6/6
f 10/10/10 11/11/11 6/6/6
f 11/11/11 10/10/10 12/12/12
f 13/13/13 11/11/11 12/12/12
f 13/13/13 12/12/12 14/14/14
f 14/14/14 12/12/12 15/15/15
f 14/14/14 15/15/15 16/16/16
f 17/17/17 14/14/14 16/16/16
f 17/17/17 16/16/16 18/18/18
f 19/19/19 17/17/17 18/18/18
f 20/20/20 17/17/17 19/19/19
f 21/21/21 20/20/20 19/19/19
f 22/22/22 14/14/14 17/17/17
f 20/20/20 22/22/22 17/17/17
f 22/22/22 13/13/13 14/14/14
f 12/12/12 23/23/23 15/15/15
f 12/12/12 10/10/10 23/23/23
f 10/10/10 24/24/24 23/23/23
f 19/19/19 18/18/18 25/25/25
f 26/26/26 19/19/19 25/25/25
f 21/21/21 19/19/19 26/26/26
f 26/26/26 25/25/25 27/27/27
f 28/28/28 26/26/26 27/27/27
f 28/28/28 27/27/27 29/29/29
f 30/30/30 28/28/28 29/29/29
f 31/31/31 28/28/28 30/30/30
f 32/32/32 31/31/31 30/30/30
f 33/33/33 26/26/26 28/28/28
f 31/31/31 33/33/33 28/28/28
f 33/33/33 21/21/21 26/26/26
f 20/20/20 21/21/21 33/33/33
f 25/25/25 18/18/18 34/34/34
f 34/34/34 35/35/35 25/25/25
f 35/35/35 36/36/36 25/25/25
f 37/37/37 35/35/35 34/34/34
f 38/38/38 37/37/37 34/34/34
f 37/37/37 39/39/39 35/35/35
f 39/39/39 40/40/40 35/35/35
f 35/35/35 40/40/40 36/36/36
f 41/41/41 40/40/40 39/39/39
f 42/42/42 41/41/41 39/39/39
f 43/43/43 41/41/41 42/42/42
f 44/44/44 43/43/43 42/42/42
f 43/43/43 45/45/45 41/41/41
f 45/45/45 46/46/46 41/41/41
f 41/41/41 46/46/46 40/40/40
f 46/46/46 47/47/47 40/40/40
f 40/40/40 47/47/47 36/36/36
f 44/44/44 42/42/42 48/48/48
f 49/49/49 44/44/44 48/48/48
f 49/49/49 48/48/48 50/50/50
f 50/50/50 48/48/48 51/51/51
f 48/48/48 52/52/52 51/51/51
f 42/42/42 39/39/39 52/52/52
f 48/48/48 42/42/42 52/52/52
f 53/53/53 49/49/49 50/50/50
f 54/54/54 52/52/52 39/39/39
f 37/37/37 54/54/54 39/39/39
f 55/55/55 54/54/54 37/37/37
f 38/38/38 55/55/55 37/37/37
f 55/55/55 1/1/1 54/54/54
f 1/1/1 56/56/56 54/54/54
f 56/56/56 51/51/51 52/52/52
f 54/54/54 56/56/56 52/52/52
f 38/38/38 15/15/15 55/55/55
f 16/16/16 15/15/15 38/38/38
f 34/34/34 16/16/16 38/38/38
f 18/18/18 16/16/16 34/34/34
f 15/15/15 23/23/23 55/55/55
f 55/55/55 23/23/23 1/1/1
f 23/23/23 24/24/24 1/1/1
f 1/1/1 24/24/24 4/4/4
f 24/24/24 10/10/10 4/4/4
f 59/59/59 58/58/58 57/57/57
f 60/60/60 59/59/59 57/57/57
f 61/61/61 59/59/59 60/60/60
f 62/62/62 61/61/61 60/60/60
f 61/61/61 33/33/33 59/59/59
f 33/33/33 63/63/63 59/59/59
f 59/59/59 63/63/63 58/58/58
f 63/63/63 64/64/64 58/58/58
f 62/62/62 60/60/60 65/65/65
f 60/60/60 66/66/66 65/65/65
f 60/60/60 57/57/57 66/66/66
f 65/65/65 66/66/66 6/6/6
f 66/66/66 67/67/67 6/6/6
f 57/57/57 68/68/68 66/66/66
f 66/66/66 68/68/68 67/67/67
f 68/68/68 69/69/69 67/67/67
f 61/61/61 20/20/20 33/33/33
f 22/22/22 20/20/20 61/61/61
f 62/62/62 22/22/22 61/61/61
f 13/13/13 22/22/22 62/62/62
f 65/65/65 13/13/13 62/62/62
f 11/11/11 13/13/13 65/65/65
f 6/6/6 11/11/11 65/65/65
