g Hat_Cap
v -0.2043932 1.081827 0.2030062
v -0.2067042 1.252903 0.1398386
v -0.1154426 1.283057 0.1956503
v -0.1093325 1.103457 0.2546367
v -0.009954776 1.294287 0.2181155
v -0.008771226 1.113216 0.2775164
v -0.2580699 1.039253 0.1004172
v -0.2533478 1.196046 0.03456176
v -0.2873158 0.9924634 -0.0125463
v -0.2698865 1.136487 -0.07237045
v -0.2718679 0.9455428 -0.1261494
v -0.2511896 1.074328 -0.1798424
v -0.2105848 0.9012935 -0.2336222
v -0.1952676 1.015072 -0.2714127
v -0.09501631 0.8827338 -0.27935
v -0.09218182 0.9861931 -0.3108439
v 0.01979206 0.8765973 -0.2950227
v 0.01907625 0.9761741 -0.3261264
v -0.007092227 1.306331 0.1433818
v 0.09365208 1.10755 0.2630715
v 0.09739893 1.28735 0.2044947
v 0.1934604 1.089851 0.2195386
v 0.1941142 1.260987 0.1564941
v 0.25713 1.049644 0.1218257
v 0.2515783 1.20623 0.05554334
v 0.2975027 1.004258 0.01175511
v 0.2793118 1.147563 -0.0495492
v 0.2934304 0.9569438 -0.1026591
v 0.2721092 1.084882 -0.1580974
v 0.243102 0.9104435 -0.2147698
v 0.2264044 1.023576 -0.2538906
v 0.1325648 0.8873237 -0.2698931
v 0.12819 0.9906375 -0.3016867
v 0.01979206 0.8765973 -0.2950227
v 0.01907625 0.9761741 -0.3261264
v 0.1941142 1.260987 0.1564941
v 0.07875667 1.299997 0.1314861
v 0.1597862 1.27804 0.09015786
v 0.1047982 1.26566 0.008952025
v 0.2075669 1.232486 0.006154769
v -0.001029843 1.273884 0.01323744
v -0.09133412 1.296567 0.1244182
v -0.1057209 1.261415 0.0002041621
v -0.1677075 1.271435 0.07654926
v -0.2064847 1.224135 -0.01105063
v -0.1057375 1.205355 -0.1104148
v -0.2187251 1.172853 -0.1030157
v 0.005248336 1.214809 -0.1091763
v -0.09609076 1.137668 -0.2123207
v -0.2013409 1.120615 -0.1925946
v 0.01125685 1.140355 -0.2176363
v -0.07071477 1.050496 -0.2963756
v -0.1549784 1.074245 -0.2625686
v 0.01706623 1.041965 -0.3096867
v -0.2067042 1.252903 0.1398386
v -0.2533478 1.196046 0.03456176
v -0.2698865 1.136487 -0.07237045
v -0.2511896 1.074328 -0.1798424
v -0.09218182 0.9861931 -0.3108439
v -0.1952676 1.015072 -0.2714127
v 0.01907625 0.9761741 -0.3261264
v 0.1162449 1.209832 -0.1011906
v 0.2294459 1.181892 -0.0843925
v 0.1178147 1.141982 -0.2034321
v 0.2216672 1.129147 -0.175017
v 0.1030262 1.054 -0.289156
v 0.1831716 1.081065 -0.2485172
v 0.2793118 1.147563 -0.0495492
v 0.2515783 1.20623 0.05554334
v 0.2721092 1.084882 -0.1580974
v 0.12819 0.9906375 -0.3016867
v 0.2264044 1.023576 -0.2538906
v -0.2105848 0.9012935 -0.2336222
v -0.2718679 0.9455428 -0.1261494
v -0.1294529 0.9370681 -0.1476774
v -0.09501631 0.8827338 -0.27935
v 0.01269204 0.935414 -0.1527058
v 0.01979206 0.8765973 -0.2950227
v -0.1420367 0.9953935 -0.006509405
v -0.2873158 0.9924634 -0.0125463
v 0.00509347 0.9983608 -0.0003955943
v -0.1312468 1.051322 0.1286936
v -0.2580699 1.039253 0.1004172
v -0.002129501 1.058196 0.1443858
v -0.1093325 1.103457 0.2546367
v -0.2043932 1.081827 0.2030062
v -0.008771226 1.113216 0.2775164
v 0.1325648 0.8873237 -0.2698931
v 0.1537482 0.9427797 -0.1359094
v 0.243102 0.9104435 -0.2147698
v 0.2934304 0.9569438 -0.1026591
v 0.1522236 1.001328 0.005718216
v 0.2975027 1.004258 0.01175511
v 0.1280161 1.056551 0.139467
v 0.25713 1.049644 0.1218257
v 0.09365208 1.10755 0.2630715
v 0.1934604 1.089851 0.2195386
vt 0.2743447 0.7074316
vt 0.2743447 0.7559087
vt 0.3085519 0.7551681
vt 0.3085518 0.7074316
vt 0.3390349 0.7502624
vt 0.3390396 0.7074316
vt 0.23369 0.7074316
vt 0.23369 0.7559087
vt 0.1913246 0.7074316
vt 0.1913246 0.755909
vt 0.1476993 0.707432
vt 0.1476993 0.7559087
vt 0.106001 0.707432
vt 0.1060008 0.7559087
vt 0.0589259 0.707432
vt 0.0589259 0.7559087
vt 0.01068649 0.707432
vt 0.01068649 0.7559087
vt 0.3390349 0.7747418
vt 0.3695273 0.7074316
vt 0.3695273 0.7551681
vt 0.4037345 0.7074316
vt 0.4037345 0.7559087
vt 0.4443894 0.7074316
vt 0.4443894 0.7559087
vt 0.4867547 0.7074316
vt 0.4867547 0.755909
vt 0.53038 0.707432
vt 0.53038 0.7559087
vt 0.5720784 0.707432
vt 0.5720784 0.7559087
vt 0.6191534 0.707432
vt 0.6191534 0.7559087
vt 0.667393 0.707432
vt 0.667393 0.7559087
vt 0.4064832 0.7758046
vt 0.3646871 0.7792802
vt 0.3916638 0.7963032
vt 0.3715242 0.8222522
vt 0.4074363 0.8291187
vt 0.3390349 0.8184623
vt 0.3133923 0.7792802
vt 0.306555 0.8222522
vt 0.2864156 0.7963032
vt 0.270643 0.8291187
vt 0.3041296 0.86336
vt 0.2646955 0.8648087
vt 0.3390349 0.8634188
vt 0.3055858 0.904319
vt 0.2695272 0.9001464
vt 0.3390349 0.9073341
vt 0.3117004 0.9455082
vt 0.2838878 0.9295313
vt 0.3390349 0.9519951
vt 0.2715962 0.7758046
vt 0.2503932 0.8170701
vt 0.2420081 0.8606519
vt 0.2470329 0.9055987
vt 0.3017486 0.9661292
vt 0.2664993 0.9452197
vt 0.3390396 0.974274
vt 0.3739498 0.86336
vt 0.4133836 0.8648087
vt 0.3724933 0.904319
vt 0.408552 0.9001464
vt 0.3663788 0.9455082
vt 0.3941915 0.9295313
vt 0.4360711 0.8606519
vt 0.4276861 0.8170701
vt 0.4310463 0.9055987
vt 0.3763308 0.9661292
vt 0.4115801 0.9452197
vt 0.1790718 0.9522204
vt 0.1951782 0.9162315
vt 0.1530405 0.9253722
vt 0.145255 0.9688343
vt 0.1105754 0.9288567
vt 0.1113129 0.9756934
vt 0.1543843 0.8790976
vt 0.1981151 0.8790976
vt 0.1100962 0.8790976
vt 0.1491172 0.8352976
vt 0.1876373 0.8382495
vt 0.1100962 0.8319411
vt 0.1406466 0.7946581
vt 0.1654506 0.8101557
vt 0.1100962 0.7885796
vt 0.07735258 0.9692614
vt 0.06846273 0.9253266
vt 0.04357237 0.9536498
vt 0.02652329 0.9184943
vt 0.06279004 0.8790976
vt 0.02207667 0.8790976
vt 0.07107472 0.8352976
vt 0.03255492 0.8382495
vt 0.07954538 0.7946581
vt 0.04902232 0.8101557
vn -0.769519 0.2158359 0.6010451
vn -0.754004 0.4256242 0.5003219
vn -0.3944339 0.5176717 0.7592352
vn -0.39188 0.2862757 0.8743434
vn -0.04581038 0.5404546 0.8401252
vn -0.04570197 0.3083268 0.950182
vn -0.9544839 0.1430978 0.2616932
vn -0.9328309 0.3263259 0.1527672
vn -0.9949815 0.09908839 -0.01390804
vn -0.9581615 0.2651103 -0.1079036
vn -0.9455069 0.008936019 -0.3254794
vn -0.895868 0.1701029 -0.4104699
vn -0.7018156 -0.1468882 -0.69705
vn -0.65619 0.01274818 -0.754488
vn -0.283902 -0.2701438 -0.9200119
vn -0.2691807 -0.09129852 -0.9587525
vn 0.04558318 -0.2915227 -0.9554772
vn 0.04356081 -0.1152014 -0.9923866
vn -0.01671255 0.9965347 -0.08148094
vn 0.3061787 0.3003542 0.9033505
vn 0.3089539 0.5318574 0.7884638
vn 0.7077101 0.2456289 0.6624296
vn 0.6921701 0.454791 0.5604156
vn 0.9229578 0.1809624 0.339708
vn 0.9030553 0.3633523 0.2290552
vn 0.98791 0.1390798 0.06848853
vn 0.9523595 0.303642 -0.02851441
vn 0.9681135 0.04753046 -0.2459616
vn 0.9192473 0.2067105 -0.3350452
vn 0.7625465 -0.1173545 -0.6362003
vn 0.715453 0.04041184 -0.6974912
vn 0.3698641 -0.2569588 -0.8928453
vn 0.3512194 -0.07878639 -0.9329726
vn 0.04558318 -0.2915227 -0.9554772
vn 0.04356081 -0.1152014 -0.9923866
vn 0.6921701 0.454791 0.5604156
vn 0.1439949 0.9854451 -0.09035182
vn 0.3603437 0.9219027 -0.1422952
vn 0.1429284 0.9221349 -0.3594976
vn 0.4357293 0.8502657 -0.2952766
vn -0.004443815 0.9374629 -0.348057
vn -0.1755536 0.9790003 -0.1036306
vn -0.149623 0.9162348 -0.371654
vn -0.3841159 0.9068883 -0.17323
vn -0.4436102 0.832531 -0.3318163
vn -0.1580898 0.8521612 -0.4988275
vn -0.4467011 0.7685317 -0.4580579
vn 0.003395606 0.8650994 -0.5015891
vn -0.1278754 0.7687047 -0.6266906
vn -0.4180841 0.6864844 -0.5949327
vn 0.01147399 0.762911 -0.6464016
vn -0.1310127 0.5313281 -0.8369743
vn -0.3186766 0.5527036 -0.7700416
vn 0.02483639 0.5233991 -0.8517256
vn -0.754004 0.4256242 0.5003219
vn -0.9328309 0.3263259 0.1527672
vn -0.9581615 0.2651103 -0.1079036
vn -0.895868 0.1701029 -0.4104699
vn -0.2691807 -0.09129852 -0.9587525
vn -0.65619 0.01274818 -0.754488
vn 0.04356081 -0.1152014 -0.9923866
vn 0.1644847 0.8586669 -0.4854234
vn 0.4518522 0.7866539 -0.4207198
vn 0.1483619 0.774276 -0.6152117
vn 0.4380106 0.7037506 -0.5593584
vn 0.1784793 0.5375698 -0.824114
vn 0.3589332 0.5663702 -0.7418839
vn 0.9523595 0.303642 -0.02851441
vn 0.9030553 0.3633523 0.2290552
vn 0.9192473 0.2067105 -0.3350452
vn 0.3512194 -0.07878639 -0.9329726
vn 0.715453 0.04041184 -0.6974912
vn 0.002761899 -0.9241322 0.3820629
vn 0.002761942 -0.9241321 0.3820632
vn 0.002761999 -0.9241321 0.382063
vn 0.002762037 -0.9241321 0.382063
vn 0.002761951 -0.9241321 0.3820631
vn 0.002761987 -0.924132 0.3820632
vn 0.002762019 -0.9241322 0.3820629
vn 0.00276182 -0.9241322 0.3820628
vn 0.002761917 -0.9241321 0.3820631
vn 0.002762007 -0.9241322 0.3820629
vn 0.002761652 -0.9241323 0.3820625
vn 0.002761883 -0.9241321 0.3820631
vn 0.002761946 -0.9241321 0.382063
vn 0.002761676 -0.9241319 0.3820634
vn 0.002761843 -0.9241321 0.3820631
vn 0.002761806 -0.9241321 0.382063
vn 0.002761798 -0.9241322 0.3820629
vn 0.002761593 -0.9241323 0.3820625
vn 0.002761858 -0.9241323 0.3820626
vn 0.002761829 -0.9241321 0.3820631
vn 0.002762047 -0.9241321 0.3820629
vn 0.00276175 -0.9241319 0.3820636
vn 0.002762118 -0.9241319 0.3820637
vn 0.002761732 -0.9241319 0.3820637
vn 0.002761975 -0.9241316 0.3820644
g Hat_Cap_0
f 3/3/3 2/2/2 1/1/1
f 4/4/4 3/3/3 1/1/1
f 5/5/5 3/3/3 4/4/4
f 6/6/6 5/5/5 4/4/4
f 1/1/1 2/2/2 7/7/7
f 2/2/2 8/8/8 7/7/7
f 7/7/7 8/8/8 9/9/9
f 8/8/8 10/10/10 9/9/9
f 9/9/9 10/10/10 11/11/11
f 10/10/10 12/12/12 11/11/11
f 11/11/11 12/12/12 13/13/13
f 12/12/12 14/14/14 13/13/13
f 15/15/15 13/13/13 14/14/14
f 16/16/16 15/15/15 14/14/14
f 17/17/17 15/15/15 16/16/16
f 18/18/18 17/17/17 16/16/16
f 5/5/5 19/19/19 3/3/3
f 5/5/5 6/6/6 20/20/20
f 21/21/21 5/5/5 20/20/20
f 21/21/21 20/20/20 22/22/22
f 23/23/23 21/21/21 22/22/22
f 23/23/23 22/22/22 24/24/24
f 25/25/25 23/23/23 24/24/24
f 25/25/25 24/24/24 26/26/26
f 27/27/27 25/25/25 26/26/26
f 27/27/27 26/26/26 28/28/28
f 29/29/29 27/27/27 28/28/28
f 29/29/29 28/28/28 30/30/30
f 31/31/31 29/29/29 30/30/30
f 30/30/30 32/32/32 31/31/31
f 32/32/32 33/33/33 31/31/31
f 32/32/32 34/34/34 33/33/33
f 34/34/34 35/35/35 33/33/33
f 37/37/37 21/21/21 36/36/36
f 38/38/38 37/37/37 36/36/36
f 39/39/39 37/37/37 38/38/38
f 40/40/40 39/39/39 38/38/38
f 39/39/39 41/41/41 37/37/37
f 41/41/41 19/19/19 37/37/37
f 19/19/19 41/41/41 42/42/42
f 41/41/41 43/43/43 42/42/42
f 42/42/42 43/43/43 44/44/44
f 43/43/43 45/45/45 44/44/44
f 43/43/43 46/46/46 45/45/45
f 46/46/46 47/47/47 45/45/45
f 48/48/48 46/46/46 43/43/43
f 41/41/41 48/48/48 43/43/43
f 48/48/48 41/41/41 39/39/39
f 46/46/46 49/49/49 47/47/47
f 49/49/49 50/50/50 47/47/47
f 51/51/51 49/49/49 46/46/46
f 48/48/48 51/51/51 46/46/46
f 49/49/49 52/52/52 50/50/50
f 52/52/52 53/53/53 50/50/50
f 54/54/54 52/52/52 49/49/49
f 51/51/51 54/54/54 49/49/49
f 42/42/42 44/44/44 55/55/55
f 3/3/3 42/42/42 55/55/55
f 19/19/19 42/42/42 3/3/3
f 44/44/44 45/45/45 56/56/56
f 55/55/55 44/44/44 56/56/56
f 45/45/45 47/47/47 57/57/57
f 56/56/56 45/45/45 57/57/57
f 47/47/47 50/50/50 58/58/58
f 57/57/57 47/47/47 58/58/58
f 53/53/53 52/52/52 59/59/59
f 60/60/60 53/53/53 59/59/59
f 50/50/50 53/53/53 60/60/60
f 58/58/58 50/50/50 60/60/60
f 52/52/52 54/54/54 61/61/61
f 59/59/59 52/52/52 61/61/61
f 51/51/51 48/48/48 62/62/62
f 62/62/62 48/48/48 39/39/39
f 62/62/62 39/39/39 40/40/40
f 63/63/63 62/62/62 40/40/40
f 64/64/64 62/62/62 63/63/63
f 65/65/65 64/64/64 63/63/63
f 64/64/64 51/51/51 62/62/62
f 66/66/66 64/64/64 65/65/65
f 67/67/67 66/66/66 65/65/65
f 54/54/54 51/51/51 64/64/64
f 66/66/66 54/54/54 64/64/64
f 54/54/54 66/66/66 61/61/61
f 63/63/63 40/40/40 68/68/68
f 40/40/40 69/69/69 68/68/68
f 40/40/40 38/38/38 69/69/69
f 38/38/38 36/36/36 69/69/69
f 63/63/63 68/68/68 70/70/70
f 65/65/65 63/63/63 70/70/70
f 66/66/66 67/67/67 71/71/71
f 67/67/67 72/72/72 71/71/71
f 65/65/65 70/70/70 72/72/72
f 67/67/67 65/65/65 72/72/72
f 66/66/66 71/71/71 61/61/61
f 75/75/75 74/74/74 73/73/73
f 76/76/76 75/75/75 73/73/73
f 77/77/77 75/75/75 76/76/76
f 78/78/78 77/77/77 76/76/76
f 75/75/75 79/79/79 74/74/74
f 79/79/79 80/80/80 74/74/74
f 81/81/81 79/79/79 75/75/75
f 77/77/77 81/81/81 75/75/75
f 79/79/79 82/82/82 80/80/80
f 82/82/82 83/83/83 80/80/80
f 84/84/84 82/82/82 79/79/79
f 81/81/81 84/84/84 79/79/79
f 82/82/82 85/85/85 83/83/83
f 85/85/85 86/86/86 83/83/83
f 87/87/87 85/85/85 82/82/82
f 84/84/84 87/87/87 82/82/82
f 77/77/77 78/78/78 88/88/88
f 89/89/89 77/77/77 88/88/88
f 81/81/81 77/77/77 89/89/89
f 89/89/89 88/88/88 90/90/90
f 91/91/91 89/89/89 90/90/90
f 92/92/92 89/89/89 91/91/91
f 92/92/92 81/81/81 89/89/89
f 84/84/84 81/81/81 92/92/92
f 93/93/93 92/92/92 91/91/91
f 94/94/94 92/92/92 93/93/93
f 94/94/94 84/84/84 92/92/92
f 87/87/87 84/84/84 94/94/94
f 95/95/95 94/94/94 93/93/93
f 96/96/96 94/94/94 95/95/95
f 96/96/96 87/87/87 94/94/94
f 97/97/97 96/96/96 95/95/95
f 19/19/19 5/5/5 21/21/21
f 37/37/37 19/19/19 21/21/21
