g Hat_Tall
v -0.2198275 1.126263 0.1251545
v -0.2419225 1.53633 -0.1007187
v -0.1411825 1.573332 -0.04215846
v -0.1244855 1.158441 0.1703594
v -0.02656018 1.587202 -0.01903415
v -0.02422443 1.172503 0.1902411
v -0.2740632 1.061873 0.03499314
v -0.2938972 1.466572 -0.2120164
v -0.3039241 0.9908186 -0.0643372
v -0.3127667 1.393735 -0.3251433
v -0.2890949 0.9193092 -0.1644012
v -0.2928802 1.318011 -0.4389161
v -0.2283975 0.851465 -0.259143
v -0.2319428 1.246586 -0.5356824
v -0.1130788 0.8223066 -0.2996681
v -0.1187964 1.212147 -0.5776426
v 0.00121942 0.8120556 -0.3137553
v 0.001934037 1.200061 -0.5945145
v 0.07769564 1.163063 0.1772611
v 0.08988497 1.578614 -0.03427075
v 0.1772661 1.13534 0.1387096
v 0.1959656 1.54634 -0.08577093
v 0.2404029 1.073633 0.05255494
v 0.2585347 1.4792 -0.1931586
v 0.2801761 1.004171 -0.04439837
v 0.2883753 1.407476 -0.3046228
v 0.2754807 0.9322148 -0.1451288
v 0.2797664 1.331101 -0.4193683
v 0.2245417 0.8618189 -0.2436815
v 0.2288895 1.25712 -0.5199515
v 0.1137044 0.8274906 -0.2919267
v 0.1205561 1.217619 -0.5694721
v 0.00121942 0.8120556 -0.3137553
v 0.001934037 1.200061 -0.5945145
v -0.1994565 1.552268 -0.1717465
v -0.2426664 1.494234 -0.2643573
v -0.1317736 1.535955 -0.25527
v -0.1151433 1.583202 -0.1214567
v -0.01809088 1.550529 -0.242581
v -0.02391356 1.595217 -0.1019328
v -0.1324955 1.466705 -0.3727981
v -0.2567131 1.431528 -0.361659
v -0.01196528 1.477147 -0.3728888
v -0.122524 1.3853 -0.4800151
v -0.238157 1.367942 -0.456472
v -0.006035526 1.387856 -0.486805
v -0.09512159 1.283749 -0.566383
v -0.1875985 1.312166 -0.5303648
v -0.0002031469 1.273431 -0.5810383
v -0.2419225 1.53633 -0.1007187
v -0.1411825 1.573332 -0.04215846
v -0.02656018 1.587202 -0.01903415
v -0.2928802 1.318011 -0.4389161
v -0.3127667 1.393735 -0.3251433
v -0.2938972 1.466572 -0.2120164
v -0.1187964 1.212147 -0.5776426
v -0.2319428 1.246586 -0.5356824
v 0.001934037 1.200061 -0.5945145
v 0.1097142 1.390608 -0.4720874
v 0.1086292 1.472217 -0.3645671
v 0.2332745 1.442728 -0.3449327
v 0.2097814 1.504577 -0.2489126
v 0.09673876 1.541179 -0.2474695
v 0.1577563 1.560434 -0.1595527
v 0.06888782 1.587409 -0.1151746
v 0.2241452 1.378509 -0.4406909
v 0.09292565 1.288047 -0.5599638
v 0.181339 1.3206 -0.5177707
v 0.1959656 1.54634 -0.08577093
v 0.08988497 1.578614 -0.03427075
v 0.2585347 1.4792 -0.1931586
v 0.2883753 1.407476 -0.3046228
v 0.2797664 1.331101 -0.4193683
v 0.1205561 1.217619 -0.5694721
v 0.2288895 1.25712 -0.5199515
v -0.2283975 0.851465 -0.259143
v -0.2890949 0.9193092 -0.1644012
v -0.1467977 0.9052912 -0.1836953
v -0.1130788 0.8223066 -0.2996681
v -0.005104929 0.9016488 -0.1884814
v 0.00121942 0.8120556 -0.3137553
v -0.1586126 0.9941402 -0.05937684
v -0.3039241 0.9908186 -0.0643372
v -0.01187396 0.9974946 -0.05436779
v -0.1470862 1.079247 0.05956537
v -0.2740632 1.061873 0.03499314
v -0.01830817 1.088691 0.07305089
v -0.1244855 1.158441 0.1703594
v -0.2198275 1.126263 0.1251545
v -0.02422443 1.172503 0.1902411
v 0.1137044 0.8274906 -0.2919267
v 0.1356179 0.911747 -0.1740548
v 0.2245417 0.8618189 -0.2436815
v 0.2754807 0.9322148 -0.1451288
v 0.1348647 1.000849 -0.04935871
v 0.2801761 1.004171 -0.04439837
v 0.111386 1.085156 0.06838857
v 0.2404029 1.073633 0.05255494
v 0.07769564 1.163063 0.1772611
v 0.1772661 1.13534 0.1387096
vt 0.2634037 0.2404652
vt 0.2634037 0.4373596
vt 0.3027761 0.4371567
vt 0.3033395 0.240465
vt 0.3384997 0.4362745
vt 0.3385656 0.2403172
vt 0.2222199 0.2404652
vt 0.2222199 0.4373596
vt 0.1802896 0.2404649
vt 0.1802896 0.4373596
vt 0.1389977 0.240465
vt 0.1389977 0.4373596
vt 0.09521542 0.2404652
vt 0.09521542 0.4373596
vt 0.05334271 0.2404652
vt 0.05334271 0.4373596
vt 0.01481737 0.2404652
vt 0.01481737 0.4373596
vt 0.3736007 0.240465
vt 0.3741639 0.4371567
vt 0.4135366 0.2404652
vt 0.4135366 0.4373596
vt 0.45472 0.2404652
vt 0.45472 0.4373596
vt 0.4966504 0.2404649
vt 0.4966504 0.4373596
vt 0.5379422 0.240465
vt 0.5379422 0.4373596
vt 0.5817243 0.2404652
vt 0.5817243 0.4373596
vt 0.6235974 0.2404652
vt 0.6235974 0.4373596
vt 0.6621225 0.2404652
vt 0.6621225 0.4373596
vt 0.2837082 0.4736736
vt 0.2717962 0.5077655
vt 0.305279 0.4991539
vt 0.3090513 0.4560618
vt 0.338425 0.4946648
vt 0.338425 0.4499867
vt 0.305069 0.5423115
vt 0.2678637 0.5443135
vt 0.338425 0.5419774
vt 0.305772 0.5851909
vt 0.2715991 0.5808064
vt 0.338425 0.5879927
vt 0.3107681 0.6266328
vt 0.2835936 0.6108676
vt 0.338425 0.6335647
vt 0.2695194 0.4577114
vt 0.3027761 0.4371567
vt 0.3384997 0.4362745
vt 0.2496502 0.5847837
vt 0.2458254 0.5411309
vt 0.2507089 0.4986844
vt 0.3030097 0.6442741
vt 0.2683934 0.6237828
vt 0.3384698 0.6524424
vt 0.3711679 0.5851909
vt 0.371871 0.5423115
vt 0.4090762 0.5443135
vt 0.4051435 0.5077655
vt 0.371661 0.4991539
vt 0.3932318 0.4736736
vt 0.3678888 0.4560618
vt 0.4053409 0.5808064
vt 0.3661717 0.6266328
vt 0.3933464 0.6108676
vt 0.4074207 0.4577114
vt 0.3741639 0.4371567
vt 0.4262311 0.4986844
vt 0.4311146 0.5411309
vt 0.4272898 0.5847837
vt 0.3739304 0.6442741
vt 0.4085468 0.6237828
vt 0.04968384 0.8118035
vt 0.03199688 0.8412405
vt 0.06987052 0.8372955
vt 0.08079076 0.7985917
vt 0.1091391 0.8351289
vt 0.1089887 0.7917204
vt 0.06286874 0.8841695
vt 0.01990601 0.8834148
vt 0.1091391 0.8841695
vt 0.06831615 0.9294652
vt 0.02847937 0.9217346
vt 0.1091391 0.9329373
vt 0.07707568 0.9714909
vt 0.04674433 0.955467
vt 0.1091554 0.9780356
vt 0.1402047 0.7970831
vt 0.1481076 0.8365414
vt 0.1678547 0.8125579
vt 0.1874899 0.8412405
vt 0.1551093 0.8841695
vt 0.200335 0.8841695
vt 0.1526794 0.9287105
vt 0.1955334 0.9179626
vt 0.1439195 0.9707366
vt 0.1772683 0.9539583
vn -0.7757581 0.2737417 0.5685639
vn -0.7678695 0.2782968 0.5769987
vn -0.3915894 0.4117559 0.8228699
vn -0.3936285 0.4113484 0.8221004
vn -0.0407358 0.4494038 0.8923995
vn -0.04073578 0.4494039 0.8923995
vn -0.9551035 0.120488 0.2706655
vn -0.9537977 0.122281 0.2744401
vn -0.9994779 -0.007581354 0.03140982
vn -0.9993452 -0.005046129 0.03582842
vn -0.9530784 -0.1797503 -0.2435806
vn -0.9540195 -0.1780792 -0.2411111
vn -0.6963017 -0.417131 -0.5840938
vn -0.7034589 -0.4130717 -0.5783748
vn -0.2925749 -0.5568789 -0.7773582
vn -0.2957389 -0.5562701 -0.7765965
vn 0.04102437 -0.5838272 -0.8108407
vn 0.0410244 -0.5838272 -0.8108407
vn 0.3174956 0.427604 0.8463754
vn 0.3153924 0.4279166 0.8470036
vn 0.7218983 0.3079766 0.619688
vn 0.7132536 0.3121537 0.6275583
vn 0.9279381 0.1635323 0.3349449
vn 0.9262975 0.1652578 0.3386189
vn 0.994315 0.03799452 0.0994699
vn 0.9937658 0.04051417 0.1038653
vn 0.9746722 -0.1356841 -0.1777749
vn 0.9753656 -0.1339756 -0.1752496
vn 0.7528036 -0.3840061 -0.5346271
vn 0.7593614 -0.3796333 -0.5284401
vn 0.3699877 -0.5417336 -0.754741
vn 0.3730614 -0.5409821 -0.7537662
vn 0.04102437 -0.5838272 -0.8108407
vn 0.0410244 -0.5838272 -0.8108407
vn -0.3855945 0.8940537 -0.2280018
vn -0.4460084 0.8097931 -0.3811977
vn -0.1533989 0.8906221 -0.42809
vn -0.1780744 0.9701875 -0.1643945
vn -0.007000542 0.9135489 -0.4066688
vn -0.01770317 0.9894263 -0.1439528
vn -0.1625886 0.8186761 -0.5507581
vn -0.4498296 0.7379251 -0.5031101
vn -5.035388E-05 0.8315894 -0.5553909
vn -0.1330462 0.7274072 -0.6731845
vn -0.421998 0.6473758 -0.6346828
vn 0.00720475 0.7204272 -0.693493
vn -0.1376877 0.4771249 -0.8679827
vn -0.3235822 0.5027825 -0.8015636
vn 0.01946279 0.4679705 -0.8835298
vn -0.4759287 0.8750333 -0.0883671
vn -0.247842 0.9678534 0.0428263
vn -0.02577656 0.9957595 0.08830971
vn -0.6353736 0.4940112 -0.5935093
vn -0.677745 0.6157477 -0.4018912
vn -0.640531 0.7262337 -0.2496091
vn -0.2075097 0.2206502 -0.9530231
vn -0.4428709 0.3470802 -0.8266805
vn 0.02914486 0.1903896 -0.9812759
vn 0.1452806 0.7337697 -0.6636834
vn 0.1622139 0.8261008 -0.5396704
vn 0.4489246 0.7584696 -0.4724304
vn 0.4335268 0.8298979 -0.3511752
vn 0.1414108 0.8973609 -0.4180267
vn 0.3590294 0.9110752 -0.2025832
vn 0.1443986 0.977559 -0.1533866
vn 0.4342871 0.66695 -0.6054522
vn 0.1746061 0.4842636 -0.8573223
vn 0.3541763 0.5182753 -0.7784278
vn 0.44041 0.89598 -0.05708579
vn 0.1999136 0.9780888 0.05811021
vn 0.6222389 0.7550994 -0.2065035
vn 0.6747488 0.6466647 -0.3557229
vn 0.6511368 0.5234199 -0.549593
vn 0.2616948 0.2313761 -0.9370063
vn 0.4818811 0.3682197 -0.7951131
vn -0.001261912 -0.8134187 0.5816771
vn -0.001280782 -0.8135933 0.5814329
vn -0.001267623 -0.8135396 0.5815082
vn -0.001261673 -0.8134192 0.5816765
vn -0.001254473 -0.8135273 0.5815253
vn -0.001262112 -0.8134192 0.5816765
vn -0.001289288 -0.8134252 0.5816681
vn -0.001301776 -0.813444 0.5816419
vn -0.001261712 -0.813424 0.5816699
vn -0.00128549 -0.8132874 0.5818608
vn -0.001306587 -0.8132259 0.5819467
vn -0.001270362 -0.8133018 0.5818408
vn -0.001262435 -0.8134189 0.581677
vn -0.001262527 -0.8134192 0.5816767
vn -0.001262187 -0.8134187 0.5816771
vn -0.001262567 -0.8134191 0.5816767
vn -0.001239745 -0.8135389 0.5815091
vn -0.001262372 -0.8134189 0.581677
vn -0.001219291 -0.8135918 0.5814351
vn -0.00123434 -0.813424 0.5816699
vn -0.001219574 -0.8134417 0.581645
vn -0.00125752 -0.8132869 0.5818614
vn -0.001245502 -0.8132244 0.5819489
vn -0.001262008 -0.8134191 0.5816767
vn -0.001262118 -0.8134199 0.5816756
g Hat_Tall_0
f 3/3/3 2/2/2 1/1/1
f 4/4/4 3/3/3 1/1/1
f 5/5/5 3/3/3 4/4/4
f 6/6/6 5/5/5 4/4/4
f 1/1/1 2/2/2 7/7/7
f 2/2/2 8/8/8 7/7/7
f 7/7/7 8/8/8 9/9/9
f 8/8/8 10/10/10 9/9/9
f 9/9/9 10/10/10 11/11/11
f 10/10/10 12/12/12 11/11/11
f 11/11/11 12/12/12 13/13/13
f 12/12/12 14/14/14 13/13/13
f 15/15/15 13/13/13 14/14/14
f 16/16/16 15/15/15 14/14/14
f 17/17/17 15/15/15 16/16/16
f 18/18/18 17/17/17 16/16/16
f 5/5/5 6/6/6 19/19/19
f 20/20/20 5/5/5 19/19/19
f 20/20/20 19/19/19 21/21/21
f 22/22/22 20/20/20 21/21/21
f 22/22/22 21/21/21 23/23/23
f 24/24/24 22/22/22 23/23/23
f 24/24/24 23/23/23 25/25/25
f 26/26/26 24/24/24 25/25/25
f 26/26/26 25/25/25 27/27/27
f 28/28/28 26/26/26 27/27/27
f 28/28/28 27/27/27 29/29/29
f 30/30/30 28/28/28 29/29/29
f 29/29/29 31/31/31 30/30/30
f 31/31/31 32/32/32 30/30/30
f 31/31/31 33/33/33 32/32/32
f 33/33/33 34/34/34 32/32/32
f 37/37/37 36/36/36 35/35/35
f 38/38/38 37/37/37 35/35/35
f 39/39/39 37/37/37 38/38/38
f 40/40/40 39/39/39 38/38/38
f 37/37/37 41/41/41 36/36/36
f 41/41/41 42/42/42 36/36/36
f 43/43/43 41/41/41 37/37/37
f 39/39/39 43/43/43 37/37/37
f 41/41/41 44/44/44 42/42/42
f 44/44/44 45/45/45 42/42/42
f 46/46/46 44/44/44 41/41/41
f 43/43/43 46/46/46 41/41/41
f 44/44/44 47/47/47 45/45/45
f 47/47/47 48/48/48 45/45/45
f 49/49/49 47/47/47 44/44/44
f 46/46/46 49/49/49 44/44/44
f 38/38/38 35/35/35 50/50/50
f 51/51/51 38/38/38 50/50/50
f 40/40/40 38/38/38 51/51/51
f 52/52/52 40/40/40 51/51/51
f 42/42/42 45/45/45 53/53/53
f 54/54/54 42/42/42 53/53/53
f 36/36/36 42/42/42 54/54/54
f 55/55/55 36/36/36 54/54/54
f 35/35/35 36/36/36 55/55/55
f 50/50/50 35/35/35 55/55/55
f 48/48/48 47/47/47 56/56/56
f 57/57/57 48/48/48 56/56/56
f 45/45/45 48/48/48 57/57/57
f 53/53/53 45/45/45 57/57/57
f 47/47/47 49/49/49 58/58/58
f 56/56/56 47/47/47 58/58/58
f 49/49/49 46/46/46 59/59/59
f 59/59/59 46/46/46 60/60/60
f 59/59/59 60/60/60 61/61/61
f 61/61/61 60/60/60 62/62/62
f 60/60/60 63/63/63 62/62/62
f 62/62/62 63/63/63 64/64/64
f 63/63/63 65/65/65 64/64/64
f 63/63/63 39/39/39 65/65/65
f 39/39/39 40/40/40 65/65/65
f 43/43/43 39/39/39 63/63/63
f 60/60/60 43/43/43 63/63/63
f 46/46/46 43/43/43 60/60/60
f 66/66/66 59/59/59 61/61/61
f 67/67/67 59/59/59 66/66/66
f 68/68/68 67/67/67 66/66/66
f 67/67/67 49/49/49 59/59/59
f 49/49/49 67/67/67 58/58/58
f 64/64/64 65/65/65 69/69/69
f 65/65/65 70/70/70 69/69/69
f 65/65/65 40/40/40 70/70/70
f 64/64/64 69/69/69 71/71/71
f 62/62/62 64/64/64 71/71/71
f 40/40/40 52/52/52 70/70/70
f 62/62/62 71/71/71 72/72/72
f 61/61/61 62/62/62 72/72/72
f 61/61/61 72/72/72 73/73/73
f 66/66/66 61/61/61 73/73/73
f 67/67/67 68/68/68 74/74/74
f 68/68/68 75/75/75 74/74/74
f 66/66/66 73/73/73 75/75/75
f 68/68/68 66/66/66 75/75/75
f 67/67/67 74/74/74 58/58/58
f 78/78/78 77/77/77 76/76/76
f 79/79/79 78/78/78 76/76/76
f 80/80/80 78/78/78 79/79/79
f 81/81/81 80/80/80 79/79/79
f 78/78/78 82/82/82 77/77/77
f 82/82/82 83/83/83 77/77/77
f 84/84/84 82/82/82 78/78/78
f 80/80/80 84/84/84 78/78/78
f 82/82/82 85/85/85 83/83/83
f 85/85/85 86/86/86 83/83/83
f 87/87/87 85/85/85 82/82/82
f 84/84/84 87/87/87 82/82/82
f 85/85/85 88/88/88 86/86/86
f 88/88/88 89/89/89 86/86/86
f 90/90/90 88/88/88 85/85/85
f 87/87/87 90/90/90 85/85/85
f 80/80/80 81/81/81 91/91/91
f 92/92/92 80/80/80 91/91/91
f 84/84/84 80/80/80 92/92/92
f 92/92/92 91/91/91 93/93/93
f 94/94/94 92/92/92 93/93/93
f 95/95/95 92/92/92 94/94/94
f 95/95/95 84/84/84 92/92/92
f 87/87/87 84/84/84 95/95/95
f 96/96/96 95/95/95 94/94/94
f 97/97/97 95/95/95 96/96/96
f 97/97/97 87/87/87 95/95/95
f 90/90/90 87/87/87 97/97/97
f 98/98/98 97/97/97 96/96/96
f 99/99/99 97/97/97 98/98/98
f 99/99/99 90/90/90 97/97/97
f 100/100/100 99/99/99 98/98/98
