g Knife
v -0.5354701 0.3362756 0.2619494
v -0.4894524 0.3130413 0.2619495
v -0.6233123 0.04791855 0.3035298
v -0.6693301 0.0711528 0.3035298
v -0.6900839 0.08180874 0.2627017
v -0.5562954 0.3467902 0.2289546
v -0.5562954 0.3467902 0.1936391
v -0.6900761 0.08182424 0.1936389
v -0.6692508 0.07130962 0.160644
v -0.5354701 0.3362756 0.1606442
v -0.6232331 0.04807537 0.160644
v -0.4894524 0.3130413 0.1606442
v -0.6024081 0.03756087 0.1936389
v -0.4686274 0.3025269 0.1936391
v -0.4686274 0.3025268 0.2289546
v -0.6024159 0.03754537 0.2627018
v -0.6233123 0.04791855 0.3035298
v -0.4894524 0.3130413 0.2619495
v -0.6780453 0.04525543 0.2569389
v -0.6635033 0.04588272 0.2843634
v -0.6471058 0.03760361 0.2843634
v -0.6389771 0.02552996 0.2569389
v -0.6693301 0.0711528 0.3035298
v -0.6233123 0.04791855 0.3035298
v -0.6024159 0.03754537 0.2627018
v -0.6389771 0.02552997 0.2106949
v -0.6024081 0.03756087 0.1936389
v -0.6471057 0.03760362 0.1832705
v -0.6232331 0.04807537 0.160644
v -0.6635033 0.04588274 0.1832705
v -0.6692508 0.07130962 0.160644
v -0.6780453 0.04525544 0.2106949
v -0.07843612 1.126409 0.2305446
v -0.07144128 1.186676 0.2553442
v -0.04223295 1.248095 0.1606449
v -0.05903893 1.164827 0.1606448
v -0.1203123 1.043469 0.302076
v -0.1207495 1.08892 0.3451547
v -0.1669302 0.9992592 0.3950873
v -0.1624288 0.9600537 0.3427637
v -0.224048 0.8879002 0.4346691
v -0.2116792 0.8625084 0.375781
v -0.2889841 0.7590432 0.4542047
v -0.2729835 0.7410892 0.3897436
v -0.3546322 0.6275288 0.4646595
v -0.3352585 0.6177471 0.3930562
v -0.4520032 0.3865228 0.3930561
v -0.4716727 0.3964539 0.4649175
v -0.05903893 1.164827 0.1606448
v -0.04223295 1.248095 0.1606449
v -0.04858813 1.251303 0.1606449
v -0.1056127 1.188342 0.1606448
v -0.1624286 0.9600537 0.1606447
v -0.2090024 0.9835688 0.1606447
v -0.2116791 0.8625084 0.1606446
v -0.2582528 0.8860234 0.1606446
v -0.2726694 0.741711 0.1606445
v -0.3192431 0.7652259 0.1606445
v -0.3352584 0.6177472 0.1606444
v -0.3818322 0.6412622 0.1606444
v -0.4520031 0.3865228 0.1606443
v -0.4985768 0.4100378 0.1606443
v -0.1056127 1.188342 0.1606448
v -0.04858813 1.251303 0.1606449
v -0.08066819 1.191335 0.2553442
v -0.1250098 1.149924 0.2305446
v -0.1300632 1.093611 0.3451441
v -0.1668861 1.066984 0.302076
v -0.2090024 0.9835687 0.3427637
v -0.1763128 1.003947 0.3949553
v -0.2332882 0.8924858 0.434439
v -0.2582529 0.8860233 0.375781
v -0.2973881 0.7632352 0.4540592
v -0.3195572 0.7646041 0.3897436
v -0.362459 0.6314806 0.4646577
v -0.3818322 0.6412621 0.3930562
v -0.4789073 0.4001066 0.4649175
v -0.4985769 0.4100378 0.3930561
v -0.4985769 0.4100378 0.3930561
v -0.4789073 0.4001066 0.4649175
v -0.4716727 0.3964539 0.4649175
v -0.4520032 0.3865228 0.3930561
v -0.4985768 0.4100378 0.2619495
v -0.4520031 0.3865228 0.2619495
v -0.4985768 0.4100378 0.1606443
v -0.4520031 0.3865228 0.1606443
v -0.4520031 0.3865228 0.2619495
v -0.3352585 0.6177472 0.2619497
v -0.3352584 0.6177472 0.1606444
v -0.4520031 0.3865228 0.1606443
v -0.3352585 0.6177471 0.3930562
v -0.4520032 0.3865228 0.3930561
v -0.2729835 0.7410892 0.3897436
v -0.2726695 0.741711 0.2619498
v -0.2116792 0.8625084 0.375781
v -0.2116791 0.8625084 0.2578708
v -0.1624288 0.9600537 0.3427637
v -0.1624287 0.9600537 0.2517737
v -0.2116791 0.8625084 0.1606446
v -0.2726694 0.741711 0.1606445
v -0.1624286 0.9600537 0.1606447
v -0.05903893 1.164827 0.1606448
v -0.07843612 1.126409 0.2305446
v -0.1203123 1.043469 0.302076
v -0.4985768 0.4100378 0.1606443
v -0.3818322 0.6412622 0.1606444
v -0.3818322 0.6412621 0.2619497
v -0.4985768 0.4100378 0.2619495
v -0.4985769 0.4100378 0.3930561
v -0.3818322 0.6412621 0.3930562
v -0.3192432 0.7652259 0.2619497
v -0.3195572 0.7646041 0.3897436
v -0.2582528 0.8860233 0.2578707
v -0.3192431 0.7652259 0.1606445
v -0.2582528 0.8860234 0.1606446
v -0.2090024 0.9835687 0.2517737
v -0.2090024 0.9835688 0.1606447
v -0.2582529 0.8860233 0.375781
v -0.2090024 0.9835687 0.3427637
v -0.1668861 1.066984 0.302076
v -0.1250098 1.149924 0.2305446
v -0.1056127 1.188342 0.1606448
v -0.1669302 0.9992592 0.3950873
v -0.224048 0.8879002 0.4346691
v -0.2332882 0.8924858 0.434439
v -0.1763128 1.003947 0.3949553
v -0.2973881 0.7632352 0.4540592
v -0.2889841 0.7590432 0.4542047
v -0.362459 0.6314806 0.4646577
v -0.3546322 0.6275288 0.4646595
v -0.4789073 0.4001066 0.4649175
v -0.4716727 0.3964539 0.4649175
v -0.1207495 1.08892 0.3451547
v -0.1300632 1.093611 0.3451441
v -0.07144128 1.186676 0.2553442
v -0.08066819 1.191335 0.2553442
v -0.04223295 1.248095 0.1606449
v -0.04858813 1.251303 0.1606449
v -0.5562954 0.3467902 0.1936391
v -0.519124 0.420412 0.1936391
v -0.519124 0.420412 0.2289546
v -0.5562954 0.3467902 0.2289546
v -0.4982987 0.4098973 0.2619495
v -0.5354701 0.3362756 0.2619494
v -0.452281 0.3866631 0.2619495
v -0.4894524 0.3130413 0.2619495
v -0.4982987 0.4098973 0.1606443
v -0.4522809 0.3866631 0.1606443
v -0.4686274 0.3025269 0.1936391
v -0.431456 0.3761486 0.1936391
v -0.4686274 0.3025268 0.2289546
v -0.431456 0.3761486 0.2289546
v -0.4894524 0.3130413 0.2619495
v -0.452281 0.3866631 0.2619495
v -0.519124 0.420412 0.1936391
v -0.4982987 0.4098973 0.1606443
v -0.4522809 0.3866631 0.1606443
v -0.431456 0.3761486 0.1936391
v -0.431456 0.3761486 0.2289546
v -0.519124 0.420412 0.2289546
v -0.4982987 0.4098973 0.2619495
v -0.452281 0.3866631 0.2619495
vt 0.6874396 0.6029371
vt 0.6452088 0.6029371
vt 0.6355727 0.8918594
vt 0.6874344 0.8918593
vt 0.7311937 0.8918594
vt 0.7513924 0.6029372
vt 0.7856338 0.6029372
vt 0.7943829 0.8918594
vt 0.8326891 0.8918593
vt 0.8251139 0.6029371
vt 0.8671477 0.8918594
vt 0.8604643 0.6029371
vt 0.9008814 0.8918594
vt 0.8943388 0.6029372
vt 0.9270076 0.6029374
vt 0.9463921 0.8918596
vt 0.980292 0.8918597
vt 0.9547583 0.6029373
vt 0.7406726 0.9171303
vt 0.7196715 0.928717
vt 0.7198783 0.9454688
vt 0.7413192 0.9570422
vt 0.6982583 0.9135919
vt 0.698799 0.9606034
vt 0.7340047 0.9818681
vt 0.7756015 0.9570308
vt 0.7915746 0.9818515
vt 0.7972573 0.9454445
vt 0.8211355 0.960569
vt 0.7975216 0.9286928
vt 0.8219056 0.9135574
vt 0.7760121 0.9171191
vt 0.2233881 0.8248435
vt 0.2017877 0.8744476
vt 0.2842707 0.9336675
vt 0.2842707 0.8623286
vt 0.1610843 0.7439173
vt 0.1235629 0.7790842
vt 0.0800718 0.6912428
vt 0.1256455 0.6625271
vt 0.04559603 0.5822372
vt 0.09688737 0.5673502
vt 0.02858045 0.4565575
vt 0.08472603 0.4488791
vt 0.01947435 0.328532
vt 0.08184057 0.328532
vt 0.08184057 0.102922
vt 0.01924947 0.102922
vt 0.2842707 0.8623286
vt 0.3038917 0.9336675
vt 0.3100927 0.9336675
vt 0.3297136 0.8623286
vt 0.2842707 0.6625272
vt 0.3297135 0.6625272
vt 0.2842707 0.5673502
vt 0.3297135 0.5673502
vt 0.2842707 0.4494858
vt 0.3297135 0.4494858
vt 0.2842707 0.328532
vt 0.3297135 0.328532
vt 0.2842707 0.102922
vt 0.3294874 0.102922
vt 0.3297136 0.8623286
vt 0.3297137 0.9336675
vt 0.4121967 0.8744476
vt 0.3905963 0.8248434
vt 0.4904121 0.7790754
vt 0.4529001 0.7439173
vt 0.4883389 0.6625271
vt 0.5337976 0.6912043
vt 0.5681878 0.5821751
vt 0.5170969 0.5673501
vt 0.585277 0.4565175
vt 0.5292583 0.448879
vt 0.5945082 0.3285319
vt 0.5321436 0.328532
vt 0.5947347 0.1029219
vt 0.5324004 0.1029219
vt 0.5324004 0.1029219
vt 0.5955472 0.08363846
vt 0.5955471 0.07654569
vt 0.5326574 0.05726233
vt 0.4179346 0.102922
vt 0.4179192 0.05726233
vt 0.3294874 0.102922
vt 0.3292615 0.05726248
vt 0.196034 0.102922
vt 0.196034 0.328532
vt 0.2842707 0.328532
vt 0.2842707 0.102922
vt 0.08184057 0.328532
vt 0.08184057 0.102922
vt 0.08472603 0.4488791
vt 0.196034 0.4494858
vt 0.09688737 0.5673502
vt 0.1995869 0.5673502
vt 0.1256455 0.6625271
vt 0.2048975 0.6625272
vt 0.2842707 0.5673502
vt 0.2842707 0.4494858
vt 0.2842707 0.6625272
vt 0.2842707 0.8623286
vt 0.2233881 0.8248435
vt 0.1610843 0.7439173
vt 0.3294874 0.102922
vt 0.3297135 0.328532
vt 0.4179502 0.328532
vt 0.4179346 0.102922
vt 0.5324004 0.1029219
vt 0.5321436 0.328532
vt 0.4179502 0.4494858
vt 0.5292583 0.448879
vt 0.4143973 0.5673502
vt 0.3297135 0.4494858
vt 0.3297135 0.5673502
vt 0.4090868 0.6625271
vt 0.3297135 0.6625272
vt 0.5170969 0.5673501
vt 0.4883389 0.6625271
vt 0.4529001 0.7439173
vt 0.3905963 0.8248434
vt 0.3297136 0.8623286
vt 0.5657943 0.7033181
vt 0.6063077 0.5902874
vt 0.5681878 0.5821751
vt 0.5337976 0.6912043
vt 0.585277 0.4565175
vt 0.6213108 0.4565573
vt 0.5945082 0.3285319
vt 0.6307079 0.3285705
vt 0.5947347 0.1029219
vt 0.6312273 0.1029992
vt 0.5223032 0.7951847
vt 0.4904121 0.7790754
vt 0.4440785 0.8905481
vt 0.4121967 0.8744476
vt 0.3615955 0.9497683
vt 0.3297137 0.9336675
vt 0.7856338 0.6029372
vt 0.7863195 0.5266626
vt 0.7506076 0.5266628
vt 0.7513924 0.6029372
vt 0.6873503 0.5266626
vt 0.6874396 0.6029371
vt 0.6453273 0.5266626
vt 0.6452088 0.6029371
vt 0.824075 0.5266626
vt 0.858054 0.5266626
vt 0.8943388 0.6029372
vt 0.8918985 0.5266628
vt 0.9270076 0.6029374
vt 0.9245505 0.5266628
vt 0.9547583 0.6029373
vt 0.9522387 0.5266628
vt 0.7863195 0.5266626
vt 0.8213696 0.5040686
vt 0.8216287 0.4495553
vt 0.7869051 0.4248849
vt 0.7497659 0.4248836
vt 0.7506076 0.5266628
vt 0.7154735 0.5040659
vt 0.7151283 0.4495526
vn -0.3528699 0.3122511 0.882033
vn 0.4607671 -0.09855232 0.8820324
vn 0.4129909 -0.1323323 0.9010698
vn -0.3516857 0.2537511 0.9010702
vn -0.8796297 0.3934942 0.2672336
vn -0.8537539 0.4644902 0.2352724
vn -0.8609683 0.4347008 -0.2641378
vn -0.8927783 0.3654219 -0.2634646
vn -0.3882395 0.1346982 -0.9116614
vn -0.35995 0.1817385 -0.9150995
vn 0.3388963 -0.232431 -0.9116606
vn 0.3599519 -0.1817382 -0.9150989
vn 0.8241086 -0.5014311 -0.263461
vn 0.8609691 -0.4347012 -0.2641345
vn 0.8806559 -0.4112095 0.2352696
vn 0.8388907 -0.4741838 0.2672306
vn 0.4129909 -0.1323323 0.9010698
vn 0.4607671 -0.09855232 0.8820324
vn -0.7797323 -0.6160803 0.1116353
vn -0.6058333 -0.6327494 0.4822801
vn -0.1494527 -0.8631754 0.4822781
vn -0.03279676 -0.9932081 0.1116336
vn -0.3516857 0.2537511 0.9010702
vn 0.4129909 -0.1323323 0.9010698
vn 0.8388907 -0.4741838 0.2672306
vn -0.03590398 -0.9946616 -0.09674271
vn 0.8241086 -0.5014311 -0.263461
vn -0.1971956 -0.8636355 -0.4639477
vn 0.3388963 -0.232431 -0.9116606
vn -0.5778584 -0.6714388 -0.4639502
vn -0.3882395 0.1346982 -0.9116614
vn -0.7790572 -0.6194435 -0.09674482
vn 0.9483333 -0.2158312 0.2325532
vn 0.9547973 -0.2075951 0.2127592
vn 0.9669234 -0.1897802 0.170419
vn 0.9669234 -0.1897802 0.170419
vn 0.9188433 -0.2661021 0.2914047
vn 0.9226201 -0.2582266 0.2865156
vn 0.8932807 -0.3160522 0.3196258
vn 0.8909898 -0.3204014 0.3216832
vn 0.8706341 -0.3633376 0.3316352
vn 0.8695961 -0.3656103 0.3318608
vn 0.8580635 -0.4013699 0.3203581
vn 0.8580083 -0.4021683 0.3195035
vn 0.854862 -0.4255591 0.2968339
vn 0.8549081 -0.4253231 0.2970392
vn 0.8536617 -0.4315349 0.2916152
vn 0.8536617 -0.4315349 0.2916152
vn 3.087575E-07 5.980838E-07 -1
vn 0.1569507 0.3108563 -0.9374086
vn 0.1569506 0.310856 -0.9374087
vn 3.087573E-07 5.980838E-07 -1
vn 2.590705E-07 6.032938E-07 -1
vn 2.590705E-07 6.032939E-07 -1
vn 3.58711E-07 6.264941E-07 -1
vn 3.58711E-07 6.264941E-07 -1
vn 4.266579E-07 5.588731E-07 -1
vn 4.266579E-07 5.588732E-07 -1
vn 4.410168E-07 5.562862E-07 -1
vn 4.410168E-07 5.562861E-07 -1
vn 4.516363E-07 5.915921E-07 -1
vn 4.516363E-07 5.915921E-07 -1
vn -0.726796 0.6653761 0.1704177
vn -0.726796 0.6653761 0.1704177
vn -0.7339307 0.645044 0.2127532
vn -0.7367206 0.6349514 0.2325503
vn -0.7568671 0.5903851 0.2803527
vn -0.7614409 0.5829527 0.283503
vn -0.7957354 0.5285628 0.2956799
vn -0.79251 0.533348 0.2957494
vn -0.8222818 0.4843993 0.2986803
vn -0.823564 0.4820543 0.2989415
vn -0.8423493 0.4488432 0.2983074
vn -0.8427239 0.448263 0.2981218
vn -0.8521581 0.4336603 0.2928572
vn -0.8520776 0.4337836 0.2929088
vn -0.8540823 0.4307012 0.291616
vn -0.8540823 0.4307012 0.291616
vn -0.4507084 -0.8926712 0
vn -0.343531 -0.6802376 0.6475055
vn -0.3435313 -0.680238 0.6475048
vn -0.4507084 -0.8926712 0
vn -0.4507082 -0.8926713 -3.256536E-07
vn -0.4507082 -0.8926713 -3.256534E-07
vn -0.450708 -0.8926714 -6.746592E-07
vn -0.4507081 -0.8926714 -6.746592E-07
vn 0.8926716 -0.4507079 2.620062E-07
vn 0.8926716 -0.4507079 2.795792E-07
vn 0.8926716 -0.4507078 3.785484E-07
vn 0.8926716 -0.4507077 4.651962E-07
vn 0.8926715 -0.4507078 2.017192E-07
vn 0.8926715 -0.450708 1.050024E-07
vn 0.8926716 -0.4507077 3.108343E-07
vn 0.8926716 -0.4507077 3.172998E-07
vn 0.8926716 -0.4507077 1.448006E-07
vn 0.8926716 -0.4507077 2.466136E-07
vn 0.8926716 -0.4507078 2.161267E-07
vn 0.8926716 -0.4507079 0
vn 0.8926715 -0.4507078 3.859096E-07
vn 0.8926716 -0.4507077 3.329087E-07
vn 0.8926716 -0.4507079 -1.138728E-07
vn 0.8926716 -0.4507077 -3.69718E-07
vn 0.8926716 -0.4507077 -2.443246E-07
vn 0.8926715 -0.4507079 6.146387E-07
vn -0.8926716 0.4507076 0
vn -0.8926716 0.4507077 0
vn -0.8926716 0.4507078 -1.323981E-07
vn -0.8926716 0.4507079 -1.021862E-07
vn -0.8926715 0.4507079 -1.811449E-07
vn -0.8926716 0.4507079 -2.347017E-07
vn -0.8926716 0.4507078 -1.395479E-07
vn -0.8926716 0.4507076 -3.343953E-07
vn -0.8926716 0.4507079 0
vn -0.8926715 0.450708 1.109697E-07
vn -0.8926715 0.4507078 3.859098E-07
vn -0.8926716 0.4507079 0
vn -0.8926716 0.4507079 2.277458E-07
vn -0.8926716 0.4507077 -3.08825E-07
vn -0.8926716 0.4507079 -3.893549E-07
vn -0.8926716 0.4507077 -6.146387E-07
vn -0.8926716 0.4507077 0
vn -0.8926716 0.4507077 0
vn 0.1542281 0.3347229 0.9296098
vn 0.08068214 0.2020811 0.9760398
vn 0.08055538 0.2018352 0.9761011
vn 0.1539624 0.3342843 0.9298116
vn 0.03425113 0.0993491 0.994463
vn 0.03422719 0.09926842 0.9944719
vn 0.0096734 0.02631558 0.9996069
vn 0.009624357 0.02618208 0.9996108
vn -0.343531 -0.6802376 0.6475055
vn -0.3435313 -0.680238 0.6475048
vn 0.2460205 0.4953291 0.8331404
vn 0.245789 0.4949077 0.8334591
vn 0.3207525 0.6362168 0.7016737
vn 0.320752 0.6362159 0.7016748
vn 0.1569507 0.3108563 -0.9374086
vn 0.1569506 0.310856 -0.9374087
vn -0.844766 0.4265198 -0.3231893
vn -0.844766 0.4265198 -0.3231893
vn -0.8447661 0.4265199 0.3231891
vn -0.8447661 0.4265198 0.323189
vn -0.3599512 0.1817379 0.9150992
vn -0.3599511 0.1817378 0.9150992
vn 0.359951 -0.1817388 0.9150991
vn 0.3599513 -0.1817389 0.915099
vn -0.3599503 0.1817384 -0.9150995
vn 0.3599519 -0.1817381 -0.9150989
vn 0.8447672 -0.4265204 -0.3231853
vn 0.8447673 -0.4265204 -0.3231852
vn 0.844767 -0.4265206 0.3231856
vn 0.8447669 -0.4265206 0.3231858
vn 0.3599513 -0.1817389 0.915099
vn 0.359951 -0.1817388 0.9150991
vn 0.450708 0.8926714 0
vn 0.4507081 0.8926714 3.08802E-07
vn 0.4507082 0.8926714 3.088021E-07
vn 0.450708 0.8926714 0
vn 0.450708 0.8926715 0
vn 0.450708 0.8926714 0
vn 0.4507082 0.8926714 -3.088021E-07
vn 0.4507082 0.8926714 -3.08802E-07
g Knife_0
f 3/3/3 2/2/2 1/1/1
f 4/4/4 3/3/3 1/1/1
f 4/4/4 1/1/1 5/5/5
f 1/1/1 6/6/6 5/5/5
f 5/5/5 6/6/6 7/7/7
f 8/8/8 5/5/5 7/7/7
f 9/9/9 8/8/8 7/7/7
f 10/10/10 9/9/9 7/7/7
f 9/9/9 10/10/10 11/11/11
f 10/10/10 12/12/12 11/11/11
f 13/13/13 11/11/11 12/12/12
f 14/14/14 13/13/13 12/12/12
f 13/13/13 14/14/14 15/15/15
f 16/16/16 13/13/13 15/15/15
f 16/16/16 15/15/15 17/17/17
f 15/15/15 18/18/18 17/17/17
f 5/5/5 8/8/8 19/19/19
f 5/5/5 19/19/19 20/20/20
f 21/21/21 20/20/20 19/19/19
f 22/22/22 21/21/21 19/19/19
f 20/20/20 21/21/21 23/23/23
f 23/23/23 5/5/5 20/20/20
f 21/21/21 24/24/24 23/23/23
f 21/21/21 22/22/22 24/24/24
f 22/22/22 25/25/25 24/24/24
f 22/22/22 26/26/26 25/25/25
f 26/26/26 22/22/22 19/19/19
f 26/26/26 27/27/27 25/25/25
f 27/27/27 26/26/26 28/28/28
f 29/29/29 27/27/27 28/28/28
f 29/29/29 28/28/28 30/30/30
f 30/30/30 28/28/28 26/26/26
f 31/31/31 29/29/29 30/30/30
f 31/31/31 30/30/30 32/32/32
f 32/32/32 26/26/26 19/19/19
f 32/32/32 30/30/30 26/26/26
f 8/8/8 32/32/32 19/19/19
f 8/8/8 31/31/31 32/32/32
f 35/35/35 34/34/34 33/33/33
f 36/36/36 35/35/35 33/33/33
f 33/33/33 34/34/34 37/37/37
f 34/34/34 38/38/38 37/37/37
f 38/38/38 39/39/39 37/37/37
f 39/39/39 40/40/40 37/37/37
f 39/39/39 41/41/41 40/40/40
f 41/41/41 42/42/42 40/40/40
f 41/41/41 43/43/43 42/42/42
f 43/43/43 44/44/44 42/42/42
f 43/43/43 45/45/45 44/44/44
f 45/45/45 46/46/46 44/44/44
f 46/46/46 45/45/45 47/47/47
f 45/45/45 48/48/48 47/47/47
f 51/51/51 50/50/50 49/49/49
f 52/52/52 51/51/51 49/49/49
f 52/52/52 49/49/49 53/53/53
f 54/54/54 52/52/52 53/53/53
f 54/54/54 53/53/53 55/55/55
f 56/56/56 54/54/54 55/55/55
f 56/56/56 55/55/55 57/57/57
f 58/58/58 56/56/56 57/57/57
f 58/58/58 57/57/57 59/59/59
f 60/60/60 58/58/58 59/59/59
f 60/60/60 59/59/59 61/61/61
f 62/62/62 60/60/60 61/61/61
f 65/65/65 64/64/64 63/63/63
f 66/66/66 65/65/65 63/63/63
f 67/67/67 65/65/65 66/66/66
f 68/68/68 67/67/67 66/66/66
f 67/67/67 68/68/68 69/69/69
f 70/70/70 67/67/67 69/69/69
f 70/70/70 69/69/69 71/71/71
f 69/69/69 72/72/72 71/71/71
f 71/71/71 72/72/72 73/73/73
f 72/72/72 74/74/74 73/73/73
f 73/73/73 74/74/74 75/75/75
f 74/74/74 76/76/76 75/75/75
f 77/77/77 75/75/75 76/76/76
f 78/78/78 77/77/77 76/76/76
f 81/81/81 80/80/80 79/79/79
f 82/82/82 81/81/81 79/79/79
f 82/82/82 79/79/79 83/83/83
f 84/84/84 82/82/82 83/83/83
f 83/83/83 85/85/85 84/84/84
f 85/85/85 86/86/86 84/84/84
f 89/89/89 88/88/88 87/87/87
f 90/90/90 89/89/89 87/87/87
f 88/88/88 91/91/91 87/87/87
f 91/91/91 92/92/92 87/87/87
f 93/93/93 91/91/91 88/88/88
f 94/94/94 93/93/93 88/88/88
f 95/95/95 93/93/93 94/94/94
f 96/96/96 95/95/95 94/94/94
f 95/95/95 96/96/96 97/97/97
f 96/96/96 98/98/98 97/97/97
f 99/99/99 96/96/96 94/94/94
f 100/100/100 99/99/99 94/94/94
f 100/100/100 94/94/94 88/88/88
f 89/89/89 100/100/100 88/88/88
f 101/101/101 98/98/98 96/96/96
f 99/99/99 101/101/101 96/96/96
f 101/101/101 102/102/102 98/98/98
f 102/102/102 103/103/103 98/98/98
f 98/98/98 103/103/103 104/104/104
f 97/97/97 98/98/98 104/104/104
f 107/107/107 106/106/106 105/105/105
f 108/108/108 107/107/107 105/105/105
f 108/108/108 109/109/109 107/107/107
f 109/109/109 110/110/110 107/107/107
f 111/111/111 107/107/107 110/110/110
f 107/107/107 111/111/111 106/106/106
f 112/112/112 111/111/111 110/110/110
f 113/113/113 111/111/111 112/112/112
f 111/111/111 113/113/113 114/114/114
f 111/111/111 114/114/114 106/106/106
f 113/113/113 115/115/115 114/114/114
f 113/113/113 116/116/116 115/115/115
f 116/116/116 117/117/117 115/115/115
f 118/118/118 113/113/113 112/112/112
f 113/113/113 118/118/118 119/119/119
f 116/116/116 113/113/113 119/119/119
f 116/116/116 119/119/119 120/120/120
f 121/121/121 116/116/116 120/120/120
f 116/116/116 121/121/121 117/117/117
f 121/121/121 122/122/122 117/117/117
f 125/125/125 124/124/124 123/123/123
f 126/126/126 125/125/125 123/123/123
f 125/125/125 127/127/127 124/124/124
f 127/127/127 128/128/128 124/124/124
f 127/127/127 129/129/129 128/128/128
f 129/129/129 130/130/130 128/128/128
f 130/130/130 129/129/129 131/131/131
f 132/132/132 130/130/130 131/131/131
f 126/126/126 123/123/123 133/133/133
f 134/134/134 126/126/126 133/133/133
f 133/133/133 135/135/135 134/134/134
f 135/135/135 136/136/136 134/134/134
f 135/135/135 137/137/137 136/136/136
f 137/137/137 138/138/138 136/136/136
f 141/141/141 140/140/140 139/139/139
f 142/142/142 141/141/141 139/139/139
f 143/143/143 141/141/141 142/142/142
f 144/144/144 143/143/143 142/142/142
f 145/145/145 143/143/143 144/144/144
f 146/146/146 145/145/145 144/144/144
f 139/139/139 140/140/140 10/10/10
f 140/140/140 147/147/147 10/10/10
f 10/10/10 147/147/147 12/12/12
f 147/147/147 148/148/148 12/12/12
f 12/12/12 148/148/148 149/149/149
f 148/148/148 150/150/150 149/149/149
f 149/149/149 150/150/150 151/151/151
f 150/150/150 152/152/152 151/151/151
f 151/151/151 152/152/152 153/153/153
f 152/152/152 154/154/154 153/153/153
f 157/157/157 156/156/156 155/155/155
f 158/158/158 157/157/157 155/155/155
f 159/159/159 158/158/158 155/155/155
f 160/160/160 159/159/159 155/155/155
f 160/160/160 161/161/161 159/159/159
f 161/161/161 162/162/162 159/159/159
