g Magic_Portrait
v 38.89771 -68.72299 6.60371
v 38.89771 -68.72299 -3.146996
v -38.89771 -68.72299 -3.146996
v -38.89771 -68.72299 6.60371
v -38.89771 25.52652 6.60371
v -38.89771 25.52652 -3.146996
v 38.89771 25.52652 -3.146996
v 38.89771 25.52652 6.60371
v -38.89771 -68.72299 6.60371
v -38.89771 -68.72299 -3.146996
v -38.89771 25.52652 -3.146996
v -38.89771 25.52652 6.60371
v 38.89771 -68.72299 -3.146996
v 38.89771 -68.72299 6.60371
v 38.89771 25.52652 6.60371
v 38.89771 25.52652 -3.146996
v 31.14886 -60.79982 6.603748
v 31.14886 -60.79982 2.578922
v 31.14886 17.0406 2.578922
v 31.14886 17.0406 6.603748
v 31.14886 17.0406 6.603748
v 31.14886 17.0406 2.578922
v -31.05402 17.0406 2.578922
v -31.05402 17.0406 6.603748
v -31.05402 17.0406 6.603748
v -31.05402 17.0406 2.578922
v -31.05402 -60.79982 2.578922
v -31.05402 -60.79982 6.603748
v -31.05402 -60.79982 6.603748
v -31.05402 -60.79982 2.578922
v 31.14886 -60.79982 2.578922
v 31.14886 -60.79982 6.603748
v -33.36023 -63.12939 8.878826
v 33.42719 -63.12939 8.878826
v 36.61938 -66.39341 8.878819
v -36.59149 -66.39341 8.878819
v -36.59149 -66.39341 8.878819
v -36.53391 22.96918 8.935627
v -33.41782 19.59795 8.935638
v -33.36023 -63.12939 8.878826
v -36.53391 22.96918 8.935627
v 36.5625 22.96918 8.935627
v 33.48407 19.59795 8.935638
v -33.41782 19.59795 8.935638
v 36.5625 22.96918 8.935627
v 36.61938 -66.39341 8.878819
v 33.42719 -63.12939 8.878826
v 33.48407 19.59795 8.935638
v -38.89771 25.52652 6.60371
v -36.53391 22.96918 8.935627
v -36.59149 -66.39341 8.878819
v -38.89771 -68.72299 6.60371
v 38.89771 -68.72299 6.60371
v 36.61938 -66.39341 8.878819
v 36.5625 22.96918 8.935627
v 38.89771 25.52652 6.60371
v -38.89771 -68.72299 6.60371
v -36.59149 -66.39341 8.878819
v 36.61938 -66.39341 8.878819
v 38.89771 -68.72299 6.60371
v -36.53391 22.96918 8.935627
v -38.89771 25.52652 6.60371
v 38.89771 25.52652 6.60371
v 36.5625 22.96918 8.935627
v -33.41782 19.59795 8.935638
v -31.05402 17.0406 6.603748
v -31.05402 -60.79982 6.603748
v -33.36023 -63.12939 8.878826
v -31.05402 17.0406 6.603748
v -33.41782 19.59795 8.935638
v 33.48407 19.59795 8.935638
v 31.14886 17.0406 6.603748
v 33.42719 -63.12939 8.878826
v 31.14886 -60.79982 6.603748
v 31.14886 17.0406 6.603748
v 33.48407 19.59795 8.935638
v -33.36023 -63.12939 8.878826
v -31.05402 -60.79982 6.603748
v 31.14886 -60.79982 6.603748
v 33.42719 -63.12939 8.878826
v 31.14886 -60.79982 2.578922
v -31.05402 -60.79982 2.578922
v -31.05402 17.0406 2.578922
v 31.14886 17.0406 2.578922
vt 0.9654901 0.8916862
vt 0.9654901 0.9868054
vt 0.238665 0.9868054
vt 0.2386649 0.8916862
vt 0.9652677 0.8915052
vt 0.9652677 0.9866247
vt 0.2384425 0.9866251
vt 0.2384424 0.8915054
vt 0.1056156 0.03966072
vt 0.01036677 0.03966072
vt 0.01036677 0.9603281
vt 0.1056156 0.9603281
vt 0.01136872 0.9601908
vt 0.1066175 0.9601908
vt 0.1066175 0.03952348
vt 0.01136872 0.03952348
vt 0.1814661 0.8794597
vt 0.2207821 0.8794597
vt 0.2207821 0.1190831
vt 0.181466 0.1190831
vt 0.8931694 0.8157951
vt 0.8931694 0.7765324
vt 0.3120217 0.7765324
vt 0.3120217 0.8157951
vt 0.1812877 0.8790703
vt 0.2206039 0.8790703
vt 0.2206039 0.1186936
vt 0.1812877 0.1186936
vt 0.310975 0.8150144
vt 0.310975 0.7757518
vt 0.8921227 0.7757518
vt 0.8921229 0.8150144
vt 0.9133803 0.8380078
vt 0.2894004 0.8380078
vt 0.2595763 0.8698487
vt 0.9435694 0.8698487
vt 0.1275566 0.06352946
vt 0.1281191 0.9364593
vt 0.1585583 0.9035278
vt 0.1591211 0.09541371
vt 0.9424999 0.8700495
vt 0.2595764 0.8700495
vt 0.2883372 0.8371631
vt 0.9133871 0.8371631
vt 0.1299133 0.06127238
vt 0.1293575 0.9342021
vt 0.1605402 0.9023179
vt 0.1599844 0.09420389
vt 0.1056156 0.9603281
vt 0.1283948 0.9353469
vt 0.1278398 0.06241703
vt 0.1056156 0.03966072
vt 0.1066175 0.9601908
vt 0.1288418 0.9374346
vt 0.1293967 0.06450468
vt 0.1066175 0.03952348
vt 0.2386649 0.8916862
vt 0.2602111 0.8694925
vt 0.9442043 0.8694925
vt 0.9654901 0.8916862
vt 0.9431837 0.8687574
vt 0.9652677 0.8915052
vt 0.2384424 0.8915054
vt 0.2602599 0.8687577
vt 0.1585088 0.9040515
vt 0.1812877 0.8790703
vt 0.1812877 0.1186936
vt 0.1590638 0.09593734
vt 0.3120217 0.8157951
vt 0.2899371 0.8385433
vt 0.9149871 0.8385433
vt 0.8931694 0.8157951
vt 0.1592422 0.9022159
vt 0.1814661 0.8794597
vt 0.181466 0.1190831
vt 0.1586871 0.09410191
vt 0.2894287 0.8372082
vt 0.310975 0.8150144
vt 0.8921229 0.8150144
vt 0.9134086 0.8372079
vt 0.8868847 0.03244061
vt 0.3165584 0.03244061
vt 0.3165584 0.7461445
vt 0.8868847 0.7461445
vn 0 -1 0
vn 0 -1 0
vn 0 -1 0
vn 0 -1 0
vn 0 1 0
vn 0 1 0
vn 0 1 0
vn 0 1 0
vn -1 0 0
vn -1 0 0
vn -1 0 0
vn -1 0 0
vn 1 0 0
vn 1 0 0
vn 1 0 0
vn 1 0 0
vn -1 0 0
vn -1 0 0
vn -1 0 0
vn -1 0 0
vn 0 -1 0
vn 0 -1 0
vn 0 -1 0
vn 0 -1 0
vn 1 0 0
vn 1 0 0
vn 1 0 0
vn 1 0 0
vn 0 1 0
vn 0 1 0
vn 0 1 0
vn 0 1 0
vn 0 -0.000361 1
vn 0 -0.00036 1
vn 0 -0.000354 1
vn 0 -0.000358 1
vn 0 -0.000358 1
vn 0 -0.000336 1
vn 0 -0.000358 1
vn 0 -0.000361 1
vn 0 -0.000336 1
vn 0 -0.000332 1
vn 0 -0.000357 1
vn 0 -0.000358 1
vn 0 -0.000332 1
vn 0 -0.000354 1
vn 0 -0.00036 1
vn 0 -0.000357 1
vn -0.7022889 0 0.7118919
vn -0.7022889 0 0.7118919
vn -0.7022889 0 0.7118919
vn -0.7022889 0 0.7118919
vn 0.7066081 0 0.7076051
vn 0.7066081 0 0.7076051
vn 0.7066081 0 0.7076051
vn 0.7066081 0 0.7076051
vn 0 -0.6986933 0.7154214
vn 0 -0.6986933 0.7154214
vn 0 -0.6986933 0.7154214
vn 0 -0.6986933 0.7154214
vn 0 0.6737889 0.7389239
vn 0 0.6737889 0.7389239
vn 0 0.6737889 0.7389239
vn 0 0.6737889 0.7389239
vn 0.7022859 0 0.7118949
vn 0.7022859 0 0.7118949
vn 0.7022859 0 0.7118949
vn 0.7022859 0 0.7118949
vn 0 -0.6737841 0.7389281
vn 0 -0.6737837 0.7389286
vn 0 -0.6737837 0.7389286
vn 0 -0.6737837 0.7389286
vn -0.7066041 0 0.7076091
vn -0.7066041 0 0.7076091
vn -0.7066041 0 0.7076091
vn -0.7066041 0 0.7076091
vn 0 0.6986892 0.7154253
vn 0 0.6986892 0.7154253
vn 0 0.6986892 0.7154253
vn 0 0.6986892 0.7154253
vn 0 0 1
vn 0 0 1
vn 0 0 1
vn 0 0 1
g Magic_Portrait_0
f 3/3/3 2/2/2 1/1/1
f 4/4/4 3/3/3 1/1/1
f 7/7/7 6/6/6 5/5/5
f 8/8/8 7/7/7 5/5/5
f 11/11/11 10/10/10 9/9/9
f 12/12/12 11/11/11 9/9/9
f 15/15/15 14/14/14 13/13/13
f 16/16/16 15/15/15 13/13/13
f 19/19/19 18/18/18 17/17/17
f 20/20/20 19/19/19 17/17/17
f 23/23/23 22/22/22 21/21/21
f 24/24/24 23/23/23 21/21/21
f 27/27/27 26/26/26 25/25/25
f 28/28/28 27/27/27 25/25/25
f 31/31/31 30/30/30 29/29/29
f 32/32/32 31/31/31 29/29/29
f 35/35/35 34/34/34 33/33/33
f 36/36/36 35/35/35 33/33/33
f 39/39/39 38/38/38 37/37/37
f 40/40/40 39/39/39 37/37/37
f 43/43/43 42/42/42 41/41/41
f 44/44/44 43/43/43 41/41/41
f 47/47/47 46/46/46 45/45/45
f 48/48/48 47/47/47 45/45/45
f 51/51/51 50/50/50 49/49/49
f 52/52/52 51/51/51 49/49/49
f 55/55/55 54/54/54 53/53/53
f 56/56/56 55/55/55 53/53/53
f 59/59/59 58/58/58 57/57/57
f 60/60/60 59/59/59 57/57/57
f 63/63/63 62/62/62 61/61/61
f 64/64/64 63/63/63 61/61/61
f 67/67/67 66/66/66 65/65/65
f 68/68/68 67/67/67 65/65/65
f 71/71/71 70/70/70 69/69/69
f 72/72/72 71/71/71 69/69/69
f 75/75/75 74/74/74 73/73/73
f 76/76/76 75/75/75 73/73/73
f 79/79/79 78/78/78 77/77/77
f 80/80/80 79/79/79 77/77/77
g Magic_Portrait_1
f 83/83/83 82/82/82 81/81/81
f 84/84/84 83/83/83 81/81/81
