g Mesh1
v 0.8417444 0.3413125 -0.4859813
v 0.4707008 5.677161E-09 -0.2717592
v 0.3843256 8.028719E-09 -0.3843255
v 0.6872814 0.3413125 -0.6872814
v 0.3843256 8.028719E-09 -0.3843255
v 0.2717592 9.833129E-09 -0.4707007
v 0.4859813 0.3413125 -0.8417444
v 0.6872814 0.3413125 -0.6872814
v 0.2717592 9.833129E-09 -0.4707007
v 0.1406729 1.096743E-08 -0.5249985
v 0.2515624 0.3413125 -0.9388439
v 0.4859813 0.3413125 -0.8417444
v -0.2717592 -9.833129E-09 0.4707007
v -0.1406729 -1.096743E-08 0.5249985
v -0.2515624 0.3413125 0.9388439
v -0.4859813 0.3413125 0.8417444
v -0.1406729 -1.096743E-08 0.5249985
v 9.792634E-09 -1.135432E-08 0.5435184
v -1.785467E-16 0.3413125 0.9719627
v -0.2515624 0.3413125 0.9388439
v 9.792634E-09 -1.135432E-08 0.5435184
v 0.1406729 -1.096743E-08 0.5249985
v 0.2515624 0.3413125 0.9388439
v -1.785467E-16 0.3413125 0.9719627
v 0.1406729 -1.096743E-08 0.5249985
v 0.2717592 -9.833129E-09 0.4707007
v 0.4859813 0.3413125 0.8417444
v 0.2515624 0.3413125 0.9388439
v 0.2717592 -9.833129E-09 0.4707007
v 0.3843256 -8.028719E-09 0.3843255
v 0.6872814 0.3413125 0.6872814
v 0.4859813 0.3413125 0.8417444
v 0.6872814 0.3413125 0.6872814
v 0.3843256 -8.028719E-09 0.3843255
v 0.4707008 -5.677161E-09 0.2717592
v 0.8417444 0.3413125 0.4859813
v 0.8417444 0.3413125 0.4859813
v 0.4707008 -5.677161E-09 0.2717592
v 0.5249985 -2.938715E-09 0.1406729
v 0.9388439 0.3413125 0.2515624
v 0.9388439 0.3413125 0.2515624
v 0.5249985 -2.938715E-09 0.1406729
v 0.5435184 3.107926E-17 7.110105E-10
v 0.9719627 0.3413125 0
v 0.9719627 0.3413125 0
v 0.5435184 3.107926E-17 7.110105E-10
v 0.5249985 2.938715E-09 -0.1406729
v 0.9388439 0.3413125 -0.2515624
v 0.9388439 0.3413125 -0.2515624
v 0.5249985 2.938715E-09 -0.1406729
v 0.4707008 5.677161E-09 -0.2717592
v 0.8417444 0.3413125 -0.4859813
v 0.1406729 1.096743E-08 -0.5249985
v 9.792634E-09 1.135432E-08 -0.5435184
v 5.951555E-17 0.3413125 -0.9719627
v 0.2515624 0.3413125 -0.9388439
v 9.792634E-09 1.135432E-08 -0.5435184
v -0.1406729 1.096743E-08 -0.5249985
v -0.2515624 0.3413125 -0.9388439
v 5.951555E-17 0.3413125 -0.9719627
v -0.1406729 1.096743E-08 -0.5249985
v -0.2717592 9.833129E-09 -0.4707007
v -0.4859813 0.3413125 -0.8417444
v -0.2515624 0.3413125 -0.9388439
v -0.2717592 9.833129E-09 -0.4707007
v -0.3843255 8.028719E-09 -0.3843255
v -0.6872814 0.3413125 -0.6872814
v -0.4859813 0.3413125 -0.8417444
v -0.4707007 5.677161E-09 -0.2717592
v -0.8417444 0.3413125 -0.4859813
v -0.6872814 0.3413125 -0.6872814
v -0.3843255 8.028719E-09 -0.3843255
v -0.5249984 2.938715E-09 -0.1406729
v -0.9388439 0.3413125 -0.2515624
v -0.8417444 0.3413125 -0.4859813
v -0.4707007 5.677161E-09 -0.2717592
v -0.5435183 3.107926E-17 7.110105E-10
v -0.9719627 0.3413125 -1.190311E-16
v -0.9388439 0.3413125 -0.2515624
v -0.5249984 2.938715E-09 -0.1406729
v -0.5249984 -2.938715E-09 0.1406729
v -0.9388439 0.3413125 0.2515624
v -0.9719627 0.3413125 -1.190311E-16
v -0.5435183 3.107926E-17 7.110105E-10
v -0.4707007 -5.677161E-09 0.2717592
v -0.8417444 0.3413125 0.4859813
v -0.9388439 0.3413125 0.2515624
v -0.5249984 -2.938715E-09 0.1406729
v -0.3843255 -8.028719E-09 0.3843255
v -0.6872814 0.3413125 0.6872814
v -0.8417444 0.3413125 0.4859813
v -0.4707007 -5.677161E-09 0.2717592
v -0.3843255 -8.028719E-09 0.3843255
v -0.2717592 -9.833129E-09 0.4707007
v -0.4859813 0.3413125 0.8417444
v -0.6872814 0.3413125 0.6872814
vt -4.994748 28.76053
vt -4.127891 13.79653
vt 4.127891 13.79653
vt 4.994748 28.76053
vt -4.127891 13.79653
vt 4.127891 13.79653
vt 4.994748 28.76053
vt -4.994748 28.76053
vt -4.127891 13.79653
vt 4.127891 13.79653
vt 4.994748 28.76053
vt -4.994748 28.76053
vt -4.127891 13.79653
vt 4.127891 13.79653
vt 4.994748 28.76053
vt -4.994748 28.76053
vt -4.127891 13.79653
vt 4.127891 13.79653
vt 4.994748 28.76053
vt -4.994748 28.76053
vt -4.127891 13.79653
vt 4.127891 13.79653
vt 4.994748 28.76053
vt -4.994748 28.76053
vt -4.127891 13.79653
vt 4.127891 13.79653
vt 4.994748 28.76053
vt -4.994748 28.76053
vt -4.127891 13.79653
vt 4.127891 13.79653
vt 4.994748 28.76053
vt -4.994748 28.76053
vt -4.994748 28.76053
vt -4.127891 13.79653
vt 4.127891 13.79653
vt 4.994748 28.76053
vt -4.994748 28.76053
vt -4.127891 13.79653
vt 4.127891 13.79653
vt 4.994748 28.76053
vt -4.994748 28.76053
vt -4.127891 13.79653
vt 4.127891 13.79653
vt 4.994748 28.76053
vt -4.994748 28.76053
vt -4.127891 13.79653
vt 4.127891 13.79653
vt 4.994748 28.76053
vt -4.994748 28.76053
vt -4.127891 13.79653
vt 4.127891 13.79653
vt 4.994748 28.76053
vt -4.127891 13.79653
vt 4.127891 13.79653
vt 4.994748 28.76053
vt -4.994748 28.76053
vt -4.127891 13.79653
vt 4.127891 13.79653
vt 4.994748 28.76053
vt -4.994748 28.76053
vt -4.127891 13.79653
vt 4.127891 13.79653
vt 4.994748 28.76053
vt -4.994748 28.76053
vt -4.127891 13.79653
vt 4.127891 13.79653
vt 4.994748 28.76053
vt -4.994748 28.76053
vt 4.127891 13.79653
vt 4.994748 28.76053
vt -4.994748 28.76053
vt -4.127891 13.79653
vt 4.127891 13.79653
vt 4.994748 28.76053
vt -4.994748 28.76053
vt -4.127891 13.79653
vt 4.127891 13.79653
vt 4.994748 28.76053
vt -4.994748 28.76053
vt -4.127891 13.79653
vt 4.127891 13.79653
vt 4.994748 28.76053
vt -4.994748 28.76053
vt -4.127891 13.79653
vt 4.127891 13.79653
vt 4.994748 28.76053
vt -4.994748 28.76053
vt -4.127891 13.79653
vt 4.127891 13.79653
vt 4.994748 28.76053
vt -4.994748 28.76053
vt -4.127891 13.79653
vt -4.127891 13.79653
vt 4.127891 13.79653
vt 4.994748 28.76053
vt -4.994748 28.76053
vn -0.7763795 0.4430725 0.4482429
vn -0.7763795 0.4430725 0.4482429
vn -0.6339112 0.4430724 0.6339112
vn -0.6339112 0.4430724 0.6339112
vn -0.6339112 0.4430724 0.6339112
vn -0.4482429 0.4430725 0.7763795
vn -0.4482429 0.4430725 0.7763795
vn -0.6339112 0.4430724 0.6339112
vn -0.4482429 0.4430725 0.7763795
vn -0.2320276 0.4430725 0.8659388
vn -0.2320276 0.4430725 0.8659388
vn -0.4482429 0.4430725 0.7763795
vn 0.4482429 0.4430725 -0.7763795
vn 0.2320276 0.4430725 -0.8659388
vn 0.2320276 0.4430725 -0.8659388
vn 0.4482429 0.4430725 -0.7763795
vn 0.2320276 0.4430725 -0.8659388
vn 0 0.4430724 -0.8964858
vn 0 0.4430724 -0.8964858
vn 0.2320276 0.4430725 -0.8659388
vn 0 0.4430724 -0.8964858
vn -0.2320276 0.4430725 -0.8659388
vn -0.2320276 0.4430725 -0.8659388
vn 0 0.4430724 -0.8964858
vn -0.2320276 0.4430725 -0.8659388
vn -0.4482429 0.4430725 -0.7763795
vn -0.4482429 0.4430725 -0.7763795
vn -0.2320276 0.4430725 -0.8659388
vn -0.4482429 0.4430725 -0.7763795
vn -0.6339112 0.4430724 -0.6339112
vn -0.6339112 0.4430724 -0.6339112
vn -0.4482429 0.4430725 -0.7763795
vn -0.6339112 0.4430724 -0.6339112
vn -0.6339112 0.4430724 -0.6339112
vn -0.7763795 0.4430725 -0.4482429
vn -0.7763795 0.4430725 -0.4482429
vn -0.7763795 0.4430725 -0.4482429
vn -0.7763795 0.4430725 -0.4482429
vn -0.8659388 0.4430725 -0.2320276
vn -0.8659388 0.4430725 -0.2320276
vn -0.8659388 0.4430725 -0.2320276
vn -0.8659388 0.4430725 -0.2320276
vn -0.8964858 0.4430724 0
vn -0.8964858 0.4430724 0
vn -0.8964858 0.4430724 0
vn -0.8964858 0.4430724 0
vn -0.8659388 0.4430725 0.2320276
vn -0.8659388 0.4430725 0.2320276
vn -0.8659388 0.4430725 0.2320276
vn -0.8659388 0.4430725 0.2320276
vn -0.7763795 0.4430725 0.4482429
vn -0.7763795 0.4430725 0.4482429
vn -0.2320276 0.4430725 0.8659388
vn 0 0.4430724 0.8964858
vn 0 0.4430724 0.8964858
vn -0.2320276 0.4430725 0.8659388
vn 0 0.4430724 0.8964858
vn 0.2320276 0.4430725 0.8659388
vn 0.2320276 0.4430725 0.8659388
vn 0 0.4430724 0.8964858
vn 0.2320276 0.4430725 0.8659388
vn 0.4482429 0.4430725 0.7763795
vn 0.4482429 0.4430725 0.7763795
vn 0.2320276 0.4430725 0.8659388
vn 0.4482429 0.4430725 0.7763795
vn 0.6339112 0.4430724 0.6339112
vn 0.6339112 0.4430724 0.6339112
vn 0.4482429 0.4430725 0.7763795
vn 0.7763795 0.4430725 0.4482429
vn 0.7763795 0.4430725 0.4482429
vn 0.6339112 0.4430724 0.6339112
vn 0.6339112 0.4430724 0.6339112
vn 0.8659388 0.4430725 0.2320276
vn 0.8659388 0.4430725 0.2320276
vn 0.7763795 0.4430725 0.4482429
vn 0.7763795 0.4430725 0.4482429
vn 0.8964858 0.4430724 0
vn 0.8964858 0.4430724 0
vn 0.8659388 0.4430725 0.2320276
vn 0.8659388 0.4430725 0.2320276
vn 0.8659388 0.4430725 -0.2320276
vn 0.8659388 0.4430725 -0.2320276
vn 0.8964858 0.4430724 0
vn 0.8964858 0.4430724 0
vn 0.7763795 0.4430725 -0.4482429
vn 0.7763795 0.4430725 -0.4482429
vn 0.8659388 0.4430725 -0.2320276
vn 0.8659388 0.4430725 -0.2320276
vn 0.6339112 0.4430724 -0.6339112
vn 0.6339112 0.4430724 -0.6339112
vn 0.7763795 0.4430725 -0.4482429
vn 0.7763795 0.4430725 -0.4482429
vn 0.6339112 0.4430724 -0.6339112
vn 0.4482429 0.4430725 -0.7763795
vn 0.4482429 0.4430725 -0.7763795
vn 0.6339112 0.4430724 -0.6339112
g Mesh1_0
f 3/3/3 2/2/2 1/1/1
f 4/4/4 3/3/3 1/1/1
f 7/7/7 6/6/6 5/5/5
f 8/8/8 7/7/7 5/5/5
f 11/11/11 10/10/10 9/9/9
f 12/12/12 11/11/11 9/9/9
f 15/15/15 14/14/14 13/13/13
f 16/16/16 15/15/15 13/13/13
f 19/19/19 18/18/18 17/17/17
f 20/20/20 19/19/19 17/17/17
f 23/23/23 22/22/22 21/21/21
f 24/24/24 23/23/23 21/21/21
f 27/27/27 26/26/26 25/25/25
f 28/28/28 27/27/27 25/25/25
f 31/31/31 30/30/30 29/29/29
f 32/32/32 31/31/31 29/29/29
f 35/35/35 34/34/34 33/33/33
f 36/36/36 35/35/35 33/33/33
f 39/39/39 38/38/38 37/37/37
f 40/40/40 39/39/39 37/37/37
f 43/43/43 42/42/42 41/41/41
f 44/44/44 43/43/43 41/41/41
f 47/47/47 46/46/46 45/45/45
f 48/48/48 47/47/47 45/45/45
f 51/51/51 50/50/50 49/49/49
f 52/52/52 51/51/51 49/49/49
f 55/55/55 54/54/54 53/53/53
f 56/56/56 55/55/55 53/53/53
f 59/59/59 58/58/58 57/57/57
f 60/60/60 59/59/59 57/57/57
f 63/63/63 62/62/62 61/61/61
f 64/64/64 63/63/63 61/61/61
f 67/67/67 66/66/66 65/65/65
f 68/68/68 67/67/67 65/65/65
f 71/71/71 70/70/70 69/69/69
f 72/72/72 71/71/71 69/69/69
f 75/75/75 74/74/74 73/73/73
f 76/76/76 75/75/75 73/73/73
f 79/79/79 78/78/78 77/77/77
f 80/80/80 79/79/79 77/77/77
f 83/83/83 82/82/82 81/81/81
f 84/84/84 83/83/83 81/81/81
f 87/87/87 86/86/86 85/85/85
f 88/88/88 87/87/87 85/85/85
f 91/91/91 90/90/90 89/89/89
f 92/92/92 91/91/91 89/89/89
f 95/95/95 94/94/94 93/93/93
f 96/96/96 95/95/95 93/93/93
