g polySurface2
v -0.09819663 0.06589658 0.6168897
v -0.09819655 0.8280705 0.6168897
v -0.03625086 0.8280703 0.6168897
v -0.03625092 0.06589652 0.6168897
v -0.09819655 0.8280705 0.6168897
v -0.09819655 0.8280705 0.5087434
v -0.03625086 0.8280703 0.5087434
v -0.03625086 0.8280703 0.6168897
v -0.09819655 0.8280705 0.5087434
v -0.09819663 0.06589658 0.5087434
v -0.03625092 0.06589652 0.5087434
v -0.03625086 0.8280703 0.5087434
v -0.09819663 0.03345957 0.5087434
v -0.09819663 0.03345957 0.6168897
v -0.03625093 0.03345953 0.6168897
v -0.03625093 0.03345953 0.5087434
v 0.2180031 0.0334594 0.5087434
v 0.2180031 0.0334594 0.6168897
v -0.3524506 0.03345974 0.6168897
v -0.3524506 0.03345974 0.5087434
v -0.03625092 0.06589652 0.6168897
v -0.03625086 0.8280703 0.6168897
v -0.03625086 0.8280703 0.5087434
v -0.03625092 0.06589652 0.5087434
v -0.09819663 0.06589658 0.5087434
v -0.09819655 0.8280705 0.5087434
v -0.09819655 0.8280705 0.6168897
v -0.09819663 0.06589658 0.6168897
v -0.09819663 0.06589658 0.5087434
v -0.09819663 0.03345957 0.5087434
v -0.03625093 0.03345953 0.5087434
v -0.03625092 0.06589652 0.5087434
v 0.2180031 0.06589634 0.5087434
v 0.2180031 0.0334594 0.5087434
v -0.3524506 0.03345974 0.5087434
v -0.3524506 0.06589671 0.5087434
v 0.2927002 0.05722354 0.5087434
v 0.2927002 0.03345934 0.5087434
v 0.2927002 0.03345934 0.6168897
v 0.2927002 0.05722354 0.6168897
v 0.2927002 -0.01801971 0.6168897
v 0.2927002 -0.01801971 0.5087434
v 0.2840274 0.06589631 0.6168897
v 0.2840274 0.06589631 0.5087434
v 0.2180031 0.06589634 0.5087434
v 0.2180031 0.06589634 0.6168897
v -0.03625092 0.06589652 0.5087434
v -0.03625092 0.06589652 0.6168897
v -0.03625092 0.06589652 0.6168897
v -0.03625093 0.03345953 0.6168897
v -0.09819663 0.03345957 0.6168897
v -0.09819663 0.06589658 0.6168897
v 0.2180031 0.0334594 0.6168897
v 0.2180031 0.06589634 0.6168897
v 0.2927002 0.03345934 0.6168897
v 0.2180031 -0.01801968 0.6168897
v 0.2927002 -0.01801971 0.6168897
v -0.4271478 0.05722397 0.6168895
v -0.4271478 0.03345978 0.6168895
v -0.4271478 0.03345978 0.5087433
v -0.4271478 0.05722397 0.5087433
v -0.4271478 -0.01801928 0.5087433
v -0.4271478 -0.01801928 0.6168895
v -0.418475 0.06589672 0.5087433
v -0.418475 0.06589672 0.6168895
v -0.3524506 0.06589671 0.6168897
v -0.3524506 0.06589671 0.5087434
v -0.09819663 0.06589658 0.6168897
v -0.09819663 0.06589658 0.5087434
v -0.09819663 0.03345957 0.6168897
v -0.3524506 0.03345974 0.6168897
v -0.3524506 0.06589671 0.6168897
v -0.09819663 0.06589658 0.6168897
v -0.418475 0.06589672 0.6168895
v -0.4271478 0.03345978 0.6168895
v -0.4271478 0.05722397 0.6168895
v -0.4271478 -0.01801928 0.6168895
v -0.3524506 -0.01801931 0.6168897
v 0.2840274 0.06589631 0.6168897
v 0.2927002 0.05722354 0.6168897
v 0.2927002 0.03345934 0.6168897
v 0.2180031 0.0334594 0.6168897
v 0.2180031 0.06589634 0.6168897
v 0.2180031 -0.01801968 0.6168897
v 0.2927002 -0.01801971 0.6168897
v 0.2927002 -0.01801971 0.5087434
v 0.2180031 -0.01801968 0.5087434
v 0.2180031 0.0334594 0.5087434
v 0.2927002 0.03345934 0.5087434
v 0.2927002 0.05722354 0.5087434
v 0.2840274 0.06589631 0.5087434
v 0.2180031 0.06589634 0.5087434
v 0.2927002 -0.01801971 0.5087434
v 0.2180031 -0.01801968 0.5087434
v -0.4271478 0.03345978 0.5087433
v -0.3524506 0.03345974 0.5087434
v -0.3524506 0.06589671 0.5087434
v -0.418475 0.06589672 0.5087433
v -0.4271478 0.05722397 0.5087433
v -0.3524506 -0.01801931 0.5087434
v -0.4271478 -0.01801928 0.5087433
v -0.3524506 -0.01801931 0.5087434
v -0.4271478 -0.01801928 0.5087433
v -0.4271478 -0.01801928 0.6168895
v -0.3524506 -0.01801931 0.6168897
v 0.2180031 0.0334594 0.6168897
v 0.2180031 -0.01801968 0.6168897
v 0.2180031 -0.01801968 0.5087434
v 0.2180031 0.0334594 0.5087434
v -0.3524506 0.03345974 0.5087434
v -0.3524506 -0.01801931 0.5087434
v -0.3524506 -0.01801931 0.6168897
v -0.3524506 0.03345974 0.6168897
v -0.09819663 0.06589658 -0.5199196
v -0.09819655 0.8280705 -0.5199196
v -0.03625086 0.8280703 -0.5199196
v -0.03625092 0.06589652 -0.5199196
v -0.09819655 0.8280705 -0.5199196
v -0.09819655 0.8280705 -0.6280659
v -0.03625086 0.8280703 -0.6280659
v -0.03625086 0.8280703 -0.5199196
v -0.09819655 0.8280705 -0.6280659
v -0.09819663 0.06589658 -0.6280659
v -0.03625092 0.06589652 -0.6280659
v -0.03625086 0.8280703 -0.6280659
v -0.09819663 0.03345957 -0.6280659
v -0.09819663 0.03345957 -0.5199196
v -0.03625093 0.03345953 -0.5199196
v -0.03625093 0.03345953 -0.6280659
v 0.2180031 0.0334594 -0.6280659
v 0.2180031 0.0334594 -0.5199196
v -0.3524506 0.03345974 -0.5199196
v -0.3524506 0.03345974 -0.6280659
v -0.03625092 0.06589652 -0.5199196
v -0.03625086 0.8280703 -0.5199196
v -0.03625086 0.8280703 -0.6280659
v -0.03625092 0.06589652 -0.6280659
v -0.09819663 0.06589658 -0.6280659
v -0.09819655 0.8280705 -0.6280659
v -0.09819655 0.8280705 -0.5199196
v -0.09819663 0.06589658 -0.5199196
v -0.09819663 0.06589658 -0.6280659
v -0.09819663 0.03345957 -0.6280659
v -0.03625093 0.03345953 -0.6280659
v -0.03625092 0.06589652 -0.6280659
v 0.2927002 0.05722354 -0.6280659
v 0.2927002 0.03345934 -0.6280659
v 0.2927002 0.03345934 -0.5199196
v 0.2927002 0.05722354 -0.5199196
v 0.2927002 -0.01801971 -0.5199196
v 0.2927002 -0.01801971 -0.6280659
v 0.2840274 0.06589631 -0.5199196
v 0.2840274 0.06589631 -0.6280659
v 0.2180031 0.06589634 -0.6280659
v 0.2180031 0.06589634 -0.5199196
v -0.03625092 0.06589652 -0.6280659
v -0.03625092 0.06589652 -0.5199196
v -0.03625092 0.06589652 -0.5199196
v -0.03625093 0.03345953 -0.5199196
v -0.09819663 0.03345957 -0.5199196
v -0.09819663 0.06589658 -0.5199196
v -0.3524506 0.06589671 -0.5199196
v -0.3524506 0.03345974 -0.5199196
v -0.4271478 0.05722397 -0.5199197
v -0.4271478 0.03345978 -0.5199197
v -0.4271478 0.03345978 -0.628066
v -0.4271478 0.05722397 -0.628066
v -0.4271478 -0.01801928 -0.628066
v -0.4271478 -0.01801928 -0.5199197
v -0.418475 0.06589672 -0.628066
v -0.418475 0.06589672 -0.5199197
v -0.3524506 0.06589671 -0.5199196
v -0.3524506 0.06589671 -0.6280659
v -0.09819663 0.06589658 -0.5199196
v -0.09819663 0.06589658 -0.6280659
v -0.03625092 0.06589652 -0.5199196
v 0.2180031 0.06589634 -0.5199196
v 0.2180031 0.0334594 -0.5199196
v -0.03625093 0.03345953 -0.5199196
v 0.2840274 0.06589631 -0.5199196
v 0.2927002 0.03345934 -0.5199196
v 0.2927002 0.05722354 -0.5199196
v 0.2180031 -0.01801968 -0.5199196
v 0.2927002 -0.01801971 -0.5199196
v -0.03625093 0.03345953 -0.6280659
v 0.2180031 0.0334594 -0.6280659
v 0.2180031 0.06589634 -0.6280659
v -0.03625092 0.06589652 -0.6280659
v 0.2840274 0.06589631 -0.6280659
v 0.2927002 0.05722354 -0.6280659
v 0.2927002 0.03345934 -0.6280659
v -0.09819663 0.06589658 -0.6280659
v -0.3524506 0.06589671 -0.6280659
v -0.3524506 0.03345974 -0.6280659
v -0.09819663 0.03345957 -0.6280659
v -0.4271478 0.03345978 -0.628066
v -0.418475 0.06589672 -0.628066
v -0.4271478 0.05722397 -0.628066
v -0.3524506 -0.01801931 -0.6280659
v -0.4271478 -0.01801928 -0.628066
v 0.2180031 -0.01801968 -0.5199196
v 0.2927002 -0.01801971 -0.5199196
v 0.2927002 -0.01801971 -0.6280659
v 0.2180031 -0.01801968 -0.6280659
v -0.3524506 -0.01801931 -0.6280659
v -0.4271478 -0.01801928 -0.628066
v -0.4271478 -0.01801928 -0.5199197
v -0.3524506 -0.01801931 -0.5199196
v -0.418475 0.06589672 -0.5199197
v -0.3524506 0.06589671 -0.5199196
v -0.3524506 0.03345974 -0.5199196
v -0.4271478 0.03345978 -0.5199197
v -0.4271478 0.05722397 -0.5199197
v -0.4271478 -0.01801928 -0.5199197
v -0.3524506 -0.01801931 -0.5199196
v 0.2180031 0.0334594 -0.5199196
v 0.2180031 -0.01801968 -0.5199196
v 0.2180031 -0.01801968 -0.6280659
v 0.2180031 0.0334594 -0.6280659
v 0.2180031 0.0334594 -0.6280659
v 0.2180031 -0.01801968 -0.6280659
v 0.2927002 -0.01801971 -0.6280659
v 0.2927002 0.03345934 -0.6280659
v -0.3524506 0.03345974 -0.6280659
v -0.3524506 -0.01801931 -0.6280659
v -0.3524506 -0.01801931 -0.5199196
v -0.3524506 0.03345974 -0.5199196
vt 0.02810785 0.8643904
vt 0.149985 0.8643903
vt 0.149985 0.7425131
vt 0.02810794 0.7425131
vt 0.149985 0.8643903
vt 0.2718623 0.8643904
vt 0.2718623 0.7425131
vt 0.149985 0.7425131
vt 0.2718623 0.8643904
vt 0.3937397 0.8643903
vt 0.3937398 0.7425131
vt 0.2718623 0.7425131
vt 0.3937397 0.8643903
vt 0.5156169 0.8643904
vt 0.5156169 0.7425131
vt 0.3937398 0.7425131
vt 0.3937398 0.7425131
vt 0.5156169 0.7425131
vt 0.5156169 0.8643904
vt 0.3937397 0.8643903
vt 0.02810794 0.7425131
vt 0.149985 0.7425131
vt 0.149985 0.6206357
vt 0.02810782 0.6206359
vt 0.02810787 0.9862676
vt 0.149985 0.9862675
vt 0.149985 0.8643903
vt 0.02810785 0.8643904
vt 0.3937397 0.8643903
vt 0.3937397 0.8643903
vt 0.3937398 0.7425131
vt 0.3937398 0.7425131
vt 0.3937398 0.7425131
vt 0.3937398 0.7425131
vt 0.3937397 0.8643903
vt 0.3937397 0.8643903
vt 0.3937398 0.7425131
vt 0.3937398 0.7425131
vt 0.5156169 0.7425131
vt 0.5156169 0.7425131
vt 0.5156169 0.7425131
vt 0.3937398 0.7425131
vt 0.5156169 0.7425131
vt 0.3937398 0.7425131
vt 0.3937398 0.7425131
vt 0.5156169 0.7425131
vt 0.3937398 0.7425131
vt 0.5156169 0.7425131
vt 0.5156169 0.7425131
vt 0.5156169 0.7425131
vt 0.5156169 0.8643904
vt 0.5156169 0.8643904
vt 0.5156169 0.7425131
vt 0.5156169 0.7425131
vt 0.5156169 0.7425131
vt 0.5156169 0.7425131
vt 0.5156169 0.7425131
vt 0.5156169 0.8643904
vt 0.5156169 0.8643904
vt 0.3937397 0.8643903
vt 0.3937397 0.8643903
vt 0.3937397 0.8643903
vt 0.5156169 0.8643904
vt 0.3937397 0.8643903
vt 0.5156169 0.8643904
vt 0.5156169 0.8643904
vt 0.3937397 0.8643903
vt 0.5156169 0.8643904
vt 0.3937397 0.8643903
vt 0.5156169 0.8643904
vt 0.5156169 0.8643904
vt 0.5156169 0.8643904
vt 0.5156169 0.8643904
vt 0.5156169 0.8643904
vt 0.5156169 0.8643904
vt 0.5156169 0.8643904
vt 0.5156169 0.8643904
vt 0.5156169 0.8643904
vt 0.5156169 0.7425131
vt 0.5156169 0.7425131
vt 0.5156169 0.7425131
vt 0.5156169 0.7425131
vt 0.5156169 0.7425131
vt 0.5156169 0.7425131
vt 0.5156169 0.7425131
vt 0.3937398 0.7425131
vt 0.3937398 0.7425131
vt 0.3937398 0.7425131
vt 0.3937398 0.7425131
vt 0.3937398 0.7425131
vt 0.3937398 0.7425131
vt 0.3937398 0.7425131
vt 0.3937398 0.7425131
vt 0.3937398 0.7425131
vt 0.3937397 0.8643903
vt 0.3937397 0.8643903
vt 0.3937397 0.8643903
vt 0.3937397 0.8643903
vt 0.3937397 0.8643903
vt 0.3937397 0.8643903
vt 0.3937397 0.8643903
vt 0.3937397 0.8643903
vt 0.3937397 0.8643903
vt 0.5156169 0.8643904
vt 0.5156169 0.8643904
vt 0.5156169 0.7425131
vt 0.5156169 0.7425131
vt 0.3937398 0.7425131
vt 0.3937398 0.7425131
vt 0.3937397 0.8643903
vt 0.3937397 0.8643903
vt 0.5156169 0.8643904
vt 0.5156169 0.8643904
vt 0.02810785 0.8643904
vt 0.149985 0.8643903
vt 0.149985 0.7425131
vt 0.02810794 0.7425131
vt 0.149985 0.8643903
vt 0.2718623 0.8643904
vt 0.2718623 0.7425131
vt 0.149985 0.7425131
vt 0.2718623 0.8643904
vt 0.3937397 0.8643903
vt 0.3937398 0.7425131
vt 0.2718623 0.7425131
vt 0.3937397 0.8643903
vt 0.5156169 0.8643904
vt 0.5156169 0.7425131
vt 0.3937398 0.7425131
vt 0.3937398 0.7425131
vt 0.5156169 0.7425131
vt 0.5156169 0.8643904
vt 0.3937397 0.8643903
vt 0.02810794 0.7425131
vt 0.149985 0.7425131
vt 0.149985 0.6206357
vt 0.02810782 0.6206359
vt 0.02810787 0.9862676
vt 0.149985 0.9862675
vt 0.149985 0.8643903
vt 0.02810785 0.8643904
vt 0.3937397 0.8643903
vt 0.3937397 0.8643903
vt 0.3937398 0.7425131
vt 0.3937398 0.7425131
vt 0.3937398 0.7425131
vt 0.3937398 0.7425131
vt 0.5156169 0.7425131
vt 0.5156169 0.7425131
vt 0.5156169 0.7425131
vt 0.3937398 0.7425131
vt 0.5156169 0.7425131
vt 0.3937398 0.7425131
vt 0.3937398 0.7425131
vt 0.5156169 0.7425131
vt 0.3937398 0.7425131
vt 0.5156169 0.7425131
vt 0.5156169 0.7425131
vt 0.5156169 0.7425131
vt 0.5156169 0.8643904
vt 0.5156169 0.8643904
vt 0.5156169 0.8643904
vt 0.5156169 0.8643904
vt 0.5156169 0.8643904
vt 0.5156169 0.8643904
vt 0.3937397 0.8643903
vt 0.3937397 0.8643903
vt 0.3937397 0.8643903
vt 0.5156169 0.8643904
vt 0.3937397 0.8643903
vt 0.5156169 0.8643904
vt 0.5156169 0.8643904
vt 0.3937397 0.8643903
vt 0.5156169 0.8643904
vt 0.3937397 0.8643903
vt 0.5156169 0.7425131
vt 0.5156169 0.7425131
vt 0.5156169 0.7425131
vt 0.5156169 0.7425131
vt 0.5156169 0.7425131
vt 0.5156169 0.7425131
vt 0.5156169 0.7425131
vt 0.5156169 0.7425131
vt 0.5156169 0.7425131
vt 0.3937398 0.7425131
vt 0.3937398 0.7425131
vt 0.3937398 0.7425131
vt 0.3937398 0.7425131
vt 0.3937398 0.7425131
vt 0.3937398 0.7425131
vt 0.3937398 0.7425131
vt 0.3937397 0.8643903
vt 0.3937397 0.8643903
vt 0.3937397 0.8643903
vt 0.3937397 0.8643903
vt 0.3937397 0.8643903
vt 0.3937397 0.8643903
vt 0.3937397 0.8643903
vt 0.3937397 0.8643903
vt 0.3937397 0.8643903
vt 0.5156169 0.7425131
vt 0.5156169 0.7425131
vt 0.3937398 0.7425131
vt 0.3937398 0.7425131
vt 0.3937397 0.8643903
vt 0.3937397 0.8643903
vt 0.5156169 0.8643904
vt 0.5156169 0.8643904
vt 0.5156169 0.8643904
vt 0.5156169 0.8643904
vt 0.5156169 0.8643904
vt 0.5156169 0.8643904
vt 0.5156169 0.8643904
vt 0.5156169 0.8643904
vt 0.5156169 0.8643904
vt 0.5156169 0.7425131
vt 0.5156169 0.7425131
vt 0.3937398 0.7425131
vt 0.3937398 0.7425131
vt 0.3937398 0.7425131
vt 0.3937398 0.7425131
vt 0.3937398 0.7425131
vt 0.3937398 0.7425131
vt 0.3937397 0.8643903
vt 0.3937397 0.8643903
vt 0.5156169 0.8643904
vt 0.5156169 0.8643904
vn 0 0 1
vn 0 0 1
vn 0 0 1
vn 0 0 1
vn 2.463252E-06 1 0
vn 2.463252E-06 1 0
vn 2.463252E-06 1 0
vn 2.463252E-06 1 0
vn 0 0 -1
vn 0 0 -1
vn 0 0 -1
vn 0 0 -1
vn -6.158131E-07 -1 0
vn -6.158131E-07 -1 0
vn -6.158131E-07 -1 0
vn -6.158131E-07 -1 0
vn -5.251221E-07 -1 0
vn -5.251221E-07 -1 0
vn -6.751573E-07 -1 0
vn -6.751573E-07 -1 0
vn 1 0 0
vn 1 0 0
vn 1 0 0
vn 1 0 0
vn -1 1.018162E-07 0
vn -1 1.018162E-07 0
vn -1 1.018162E-07 0
vn -1 1.018162E-07 0
vn 0 0 -1
vn 0 0 -1
vn 0 0 -1
vn 0 0 -1
vn 0 0 -1
vn 0 0 -1
vn 0 0 -1
vn 0 0 -1
vn 0.9660649 0.2582995 0
vn 1 0 0
vn 1 0 0
vn 0.9660649 0.2582995 0
vn 1 0 0
vn 1 0 0
vn 0.1153314 0.993327 0
vn 0.1153314 0.993327 0
vn 7.126658E-07 1 0
vn 7.126658E-07 1 0
vn 7.126658E-07 1 0
vn 7.126658E-07 1 0
vn 0 0 1
vn 0 0 1
vn 0 0 1
vn 0 0 1
vn 0 0 1
vn 0 0 1
vn 0 0 1
vn 0 0 1
vn 0 0 1
vn -0.9660646 0.2583005 0
vn -1 0 0
vn -1 0 0
vn -0.9660646 0.2583005 0
vn -1 0 0
vn -1 0 0
vn -0.1153308 0.9933271 0
vn -0.1153306 0.9933271 0
vn 5.251221E-07 1 0
vn 5.251221E-07 1 0
vn 5.251221E-07 1 0
vn 5.251221E-07 1 0
vn -1.10993E-07 0 1
vn -1.10993E-07 0 1
vn -1.10993E-07 0 1
vn -1.10993E-07 0 1
vn -1.648968E-06 2.080463E-07 1
vn -1.648967E-06 2.080463E-07 1
vn -1.648968E-06 2.080463E-07 1
vn -1.587251E-06 0 1
vn -1.587251E-06 0 1
vn -3.62501E-07 0 1
vn -3.62501E-07 0 1
vn -3.625011E-07 0 1
vn -3.62501E-07 0 1
vn -3.62501E-07 0 1
vn -5.106886E-07 -1 0
vn -5.106886E-07 -1 0
vn -5.106886E-07 -1 0
vn -5.106886E-07 -1 0
vn 2.700281E-07 0 -1
vn 2.700281E-07 0 -1
vn 2.70028E-07 0 -1
vn 2.70028E-07 0 -1
vn 2.700281E-07 0 -1
vn 7.936253E-07 0 -1
vn 7.936254E-07 0 -1
vn 1.234376E-06 -2.080463E-07 -1
vn 1.234376E-06 -2.080463E-07 -1
vn 1.234376E-06 -2.080463E-07 -1
vn 1.234376E-06 -2.080463E-07 -1
vn 1.234376E-06 -2.080463E-07 -1
vn 1.587251E-06 0 -1
vn 1.587251E-06 0 -1
vn -5.106883E-07 -1 0
vn -5.106883E-07 -1 0
vn -5.106883E-07 -1 0
vn -5.106883E-07 -1 0
vn -1 0 0
vn -1 0 0
vn -1 0 0
vn -1 0 0
vn 1 0 0
vn 1 0 0
vn 1 0 0
vn 1 0 0
vn 5.171004E-07 0 1
vn 5.171004E-07 0 1
vn 5.171004E-07 0 1
vn 5.171004E-07 0 1
vn 2.463252E-06 1 0
vn 2.463252E-06 1 0
vn 2.463252E-06 1 0
vn 2.463252E-06 1 0
vn 0 0 -1
vn 0 0 -1
vn 0 0 -1
vn 0 0 -1
vn -6.158131E-07 -1 0
vn -6.158131E-07 -1 0
vn -6.158131E-07 -1 0
vn -6.158131E-07 -1 0
vn -5.251221E-07 -1 0
vn -5.251221E-07 -1 0
vn -6.751571E-07 -1 0
vn -6.751571E-07 -1 0
vn 1 0 0
vn 1 0 0
vn 1 0 0
vn 1 0 0
vn -1 1.018162E-07 0
vn -1 1.018162E-07 0
vn -1 1.018162E-07 0
vn -1 1.018162E-07 0
vn 0 0 -1
vn 0 0 -1
vn 0 0 -1
vn 0 0 -1
vn 0.9660649 0.2582995 0
vn 1 0 0
vn 1 0 0
vn 0.9660649 0.2582995 0
vn 1 0 0
vn 1 0 0
vn 0.1153314 0.993327 0
vn 0.1153314 0.993327 0
vn 7.126658E-07 1 0
vn 7.126658E-07 1 0
vn 7.126658E-07 1 0
vn 7.126658E-07 1 0
vn 0 0 1
vn 0 0 1
vn 0 0 1
vn 0 0 1
vn 0 0 1
vn 0 0 1
vn -0.9660646 0.2583004 0
vn -1 0 0
vn -1 0 0
vn -0.9660646 0.2583004 0
vn -1 0 0
vn -1 0 0
vn -0.1153308 0.9933271 0
vn -0.1153306 0.9933271 0
vn 5.251221E-07 1 0
vn 5.251221E-07 1 0
vn 5.251221E-07 1 0
vn 5.251221E-07 1 0
vn 1.369963E-07 0 1
vn 1.369963E-07 0 1
vn 1.369963E-07 0 1
vn 1.369963E-07 0 1
vn 1.589581E-07 0 1
vn 1.589581E-07 0 1
vn 1.589581E-07 0 1
vn 7.936254E-07 0 1
vn 7.936253E-07 0 1
vn -1.932014E-07 0 -1
vn -1.932014E-07 0 -1
vn -1.932014E-07 0 -1
vn -1.932014E-07 0 -1
vn -2.8628E-07 0 -1
vn -2.8628E-07 0 -1
vn -2.8628E-07 0 -1
vn 1.932013E-07 0 -1
vn 1.932013E-07 0 -1
vn 1.932013E-07 0 -1
vn 1.932013E-07 0 -1
vn 1.966784E-06 -2.773951E-07 -1
vn 1.966784E-06 -2.773951E-07 -1
vn 1.966784E-06 -2.773951E-07 -1
vn 2.380876E-06 0 -1
vn 2.380876E-06 0 -1
vn -5.106886E-07 -1 0
vn -5.106886E-07 -1 0
vn -5.106886E-07 -1 0
vn -5.106886E-07 -1 0
vn -5.106882E-07 -1 0
vn -5.106882E-07 -1 0
vn -5.106882E-07 -1 0
vn -5.106882E-07 -1 0
vn -1.917786E-06 2.080463E-07 1
vn -1.917786E-06 2.080463E-07 1
vn -1.917786E-06 2.080463E-07 1
vn -1.917786E-06 2.080463E-07 1
vn -1.917787E-06 2.080463E-07 1
vn -1.587251E-06 0 1
vn -1.587251E-06 0 1
vn -1 0 0
vn -1 0 0
vn -1 0 0
vn -1 0 0
vn 0 0 -1
vn 0 0 -1
vn 0 0 -1
vn 0 0 -1
vn 1 0 0
vn 1 0 0
vn 1 0 0
vn 1 0 0
g polySurface2_0
f 3/3/3 2/2/2 1/1/1
f 4/4/4 3/3/3 1/1/1
f 7/7/7 6/6/6 5/5/5
f 8/8/8 7/7/7 5/5/5
f 11/11/11 10/10/10 9/9/9
f 12/12/12 11/11/11 9/9/9
f 15/15/15 14/14/14 13/13/13
f 16/16/16 15/15/15 13/13/13
f 16/16/16 17/17/17 15/15/15
f 17/17/17 18/18/18 15/15/15
f 14/14/14 19/19/19 13/13/13
f 19/19/19 20/20/20 13/13/13
f 23/23/23 22/22/22 21/21/21
f 24/24/24 23/23/23 21/21/21
f 27/27/27 26/26/26 25/25/25
f 28/28/28 27/27/27 25/25/25
f 31/31/31 30/30/30 29/29/29
f 32/32/32 31/31/31 29/29/29
f 32/32/32 33/33/33 31/31/31
f 33/33/33 34/34/34 31/31/31
f 30/30/30 35/35/35 29/29/29
f 35/35/35 36/36/36 29/29/29
f 39/39/39 38/38/38 37/37/37
f 40/40/40 39/39/39 37/37/37
f 39/39/39 41/41/41 38/38/38
f 41/41/41 42/42/42 38/38/38
f 43/43/43 40/40/40 37/37/37
f 44/44/44 43/43/43 37/37/37
f 43/43/43 44/44/44 45/45/45
f 46/46/46 43/43/43 45/45/45
f 46/46/46 45/45/45 47/47/47
f 48/48/48 46/46/46 47/47/47
f 51/51/51 50/50/50 49/49/49
f 52/52/52 51/51/51 49/49/49
f 50/50/50 53/53/53 49/49/49
f 53/53/53 54/54/54 49/49/49
f 53/53/53 56/56/56 55/55/55
f 56/56/56 57/57/57 55/55/55
f 60/60/60 59/59/59 58/58/58
f 61/61/61 60/60/60 58/58/58
f 60/60/60 62/62/62 59/59/59
f 62/62/62 63/63/63 59/59/59
f 61/61/61 58/58/58 64/64/64
f 58/58/58 65/65/65 64/64/64
f 64/64/64 65/65/65 66/66/66
f 67/67/67 64/64/64 66/66/66
f 67/67/67 66/66/66 68/68/68
f 69/69/69 67/67/67 68/68/68
f 72/72/72 71/71/71 70/70/70
f 73/73/73 72/72/72 70/70/70
f 71/71/71 72/72/72 74/74/74
f 74/74/74 75/75/75 71/71/71
f 74/74/74 76/76/76 75/75/75
f 75/75/75 77/77/77 71/71/71
f 77/77/77 78/78/78 71/71/71
f 81/81/81 80/80/80 79/79/79
f 79/79/79 82/82/82 81/81/81
f 79/79/79 83/83/83 82/82/82
f 86/86/86 85/85/85 84/84/84
f 87/87/87 86/86/86 84/84/84
f 90/90/90 89/89/89 88/88/88
f 88/88/88 91/91/91 90/90/90
f 88/88/88 92/92/92 91/91/91
f 89/89/89 93/93/93 88/88/88
f 93/93/93 94/94/94 88/88/88
f 97/97/97 96/96/96 95/95/95
f 95/95/95 98/98/98 97/97/97
f 95/95/95 99/99/99 98/98/98
f 96/96/96 100/100/100 95/95/95
f 100/100/100 101/101/101 95/95/95
f 104/104/104 103/103/103 102/102/102
f 105/105/105 104/104/104 102/102/102
f 108/108/108 107/107/107 106/106/106
f 109/109/109 108/108/108 106/106/106
f 112/112/112 111/111/111 110/110/110
f 113/113/113 112/112/112 110/110/110
f 116/116/116 115/115/115 114/114/114
f 117/117/117 116/116/116 114/114/114
f 120/120/120 119/119/119 118/118/118
f 121/121/121 120/120/120 118/118/118
f 124/124/124 123/123/123 122/122/122
f 125/125/125 124/124/124 122/122/122
f 128/128/128 127/127/127 126/126/126
f 129/129/129 128/128/128 126/126/126
f 129/129/129 130/130/130 128/128/128
f 130/130/130 131/131/131 128/128/128
f 127/127/127 132/132/132 126/126/126
f 132/132/132 133/133/133 126/126/126
f 136/136/136 135/135/135 134/134/134
f 137/137/137 136/136/136 134/134/134
f 140/140/140 139/139/139 138/138/138
f 141/141/141 140/140/140 138/138/138
f 144/144/144 143/143/143 142/142/142
f 145/145/145 144/144/144 142/142/142
f 148/148/148 147/147/147 146/146/146
f 149/149/149 148/148/148 146/146/146
f 148/148/148 150/150/150 147/147/147
f 150/150/150 151/151/151 147/147/147
f 152/152/152 149/149/149 146/146/146
f 153/153/153 152/152/152 146/146/146
f 152/152/152 153/153/153 154/154/154
f 155/155/155 152/152/152 154/154/154
f 155/155/155 154/154/154 156/156/156
f 157/157/157 155/155/155 156/156/156
f 160/160/160 159/159/159 158/158/158
f 161/161/161 160/160/160 158/158/158
f 161/161/161 162/162/162 160/160/160
f 162/162/162 163/163/163 160/160/160
f 166/166/166 165/165/165 164/164/164
f 167/167/167 166/166/166 164/164/164
f 166/166/166 168/168/168 165/165/165
f 168/168/168 169/169/169 165/165/165
f 167/167/167 164/164/164 170/170/170
f 164/164/164 171/171/171 170/170/170
f 170/170/170 171/171/171 172/172/172
f 173/173/173 170/170/170 172/172/172
f 173/173/173 172/172/172 174/174/174
f 175/175/175 173/173/173 174/174/174
f 178/178/178 177/177/177 176/176/176
f 179/179/179 178/178/178 176/176/176
f 180/180/180 177/177/177 178/178/178
f 180/180/180 178/178/178 181/181/181
f 181/181/181 182/182/182 180/180/180
f 178/178/178 183/183/183 181/181/181
f 183/183/183 184/184/184 181/181/181
f 187/187/187 186/186/186 185/185/185
f 188/188/188 187/187/187 185/185/185
f 186/186/186 187/187/187 189/189/189
f 186/186/186 189/189/189 190/190/190
f 190/190/190 191/191/191 186/186/186
f 194/194/194 193/193/193 192/192/192
f 195/195/195 194/194/194 192/192/192
f 193/193/193 194/194/194 196/196/196
f 196/196/196 197/197/197 193/193/193
f 196/196/196 198/198/198 197/197/197
f 194/194/194 199/199/199 196/196/196
f 199/199/199 200/200/200 196/196/196
f 203/203/203 202/202/202 201/201/201
f 204/204/204 203/203/203 201/201/201
f 207/207/207 206/206/206 205/205/205
f 208/208/208 207/207/207 205/205/205
f 211/211/211 210/210/210 209/209/209
f 209/209/209 212/212/212 211/211/211
f 209/209/209 213/213/213 212/212/212
f 212/212/212 214/214/214 211/211/211
f 214/214/214 215/215/215 211/211/211
f 218/218/218 217/217/217 216/216/216
f 219/219/219 218/218/218 216/216/216
f 222/222/222 221/221/221 220/220/220
f 223/223/223 222/222/222 220/220/220
f 226/226/226 225/225/225 224/224/224
f 227/227/227 226/226/226 224/224/224
