g pPlane1
v -0.5 -0.1500214 0.5
v -0.5 -0.09174444 0.25
v -0.25 -0.04219553 0.25
v -0.25 -0.09174444 0.5
v 0 -0.02037014 0.25
v 0 -0.06114566 0.5
v 0.25 -0.04219553 0.25
v 0.25 -0.09174444 0.5
v 0.5 -0.09174444 0.25
v 0.5 -0.1500214 0.5
v -0.25 -0.02037014 0
v -0.5 -0.06114566 0
v 0 0.001997927 0
v 0.25 -0.02037014 0
v 0.5 -0.06114566 0
v -0.25 -0.04219553 -0.25
v -0.5 -0.09174444 -0.25
v 0 -0.02037014 -0.25
v 0.25 -0.04219553 -0.25
v 0.5 -0.09174444 -0.25
v -0.25 -0.09174444 -0.5
v -0.5 -0.1500214 -0.5
v 0 -0.06114566 -0.5
v 0.25 -0.09174444 -0.5
v 0.5 -0.1500214 -0.5
vt 0 0
vt 0 0.25
vt 0.25 0.25
vt 0.25 0
vt 0.5 0.25
vt 0.5 0
vt 0.75 0.25
vt 0.75 0
vt 1 0.25
vt 1 0
vt 0.25 0.5
vt 0 0.5
vt 0.5 0.5
vt 0.75 0.5
vt 1 0.5
vt 0.25 0.75
vt 0 0.75
vt 0.5 0.75
vt 0.75 0.75
vt 1 0.75
vt 0.25 1
vt 0 1
vt 0.5 1
vt 0.75 1
vt 1 1
vn -0.2062722 0.956506 0.2062722
vn -0.192329 0.9687874 0.1563986
vn -0.1439403 0.979062 0.1439403
vn -0.1563986 0.9687874 0.1923289
vn 0 0.9911153 0.1330056
vn 0 0.9840718 0.1777714
vn 0.1439403 0.979062 0.1439403
vn 0.1563986 0.9687874 0.192329
vn 0.1923289 0.9687874 0.1563986
vn 0.2062722 0.956506 0.2062722
vn -0.1330056 0.9911153 0
vn -0.1777714 0.9840718 0
vn 0 1 0
vn 0.1330056 0.9911153 0
vn 0.1777714 0.9840718 0
vn -0.1439403 0.979062 -0.1439403
vn -0.1923289 0.9687874 -0.1563986
vn 0 0.9911153 -0.1330056
vn 0.1439403 0.979062 -0.1439403
vn 0.1923289 0.9687874 -0.1563986
vn -0.1563986 0.9687874 -0.192329
vn -0.2062722 0.956506 -0.2062722
vn 0 0.9840718 -0.1777714
vn 0.1563985 0.9687874 -0.192329
vn 0.2062722 0.956506 -0.2062722
g pPlane1_0
f 3/3/3 2/2/2 1/1/1
f 4/4/4 3/3/3 1/1/1
f 5/5/5 3/3/3 4/4/4
f 6/6/6 5/5/5 4/4/4
f 7/7/7 5/5/5 6/6/6
f 8/8/8 7/7/7 6/6/6
f 9/9/9 7/7/7 8/8/8
f 10/10/10 9/9/9 8/8/8
f 3/3/3 11/11/11 2/2/2
f 11/11/11 12/12/12 2/2/2
f 13/13/13 11/11/11 3/3/3
f 5/5/5 13/13/13 3/3/3
f 14/14/14 13/13/13 5/5/5
f 7/7/7 14/14/14 5/5/5
f 15/15/15 14/14/14 7/7/7
f 9/9/9 15/15/15 7/7/7
f 11/11/11 16/16/16 12/12/12
f 16/16/16 17/17/17 12/12/12
f 18/18/18 16/16/16 11/11/11
f 13/13/13 18/18/18 11/11/11
f 19/19/19 18/18/18 13/13/13
f 14/14/14 19/19/19 13/13/13
f 20/20/20 19/19/19 14/14/14
f 15/15/15 20/20/20 14/14/14
f 16/16/16 21/21/21 17/17/17
f 21/21/21 22/22/22 17/17/17
f 23/23/23 21/21/21 16/16/16
f 18/18/18 23/23/23 16/16/16
f 24/24/24 23/23/23 18/18/18
f 19/19/19 24/24/24 18/18/18
f 25/25/25 24/24/24 19/19/19
f 20/20/20 25/25/25 19/19/19
