# Mesh "CounterTop_Corner" exported with Unity Assets Bundle Extractor; 86 vertices, 162 indices, 448 bits per vertex
g CounterTop_Corner
# SubMesh 0
# Vertices
v 0.451196 0.500000 0.600000
vt 0.090284 0.955267
vn -0.000000 0.000000 1.000000
v 0.600000 0.500000 0.600000
vt 0.069003 0.955267
vn -0.000000 0.000000 1.000000
v 0.600000 0.386283 0.600000
vt 0.069003 0.977639
vn -0.000000 0.000000 1.000000
v 0.451196 0.386283 0.600000
vt 0.090284 0.977639
vn -0.000000 0.000000 1.000000
v 0.451196 0.577534 0.600000
vt 0.090284 0.940013
vn -0.000000 0.000000 1.000000
v 0.600000 0.577534 0.600000
vt 0.069003 0.940013
vn -0.000000 0.000000 1.000000
v -0.600000 0.500000 0.600000
vt 0.240623 0.955267
vn -0.000000 0.000000 1.000000
v -0.600000 0.577534 0.600000
vt 0.240623 0.940013
vn -0.000000 0.000000 1.000000
v -0.600000 0.386283 0.600000
vt 0.240623 0.977639
vn -0.000000 0.000000 1.000000
v 0.448804 0.386283 -0.600000
vt 0.047237 0.699983
vn -0.000000 0.000000 -1.000000
v 0.600000 0.386283 -0.600000
vt 0.016859 0.699983
vn -0.000000 0.000000 -1.000000
v 0.600000 0.500000 -0.600000
vt 0.016859 0.727400
vn -0.000000 0.000000 -1.000000
v 0.451196 0.500000 -0.600000
vt 0.046757 0.727400
vn -0.000000 0.000000 -1.000000
v -0.600000 0.500000 -0.600000
vt 0.257959 0.727400
vn -0.000000 0.000000 -1.000000
v -0.600000 0.386283 -0.600000
vt 0.257959 0.699983
vn -0.000000 0.000000 -1.000000
v 0.451196 0.577516 -0.600000
vt 0.046757 0.746089
vn -0.000000 0.000000 -1.000000
v 0.600000 0.577516 -0.600000
vt 0.016859 0.746089
vn -0.000000 0.000000 -1.000000
v 0.600000 0.500000 0.450000
vt 0.090462 0.962499
vn 1.000000 0.000000 0.000000
v 0.600000 0.500000 -0.600000
vt 0.240705 0.962499
vn 1.000000 0.000000 0.000000
v 0.600000 0.386283 -0.600000
vt 0.240705 0.940116
vn 1.000000 0.000000 0.000000
v 0.600000 0.386283 0.450000
vt 0.090462 0.940116
vn 1.000000 0.000000 0.000000
v 0.600000 0.386283 0.600000
vt 0.068998 0.940116
vn 1.000000 0.000000 0.000000
v 0.600000 0.500000 0.600000
vt 0.068998 0.962499
vn 1.000000 0.000000 0.000000
v 0.600000 0.577534 0.450000
vt 0.090462 0.977761
vn 1.000000 0.000000 0.000000
v 0.600000 0.577534 0.600000
vt 0.068998 0.977761
vn 1.000000 0.000000 0.000000
v 0.600000 0.577516 -0.600000
vt 0.240705 0.977757
vn 1.000000 0.000000 0.000000
v -0.600000 0.386283 -0.600000
vt 0.255913 0.699985
vn -1.000000 0.000000 0.000000
v -0.600000 0.500000 -0.600000
vt 0.255913 0.727191
vn -1.000000 0.000000 0.000000
v -0.600000 0.500000 0.450000
vt 0.046575 0.727191
vn -1.000000 0.000000 0.000000
v -0.600000 0.386283 0.450000
vt 0.046575 0.699985
vn -1.000000 0.000000 0.000000
v -0.600000 0.386283 0.600000
vt 0.016670 0.699985
vn -1.000000 0.000000 0.000000
v -0.600000 0.500000 0.600000
vt 0.016670 0.727191
vn -1.000000 0.000000 0.000000
v -0.600000 0.577534 0.600000
vt 0.016670 0.745740
vn -1.000000 0.000000 0.000000
v -0.600000 0.577534 0.450000
vt 0.046575 0.745740
vn -1.000000 0.000000 0.000000
v 0.451196 0.577534 0.450000
vt 0.255756 0.971547
vn -0.000000 1.000000 -0.000008
v 0.600000 0.577534 0.450000
vt 0.277685 0.971547
vn -0.000000 1.000000 -0.000015
v 0.600000 0.577534 0.600000
vt 0.277685 0.949442
vn -0.000000 1.000000 0.000000
v 0.451196 0.577534 0.600000
vt 0.255756 0.949442
vn -0.000000 1.000000 0.000000
v 0.451196 0.386283 0.600000
vt 0.965666 0.062469
vn -0.000000 -1.000000 0.000000
v 0.600000 0.386283 0.600000
vt 0.965666 0.001842
vn -0.000000 -1.000000 -0.000000
v 0.600000 0.386283 0.450000
vt 0.904552 0.001842
vn -0.000000 -1.000000 -0.000000
v 0.449417 0.386283 0.450000
vt 0.904552 0.063194
vn -0.000000 -1.000000 0.000000
v -0.563334 -0.000000 0.555272
vt 0.033224 0.369276
vn -0.000000 0.000000 1.000000
v -0.563334 0.477190 0.555272
vt 0.033224 0.484783
vn -0.000000 0.000000 1.000000
v 0.563334 0.477190 0.555272
vt 0.255653 0.484783
vn -0.000000 0.000000 1.000000
v 0.563334 -0.000000 0.555272
vt 0.255653 0.369276
vn -0.000000 0.000000 1.000000
v -0.563334 0.477190 -0.555272
vt 0.033192 0.369038
vn -0.000000 0.000000 -1.000000
v -0.563334 -0.000000 -0.555272
vt 0.033192 0.484545
vn -0.000000 0.000000 -1.000000
v 0.563334 -0.000000 -0.555272
vt 0.255621 0.484545
vn -0.000000 0.000000 -1.000000
v 0.563334 0.477190 -0.555272
vt 0.255621 0.369038
vn -0.000000 0.000000 -1.000000
v 0.563334 -0.000000 0.555272
vt 0.255836 0.368828
vn 1.000000 0.000000 0.000000
v 0.563334 0.477190 0.555272
vt 0.255836 0.484335
vn 1.000000 0.000000 0.000000
v 0.563334 0.477190 -0.555272
vt 0.475083 0.484335
vn 1.000000 0.000000 0.000000
v 0.563334 -0.000000 -0.555272
vt 0.475083 0.368828
vn 1.000000 0.000000 0.000000
v -0.563334 -0.000000 -0.555272
vt 0.255892 0.368978
vn -1.000000 0.000000 0.000000
v -0.563334 0.477190 -0.555272
vt 0.255892 0.484485
vn -1.000000 0.000000 0.000000
v -0.563334 0.477190 0.555272
vt 0.475138 0.484485
vn -1.000000 0.000000 0.000000
v -0.563334 -0.000000 0.555272
vt 0.475138 0.368978
vn -1.000000 0.000000 0.000000
v -0.600000 0.500000 0.450000
vt 0.076211 0.683328
vn -0.000000 1.000000 0.000000
v -0.600000 0.500000 -0.600000
vt 0.237015 0.683328
vn -0.000000 1.000000 0.000000
v 0.451196 0.500000 -0.600000
vt 0.237015 0.522341
vn -0.000000 1.000000 0.000000
v 0.451196 0.500000 0.450000
vt 0.076211 0.522341
vn -0.000000 1.000000 0.000000
v 0.451196 0.577534 0.450000
vt 0.067945 0.915958
vn -0.000000 0.000000 -1.000000
v -0.600000 0.577534 0.450000
vt 0.241876 0.915958
vn -0.000000 0.000000 -1.000000
v -0.600000 0.500000 0.450000
vt 0.241876 0.900563
vn -0.000000 0.000000 -1.000000
v 0.451196 0.500000 0.450000
vt 0.067945 0.900563
vn -0.000000 0.000000 -1.000000
v -0.600000 0.577534 0.600000
vt 0.067596 0.915255
vn -0.000000 1.000000 0.000000
v -0.600000 0.577534 0.450000
vt 0.067596 0.940109
vn -0.000000 1.000000 0.000000
v 0.451196 0.577534 0.450000
vt 0.241767 0.940109
vn -0.000000 1.000000 -0.000008
v 0.451196 0.577534 0.600000
vt 0.241767 0.915255
vn -0.000000 1.000000 0.000000
v -0.600000 0.386283 0.450000
vt 0.476380 0.915341
vn -0.000000 -1.000000 0.000000
v -0.600000 0.386283 0.600000
vt 0.499637 0.915341
vn -0.000000 -1.000000 0.000000
v 0.451196 0.386283 0.600000
vt 0.499637 0.752355
vn -0.000000 -1.000000 0.000000
v 0.449417 0.386283 0.450000
vt 0.476380 0.752631
vn -0.000000 -1.000000 0.000000
v 0.451196 0.577534 0.450000
vt 0.068028 0.940036
vn -0.000000 1.000000 -0.000008
v 0.451196 0.577516 -0.600000
vt 0.242001 0.940036
vn -0.000000 1.000000 -0.000017
v 0.600000 0.577516 -0.600000
vt 0.242001 0.915381
vn -0.000000 1.000000 -0.000017
v 0.600000 0.577534 0.450000
vt 0.068028 0.915381
vn -0.000000 1.000000 -0.000015
v 0.451196 0.500000 -0.600000
vt 0.067020 0.900495
vn -1.000000 0.000000 0.000000
v 0.451196 0.577516 -0.600000
vt 0.067020 0.915547
vn -1.000000 0.000000 0.000000
v 0.451196 0.577534 0.450000
vt 0.241746 0.915550
vn -1.000000 0.000000 0.000000
v 0.451196 0.500000 0.450000
vt 0.241746 0.900495
vn -1.000000 0.000000 0.000000
v -0.600000 0.386283 0.450000
vt 0.475068 0.938413
vn -0.000000 -1.000000 0.000000
v 0.600000 0.386283 0.450000
vt 0.475068 0.752355
vn -0.000000 -1.000000 0.000000
v 0.600000 0.386283 -0.600000
vt 0.312268 0.752355
vn -0.000000 -1.000000 0.000000
v -0.600000 0.386283 -0.600000
vt 0.312268 0.938413
vn -0.000000 -1.000000 0.000000
# Faces (1 to 86)
g CounterTop_Corner_0
f -84/-84/-84 -85/-85/-85 -86/-86/-86
f -83/-83/-83 -84/-84/-84 -86/-86/-86
f -86/-86/-86 -85/-85/-85 -82/-82/-82
f -85/-85/-85 -81/-81/-81 -82/-82/-82
f -86/-86/-86 -82/-82/-82 -80/-80/-80
f -82/-82/-82 -79/-79/-79 -80/-80/-80
f -86/-86/-86 -80/-80/-80 -78/-78/-78
f -83/-83/-83 -86/-86/-86 -78/-78/-78
f -75/-75/-75 -76/-76/-76 -77/-77/-77
f -74/-74/-74 -75/-75/-75 -77/-77/-77
f -74/-74/-74 -77/-77/-77 -73/-73/-73
f -77/-77/-77 -72/-72/-72 -73/-73/-73
f -74/-74/-74 -71/-71/-71 -75/-75/-75
f -71/-71/-71 -70/-70/-70 -75/-75/-75
f -67/-67/-67 -68/-68/-68 -69/-69/-69
f -66/-66/-66 -67/-67/-67 -69/-69/-69
f -66/-66/-66 -69/-69/-69 -65/-65/-65
f -69/-69/-69 -64/-64/-64 -65/-65/-65
f -69/-69/-69 -63/-63/-63 -64/-64/-64
f -69/-69/-69 -68/-68/-68 -63/-63/-63
f -63/-63/-63 -62/-62/-62 -64/-64/-64
f -68/-68/-68 -61/-61/-61 -63/-63/-63
f -58/-58/-58 -59/-59/-59 -60/-60/-60
f -57/-57/-57 -58/-58/-58 -60/-60/-60
f -57/-57/-57 -56/-56/-56 -58/-58/-58
f -56/-56/-56 -55/-55/-55 -58/-58/-58
f -55/-55/-55 -54/-54/-54 -58/-58/-58
f -54/-54/-54 -53/-53/-53 -58/-58/-58
f -50/-50/-50 -51/-51/-51 -52/-52/-52
f -49/-49/-49 -50/-50/-50 -52/-52/-52
f -46/-46/-46 -47/-47/-47 -48/-48/-48
f -45/-45/-45 -46/-46/-46 -48/-48/-48
f -42/-42/-42 -43/-43/-43 -44/-44/-44
f -41/-41/-41 -42/-42/-42 -44/-44/-44
f -38/-38/-38 -39/-39/-39 -40/-40/-40
f -37/-37/-37 -38/-38/-38 -40/-40/-40
f -34/-34/-34 -35/-35/-35 -36/-36/-36
f -33/-33/-33 -34/-34/-34 -36/-36/-36
f -30/-30/-30 -31/-31/-31 -32/-32/-32
f -29/-29/-29 -30/-30/-30 -32/-32/-32
f -26/-26/-26 -27/-27/-27 -28/-28/-28
f -25/-25/-25 -26/-26/-26 -28/-28/-28
f -22/-22/-22 -23/-23/-23 -24/-24/-24
f -21/-21/-21 -22/-22/-22 -24/-24/-24
f -18/-18/-18 -19/-19/-19 -20/-20/-20
f -17/-17/-17 -18/-18/-18 -20/-20/-20
f -14/-14/-14 -15/-15/-15 -16/-16/-16
f -13/-13/-13 -14/-14/-14 -16/-16/-16
f -10/-10/-10 -11/-11/-11 -12/-12/-12
f -9/-9/-9 -10/-10/-10 -12/-12/-12
f -6/-6/-6 -7/-7/-7 -8/-8/-8
f -5/-5/-5 -6/-6/-6 -8/-8/-8
f -2/-2/-2 -3/-3/-3 -4/-4/-4
f -1/-1/-1 -2/-2/-2 -4/-4/-4

