g cheese3
v -0.4775358 0.00031322 -0.4282708
v -0.4775358 0.2283318 -0.4282708
v -0.3536272 0.3930934 -0.1576163
v -0.356561 0.4471418 -0.1799512
v -0.4775358 0.4563535 -0.4282708
v -0.379114 0.00031322 -0.2262444
v -0.3536272 0.3930934 -0.1576163
v -0.2724853 0.1082592 -0.008330287
v -0.2855935 0.00031322 -0.03427891
v -0.2837888 0.2077436 -0.03235921
v -0.2999297 0.3581912 -0.06460423
v -0.233377 0.04263405 0.0727737
v -0.1917467 0.03281069 0.1582083
v -0.1801496 0.00031322 0.1821606
v -0.01131231 0.00031322 0.5287269
v -0.15176 0.07838462 0.2402301
v -0.2614393 0.2876744 0.01477001
v -0.211661 0.3116126 0.117023
v -0.2516282 0.3874428 0.03474863
v -0.1645127 0.2691279 0.2138171
v -0.2500896 0.4390336 0.03859752
v -0.1594151 0.4321287 0.2247216
v -0.01131231 0.4208506 0.5287269
v -0.01131231 0.2231603 0.5287269
v -0.1454014 0.1793278 0.2531545
v 1.907349E-08 0.00031322 -0.5287269
v 0.2387679 0.00031322 -0.5097022
v 0.2387679 0.2283318 -0.5097022
v 1.907349E-08 0.2283318 -0.5287269
v -0.2387678 0.00031322 -0.5097022
v -0.2387678 0.2283318 -0.5097022
v 0.4775358 0.2283318 -0.4282708
v 0.4775358 0.00031322 -0.4282708
v -0.2387678 0.4563535 -0.5097022
v 1.907349E-08 0.4563535 -0.5287269
v 0.2387679 0.4563535 -0.5097022
v 0.4775358 0.4563535 -0.4282708
v 0.1426739 0.4320325 0.2272738
v 0.2331117 0.4386024 0.05022702
v 0.1833685 0.3411208 0.1476071
v 0.1214186 0.3529124 0.2688848
v -0.01131231 0.4208506 0.5287269
v 0.08390901 0.2916797 0.3423156
v -0.01131231 0.2231603 0.5287269
v 0.07392572 0.1773228 0.3618591
v -0.01131231 0.00031322 0.5287269
v 0.08442606 0.09813858 0.3413024
v 0.149004 0.00031322 0.2148816
v 0.1446132 0.05542709 0.2234756
v 0.2331117 0.00031322 0.05022702
v 0.2067869 0.07374756 0.101761
v 0.2331117 0.1682497 0.05022702
v 0.3956248 0.00031322 -0.2679171
v 0.3512549 0.3191131 -0.1810561
v 0.2237422 0.2726309 0.06856792
v 0.4775358 0.00031322 -0.4282708
v 0.3852787 0.3237441 -0.2476642
v 0.3149706 0.3291758 -0.1100252
v 0.2910916 0.3523246 -0.06327809
v 0.2810904 0.3909201 -0.04369739
v 0.2779149 0.441857 -0.03748418
v -0.1878456 0.4422047 -0.08238743
v -0.2351799 0.4452097 -0.1606164
v -0.003664379 0.4448536 -0.1861858
v -0.005656109 0.4386024 -3.814697E-08
v 1.907349E-08 0.4563535 -0.5287269
v -0.2387678 0.4563535 -0.5097022
v -0.4775358 0.4563535 -0.4282708
v -0.356561 0.4471418 -0.1799512
v 0.190208 0.4493752 -0.3205439
v 0.1357036 0.4458548 -0.2215049
v 0.1506956 0.4435205 -0.1393386
v 0.2325651 0.4418759 -0.04759053
v 0.2779149 0.441857 -0.03748418
v 0.2331117 0.4386024 0.05022702
v -0.005656109 0.4386024 -3.814697E-08
v 0.2331117 0.00031322 0.05022702
v 0.3956248 0.00031322 -0.2679171
v -0.00301939 0.00031322 -0.2464749
v -0.005777111 0.00031322 0.01130809
v -0.379114 0.00031322 -0.2262444
v -0.2855935 0.00031322 -0.03427891
v 0.149004 0.00031322 0.2148816
v -0.007603207 0.00031322 0.1820074
v -0.1801496 0.00031322 0.1821606
v -0.01131231 0.00031322 0.5287269
v -0.4775358 0.00031322 -0.4282708
v -0.2387678 0.00031322 -0.5097022
v 1.907349E-08 0.00031322 -0.5287269
v 0.2387679 0.00031322 -0.5097022
v 0.4775358 0.00031322 -0.4282708
v -0.4775358 0.00031322 -0.4282708
v -0.2387678 0.00031322 -0.5097022
v -0.2387678 0.2283318 -0.5097022
v -0.4775358 0.2283318 -0.4282708
v -0.4775358 0.4563535 -0.4282708
v -0.2387678 0.4563535 -0.5097022
v 0.2331117 0.4386024 0.05022702
v 0.1426739 0.4320325 0.2272738
v -0.007903423 0.4315502 0.2100732
v -0.005656109 0.4386024 -3.814697E-08
v -0.01131231 0.4208506 0.5287269
v -0.1594151 0.4321287 0.2247216
v -0.2500896 0.4390336 0.03859752
v -0.005656109 0.4386024 -3.814697E-08
v -0.1996288 0.4398942 -0.005725898
v -0.1996288 0.4398942 -0.005725898
v -0.1878456 0.4422047 -0.08238743
v -0.2351799 0.4452097 -0.1606164
v -0.1878456 0.4422047 -0.08238743
v -0.2260896 0.4008112 -0.07699162
v -0.2843183 0.4095492 -0.1594791
v -0.356561 0.4471418 -0.1799512
v -0.1996288 0.4398942 -0.005725898
v -0.2193482 0.4083753 0.006326402
v -0.2500896 0.4390336 0.03859752
v -0.3536272 0.3930934 -0.1576163
v -0.2999297 0.3581912 -0.06460423
v -0.2516282 0.3874428 0.03474863
v -0.1705369 0.1927478 0.006411851
v -0.1576093 0.2389789 0.03367258
v -0.1288162 0.2528299 0.09281885
v -0.1340697 0.1852581 0.08164913
v -0.211661 0.3116126 0.117023
v -0.1645127 0.2691279 0.2138171
v -0.1015444 0.2282471 0.1488073
v -0.1454014 0.1793278 0.2531545
v -0.09048986 0.1763074 0.1715609
v -0.15176 0.07838462 0.2402301
v -0.09416784 0.1179232 0.164085
v -0.1917467 0.03281069 0.1582083
v -0.1172973 0.09155823 0.1166412
v -0.233377 0.04263405 0.0727737
v -0.1413772 0.09724236 0.06722391
v -0.2724853 0.1082592 -0.008330287
v -0.1639986 0.1352001 0.02031108
v -0.2614393 0.2876744 0.01477001
v -0.2837888 0.2077436 -0.03235921
v 0.2243745 0.352539 -0.2230533
v 0.2251707 0.360594 -0.1248771
v 0.1930256 0.3840578 -0.1356542
v 0.1754164 0.3993942 -0.1737745
v 0.2544277 0.3402277 -0.1426256
v 0.2459469 0.3520713 -0.1308124
v 0.2779149 0.441857 -0.03748418
v 0.2810904 0.3909201 -0.04369739
v 0.2910916 0.3523246 -0.06327809
v 0.2793959 0.3327081 -0.1766809
v 0.3149706 0.3291758 -0.1100252
v 0.3013155 0.3309368 -0.211926
v 0.3512549 0.3191131 -0.1810561
v 0.3135573 0.3364389 -0.2511303
v 0.3852787 0.3237441 -0.2476642
v 0.3293989 0.3497934 -0.300889
v 0.422486 0.3765948 -0.320502
v 0.3215353 0.3714091 -0.3149917
v 0.4231375 0.4524025 -0.321778
v 0.2643861 0.3980187 -0.3145146
v 0.3079246 0.4517503 -0.3598104
v 0.2029347 0.4177056 -0.2818807
v 0.190208 0.4493752 -0.3205439
v 0.1596666 0.4104067 -0.2181053
v 0.1357036 0.4458548 -0.2215049
v 0.1506956 0.4435205 -0.1393386
v 0.2325651 0.4418759 -0.04759053
v 0.1318353 0.2479518 0.1002867
v 0.1378273 0.1811964 0.08855768
v 0.04443186 0.2123508 0.1812786
v 0.1060153 0.2917571 0.1508337
v 0.2237422 0.2726309 0.06856792
v 0.1833685 0.3411208 0.1476071
v 0.06639642 0.2992966 0.2283944
v 0.1214186 0.3529124 0.2688848
v 0.04240793 0.2601329 0.2753561
v 0.08390901 0.2916797 0.3423156
v 0.03602335 0.1869991 0.2878551
v 0.07392572 0.1773228 0.3618591
v 0.04273866 0.1363543 0.2747079
v 0.08442606 0.09813858 0.3413024
v 0.0812301 0.1090447 0.199355
v 0.1446132 0.05542709 0.2234756
v 0.1209918 0.1207628 0.1215139
v 0.2067869 0.07374756 0.101761
v 0.2331117 0.1682497 0.05022702
v 0.2387679 0.4563535 -0.5097022
v 0.4775358 0.4563535 -0.4282708
v 0.4231375 0.4524025 -0.321778
v 0.3079246 0.4517503 -0.3598104
v 0.3079246 0.4517503 -0.3598104
v 0.190208 0.4493752 -0.3205439
v 1.907349E-08 0.4563535 -0.5287269
v 0.422486 0.3765948 -0.320502
v 0.4231375 0.4524025 -0.321778
v 0.4775358 0.4563535 -0.4282708
v 0.4775358 0.2283318 -0.4282708
v 0.4775358 0.00031322 -0.4282708
v 0.3852787 0.3237441 -0.2476642
vt 0.4372206 0.8859136
vt 0.55331 0.8341894
vt 0.5716839 0.6435381
vt 0.6023853 0.6491603
vt 0.6832162 0.7713937
vt 0.386183 0.7721382
vt 0.5716839 0.6435381
vt 0.3785907 0.6258653
vt 0.336147 0.6631364
vt 0.4349222 0.6135248
vt 0.5307729 0.5932425
vt 0.3390767 0.587606
vt 0.3093163 0.5586034
vt 0.2818082 0.557022
vt 0.1872884 0.3782962
vt 0.3063484 0.5055046
vt 0.4656921 0.5659058
vt 0.44648 0.5041208
vt 0.5084572 0.5257394
vt 0.4000734 0.4697624
vt 0.520902 0.5060766
vt 0.4780894 0.4183901
vt 0.3846266 0.2621356
vt 0.2889287 0.3170082
vt 0.3486379 0.4713465
vt 0.03495338 0.6316829
vt 0.03495337 0.7427764
vt 0.1407101 0.7427765
vt 0.1407101 0.631683
vt 0.03495337 0.5205907
vt 0.1407101 0.5205908
vt 0.1407101 0.8597815
vt 0.03495336 0.8597815
vt 0.2464681 0.5205908
vt 0.2464681 0.631683
vt 0.2464681 0.7427763
vt 0.2464681 0.8597815
vt 0.5647914 0.2899363
vt 0.6619034 0.3069079
vt 0.6169057 0.249559
vt 0.5459272 0.2456489
vt 0.3846266 0.2621356
vt 0.5062234 0.2068597
vt 0.3981784 0.1567367
vt 0.501885 0.1448626
vt 0.4123838 0.03660662
vt 0.5208519 0.1029408
vt 0.6023694 0.05803274
vt 0.5936016 0.08615367
vt 0.7016744 0.07351784
vt 0.6647605 0.1075626
vt 0.6883677 0.1648364
vt 0.8910802 0.09929295
vt 0.8207844 0.2822385
vt 0.6692743 0.2189249
vt 0.9878469 0.1029053
vt 0.8659179 0.2868524
vt 0.77306 0.279786
vt 0.7379029 0.2834312
vt 0.7165282 0.2952869
vt 0.7032651 0.3103371
vt 0.5929822 0.5344954
vt 0.6191698 0.5846751
vt 0.7061604 0.477157
vt 0.6189985 0.4227035
vt 0.8666993 0.5835325
vt 0.7856352 0.6864194
vt 0.6832162 0.7713937
vt 0.6023853 0.6491603
vt 0.8381646 0.4268957
vt 0.7705086 0.4201113
vt 0.7308193 0.3885652
vt 0.7014635 0.330266
vt 0.7032651 0.3103371
vt 0.6619034 0.3069079
vt 0.6189985 0.4227035
vt 0.2053554 0.3306488
vt 0.3191557 0.2404971
vt 0.1681817 0.1810979
vt 0.1236258 0.2759179
vt 0.02574674 0.1250585
vt 0.02789513 0.2118103
vt 0.1464581 0.3773068
vt 0.09412224 0.3387063
vt 0.03031782 0.3096224
vt 0.0341957 0.46624
vt 0.02348562 0.03375997
vt 0.1254955 0.04398445
vt 0.2169653 0.07727704
vt 0.3020102 0.1246332
vt 0.3765144 0.195058
vt 0.2464681 0.9801785
vt 0.2464681 0.8631734
vt 0.1407113 0.8631734
vt 0.1407113 0.9801785
vt 0.03495344 0.9801785
vt 0.03495341 0.8631734
vt 0.6619034 0.3069079
vt 0.5647914 0.2899363
vt 0.5274163 0.3591052
vt 0.6189985 0.4227035
vt 0.3846266 0.2621356
vt 0.4780894 0.4183901
vt 0.520902 0.5060766
vt 0.6189985 0.4227035
vt 0.5534194 0.5091077
vt 0.5534194 0.5091077
vt 0.5929822 0.5344954
vt 0.6191698 0.5846751
vt 0.5929822 0.5344954
vt 0.5683839 0.5572749
vt 0.5921229 0.6086235
vt 0.6023853 0.6491603
vt 0.5534194 0.5091077
vt 0.5352247 0.5238205
vt 0.520902 0.5060766
vt 0.5716839 0.6435381
vt 0.5307729 0.5932425
vt 0.5084572 0.5257394
vt 0.403637 0.5649978
vt 0.4132615 0.5459135
vt 0.4046478 0.5224065
vt 0.3854266 0.5392095
vt 0.44648 0.5041208
vt 0.4000734 0.4697624
vt 0.3849995 0.508209
vt 0.3486379 0.4713465
vt 0.3647187 0.5104427
vt 0.3063484 0.5055046
vt 0.3491835 0.5237006
vt 0.3093163 0.5586034
vt 0.3498425 0.543739
vt 0.3390767 0.587606
vt 0.3609271 0.5592953
vt 0.3785907 0.6258653
vt 0.3812897 0.5701928
vt 0.4656921 0.5659058
vt 0.4349222 0.6135248
vt 0.8032421 0.3553202
vt 0.7568896 0.3342329
vt 0.7521018 0.3545796
vt 0.7629651 0.3754127
vt 0.7738165 0.3197098
vt 0.7639917 0.3230612
vt 0.7032651 0.3103371
vt 0.7165282 0.2952869
vt 0.7379029 0.2834312
vt 0.7970929 0.3156402
vt 0.77306 0.279786
vt 0.8201848 0.3151421
vt 0.8207844 0.2822385
vt 0.8418534 0.3221189
vt 0.8659179 0.2868524
vt 0.8677062 0.3327898
vt 0.9187056 0.3144054
vt 0.8728948 0.3457024
vt 0.9310805 0.3494768
vt 0.8576218 0.3765975
vt 0.9019263 0.3937523
vt 0.824145 0.4003246
vt 0.8381646 0.4268957
vt 0.7800857 0.3962787
vt 0.7705086 0.4201113
vt 0.7308193 0.3885652
vt 0.7014635 0.330266
vt 0.6270876 0.1929877
vt 0.6363365 0.1643251
vt 0.5815246 0.1718844
vt 0.6001633 0.2093821
vt 0.6692743 0.2189249
vt 0.6169057 0.249559
vt 0.5630874 0.2076873
vt 0.5459272 0.2456489
vt 0.5429515 0.1884436
vt 0.5062234 0.2068597
vt 0.540172 0.1572507
vt 0.501885 0.1448626
vt 0.5486183 0.1367326
vt 0.5208519 0.1029408
vt 0.5863111 0.1267391
vt 0.5936016 0.08615367
vt 0.6232671 0.136042
vt 0.6647605 0.1075626
vt 0.6883677 0.1648364
vt 0.9361557 0.4769857
vt 0.9878469 0.3497166
vt 0.9310805 0.3494768
vt 0.9019263 0.3937523
vt 0.9019263 0.3937523
vt 0.8381646 0.4268957
vt 0.8666993 0.5835325
vt 0.9187056 0.3144054
vt 0.9310805 0.3494768
vt 0.9878469 0.3497166
vt 0.985629 0.2282331
vt 0.9878469 0.1029053
vt 0.8659179 0.2868524
vn -0.9092448 0 0.4162619
vn -0.9083923 0.009183003 0.4180181
vn -0.907299 0.019874 0.420016
vn -0.9068608 0.02388399 0.4207529
vn -0.9068608 0.02388399 0.4207529
vn -0.8936747 -0.01303999 0.4485258
vn -0.8909867 -0.010419 0.4539099
vn -0.8900669 -0.007876999 0.4557619
vn -0.8904497 -0.007440998 0.4550208
vn -0.8895257 -0.008670997 0.4568028
vn -0.8902044 -0.008049004 0.4554901
vn -0.8991791 0.002772 0.4375721
vn -0.8991084 0.002077001 0.4377212
vn -0.8990544 0.001546001 0.4378342
vn -0.8991449 0.000246 0.437651
vn -0.8991082 0.0005230001 0.4377261
vn -0.8998041 -0.00038 0.436294
vn -0.8990396 0.001486999 0.4378648
vn -0.8993778 -0.001164 0.4371709
vn -0.8991779 -0.0005709999 0.4375829
vn -0.8994097 -0.002236999 0.4371009
vn -0.8992068 -0.0007739999 0.4375229
vn -0.8991502 -0.0003710001 0.4376401
vn -0.8991512 -0.000172 0.4376381
vn -0.8991512 -0.00015 0.4376381
vn 0 0 -1
vn 0.205858 0 -0.9785818
vn 0.205858 0 -0.9785818
vn 0 0 -1
vn -0.205858 0 -0.9785818
vn -0.205858 0 -0.9785818
vn 0.3227919 0 -0.94647
vn 0.3227919 0 -0.94647
vn -0.205858 0 -0.9785818
vn 0 0 -1
vn 0.205858 0 -0.9785818
vn 0.3227919 0 -0.94647
vn 0.8905423 0 0.4549002
vn 0.890541 1E-06 0.454903
vn 0.890543 -2E-06 0.454899
vn 0.890542 0 0.454901
vn 0.890542 0 0.454901
vn 0.890542 0 0.454901
vn 0.8905426 -9.999997E-07 0.4548998
vn 0.8905426 -9.999997E-07 0.4548998
vn 0.890543 1E-06 0.454899
vn 0.890543 3E-06 0.454899
vn 0.8905423 8.000004E-06 0.4549002
vn 0.8905423 7.000002E-06 0.4549002
vn 0.890541 1E-06 0.454903
vn 0.8905404 7.000003E-06 0.4549042
vn 0.890541 1E-06 0.454903
vn 0.890542 1E-06 0.454901
vn 0.8905416 9.999997E-07 0.4549018
vn 0.8905404 4.000002E-06 0.4549042
vn 0.8905426 1.999999E-06 0.4548998
vn 0.8905426 1.999999E-06 0.4548998
vn 0.89054 6E-06 0.454905
vn 0.890543 -1.2E-05 0.454899
vn 0.8905405 -9.999994E-07 0.4549038
vn 0.89054 4E-06 0.454905
vn 0.004871999 0.9994048 0.03414999
vn 0.006387001 0.9994482 0.03259401
vn 0.002619 0.9994491 0.033086
vn 0.004871999 0.9994048 0.03414999
vn 0.003160001 0.9994511 0.032978
vn 0.006259001 0.9994553 0.03240301
vn 0.010844 0.9994356 0.03179299
vn 0.010844 0.9994356 0.03179299
vn 0.0002759999 0.9994208 0.03403199
vn -6.999999E-05 0.9994379 0.033524
vn -0.008620999 0.9996349 0.025609
vn -0.008620999 0.9996349 0.025609
vn -0.007044002 0.9994143 0.03348601
vn -0.007044002 0.9994143 0.03348601
vn -0.007044002 0.9994143 0.03348601
vn 0 -1 0
vn 0 -1 0
vn 0 -1 0
vn 0 -1 0
vn 0 -1 0
vn 0 -1 0
vn 0 -1 0
vn 0 -1 0
vn 0 -1 0
vn 0 -1 0
vn 0 -1 0
vn 0 -1 0
vn 0 -1 0
vn 0 -1 0
vn 0 -1 0
vn -0.3227919 0 -0.94647
vn -0.205858 0 -0.9785818
vn -0.205858 0 -0.9785818
vn -0.3227919 0 -0.94647
vn -0.3227919 0 -0.94647
vn -0.205858 0 -0.9785818
vn -0.007036997 0.9994146 0.03348298
vn -0.007033997 0.9994146 0.03348298
vn 0.0002960002 0.9994455 0.03329602
vn -0.007036997 0.9994146 0.03348298
vn 5.399999E-05 0.9994367 0.03355899
vn 0.006981996 0.9994285 0.03307298
vn 0.006954 0.999435 0.032884
vn 0.006954 0.999435 0.032884
vn 0.006954 0.999435 0.032884
vn 0.005740998 0.9995027 0.03100699
vn 0.005740998 0.9995027 0.03100699
vn -0.5445078 0.6595178 0.5182158
vn -0.689143 0.683592 0.240383
vn -0.5462483 0.8049984 0.2314961
vn -0.3523451 0.7436293 0.5682152
vn -0.09423097 0.33035 0.9391428
vn -0.8034831 0.580395 -0.132501
vn -0.6499714 0.7488185 -0.1296461
vn -0.674639 0.09416401 -0.7321171
vn -0.267624 0.7833179 0.561062
vn -0.3974681 0.8789023 0.263723
vn -0.575577 0.810237 -0.110576
vn -0.5018609 -0.078057 0.861419
vn -0.5713139 -0.5411639 0.617043
vn -0.701473 -0.665196 0.255832
vn -0.8995271 0.000388 0.4368651
vn -0.5231378 -0.8250968 0.213406
vn -0.7062908 -0.6529267 -0.2735689
vn -0.857724 -0.506891 -0.08585499
vn -0.8254488 -0.122763 -0.550966
vn -0.9809777 -0.09375497 -0.1699789
vn -0.7959428 0.4988159 -0.3430129
vn -0.9473528 0.3170699 -0.04460099
vn -0.5740039 0.810405 0.117317
vn -0.8152522 0.5047862 0.2838221
vn -0.4019779 0.7330049 0.5487419
vn -0.6666907 0.5112057 0.5423948
vn -0.326189 0.4058639 0.8537419
vn -0.5223722 0.3562282 0.7747443
vn -0.4089679 -0.6078288 0.6806538
vn -0.3343589 -0.103124 0.9367868
vn 0.5188958 0.7898018 0.3270479
vn 0.5705447 0.6688227 -0.4766078
vn 0.6468332 0.6426273 -0.4106542
vn 0.740072 0.6309 -0.232935
vn 0.4113742 0.8943444 -0.1758391
vn 0.6636592 0.6130562 -0.4286241
vn 0.494464 0.5489359 -0.6739249
vn 0.6855022 0.4366921 -0.5825691
vn 0.5599037 0.7369657 -0.3786679
vn 0.248889 0.9684912 -0.008891001
vn 0.2460539 0.9604716 -0.1301989
vn 0.201238 0.9746658 0.09762097
vn 0.170009 0.9828339 0.071656
vn 0.1818659 0.9079896 0.3774648
vn 0.025221 0.9255669 0.377743
vn 0.1272259 0.7250706 0.6768206
vn 0.02236301 0.4438011 0.8958463
vn 0.05087298 0.4894668 0.8705367
vn -0.04916 0.339767 0.9392239
vn 0.2551239 0.6236117 0.7389318
vn -0.011803 0.507992 0.8612809
vn 0.532123 0.636489 0.558325
vn 0.4524601 0.6130841 0.647617
vn 0.7039658 0.6599018 0.2626059
vn 0.7583412 0.6235462 0.190023
vn 0.7608777 0.5117047 -0.3990279
vn 0.4693982 0.5971212 -0.6504703
vn 0.5239699 -0.311672 0.7926639
vn 0.5489811 0.10736 0.8289111
vn 0.8895088 -0.03494499 0.4555798
vn 0.6180617 -0.5667957 0.5447407
vn 0.386718 -0.336822 0.858487
vn 0.4651859 -0.692915 0.5508819
vn 0.7416904 -0.6363463 0.2120351
vn 0.6350301 -0.7592442 0.142426
vn 0.9326136 -0.3376139 -0.1274709
vn 0.8471206 -0.4180018 -0.3281178
vn 0.9730037 -0.001757999 -0.2307829
vn 0.890799 0.016327 -0.454104
vn 0.8748108 0.4829599 -0.038155
vn 0.7812627 0.6083118 -0.139948
vn 0.7019747 0.6320158 0.3283099
vn 0.5747959 0.7843828 0.2331379
vn 0.6108078 0.5039938 0.6106588
vn 0.4669041 0.5668741 0.6787151
vn 0.3843822 0.1183041 0.9155624
vn -0.013353 0.9993289 0.034111
vn -0.013353 0.9993289 0.034111
vn -0.013353 0.9993289 0.034111
vn -0.013353 0.9993289 0.034111
vn -0.004631998 0.9993526 0.03567799
vn -0.004631998 0.9993526 0.03567799
vn -0.004631998 0.9993526 0.03567799
vn 0.890541 0 0.454903
vn 0.8905416 9.999997E-07 0.4549018
vn 0.8905416 9.999997E-07 0.4549018
vn 0.8905404 -1E-06 0.4549042
vn 0.8905404 -1E-06 0.4549042
vn 0.8905404 -1E-06 0.4549042
g cheese3_0
f 3/3/3 2/2/2 1/1/1
f 3/3/3 4/4/4 2/2/2
f 4/4/4 5/5/5 2/2/2
f 7/7/7 1/1/1 6/6/6
f 8/8/8 7/7/7 6/6/6
f 6/6/6 9/9/9 8/8/8
f 8/8/8 10/10/10 7/7/7
f 10/10/10 11/11/11 7/7/7
f 12/12/12 8/8/8 9/9/9
f 13/13/13 12/12/12 9/9/9
f 9/9/9 14/14/14 13/13/13
f 13/13/13 14/14/14 15/15/15
f 16/16/16 13/13/13 15/15/15
f 17/17/17 11/11/11 10/10/10
f 17/17/17 18/18/18 11/11/11
f 18/18/18 19/19/19 11/11/11
f 18/18/18 20/20/20 19/19/19
f 21/21/21 19/19/19 20/20/20
f 22/22/22 21/21/21 20/20/20
f 23/23/23 22/22/22 20/20/20
f 24/24/24 23/23/23 20/20/20
f 16/16/16 15/15/15 24/24/24
f 20/20/20 25/25/25 24/24/24
f 25/25/25 16/16/16 24/24/24
f 28/28/28 27/27/27 26/26/26
f 29/29/29 28/28/28 26/26/26
f 29/29/29 26/26/26 30/30/30
f 31/31/31 29/29/29 30/30/30
f 28/28/28 32/32/32 27/27/27
f 32/32/32 33/33/33 27/27/27
f 31/31/31 34/34/34 29/29/29
f 34/34/34 35/35/35 29/29/29
f 29/29/29 35/35/35 28/28/28
f 35/35/35 36/36/36 28/28/28
f 28/28/28 36/36/36 32/32/32
f 36/36/36 37/37/37 32/32/32
f 40/40/40 39/39/39 38/38/38
f 41/41/41 40/40/40 38/38/38
f 41/41/41 38/38/38 42/42/42
f 43/43/43 41/41/41 42/42/42
f 43/43/43 42/42/42 44/44/44
f 45/45/45 43/43/43 44/44/44
f 45/45/45 44/44/44 46/46/46
f 47/47/47 45/45/45 46/46/46
f 47/47/47 46/46/46 48/48/48
f 49/49/49 47/47/47 48/48/48
f 49/49/49 48/48/48 50/50/50
f 51/51/51 49/49/49 50/50/50
f 52/52/52 51/51/51 50/50/50
f 52/52/52 50/50/50 53/53/53
f 54/54/54 52/52/52 53/53/53
f 40/40/40 55/55/55 39/39/39
f 54/54/54 53/53/53 56/56/56
f 57/57/57 54/54/54 56/56/56
f 58/58/58 55/55/55 52/52/52
f 54/54/54 58/58/58 52/52/52
f 58/58/58 59/59/59 55/55/55
f 59/59/59 60/60/60 55/55/55
f 60/60/60 61/61/61 55/55/55
f 61/61/61 39/39/39 55/55/55
f 64/64/64 63/63/63 62/62/62
f 65/65/65 64/64/64 62/62/62
f 64/64/64 66/66/66 63/63/63
f 66/66/66 67/67/67 63/63/63
f 67/67/67 68/68/68 63/63/63
f 68/68/68 69/69/69 63/63/63
f 66/66/66 64/64/64 70/70/70
f 64/64/64 71/71/71 70/70/70
f 64/64/64 65/65/65 71/71/71
f 65/65/65 72/72/72 71/71/71
f 65/65/65 73/73/73 72/72/72
f 75/75/75 74/74/74 73/73/73
f 76/76/76 75/75/75 73/73/73
f 79/79/79 78/78/78 77/77/77
f 80/80/80 79/79/79 77/77/77
f 79/79/79 80/80/80 81/81/81
f 80/80/80 82/82/82 81/81/81
f 80/80/80 77/77/77 83/83/83
f 84/84/84 80/80/80 83/83/83
f 80/80/80 84/84/84 82/82/82
f 84/84/84 85/85/85 82/82/82
f 84/84/84 83/83/83 86/86/86
f 84/84/84 86/86/86 85/85/85
f 79/79/79 81/81/81 87/87/87
f 79/79/79 87/87/87 88/88/88
f 88/88/88 89/89/89 79/79/79
f 79/79/79 89/89/89 90/90/90
f 90/90/90 91/91/91 79/79/79
f 91/91/91 78/78/78 79/79/79
f 94/94/94 93/93/93 92/92/92
f 95/95/95 94/94/94 92/92/92
f 95/95/95 96/96/96 94/94/94
f 96/96/96 97/97/97 94/94/94
f 100/100/100 99/99/99 98/98/98
f 101/101/101 100/100/100 98/98/98
f 100/100/100 102/102/102 99/99/99
f 100/100/100 103/103/103 102/102/102
f 104/104/104 103/103/103 100/100/100
f 104/104/104 100/100/100 105/105/105
f 105/105/105 106/106/106 104/104/104
f 105/105/105 108/108/108 107/107/107
f 111/111/111 110/110/110 109/109/109
f 112/112/112 111/111/111 109/109/109
f 112/112/112 109/109/109 113/113/113
f 114/114/114 110/110/110 111/111/111
f 115/115/115 114/114/114 111/111/111
f 116/116/116 114/114/114 115/115/115
f 117/117/117 112/112/112 113/113/113
f 112/112/112 117/117/117 111/111/111
f 117/117/117 118/118/118 111/111/111
f 115/115/115 111/111/111 118/118/118
f 119/119/119 115/115/115 118/118/118
f 116/116/116 115/115/115 119/119/119
f 122/122/122 121/121/121 120/120/120
f 123/123/123 122/122/122 120/120/120
f 121/121/121 122/122/122 124/124/124
f 124/124/124 122/122/122 125/125/125
f 122/122/122 126/126/126 125/125/125
f 125/125/125 126/126/126 127/127/127
f 126/126/126 128/128/128 127/127/127
f 128/128/128 126/126/126 122/122/122
f 123/123/123 128/128/128 122/122/122
f 127/127/127 128/128/128 129/129/129
f 128/128/128 130/130/130 129/129/129
f 130/130/130 128/128/128 123/123/123
f 129/129/129 130/130/130 131/131/131
f 130/130/130 132/132/132 131/131/131
f 131/131/131 132/132/132 133/133/133
f 132/132/132 134/134/134 133/133/133
f 134/134/134 132/132/132 130/130/130
f 130/130/130 123/123/123 134/134/134
f 133/133/133 134/134/134 135/135/135
f 134/134/134 136/136/136 135/135/135
f 134/134/134 123/123/123 136/136/136
f 137/137/137 121/121/121 124/124/124
f 135/135/135 136/136/136 138/138/138
f 138/138/138 120/120/120 137/137/137
f 136/136/136 120/120/120 138/138/138
f 120/120/120 121/121/121 137/137/137
f 123/123/123 120/120/120 136/136/136
f 141/141/141 140/140/140 139/139/139
f 142/142/142 141/141/141 139/139/139
f 143/143/143 139/139/139 140/140/140
f 144/144/144 143/143/143 140/140/140
f 144/144/144 140/140/140 145/145/145
f 146/146/146 144/144/144 145/145/145
f 143/143/143 144/144/144 146/146/146
f 147/147/147 143/143/143 146/146/146
f 148/148/148 143/143/143 147/147/147
f 143/143/143 148/148/148 139/139/139
f 149/149/149 148/148/148 147/147/147
f 150/150/150 148/148/148 149/149/149
f 148/148/148 150/150/150 139/139/139
f 151/151/151 150/150/150 149/149/149
f 152/152/152 150/150/150 151/151/151
f 150/150/150 152/152/152 139/139/139
f 153/153/153 152/152/152 151/151/151
f 154/154/154 152/152/152 153/153/153
f 152/152/152 154/154/154 139/139/139
f 155/155/155 154/154/154 153/153/153
f 156/156/156 154/154/154 155/155/155
f 157/157/157 156/156/156 155/155/155
f 158/158/158 156/156/156 157/157/157
f 159/159/159 158/158/158 157/157/157
f 160/160/160 158/158/158 159/159/159
f 161/161/161 160/160/160 159/159/159
f 162/162/162 160/160/160 161/161/161
f 163/163/163 162/162/162 161/161/161
f 142/142/142 162/162/162 163/163/163
f 164/164/164 142/142/142 163/163/163
f 160/160/160 162/162/162 139/139/139
f 158/158/158 160/160/160 139/139/139
f 158/158/158 139/139/139 156/156/156
f 154/154/154 156/156/156 139/139/139
f 162/162/162 142/142/142 139/139/139
f 142/142/142 164/164/164 141/141/141
f 164/164/164 165/165/165 141/141/141
f 141/141/141 165/165/165 140/140/140
f 165/165/165 145/145/145 140/140/140
f 168/168/168 167/167/167 166/166/166
f 169/169/169 168/168/168 166/166/166
f 169/169/169 166/166/166 170/170/170
f 171/171/171 169/169/169 170/170/170
f 172/172/172 169/169/169 171/171/171
f 169/169/169 172/172/172 168/168/168
f 173/173/173 172/172/172 171/171/171
f 174/174/174 172/172/172 173/173/173
f 172/172/172 174/174/174 168/168/168
f 175/175/175 174/174/174 173/173/173
f 176/176/176 174/174/174 175/175/175
f 177/177/177 176/176/176 175/175/175
f 178/178/178 176/176/176 177/177/177
f 174/174/174 176/176/176 178/178/178
f 168/168/168 174/174/174 178/178/178
f 179/179/179 178/178/178 177/177/177
f 180/180/180 178/178/178 179/179/179
f 168/168/168 180/180/180 167/167/167
f 168/168/168 178/178/178 180/180/180
f 181/181/181 180/180/180 179/179/179
f 182/182/182 180/180/180 181/181/181
f 180/180/180 182/182/182 167/167/167
f 183/183/183 182/182/182 181/181/181
f 167/167/167 182/182/182 183/183/183
f 184/184/184 167/167/167 183/183/183
f 166/166/166 167/167/167 184/184/184
f 170/170/170 166/166/166 184/184/184
f 187/187/187 186/186/186 185/185/185
f 188/188/188 187/187/187 185/185/185
f 190/190/190 189/189/189 185/185/185
f 191/191/191 190/190/190 185/185/185
f 194/194/194 193/193/193 192/192/192
f 195/195/195 194/194/194 192/192/192
f 195/195/195 192/192/192 196/196/196
f 192/192/192 197/197/197 196/196/196
