g Box001
v 0.3649649 -0.315533 0
v 0.3825349 -0.2731154 0
v 0.3825349 0.2731154 0
v 0.3649649 0.315533 0
v 0.3194971 -0.3610008 0
v 0.3194971 0.3610008 0
v 0.2770795 -0.3785707 0
v 0.2770795 0.3785707 0
v -0.2770795 -0.3785707 0
v -0.2770795 0.3785707 0
v -0.3194971 -0.3610008 0
v -0.3194971 0.3610008 0
v -0.3649649 -0.315533 0
v -0.3649649 0.315533 0
v -0.3825349 -0.2731154 0
v -0.3825349 0.2731154 0
v 0.3649649 0.315533 0.0388241
v 0.3825349 0.2731154 0.0388241
v 0.3825349 -0.2731154 0.0388241
v 0.3649649 -0.315533 0.0388241
v 0.3194971 0.3610008 0.0388241
v 0.3194971 -0.3610008 0.0388241
v 0.2770795 0.3785707 0.0388241
v 0.2770795 -0.3785707 0.0388241
v -0.2770795 0.3785707 0.0388241
v -0.2770795 -0.3785707 0.0388241
v -0.3194971 0.3610008 0.0388241
v -0.3194971 -0.3610008 0.0388241
v -0.3649649 0.315533 0.0388241
v -0.3649649 -0.315533 0.0388241
v -0.3825349 0.2731154 0.0388241
v -0.3825349 -0.2731154 0.0388241
v -0.2770795 -0.3785707 0
v -0.2770795 -0.3785707 0.0388241
v 0.2770795 -0.3785707 0.0388241
v 0.2770795 -0.3785707 0
v 0.3194971 -0.3610008 0.0388241
v 0.3194971 -0.3610008 0
v 0.3649649 -0.315533 0.0388241
v 0.3649649 -0.315533 0
v -0.3194971 -0.3610008 0
v -0.3194971 -0.3610008 0.0388241
v -0.3649649 -0.315533 0
v -0.3649649 -0.315533 0.0388241
v 0.3825349 -0.2731154 0
v 0.3825349 -0.2731154 0.0388241
v 0.3825349 0.2731154 0.0388241
v 0.3825349 0.2731154 0
v 0.3649649 0.315533 0.0388241
v 0.3649649 0.315533 0
v 0.3649649 -0.315533 0
v 0.3649649 -0.315533 0.0388241
v 0.2770795 0.3785707 0
v 0.2770795 0.3785707 0.0388241
v -0.2770795 0.3785707 0.0388241
v -0.2770795 0.3785707 0
v -0.3194971 0.3610008 0.0388241
v -0.3194971 0.3610008 0
v -0.3649649 0.315533 0.0388241
v -0.3649649 0.315533 0
v 0.3194971 0.3610008 0
v 0.3194971 0.3610008 0.0388241
v 0.3649649 0.315533 0
v 0.3649649 0.315533 0.0388241
v -0.3825349 0.2731154 0
v -0.3825349 0.2731154 0.0388241
v -0.3825349 -0.2731154 0.0388241
v -0.3825349 -0.2731154 0
v -0.3649649 -0.315533 0.0388241
v -0.3649649 -0.315533 0
v -0.3649649 0.315533 0
v -0.3649649 0.315533 0.0388241
vt 0.1121668 0.161185
vt 0.09349594 0.2067325
vt 0.09349594 0.7932676
vt 0.1121668 0.838815
vt 0.1604835 0.1123623
vt 0.1604835 0.8876377
vt 0.205559 0.09349594
vt 0.205559 0.906504
vt 0.794441 0.09349594
vt 0.794441 0.906504
vt 0.8395165 0.1123623
vt 0.8395165 0.8876377
vt 0.8878331 0.161185
vt 0.8878331 0.838815
vt 0.906504 0.2067325
vt 0.906504 0.7932676
vt 0.8878331 0.838815
vt 0.906504 0.7932676
vt 0.906504 0.2067325
vt 0.8878331 0.161185
vt 0.8395165 0.8876377
vt 0.8395165 0.1123623
vt 0.794441 0.906504
vt 0.794441 0.09349594
vt 0.205559 0.906504
vt 0.205559 0.09349594
vt 0.1604835 0.8876377
vt 0.1604835 0.1123623
vt 0.1121668 0.838815
vt 0.1121668 0.161185
vt 0.09349594 0.7932676
vt 0.09349594 0.2067325
vt 0.2128566 0.4767975
vt 0.2128566 0.5232025
vt 0.7871432 0.5232025
vt 0.7871432 0.4767975
vt 0.8311014 0.5232025
vt 0.8311014 0.4767975
vt 0.8782207 0.5232025
vt 0.8782207 0.4767975
vt 0.1688983 0.4767975
vt 0.1688983 0.5232025
vt 0.1217791 0.4767975
vt 0.1217791 0.5232025
vt 0.214001 0.4767975
vt 0.214001 0.5232025
vt 0.7859988 0.5232025
vt 0.7859988 0.4767975
vt 0.8304174 0.5232025
vt 0.8304174 0.4767975
vt 0.1695824 0.4767975
vt 0.1695824 0.5232025
vt 0.2128566 0.4767975
vt 0.2128566 0.5232025
vt 0.7871432 0.5232025
vt 0.7871432 0.4767975
vt 0.8311014 0.5232025
vt 0.8311014 0.4767975
vt 0.8782207 0.5232025
vt 0.8782207 0.4767975
vt 0.1688983 0.4767975
vt 0.1688983 0.5232025
vt 0.1217791 0.4767975
vt 0.1217791 0.5232025
vt 0.214001 0.4767975
vt 0.214001 0.5232025
vt 0.7859988 0.5232025
vt 0.7859988 0.4767975
vt 0.8304174 0.5232025
vt 0.8304174 0.4767975
vt 0.1695824 0.4767975
vt 0.1695824 0.5232025
vn 0 0 -1
vn 0 0 -1
vn 0 0 -1
vn 0 0 -1
vn 0 0 -1
vn 0 0 -1
vn 0 0 -1
vn 0 0 -1
vn 0 0 -1
vn 0 0 -1
vn 0 0 -1
vn 0 0 -1
vn 0 0 -1
vn 0 0 -1
vn 0 0 -1
vn 0 0 -1
vn 0 0 1
vn 0 0 1
vn 0 0 1
vn 0 0 1
vn 0 0 1
vn 0 0 1
vn 0 0 1
vn 0 0 1
vn 0 0 1
vn 0 0 1
vn 0 0 1
vn 0 0 1
vn 0 0 1
vn 0 0 1
vn 0 0 1
vn 0 0 1
vn -0.1950904 -0.9807853 0
vn -0.1950904 -0.9807853 0
vn 0.1950904 -0.9807853 0
vn 0.1950904 -0.9807853 0
vn 0.5555702 -0.8314696 0
vn 0.5555702 -0.8314696 0
vn 0.8314696 -0.5555702 0
vn 0.8314696 -0.5555702 0
vn -0.5555702 -0.8314696 0
vn -0.5555702 -0.8314696 0
vn -0.8314696 -0.5555702 0
vn -0.8314696 -0.5555702 0
vn 0.9807853 -0.1950903 0
vn 0.9807853 -0.1950903 0
vn 0.9807853 0.1950903 0
vn 0.9807853 0.1950903 0
vn 0.8314696 0.5555702 0
vn 0.8314696 0.5555702 0
vn 0.8314696 -0.5555702 0
vn 0.8314696 -0.5555702 0
vn 0.1950904 0.9807853 0
vn 0.1950904 0.9807853 0
vn -0.1950904 0.9807853 0
vn -0.1950904 0.9807853 0
vn -0.5555702 0.8314696 0
vn -0.5555702 0.8314696 0
vn -0.8314696 0.5555702 0
vn -0.8314696 0.5555702 0
vn 0.5555702 0.8314696 0
vn 0.5555702 0.8314696 0
vn 0.8314696 0.5555702 0
vn 0.8314696 0.5555702 0
vn -0.9807853 0.1950903 0
vn -0.9807853 0.1950903 0
vn -0.9807853 -0.1950903 0
vn -0.9807853 -0.1950903 0
vn -0.8314696 -0.5555702 0
vn -0.8314696 -0.5555702 0
vn -0.8314696 0.5555702 0
vn -0.8314696 0.5555702 0
g Box001_0
f 3/3/3 2/2/2 1/1/1
f 1/1/1 4/4/4 3/3/3
f 1/1/1 5/5/5 4/4/4
f 5/5/5 6/6/6 4/4/4
f 5/5/5 7/7/7 6/6/6
f 7/7/7 8/8/8 6/6/6
f 7/7/7 9/9/9 8/8/8
f 9/9/9 10/10/10 8/8/8
f 9/9/9 11/11/11 10/10/10
f 11/11/11 12/12/12 10/10/10
f 11/11/11 13/13/13 12/12/12
f 13/13/13 14/14/14 12/12/12
f 13/13/13 15/15/15 14/14/14
f 15/15/15 16/16/16 14/14/14
f 19/19/19 18/18/18 17/17/17
f 17/17/17 20/20/20 19/19/19
f 17/17/17 21/21/21 20/20/20
f 21/21/21 22/22/22 20/20/20
f 21/21/21 23/23/23 22/22/22
f 23/23/23 24/24/24 22/22/22
f 23/23/23 25/25/25 24/24/24
f 25/25/25 26/26/26 24/24/24
f 25/25/25 27/27/27 26/26/26
f 27/27/27 28/28/28 26/26/26
f 27/27/27 29/29/29 28/28/28
f 29/29/29 30/30/30 28/28/28
f 29/29/29 31/31/31 30/30/30
f 31/31/31 32/32/32 30/30/30
f 35/35/35 34/34/34 33/33/33
f 36/36/36 35/35/35 33/33/33
f 37/37/37 35/35/35 36/36/36
f 38/38/38 37/37/37 36/36/36
f 39/39/39 37/37/37 38/38/38
f 40/40/40 39/39/39 38/38/38
f 41/41/41 33/33/33 34/34/34
f 42/42/42 41/41/41 34/34/34
f 43/43/43 41/41/41 42/42/42
f 44/44/44 43/43/43 42/42/42
f 47/47/47 46/46/46 45/45/45
f 48/48/48 47/47/47 45/45/45
f 49/49/49 47/47/47 48/48/48
f 50/50/50 49/49/49 48/48/48
f 45/45/45 46/46/46 51/51/51
f 46/46/46 52/52/52 51/51/51
f 55/55/55 54/54/54 53/53/53
f 56/56/56 55/55/55 53/53/53
f 57/57/57 55/55/55 56/56/56
f 58/58/58 57/57/57 56/56/56
f 59/59/59 57/57/57 58/58/58
f 60/60/60 59/59/59 58/58/58
f 53/53/53 54/54/54 61/61/61
f 54/54/54 62/62/62 61/61/61
f 61/61/61 62/62/62 63/63/63
f 62/62/62 64/64/64 63/63/63
f 67/67/67 66/66/66 65/65/65
f 68/68/68 67/67/67 65/65/65
f 67/67/67 68/68/68 69/69/69
f 68/68/68 70/70/70 69/69/69
f 65/65/65 66/66/66 71/71/71
f 66/66/66 72/72/72 71/71/71
