# Mesh "Salad_Lettuce" exported with Unity Assets Bundle Extractor; 144 vertices, 486 indices, 384 bits per vertex
g Salad_Lettuce
# SubMesh 0
# Vertices
v -0.101969 0.009083 0.125558
vt 0.115191 0.633505
vn 0.470683 0.837600 -0.277279
v -0.039463 -0.036078 0.090493
vt 0.061989 0.576816
vn 0.259527 0.898721 -0.353478
v -0.066193 0.009150 0.186493
vt 0.161832 0.591151
vn 0.323135 0.867164 -0.378959
v -0.120368 0.035040 0.167986
vt 0.162436 0.646608
vn 0.476747 0.813187 -0.333825
v 0.029507 -0.007047 0.202617
vt 0.159970 0.500210
vn 0.114833 0.900940 -0.418475
v 0.030120 -0.047855 0.102217
vt 0.060636 0.510694
vn 0.164146 0.913080 -0.373284
v 0.094980 -0.001370 0.204347
vt 0.158327 0.441961
vn -0.044419 0.900622 -0.432328
v 0.088699 -0.023188 0.157683
vt 0.111484 0.452318
vn -0.045197 0.919738 -0.389923
v -0.074402 0.058205 0.280112
vt 0.259827 0.589810
vn 0.320853 0.816182 -0.480520
v -0.138788 0.085822 0.259886
vt 0.260630 0.654969
vn 0.467069 0.777920 -0.420342
v 0.021298 0.042008 0.296237
vt 0.257966 0.498868
vn 0.131363 0.848484 -0.512659
v 0.096981 0.045957 0.299686
vt 0.256124 0.430917
vn -0.012704 0.860074 -0.510012
v -0.066081 0.122001 0.368770
vt 0.358732 0.576578
vn 0.264866 0.773124 -0.576303
v -0.124607 0.100686 0.296684
vt 0.295789 0.638182
vn 0.437260 0.724574 -0.532726
v 0.003502 0.110224 0.380494
vt 0.357379 0.510455
vn 0.193585 0.786441 -0.586545
v 0.084141 0.065355 0.331855
vt 0.291729 0.439814
vn 0.038447 0.803271 -0.594372
v 0.093253 0.015024 0.107008
vt 0.115191 0.633505
vn -0.239223 0.922417 -0.303181
v 0.055424 -0.016078 0.037887
vt 0.061989 0.576816
vn -0.310405 0.946970 -0.083044
v 0.153797 0.018816 0.070772
vt 0.161832 0.591151
vn -0.337993 0.928970 -0.150913
v 0.137086 0.035085 0.129113
vt 0.162436 0.646608
vn -0.296970 0.902260 -0.312627
v 0.168245 0.019854 -0.026548
vt 0.159970 0.500210
vn -0.373930 0.925467 0.060720
v 0.065930 -0.015322 -0.032873
vt 0.060636 0.510694
vn -0.328625 0.944361 0.013689
v 0.169678 0.037457 -0.089872
vt 0.158327 0.441961
vn -0.386374 0.896354 0.217406
v 0.122040 0.017093 -0.086886
vt 0.111484 0.452318
vn -0.343061 0.912961 0.220934
v 0.249819 0.061004 0.086204
vt 0.259827 0.589810
vn -0.441951 0.883327 -0.156248
v 0.231568 0.077163 0.154929
vt 0.260630 0.654969
vn -0.385054 0.869959 -0.308066
v 0.264268 0.062043 -0.011115
vt 0.257966 0.498868
vn -0.470760 0.881506 0.036494
v 0.267242 0.079756 -0.084823
vt 0.256124 0.430917
vn -0.466264 0.866107 0.180157
v 0.341477 0.120956 0.088198
vt 0.358732 0.576578
vn -0.539267 0.835252 -0.107451
v 0.268936 0.092629 0.143074
vt 0.295789 0.638182
vn -0.499695 0.817417 -0.286591
v 0.351983 0.121711 0.017438
vt 0.357379 0.510455
vn -0.548200 0.835624 -0.034765
v 0.300452 0.094895 -0.069206
vt 0.291729 0.439814
vn -0.553806 0.823817 0.120931
v 0.099215 0.007914 -0.134710
vt 0.115191 0.633505
vn -0.274135 0.871246 0.407162
v 0.048922 -0.032167 -0.079571
vt 0.061989 0.576816
vn -0.045272 0.913051 0.405325
v 0.044860 0.011832 -0.179690
vt 0.161832 0.591151
vn -0.098727 0.886740 0.451603
v 0.104087 0.032740 -0.181319
vt 0.162436 0.646608
vn -0.262497 0.846718 0.462778
v -0.051576 0.004109 -0.161764
vt 0.159970 0.500210
vn 0.112566 0.902019 0.416763
v -0.021196 -0.037782 -0.066538
vt 0.060636 0.510694
vn 0.051971 0.918923 0.390999
v -0.112940 0.015402 -0.141055
vt 0.158327 0.441961
vn 0.266277 0.887868 0.375216
v -0.092919 -0.007473 -0.098996
vt 0.111484 0.452318
vn 0.254091 0.907390 0.334785
v 0.024612 0.061200 -0.271293
vt 0.259827 0.589810
vn -0.066104 0.834450 0.547104
v 0.094128 0.082933 -0.274834
vt 0.260630 0.654969
vn -0.226778 0.809642 0.541342
v -0.071825 0.053478 -0.253367
vt 0.257966 0.498868
vn 0.124935 0.849968 0.511806
v -0.143477 0.063946 -0.230745
vt 0.256124 0.430917
vn 0.259794 0.849194 0.459756
v -0.008149 0.126608 -0.352828
vt 0.358732 0.576578
vn 0.015453 0.785523 0.618640
v 0.069508 0.099429 -0.304799
vt 0.295789 0.638182
vn -0.164892 0.752498 0.637619
v -0.078267 0.120993 -0.339794
vt 0.357379 0.510455
vn 0.086782 0.792546 0.603605
v -0.140845 0.082584 -0.265698
vt 0.291729 0.439814
vn 0.236035 0.795908 0.557510
v 0.064673 0.057490 -0.178906
vt 0.115191 0.633505
vn -0.156587 0.957914 -0.240586
v 0.142150 0.053272 -0.212901
vt 0.061989 0.576816
vn -0.022304 0.969670 -0.243398
v 0.092558 0.077814 -0.116134
vt 0.161832 0.591151
vn -0.124671 0.983939 -0.127756
v 0.034466 0.055139 -0.135381
vt 0.162436 0.646608
vn -0.264570 0.953828 -0.142179
v 0.185765 0.085034 -0.085454
vt 0.159970 0.500210
vn 0.038226 0.996553 -0.073629
v 0.209920 0.058521 -0.190594
vt 0.060636 0.510694
vn 0.027241 0.973916 -0.225268
v 0.244183 0.071382 -0.066260
vt 0.158327 0.441961
vn 0.164798 0.986327 -0.000621
v 0.250373 0.071874 -0.117781
vt 0.111484 0.452318
vn 0.131086 0.981764 -0.137679
v 0.058923 0.075184 -0.015635
vt 0.259827 0.589810
vn -0.186775 0.981772 0.035200
v -0.009113 0.051738 -0.038155
vt 0.260630 0.654969
vn -0.316535 0.947986 -0.033594
v 0.152131 0.082403 0.015046
vt 0.257966 0.498868
vn -0.008316 0.995394 0.095510
v 0.220493 0.069522 0.037513
vt 0.256124 0.430917
vn 0.133704 0.983027 0.125626
v 0.035620 0.055177 0.090057
vt 0.358732 0.576578
vn -0.161258 0.976181 0.145144
v -0.004588 0.052079 0.003744
vt 0.295789 0.638182
vn -0.317492 0.944404 0.085440
v 0.103390 0.060426 0.112364
vt 0.357379 0.510455
vn -0.094273 0.981451 0.166932
v 0.198721 0.067827 0.070666
vt 0.291729 0.439814
vn 0.057135 0.976450 0.208043
v -0.111048 -0.007313 -0.060147
vt 0.115191 0.633505
vn 0.479445 0.860054 -0.174470
v -0.068167 -0.024830 0.010779
vt 0.061989 0.576816
vn 0.507885 0.856911 -0.088070
v -0.163011 0.029419 -0.021869
vt 0.161832 0.591151
vn 0.407249 0.900433 -0.152868
v -0.157203 0.005838 -0.082712
vt 0.162436 0.646608
vn 0.393186 0.883569 -0.254384
v -0.173778 0.043785 0.074871
vt 0.159970 0.500210
vn 0.393274 0.919042 -0.026424
v -0.075996 -0.014385 0.081118
vt 0.060636 0.510694
vn 0.503797 0.862108 -0.054388
v -0.181514 0.038192 0.134968
vt 0.158327 0.441961
vn 0.357669 0.930748 0.076037
v -0.132501 0.021309 0.132592
vt 0.111484 0.452318
vn 0.454668 0.890400 0.021568
v -0.262716 0.061392 -0.038445
vt 0.259827 0.589810
vn 0.275340 0.943664 -0.183539
v -0.255760 0.036279 -0.109610
vt 0.260630 0.654969
vn 0.304612 0.906718 -0.291673
v -0.273484 0.075758 0.058294
vt 0.257966 0.498868
vn 0.257431 0.965533 -0.038420
v -0.282369 0.071698 0.128713
vt 0.256124 0.430917
vn 0.253682 0.963912 0.080738
v -0.366299 0.080969 -0.044533
vt 0.358732 0.576578
vn 0.195412 0.968927 -0.151637
v -0.293802 0.050434 -0.098273
vt 0.295789 0.638182
vn 0.212422 0.935679 -0.281749
v -0.374128 0.091415 0.025805
vt 0.357379 0.510455
vn 0.188840 0.977249 -0.096562
v -0.317289 0.081771 0.112742
vt 0.291729 0.439814
vn 0.175208 0.984001 0.032302
v -0.118139 0.003178 -0.134051
vt 0.115191 0.633505
vn 0.229339 0.859840 -0.456157
v -0.010834 -0.040342 -0.143300
vt 0.061989 0.576816
vn 0.296504 0.839644 -0.455064
v -0.094353 0.041474 -0.049906
vt 0.161832 0.591151
vn 0.216392 0.892844 -0.394974
v -0.170358 0.029913 -0.091074
vt 0.162436 0.646608
vn 0.135266 0.898732 -0.417113
v 0.018868 0.039407 0.023447
vt 0.159970 0.500210
vn 0.295390 0.891317 -0.343945
v 0.071488 -0.041845 -0.089966
vt 0.060636 0.510694
vn 0.315719 0.839820 -0.441615
v 0.084364 0.025306 0.074084
vt 0.158327 0.441961
vn 0.350136 0.894249 -0.278791
v 0.107437 -0.000940 0.012095
vt 0.111484 0.452318
vn 0.343023 0.859572 -0.378776
v -0.167608 0.096609 0.062906
vt 0.259827 0.589810
vn 0.151648 0.938900 -0.308981
v -0.255693 0.085268 0.013911
vt 0.260630 0.654969
vn 0.082909 0.927428 -0.364696
v -0.054387 0.094541 0.136259
vt 0.257966 0.498868
vn 0.244200 0.937477 -0.248000
v 0.023189 0.080220 0.194722
vt 0.256124 0.430917
vn 0.318159 0.925520 -0.205398
v -0.234309 0.139599 0.190791
vt 0.358732 0.576578
vn 0.151778 0.957472 -0.245379
v -0.261931 0.104867 0.067919
vt 0.295789 0.638182
vn 0.067337 0.951438 -0.300387
v -0.151987 0.138096 0.244125
vt 0.357379 0.510455
vn 0.186093 0.956816 -0.223322
v -0.014965 0.100358 0.227922
vt 0.291729 0.439814
vn 0.264369 0.948615 -0.173893
v 0.004849 0.044051 0.227478
vt 0.115191 0.633505
vn -0.378883 0.873562 -0.305513
v -0.012171 0.002056 0.155903
vt 0.061989 0.576816
vn -0.345169 0.826027 -0.445576
v 0.065706 0.062504 0.204769
vt 0.161832 0.591151
vn -0.251872 0.906637 -0.338481
v 0.041370 0.062171 0.261393
vt 0.162436 0.646608
vn -0.297507 0.936293 -0.186669
v 0.113783 0.035513 0.123277
vt 0.159970 0.500210
vn -0.163012 0.858962 -0.485398
v 0.022786 -0.017569 0.096651
vt 0.060636 0.510694
vn -0.312816 0.813291 -0.490615
v 0.149632 0.001458 0.078047
vt 0.158327 0.441961
vn -0.062080 0.813083 -0.578829
v 0.100635 -0.009724 0.065117
vt 0.111484 0.452318
vn -0.203101 0.794611 -0.572140
v 0.157077 0.091803 0.249837
vt 0.259827 0.589810
vn -0.099982 0.961041 -0.257688
v 0.127613 0.094350 0.315156
vt 0.260630 0.654969
vn -0.192227 0.973445 -0.124310
v 0.205154 0.064813 0.168345
vt 0.257966 0.498868
vn -0.006098 0.908394 -0.418070
v 0.246133 0.027878 0.114421
vt 0.256124 0.430917
vn 0.049877 0.847247 -0.528853
v 0.261275 0.101292 0.291975
vt 0.358732 0.576578
vn 0.016617 0.963323 -0.267829
v 0.169324 0.100124 0.316872
vt 0.295789 0.638182
vn -0.070597 0.991402 -0.110169
v 0.296231 0.081668 0.232723
vt 0.357379 0.510455
vn 0.048867 0.943367 -0.328133
v 0.274193 0.041251 0.139115
vt 0.291729 0.439814
vn 0.111770 0.885930 -0.450150
v 0.105511 -0.011013 -0.097015
vt 0.115191 0.633505
vn -0.221670 0.964412 0.144127
v 0.043864 -0.015156 -0.154968
vt 0.061989 0.576816
vn -0.213363 0.904677 0.368831
v 0.150807 0.007041 -0.148155
vt 0.161832 0.591151
vn -0.263539 0.912445 0.313035
v 0.156113 0.000324 -0.085910
vt 0.162436 0.646608
vn -0.281173 0.948049 0.148813
v 0.132491 0.044173 -0.237411
vt 0.159970 0.500210
vn -0.228083 0.830453 0.508258
v 0.030546 0.011842 -0.219865
vt 0.060636 0.510694
vn -0.198951 0.866229 0.458330
v 0.114977 0.083911 -0.286767
vt 0.158327 0.441961
vn -0.191490 0.745375 0.638551
v 0.069018 0.062967 -0.274844
vt 0.111484 0.452318
vn -0.147864 0.760342 0.632468
v 0.250621 0.042408 -0.153132
vt 0.259827 0.589810
vn -0.367860 0.869990 0.328324
v 0.257881 0.031729 -0.081365
vt 0.260630 0.654969
vn -0.365873 0.914650 0.171907
v 0.232305 0.079541 -0.242388
vt 0.257966 0.498868
vn -0.331739 0.796665 0.505246
v 0.212836 0.123240 -0.301267
vt 0.256124 0.430917
vn -0.282018 0.729462 0.623179
v 0.343895 0.099155 -0.162027
vt 0.358732 0.576578
vn -0.448431 0.805442 0.387522
v 0.290749 0.051195 -0.099166
vt 0.295789 0.638182
vn -0.472168 0.855692 0.211776
v 0.330578 0.126153 -0.226924
vt 0.357379 0.510455
vn -0.432881 0.778811 0.453946
v 0.250796 0.132190 -0.293857
vt 0.291729 0.439814
vn -0.388281 0.710313 0.587106
v -0.013076 0.051940 0.025727
vt 0.115191 0.633505
vn 0.247312 0.947868 0.200954
v -0.079310 0.050746 0.078526
vt 0.061989 0.576816
vn 0.164075 0.957047 0.239039
v -0.057458 0.074984 -0.028346
vt 0.161832 0.591151
vn 0.217065 0.968417 0.122682
v 0.004638 0.050631 -0.024243
vt 0.162436 0.646608
vn 0.315425 0.943547 0.101122
v -0.154420 0.090984 -0.033177
vt 0.159970 0.500210
vn 0.090856 0.988977 0.116920
v -0.149810 0.062380 0.075014
vt 0.060636 0.510694
vn 0.129371 0.962630 0.237923
v -0.213550 0.086637 -0.035200
vt 0.158327 0.441961
vn -0.019200 0.995979 0.087505
v -0.206257 0.083817 0.016102
vt 0.111484 0.452318
vn 0.044926 0.980778 0.189886
v -0.051077 0.077298 -0.134140
vt 0.259827 0.589810
vn 0.233388 0.972227 -0.017448
v 0.021364 0.051238 -0.129521
vt 0.260630 0.654969
vn 0.338931 0.940776 0.008143
v -0.148039 0.093298 -0.138971
vt 0.257966 0.498868
vn 0.089630 0.995611 -0.026931
v -0.217513 0.090659 -0.141509
vt 0.256124 0.430917
vn -0.029582 0.999340 -0.021090
v -0.054270 0.067144 -0.241223
vt 0.358732 0.576578
vn 0.195038 0.976170 -0.095141
v 0.006296 0.054944 -0.168704
vt 0.295789 0.638182
vn 0.318859 0.944297 -0.081435
v -0.124770 0.078778 -0.244736
vt 0.357379 0.510455
vn 0.141160 0.985021 -0.099034
v -0.205204 0.089845 -0.179242
vt 0.291729 0.439814
vn 0.012590 0.994585 -0.103163
# Faces (1 to 144)
g Salad_Lettuce_0
f -142/-142/-142 -143/-143/-143 -144/-144/-144
f -141/-141/-141 -142/-142/-142 -144/-144/-144
f -142/-142/-142 -140/-140/-140 -143/-143/-143
f -140/-140/-140 -139/-139/-139 -143/-143/-143
f -140/-140/-140 -138/-138/-138 -139/-139/-139
f -138/-138/-138 -137/-137/-137 -139/-139/-139
f -136/-136/-136 -142/-142/-142 -141/-141/-141
f -135/-135/-135 -136/-136/-136 -141/-141/-141
f -134/-134/-134 -140/-140/-140 -142/-142/-142
f -136/-136/-136 -134/-134/-134 -142/-142/-142
f -133/-133/-133 -138/-138/-138 -140/-140/-140
f -134/-134/-134 -133/-133/-133 -140/-140/-140
f -132/-132/-132 -136/-136/-136 -135/-135/-135
f -131/-131/-131 -132/-132/-132 -135/-135/-135
f -130/-130/-130 -134/-134/-134 -136/-136/-136
f -132/-132/-132 -130/-130/-130 -136/-136/-136
f -129/-129/-129 -133/-133/-133 -134/-134/-134
f -130/-130/-130 -129/-129/-129 -134/-134/-134
f -126/-126/-126 -127/-127/-127 -128/-128/-128
f -125/-125/-125 -126/-126/-126 -128/-128/-128
f -126/-126/-126 -124/-124/-124 -127/-127/-127
f -124/-124/-124 -123/-123/-123 -127/-127/-127
f -124/-124/-124 -122/-122/-122 -123/-123/-123
f -122/-122/-122 -121/-121/-121 -123/-123/-123
f -120/-120/-120 -126/-126/-126 -125/-125/-125
f -119/-119/-119 -120/-120/-120 -125/-125/-125
f -118/-118/-118 -124/-124/-124 -126/-126/-126
f -120/-120/-120 -118/-118/-118 -126/-126/-126
f -117/-117/-117 -122/-122/-122 -124/-124/-124
f -118/-118/-118 -117/-117/-117 -124/-124/-124
f -116/-116/-116 -120/-120/-120 -119/-119/-119
f -115/-115/-115 -116/-116/-116 -119/-119/-119
f -114/-114/-114 -118/-118/-118 -120/-120/-120
f -116/-116/-116 -114/-114/-114 -120/-120/-120
f -113/-113/-113 -117/-117/-117 -118/-118/-118
f -114/-114/-114 -113/-113/-113 -118/-118/-118
f -110/-110/-110 -111/-111/-111 -112/-112/-112
f -109/-109/-109 -110/-110/-110 -112/-112/-112
f -110/-110/-110 -108/-108/-108 -111/-111/-111
f -108/-108/-108 -107/-107/-107 -111/-111/-111
f -108/-108/-108 -106/-106/-106 -107/-107/-107
f -106/-106/-106 -105/-105/-105 -107/-107/-107
f -104/-104/-104 -110/-110/-110 -109/-109/-109
f -103/-103/-103 -104/-104/-104 -109/-109/-109
f -102/-102/-102 -108/-108/-108 -110/-110/-110
f -104/-104/-104 -102/-102/-102 -110/-110/-110
f -101/-101/-101 -106/-106/-106 -108/-108/-108
f -102/-102/-102 -101/-101/-101 -108/-108/-108
f -100/-100/-100 -104/-104/-104 -103/-103/-103
f -99/-99/-99 -100/-100/-100 -103/-103/-103
f -98/-98/-98 -102/-102/-102 -104/-104/-104
f -100/-100/-100 -98/-98/-98 -104/-104/-104
f -97/-97/-97 -101/-101/-101 -102/-102/-102
f -98/-98/-98 -97/-97/-97 -102/-102/-102
f -94/-94/-94 -95/-95/-95 -96/-96/-96
f -93/-93/-93 -94/-94/-94 -96/-96/-96
f -94/-94/-94 -92/-92/-92 -95/-95/-95
f -92/-92/-92 -91/-91/-91 -95/-95/-95
f -92/-92/-92 -90/-90/-90 -91/-91/-91
f -90/-90/-90 -89/-89/-89 -91/-91/-91
f -88/-88/-88 -94/-94/-94 -93/-93/-93
f -87/-87/-87 -88/-88/-88 -93/-93/-93
f -86/-86/-86 -92/-92/-92 -94/-94/-94
f -88/-88/-88 -86/-86/-86 -94/-94/-94
f -85/-85/-85 -90/-90/-90 -92/-92/-92
f -86/-86/-86 -85/-85/-85 -92/-92/-92
f -84/-84/-84 -88/-88/-88 -87/-87/-87
f -83/-83/-83 -84/-84/-84 -87/-87/-87
f -82/-82/-82 -86/-86/-86 -88/-88/-88
f -84/-84/-84 -82/-82/-82 -88/-88/-88
f -81/-81/-81 -85/-85/-85 -86/-86/-86
f -82/-82/-82 -81/-81/-81 -86/-86/-86
f -78/-78/-78 -79/-79/-79 -80/-80/-80
f -77/-77/-77 -78/-78/-78 -80/-80/-80
f -78/-78/-78 -76/-76/-76 -79/-79/-79
f -76/-76/-76 -75/-75/-75 -79/-79/-79
f -76/-76/-76 -74/-74/-74 -75/-75/-75
f -74/-74/-74 -73/-73/-73 -75/-75/-75
f -72/-72/-72 -78/-78/-78 -77/-77/-77
f -71/-71/-71 -72/-72/-72 -77/-77/-77
f -70/-70/-70 -76/-76/-76 -78/-78/-78
f -72/-72/-72 -70/-70/-70 -78/-78/-78
f -69/-69/-69 -74/-74/-74 -76/-76/-76
f -70/-70/-70 -69/-69/-69 -76/-76/-76
f -68/-68/-68 -72/-72/-72 -71/-71/-71
f -67/-67/-67 -68/-68/-68 -71/-71/-71
f -66/-66/-66 -70/-70/-70 -72/-72/-72
f -68/-68/-68 -66/-66/-66 -72/-72/-72
f -65/-65/-65 -69/-69/-69 -70/-70/-70
f -66/-66/-66 -65/-65/-65 -70/-70/-70
f -62/-62/-62 -63/-63/-63 -64/-64/-64
f -61/-61/-61 -62/-62/-62 -64/-64/-64
f -62/-62/-62 -60/-60/-60 -63/-63/-63
f -60/-60/-60 -59/-59/-59 -63/-63/-63
f -60/-60/-60 -58/-58/-58 -59/-59/-59
f -58/-58/-58 -57/-57/-57 -59/-59/-59
f -56/-56/-56 -62/-62/-62 -61/-61/-61
f -55/-55/-55 -56/-56/-56 -61/-61/-61
f -54/-54/-54 -60/-60/-60 -62/-62/-62
f -56/-56/-56 -54/-54/-54 -62/-62/-62
f -53/-53/-53 -58/-58/-58 -60/-60/-60
f -54/-54/-54 -53/-53/-53 -60/-60/-60
f -52/-52/-52 -56/-56/-56 -55/-55/-55
f -51/-51/-51 -52/-52/-52 -55/-55/-55
f -50/-50/-50 -54/-54/-54 -56/-56/-56
f -52/-52/-52 -50/-50/-50 -56/-56/-56
f -49/-49/-49 -53/-53/-53 -54/-54/-54
f -50/-50/-50 -49/-49/-49 -54/-54/-54
f -46/-46/-46 -47/-47/-47 -48/-48/-48
f -45/-45/-45 -46/-46/-46 -48/-48/-48
f -46/-46/-46 -44/-44/-44 -47/-47/-47
f -44/-44/-44 -43/-43/-43 -47/-47/-47
f -44/-44/-44 -42/-42/-42 -43/-43/-43
f -42/-42/-42 -41/-41/-41 -43/-43/-43
f -40/-40/-40 -46/-46/-46 -45/-45/-45
f -39/-39/-39 -40/-40/-40 -45/-45/-45
f -38/-38/-38 -44/-44/-44 -46/-46/-46
f -40/-40/-40 -38/-38/-38 -46/-46/-46
f -37/-37/-37 -42/-42/-42 -44/-44/-44
f -38/-38/-38 -37/-37/-37 -44/-44/-44
f -36/-36/-36 -40/-40/-40 -39/-39/-39
f -35/-35/-35 -36/-36/-36 -39/-39/-39
f -34/-34/-34 -38/-38/-38 -40/-40/-40
f -36/-36/-36 -34/-34/-34 -40/-40/-40
f -33/-33/-33 -37/-37/-37 -38/-38/-38
f -34/-34/-34 -33/-33/-33 -38/-38/-38
f -30/-30/-30 -31/-31/-31 -32/-32/-32
f -29/-29/-29 -30/-30/-30 -32/-32/-32
f -30/-30/-30 -28/-28/-28 -31/-31/-31
f -28/-28/-28 -27/-27/-27 -31/-31/-31
f -28/-28/-28 -26/-26/-26 -27/-27/-27
f -26/-26/-26 -25/-25/-25 -27/-27/-27
f -24/-24/-24 -30/-30/-30 -29/-29/-29
f -23/-23/-23 -24/-24/-24 -29/-29/-29
f -22/-22/-22 -28/-28/-28 -30/-30/-30
f -24/-24/-24 -22/-22/-22 -30/-30/-30
f -21/-21/-21 -26/-26/-26 -28/-28/-28
f -22/-22/-22 -21/-21/-21 -28/-28/-28
f -20/-20/-20 -24/-24/-24 -23/-23/-23
f -19/-19/-19 -20/-20/-20 -23/-23/-23
f -18/-18/-18 -22/-22/-22 -24/-24/-24
f -20/-20/-20 -18/-18/-18 -24/-24/-24
f -17/-17/-17 -21/-21/-21 -22/-22/-22
f -18/-18/-18 -17/-17/-17 -22/-22/-22
f -14/-14/-14 -15/-15/-15 -16/-16/-16
f -13/-13/-13 -14/-14/-14 -16/-16/-16
f -14/-14/-14 -12/-12/-12 -15/-15/-15
f -12/-12/-12 -11/-11/-11 -15/-15/-15
f -12/-12/-12 -10/-10/-10 -11/-11/-11
f -10/-10/-10 -9/-9/-9 -11/-11/-11
f -8/-8/-8 -14/-14/-14 -13/-13/-13
f -7/-7/-7 -8/-8/-8 -13/-13/-13
f -6/-6/-6 -12/-12/-12 -14/-14/-14
f -8/-8/-8 -6/-6/-6 -14/-14/-14
f -5/-5/-5 -10/-10/-10 -12/-12/-12
f -6/-6/-6 -5/-5/-5 -12/-12/-12
f -4/-4/-4 -8/-8/-8 -7/-7/-7
f -3/-3/-3 -4/-4/-4 -7/-7/-7
f -2/-2/-2 -6/-6/-6 -8/-8/-8
f -4/-4/-4 -2/-2/-2 -8/-8/-8
f -1/-1/-1 -5/-5/-5 -6/-6/-6
f -2/-2/-2 -1/-1/-1 -6/-6/-6

