g Hat_Tall
v -0.2009938 1.075993 0.2163019
v -0.2235875 1.515471 0.05537729
v -0.1232002 1.54344 0.1193078
v -0.1059365 1.101205 0.2662768
v -0.008715698 1.553957 0.1447649
v -0.005801179 1.112365 0.2884957
v -0.2546626 1.025873 0.1171843
v -0.2748955 1.463256 -0.06543624
v -0.283899 0.9706234 0.008098987
v -0.2930812 1.408367 -0.1883812
v -0.2684416 0.9151579 -0.1015867
v -0.2724993 1.350829 -0.312234
v -0.2071496 0.8626339 -0.205257
v -0.2109472 1.295073 -0.4184474
v -0.09157717 0.8402755 -0.2492347
v -0.09752381 1.267707 -0.4646536
v 0.02280857 0.8325935 -0.2642177
v 0.02331115 1.258651 -0.4826395
v 0.09619961 1.105282 0.2746763
v 0.1078159 1.548099 0.1289074
v 0.1960114 1.084 0.2327989
v 0.2142032 1.5243 0.07356916
v 0.2596889 1.036247 0.1385575
v 0.2774136 1.474395 -0.04248568
v 0.3000712 0.9824011 0.03236514
v 0.3079272 1.420488 -0.163407
v 0.2960083 0.9265417 -0.07813165
v 0.3000199 1.362375 -0.2884437
v 0.2456889 0.8717668 -0.1864399
v 0.2497826 1.304365 -0.3993023
v 0.1351555 0.8448483 -0.2398131
v 0.1417755 1.272533 -0.4547099
v 0.02280857 0.8325935 -0.2642177
v 0.02331115 1.258651 -0.4826395
v -0.1809009 1.542113 -0.01222734
v -0.223556 1.498677 -0.1127542
v -0.1128406 1.538842 -0.09696427
v -0.09688777 1.565294 0.04253715
v 0.0007424185 1.551634 -0.08171909
v -0.005775276 1.574459 0.06405265
v -0.112874 1.488215 -0.2236367
v -0.2370144 1.451415 -0.2184997
v 0.007619774 1.498881 -0.22162
v -0.1022131 1.42404 -0.3419142
v -0.2178771 1.402994 -0.3217775
v 0.01429149 1.427916 -0.3477328
v -0.07413431 1.336838 -0.4425635
v -0.1668452 1.35921 -0.4030538
v 0.0208744 1.329122 -0.4582022
v -0.2235875 1.515471 0.05537729
v -0.1232002 1.54344 0.1193078
v -0.008715698 1.553957 0.1447649
v -0.2724993 1.350829 -0.312234
v -0.2930812 1.408367 -0.1883812
v -0.2748955 1.463256 -0.06543624
v -0.09752381 1.267707 -0.4646536
v -0.2109472 1.295073 -0.4184474
v 0.02331115 1.258651 -0.4826395
v 0.1299735 1.428723 -0.332266
v 0.1281971 1.493077 -0.2136193
v 0.2528641 1.461295 -0.1981434
v 0.2287912 1.5078 -0.09395746
v 0.115621 1.543449 -0.08747082
v 0.1762325 1.549316 0.002612924
v 0.08710247 1.569004 0.05018264
v 0.2443222 1.412316 -0.3025714
v 0.1138711 1.340629 -0.4347512
v 0.2020102 1.366649 -0.3877265
v 0.2142032 1.5243 0.07356916
v 0.1078159 1.548099 0.1289074
v 0.2774136 1.474395 -0.04248568
v 0.3079272 1.420488 -0.163407
v 0.3000199 1.362375 -0.2884437
v 0.1417755 1.272533 -0.4547099
v 0.2497826 1.304365 -0.3993023
v -0.2071496 0.8626339 -0.205257
v -0.2684416 0.9151579 -0.1015867
v -0.1260244 0.904619 -0.1221661
v -0.09157717 0.8402755 -0.2492347
v 0.0156973 0.9021336 -0.1268346
v 0.02280857 0.8325935 -0.2642177
v -0.1386199 0.9735534 0.01413588
v -0.283899 0.9706234 0.008098987
v 0.008086056 0.9765123 0.02023206
v -0.127841 1.039669 0.1446576
v -0.2546626 1.025873 0.1171843
v 0.0008512159 1.047312 0.1599777
v -0.1059365 1.101205 0.2662768
v -0.2009938 1.075993 0.2163019
v -0.005801179 1.112365 0.2884957
v 0.1351555 0.8448483 -0.2398131
v 0.1563284 0.9103135 -0.1104333
v 0.2456889 0.8717668 -0.1864399
v 0.2960083 0.9265417 -0.07813165
v 0.154792 0.979471 0.02632825
v 0.3000712 0.9824011 0.03236514
v 0.1305736 1.04488 0.1553957
v 0.2596889 1.036247 0.1385575
v 0.09619961 1.105282 0.2746763
v 0.1960114 1.084 0.2327989
vt 0.2634037 0.2404652
vt 0.2634037 0.4373596
vt 0.3027761 0.4371567
vt 0.3033395 0.240465
vt 0.3384997 0.4362745
vt 0.3385656 0.2403172
vt 0.2222199 0.2404652
vt 0.2222199 0.4373596
vt 0.1802896 0.2404649
vt 0.1802896 0.4373596
vt 0.1389977 0.240465
vt 0.1389977 0.4373596
vt 0.09521542 0.2404652
vt 0.09521542 0.4373596
vt 0.05334271 0.2404652
vt 0.05334271 0.4373596
vt 0.01481737 0.2404652
vt 0.01481737 0.4373596
vt 0.3736007 0.240465
vt 0.3741639 0.4371567
vt 0.4135366 0.2404652
vt 0.4135366 0.4373596
vt 0.45472 0.2404652
vt 0.45472 0.4373596
vt 0.4966504 0.2404649
vt 0.4966504 0.4373596
vt 0.5379422 0.240465
vt 0.5379422 0.4373596
vt 0.5817243 0.2404652
vt 0.5817243 0.4373596
vt 0.6235974 0.2404652
vt 0.6235974 0.4373596
vt 0.6621225 0.2404652
vt 0.6621225 0.4373596
vt 0.2837082 0.4736736
vt 0.2717962 0.5077655
vt 0.305279 0.4991539
vt 0.3090513 0.4560618
vt 0.338425 0.4946648
vt 0.338425 0.4499867
vt 0.305069 0.5423115
vt 0.2678637 0.5443135
vt 0.338425 0.5419774
vt 0.305772 0.5851909
vt 0.2715991 0.5808064
vt 0.338425 0.5879927
vt 0.3107681 0.6266328
vt 0.2835936 0.6108676
vt 0.338425 0.6335647
vt 0.2695194 0.4577114
vt 0.3027761 0.4371567
vt 0.3384997 0.4362745
vt 0.2496502 0.5847837
vt 0.2458254 0.5411309
vt 0.2507089 0.4986844
vt 0.3030097 0.6442741
vt 0.2683934 0.6237828
vt 0.3384698 0.6524424
vt 0.3711679 0.5851909
vt 0.371871 0.5423115
vt 0.4090762 0.5443135
vt 0.4051435 0.5077655
vt 0.371661 0.4991539
vt 0.3932318 0.4736736
vt 0.3678888 0.4560618
vt 0.4053409 0.5808064
vt 0.3661717 0.6266328
vt 0.3933464 0.6108676
vt 0.4074207 0.4577114
vt 0.3741639 0.4371567
vt 0.4262311 0.4986844
vt 0.4311146 0.5411309
vt 0.4272898 0.5847837
vt 0.3739304 0.6442741
vt 0.4085468 0.6237828
vt 0.04968384 0.8118035
vt 0.03199688 0.8412405
vt 0.06987052 0.8372955
vt 0.08079076 0.7985917
vt 0.1091391 0.8351289
vt 0.1089887 0.7917204
vt 0.06286874 0.8841695
vt 0.01990601 0.8834148
vt 0.1091391 0.8841695
vt 0.06831615 0.9294652
vt 0.02847937 0.9217346
vt 0.1091391 0.9329373
vt 0.07707568 0.9714909
vt 0.04674433 0.955467
vt 0.1091554 0.9780356
vt 0.1402047 0.7970831
vt 0.1481076 0.8365414
vt 0.1678547 0.8125579
vt 0.1874899 0.8412405
vt 0.1551093 0.8841695
vt 0.200335 0.8841695
vt 0.1526794 0.9287105
vt 0.1955334 0.9179626
vt 0.1439195 0.9707366
vt 0.1772683 0.9539583
vn -0.7788908 0.1819385 0.6001895
vn -0.7709681 0.1852127 0.6093475
vn -0.3961192 0.2807201 0.8742344
vn -0.3981911 0.2804236 0.8733879
vn -0.04569688 0.3083025 0.9501902
vn -0.04570672 0.3083022 0.9501898
vn -0.956548 0.07530434 0.2816831
vn -0.9552445 0.07652266 0.2857486
vn -0.9995616 -0.01501305 0.02551835
vn -0.9994528 -0.01314733 0.03035381
vn -0.9515047 -0.1432341 -0.2722552
vn -0.9524873 -0.1419256 -0.2694904
vn -0.6925821 -0.3253714 -0.6437883
vn -0.6998572 -0.3222128 -0.6374785
vn -0.2876735 -0.4329847 -0.8542647
vn -0.2908591 -0.432505 -0.8534285
vn 0.04612666 -0.4536167 -0.8900024
vn 0.04613684 -0.4536165 -0.8900019
vn 0.3127693 0.2947358 0.902943
vn 0.3106392 0.2949459 0.9036095
vn 0.7184659 0.2120838 0.6624404
vn 0.7097 0.2150169 0.6708901
vn 0.9260795 0.1132051 0.3599465
vn 0.9243968 0.1143622 0.3638843
vn 0.9937916 0.02511796 0.1083846
vn 0.9932073 0.02696929 0.1131901
vn 0.9757958 -0.1044332 -0.1921363
vn 0.9764932 -0.1030889 -0.1892977
vn 0.756112 -0.2962087 -0.5835708
vn 0.7627209 -0.292763 -0.5766686
vn 0.3747155 -0.41965 -0.8267298
vn 0.3778105 -0.4190418 -0.8256289
vn 0.04612666 -0.4536167 -0.8900024
vn 0.04613684 -0.4536165 -0.8900019
vn -0.3877216 0.9172283 -0.09145585
vn -0.4472576 0.8570105 -0.2559175
vn -0.1547433 0.9448193 -0.2887405
vn -0.1807071 0.9834046 -0.01613878
vn -0.00850743 0.9646339 -0.2634557
vn -0.02048257 0.9997607 0.007680458
vn -0.1632156 0.8922843 -0.4209385
vn -0.4503646 0.8044527 -0.387334
vn -0.0007050367 0.9061971 -0.4228549
vn -0.1328917 0.8207198 -0.5556608
vn -0.4217188 0.7349818 -0.5309942
vn 0.007459572 0.8172855 -0.5761847
vn -0.1359346 0.6028635 -0.786179
vn -0.3221706 0.6176413 -0.7174436
vn 0.02130421 0.5966045 -0.8022527
vn -0.4785309 0.8770031 0.04328761
vn -0.2512675 0.9494791 0.1880266
vn -0.02947595 0.9707733 0.2381812
vn -0.6347337 0.576562 -0.5144798
vn -0.6782565 0.6677125 -0.3068032
vn -0.6420054 0.7539269 -0.1393673
vn -0.2045621 0.3620622 -0.9094313
vn -0.4408355 0.4672223 -0.766399
vn 0.03230035 0.337087 -0.9409193
vn 0.1453728 0.8263318 -0.5440978
vn 0.1615145 0.8988333 -0.4074453
vn 0.4481888 0.822575 -0.3499959
vn 0.4320816 0.874745 -0.2193779
vn 0.1400003 0.9507636 -0.2764931
vn 0.3567365 0.9322427 -0.06051892
vn 0.1416935 0.9899068 -0.002740457
vn 0.4343751 0.7522479 -0.4954203
vn 0.1762889 0.6091605 -0.7732047
vn 0.3554367 0.6313072 -0.6892866
vn 0.4376042 0.8954794 0.08135751
vn 0.1963878 0.9585069 0.2066311
vn 0.6204839 0.779389 -0.08690531
vn 0.6739357 0.6949842 -0.2506143
vn 0.6514897 0.602503 -0.4610329
vn 0.2645384 0.3715234 -0.8899381
vn 0.4837108 0.4858685 -0.7279806
vn -0.0007700913 -0.8922272 0.4515862
vn -0.0007873819 -0.8923625 0.4513188
vn -0.0007749585 -0.8923208 0.451401
vn -0.0007702638 -0.8922274 0.4515857
vn -0.0007618912 -0.8923114 0.4514199
vn -0.0007705279 -0.8922275 0.4515854
vn -0.0007974429 -0.892232 0.4515765
vn -0.0008095047 -0.8922465 0.4515479
vn -0.0007701039 -0.8922309 0.4515786
vn -0.0007947204 -0.892125 0.4517881
vn -0.0008160171 -0.8920773 0.4518822
vn -0.0007798754 -0.8921362 0.4517657
vn -0.0007705462 -0.8922271 0.4515863
vn -0.000770251 -0.8922268 0.4515869
vn -0.0007705872 -0.8922274 0.4515857
vn -0.0007708322 -0.8922275 0.4515855
vn -0.000747017 -0.8923202 0.4514023
vn -0.000771112 -0.8922274 0.4515858
vn -0.0007262516 -0.892361 0.4513216
vn -0.0007425959 -0.8922309 0.4515788
vn -0.0007275959 -0.8922448 0.4515514
vn -0.0007670457 -0.8921247 0.4517887
vn -0.0007552296 -0.8920764 0.4518841
vn -0.0007704261 -0.8922275 0.4515855
vn -0.0007701251 -0.8922272 0.4515862
g Hat_Tall_0
f 3/3/3 2/2/2 1/1/1
f 4/4/4 3/3/3 1/1/1
f 5/5/5 3/3/3 4/4/4
f 6/6/6 5/5/5 4/4/4
f 1/1/1 2/2/2 7/7/7
f 2/2/2 8/8/8 7/7/7
f 7/7/7 8/8/8 9/9/9
f 8/8/8 10/10/10 9/9/9
f 9/9/9 10/10/10 11/11/11
f 10/10/10 12/12/12 11/11/11
f 11/11/11 12/12/12 13/13/13
f 12/12/12 14/14/14 13/13/13
f 15/15/15 13/13/13 14/14/14
f 16/16/16 15/15/15 14/14/14
f 17/17/17 15/15/15 16/16/16
f 18/18/18 17/17/17 16/16/16
f 5/5/5 6/6/6 19/19/19
f 20/20/20 5/5/5 19/19/19
f 20/20/20 19/19/19 21/21/21
f 22/22/22 20/20/20 21/21/21
f 22/22/22 21/21/21 23/23/23
f 24/24/24 22/22/22 23/23/23
f 24/24/24 23/23/23 25/25/25
f 26/26/26 24/24/24 25/25/25
f 26/26/26 25/25/25 27/27/27
f 28/28/28 26/26/26 27/27/27
f 28/28/28 27/27/27 29/29/29
f 30/30/30 28/28/28 29/29/29
f 29/29/29 31/31/31 30/30/30
f 31/31/31 32/32/32 30/30/30
f 31/31/31 33/33/33 32/32/32
f 33/33/33 34/34/34 32/32/32
f 37/37/37 36/36/36 35/35/35
f 38/38/38 37/37/37 35/35/35
f 39/39/39 37/37/37 38/38/38
f 40/40/40 39/39/39 38/38/38
f 37/37/37 41/41/41 36/36/36
f 41/41/41 42/42/42 36/36/36
f 43/43/43 41/41/41 37/37/37
f 39/39/39 43/43/43 37/37/37
f 41/41/41 44/44/44 42/42/42
f 44/44/44 45/45/45 42/42/42
f 46/46/46 44/44/44 41/41/41
f 43/43/43 46/46/46 41/41/41
f 44/44/44 47/47/47 45/45/45
f 47/47/47 48/48/48 45/45/45
f 49/49/49 47/47/47 44/44/44
f 46/46/46 49/49/49 44/44/44
f 38/38/38 35/35/35 50/50/50
f 51/51/51 38/38/38 50/50/50
f 40/40/40 38/38/38 51/51/51
f 52/52/52 40/40/40 51/51/51
f 42/42/42 45/45/45 53/53/53
f 54/54/54 42/42/42 53/53/53
f 36/36/36 42/42/42 54/54/54
f 55/55/55 36/36/36 54/54/54
f 35/35/35 36/36/36 55/55/55
f 50/50/50 35/35/35 55/55/55
f 48/48/48 47/47/47 56/56/56
f 57/57/57 48/48/48 56/56/56
f 45/45/45 48/48/48 57/57/57
f 53/53/53 45/45/45 57/57/57
f 47/47/47 49/49/49 58/58/58
f 56/56/56 47/47/47 58/58/58
f 49/49/49 46/46/46 59/59/59
f 59/59/59 46/46/46 60/60/60
f 59/59/59 60/60/60 61/61/61
f 61/61/61 60/60/60 62/62/62
f 60/60/60 63/63/63 62/62/62
f 62/62/62 63/63/63 64/64/64
f 63/63/63 65/65/65 64/64/64
f 63/63/63 39/39/39 65/65/65
f 39/39/39 40/40/40 65/65/65
f 43/43/43 39/39/39 63/63/63
f 60/60/60 43/43/43 63/63/63
f 46/46/46 43/43/43 60/60/60
f 66/66/66 59/59/59 61/61/61
f 67/67/67 59/59/59 66/66/66
f 68/68/68 67/67/67 66/66/66
f 67/67/67 49/49/49 59/59/59
f 49/49/49 67/67/67 58/58/58
f 64/64/64 65/65/65 69/69/69
f 65/65/65 70/70/70 69/69/69
f 65/65/65 40/40/40 70/70/70
f 64/64/64 69/69/69 71/71/71
f 62/62/62 64/64/64 71/71/71
f 40/40/40 52/52/52 70/70/70
f 62/62/62 71/71/71 72/72/72
f 61/61/61 62/62/62 72/72/72
f 61/61/61 72/72/72 73/73/73
f 66/66/66 61/61/61 73/73/73
f 67/67/67 68/68/68 74/74/74
f 68/68/68 75/75/75 74/74/74
f 66/66/66 73/73/73 75/75/75
f 68/68/68 66/66/66 75/75/75
f 67/67/67 74/74/74 58/58/58
f 78/78/78 77/77/77 76/76/76
f 79/79/79 78/78/78 76/76/76
f 80/80/80 78/78/78 79/79/79
f 81/81/81 80/80/80 79/79/79
f 78/78/78 82/82/82 77/77/77
f 82/82/82 83/83/83 77/77/77
f 84/84/84 82/82/82 78/78/78
f 80/80/80 84/84/84 78/78/78
f 82/82/82 85/85/85 83/83/83
f 85/85/85 86/86/86 83/83/83
f 87/87/87 85/85/85 82/82/82
f 84/84/84 87/87/87 82/82/82
f 85/85/85 88/88/88 86/86/86
f 88/88/88 89/89/89 86/86/86
f 90/90/90 88/88/88 85/85/85
f 87/87/87 90/90/90 85/85/85
f 80/80/80 81/81/81 91/91/91
f 92/92/92 80/80/80 91/91/91
f 84/84/84 80/80/80 92/92/92
f 92/92/92 91/91/91 93/93/93
f 94/94/94 92/92/92 93/93/93
f 95/95/95 92/92/92 94/94/94
f 95/95/95 84/84/84 92/92/92
f 87/87/87 84/84/84 95/95/95
f 96/96/96 95/95/95 94/94/94
f 97/97/97 95/95/95 96/96/96
f 97/97/97 87/87/87 95/95/95
f 90/90/90 87/87/87 97/97/97
f 98/98/98 97/97/97 96/96/96
f 99/99/99 97/97/97 98/98/98
f 99/99/99 90/90/90 97/97/97
f 100/100/100 99/99/99 98/98/98
