# Mesh "Knife" exported with Unity Assets Bundle Extractor; 162 vertices, 480 indices, 384 bits per vertex
g Knife
# SubMesh 0
# Vertices
v -0.572555 0.390433 0.182732
vt 0.687440 0.602937
vn -0.432657 -0.081862 0.897834
v -0.521183 0.394602 0.181701
vt 0.645209 0.602937
vn 0.475635 -0.008146 0.879605
v -0.497240 0.096013 0.167268
vt 0.635573 0.891859
vn 0.452883 -0.064499 0.889234
v -0.548611 0.091843 0.168299
vt 0.687434 0.891859
vn -0.400754 -0.133780 0.906366
v -0.573286 0.097622 0.128688
vt 0.731194 0.891859
vn -0.946542 -0.171283 0.273350
v -0.596946 0.394616 0.150787
vt 0.751392 0.602937
vn -0.962204 -0.092615 0.256097
v -0.598169 0.401113 0.116095
vt 0.785634 0.602937
vn -0.970283 -0.029413 -0.240180
v -0.575680 0.110344 0.060850
vt 0.794383 0.891859
vn -0.961669 -0.103935 -0.253754
v -0.553575 0.118301 0.027971
vt 0.832689 0.891859
vn -0.433300 0.081145 -0.897589
v -0.576064 0.409069 0.083217
vt 0.825114 0.602937
vn -0.433530 0.135731 -0.890859
v -0.502203 0.122470 0.026940
vt 0.867148 0.891859
vn 0.378429 0.147024 -0.913879
v -0.524693 0.413238 0.082186
vt 0.860464 0.602937
vn 0.370124 0.200954 -0.906987
v -0.477813 0.118287 0.058886
vt 0.900881 0.891859
vn 0.954958 0.051615 -0.292216
v -0.500302 0.409055 0.114131
vt 0.894339 0.602937
vn 0.951982 0.126595 -0.278755
v -0.499079 0.402559 0.148823
vt 0.927008 0.602937
vn 0.973984 0.064524 0.217236
v -0.475419 0.105565 0.126724
vt 0.946392 0.891860
vn 0.971908 -0.015584 0.234844
v -0.497240 0.096013 0.167268
vt 0.980292 0.891860
vn 0.452883 -0.064499 0.889234
v -0.521183 0.394602 0.181701
vt 0.954758 0.602937
vn 0.475635 -0.008146 0.879605
v -0.544297 0.074235 0.117420
vt 0.740673 0.917130
vn -0.344753 -0.937375 -0.049740
v -0.531232 0.077186 0.145430
vt 0.719671 0.928717
vn -0.174543 -0.930193 0.322917
v -0.512927 0.078671 0.145062
vt 0.719878 0.945469
vn 0.334932 -0.888845 0.312689
v -0.500684 0.077774 0.116545
vt 0.741319 0.957042
vn 0.489079 -0.869702 -0.066477
v -0.548611 0.091843 0.168299
vt 0.698258 0.913592
vn -0.400754 -0.133780 0.906366
v -0.497240 0.096013 0.167268
vt 0.698799 0.960603
vn 0.452883 -0.064499 0.889234
v -0.475419 0.105565 0.126724
vt 0.734005 0.981868
vn 0.971908 -0.015584 0.234844
v -0.502286 0.086281 0.071118
vt 0.775602 0.957031
vn 0.479953 -0.834184 -0.271629
v -0.477813 0.118287 0.058886
vt 0.791575 0.981852
vn 0.954958 0.051615 -0.292216
v -0.516429 0.097269 0.045756
vt 0.797257 0.945445
vn 0.261548 -0.739688 -0.620043
v -0.502203 0.122470 0.026940
vt 0.821136 0.960569
vn 0.378429 0.147024 -0.913879
v -0.534734 0.095783 0.046124
vt 0.797522 0.928693
vn -0.163400 -0.774176 -0.611516
v -0.553575 0.118301 0.027971
vt 0.821906 0.913557
vn -0.433300 0.081145 -0.897589
v -0.545900 0.082742 0.071993
vt 0.776012 0.917119
vn -0.349656 -0.901513 -0.254981
v -0.591010 1.293133 0.320462
vt 0.223388 0.824844
vn 0.930815 0.263520 0.253260
v -0.615312 1.342668 0.355841
vt 0.201788 0.874448
vn 0.931403 0.277384 0.235685
v -0.625347 1.426563 0.275503
vt 0.284271 0.933668
vn 0.931102 0.306331 0.198014
v -0.596693 1.348151 0.259808
vt 0.284271 0.862329
vn 0.931102 0.306331 0.198014
v -0.581492 1.188957 0.373436
vt 0.161084 0.743917
vn 0.933607 0.195417 0.300318
v -0.603861 1.218896 0.423685
vt 0.123563 0.779084
vn 0.932598 0.204856 0.297145
v -0.595301 1.110850 0.453981
vt 0.080072 0.691243
vn 0.938531 0.135235 0.317603
v -0.573002 1.089934 0.396012
vt 0.125646 0.662527
vn 0.938890 0.130035 0.318711
v -0.585241 0.980907 0.469585
vt 0.045596 0.582237
vn 0.944011 0.081766 0.319622
v -0.563579 0.976815 0.408107
vt 0.096887 0.567350
vn 0.944305 0.079286 0.319377
v -0.573522 0.835971 0.461917
vt 0.028580 0.456557
vn 0.952521 0.045511 0.301052
v -0.552790 0.841004 0.396507
vt 0.084726 0.448879
vn 0.952857 0.044971 0.300069
v -0.561353 0.690114 0.444816
vt 0.019474 0.328532
vn 0.961468 0.027923 0.273495
v -0.542206 0.705041 0.374044
vt 0.081841 0.328532
vn 0.961393 0.028107 0.273741
v -0.522580 0.451300 0.325834
vt 0.081841 0.102922
vn 0.963349 0.023259 0.267243
v -0.542048 0.436298 0.396866
vt 0.019249 0.102922
vn 0.963348 0.023259 0.267243
v -0.596693 1.348151 0.259808
vt 0.284271 0.862329
vn -0.034645 0.183961 -0.982323
v -0.625347 1.426563 0.275503
vt 0.303892 0.933668
vn -0.058858 0.513571 -0.856026
v -0.632442 1.425987 0.275645
vt 0.310093 0.933668
vn -0.058858 0.513573 -0.856025
v -0.648685 1.343931 0.260851
vt 0.329714 0.862329
vn -0.034645 0.183961 -0.982323
v -0.579312 1.123436 0.217112
vt 0.284271 0.662527
vn -0.034645 0.183961 -0.982323
v -0.631304 1.119217 0.218156
vt 0.329714 0.662527
vn -0.034645 0.183961 -0.982323
v -0.571032 1.016392 0.196774
vt 0.284271 0.567350
vn -0.034645 0.183961 -0.982323
v -0.623024 1.012172 0.197817
vt 0.329714 0.567350
vn -0.034645 0.183961 -0.982323
v -0.560779 0.883831 0.171587
vt 0.284271 0.449486
vn -0.034645 0.183961 -0.982323
v -0.612771 0.879612 0.172631
vt 0.329714 0.449486
vn -0.034645 0.183961 -0.982323
v -0.550258 0.747796 0.145741
vt 0.284271 0.328532
vn -0.034645 0.183961 -0.982323
v -0.602250 0.743576 0.146784
vt 0.329713 0.328532
vn -0.034645 0.183961 -0.982323
v -0.530632 0.494055 0.097530
vt 0.284271 0.102922
vn -0.034645 0.183961 -0.982323
v -0.582624 0.489835 0.098574
vt 0.329487 0.102922
vn -0.034645 0.183961 -0.982323
v -0.648685 1.343931 0.260851
vt 0.329714 0.862329
vn -0.959662 0.152878 0.235960
v -0.632442 1.425987 0.275645
vt 0.329714 0.933668
vn -0.959662 0.152878 0.235960
v -0.625612 1.341832 0.356048
vt 0.412197 0.874448
vn -0.953791 0.124387 0.273515
v -0.643002 1.288913 0.321505
vt 0.390596 0.824843
vn -0.950276 0.110854 0.291009
v -0.614253 1.218045 0.423881
vt 0.490412 0.779075
vn -0.942823 0.054364 0.328831
v -0.633484 1.184738 0.374479
vt 0.452900 0.743917
vn -0.942785 0.045207 0.330322
v -0.624994 1.085714 0.397055
vt 0.488339 0.662527
vn -0.943592 -0.020229 0.330492
v -0.605754 1.109983 0.454052
vt 0.533798 0.691204
vn -0.943304 -0.014575 0.331611
v -0.595523 0.980045 0.469552
vt 0.568188 0.582175
vn -0.943374 -0.071429 0.323950
v -0.615571 0.972596 0.409151
vt 0.517097 0.567350
vn -0.943250 -0.074100 0.323711
v -0.582882 0.835194 0.461953
vt 0.585277 0.456518
vn -0.942178 -0.111465 0.316031
v -0.604782 0.836784 0.397551
vt 0.529258 0.448879
vn -0.942205 -0.112109 0.315722
v -0.570090 0.689405 0.444990
vt 0.594508 0.328532
vn -0.942912 -0.128225 0.307369
v -0.594198 0.700822 0.375088
vt 0.532144 0.328532
vn -0.942905 -0.128089 0.307447
v -0.550124 0.435643 0.397028
vt 0.594735 0.102922
vn -0.943072 -0.131465 0.305505
v -0.574572 0.447080 0.326877
vt 0.532400 0.102922
vn -0.943072 -0.131465 0.305505
v -0.574572 0.447080 0.326877
vt 0.532400 0.102922
vn 0.075768 -0.979601 -0.186123
v -0.550124 0.435643 0.397028
vt 0.595547 0.083638
vn 0.080103 -0.865638 0.494221
v -0.542048 0.436298 0.396866
vt 0.595547 0.076546
vn 0.080103 -0.865636 0.494224
v -0.522580 0.451300 0.325834
vt 0.532657 0.057262
vn 0.075768 -0.979601 -0.186123
v -0.579114 0.471199 0.198088
vt 0.417935 0.102922
vn 0.075768 -0.979601 -0.186123
v -0.527122 0.475419 0.197045
vt 0.417919 0.057262
vn 0.075768 -0.979601 -0.186123
v -0.582624 0.489835 0.098574
vt 0.329487 0.102922
vn 0.075768 -0.979601 -0.186123
v -0.530632 0.494055 0.097530
vt 0.329261 0.057262
vn 0.075768 -0.979601 -0.186123
v -0.527122 0.475419 0.197045
vt 0.196034 0.102922
vn 0.996523 0.080877 -0.019999
v -0.546748 0.729160 0.245255
vt 0.196034 0.328532
vn 0.996523 0.080877 -0.019999
v -0.550258 0.747796 0.145741
vt 0.284271 0.328532
vn 0.996523 0.080877 -0.019999
v -0.530632 0.494055 0.097530
vt 0.284271 0.102922
vn 0.996523 0.080877 -0.019999
v -0.542206 0.705041 0.374044
vt 0.081841 0.328532
vn 0.996523 0.080877 -0.020000
v -0.522580 0.451300 0.325834
vt 0.081841 0.102922
vn 0.996523 0.080877 -0.020000
v -0.552790 0.841004 0.396507
vt 0.084726 0.448879
vn 0.996523 0.080877 -0.019999
v -0.557270 0.865195 0.271102
vt 0.196034 0.449486
vn 0.996523 0.080877 -0.019999
v -0.563579 0.976815 0.408107
vt 0.096887 0.567350
vn 0.996523 0.080877 -0.019999
v -0.567664 0.998506 0.292281
vt 0.199587 0.567350
vn 0.996523 0.080877 -0.019999
v -0.573002 1.089934 0.396012
vt 0.125646 0.662527
vn 0.996523 0.080877 -0.019999
v -0.576155 1.106672 0.306630
vt 0.204897 0.662527
vn 0.996523 0.080877 -0.020000
v -0.571032 1.016392 0.196774
vt 0.284271 0.567350
vn 0.996523 0.080877 -0.020000
v -0.560779 0.883831 0.171587
vt 0.284271 0.449486
vn 0.996523 0.080877 -0.019999
v -0.579312 1.123436 0.217112
vt 0.284271 0.662527
vn 0.996523 0.080877 -0.020000
v -0.596693 1.348151 0.259808
vt 0.284271 0.862329
vn 0.996523 0.080877 -0.020000
v -0.591010 1.293133 0.320462
vt 0.223388 0.824844
vn 0.996523 0.080877 -0.020000
v -0.581492 1.188957 0.373436
vt 0.161084 0.743917
vn 0.996523 0.080877 -0.019999
v -0.582624 0.489835 0.098574
vt 0.329487 0.102922
vn -0.996523 -0.080877 0.020000
v -0.602250 0.743576 0.146784
vt 0.329713 0.328532
vn -0.996523 -0.080877 0.020000
v -0.598740 0.724940 0.246299
vt 0.417950 0.328532
vn -0.996523 -0.080877 0.020000
v -0.579114 0.471199 0.198088
vt 0.417935 0.102922
vn -0.996523 -0.080877 0.020000
v -0.574572 0.447080 0.326877
vt 0.532400 0.102922
vn -0.996523 -0.080877 0.020000
v -0.594198 0.700822 0.375088
vt 0.532144 0.328532
vn -0.996523 -0.080877 0.020000
v -0.609262 0.860975 0.272145
vt 0.417950 0.449486
vn -0.996523 -0.080877 0.020000
v -0.604782 0.836784 0.397551
vt 0.529258 0.448879
vn -0.996523 -0.080877 0.020000
v -0.619656 0.994287 0.293325
vt 0.414397 0.567350
vn -0.996523 -0.080877 0.020000
v -0.612771 0.879612 0.172631
vt 0.329714 0.449486
vn -0.996523 -0.080877 0.020000
v -0.623024 1.012172 0.197817
vt 0.329714 0.567350
vn -0.996523 -0.080877 0.020000
v -0.628147 1.102453 0.307674
vt 0.409087 0.662527
vn -0.996523 -0.080877 0.020000
v -0.631304 1.119217 0.218156
vt 0.329714 0.662527
vn -0.996523 -0.080877 0.020000
v -0.615571 0.972596 0.409151
vt 0.517097 0.567350
vn -0.996523 -0.080877 0.020000
v -0.624994 1.085714 0.397055
vt 0.488339 0.662527
vn -0.996523 -0.080877 0.020000
v -0.633484 1.184738 0.374479
vt 0.452900 0.743917
vn -0.996523 -0.080876 0.020000
v -0.643002 1.288913 0.321505
vt 0.390596 0.824843
vn -0.996523 -0.080877 0.020000
v -0.648685 1.343931 0.260851
vt 0.329714 0.862329
vn -0.996523 -0.080877 0.020000
v -0.595301 1.110850 0.453981
vt 0.565794 0.703318
vn -0.008843 0.188719 0.981991
v -0.585241 0.980907 0.469585
vt 0.606308 0.590287
vn -0.001602 0.031241 0.999511
v -0.595523 0.980045 0.469552
vt 0.568188 0.582175
vn -0.001581 0.030958 0.999519
v -0.605754 1.109983 0.454052
vt 0.533798 0.691204
vn -0.008837 0.188178 0.982095
v -0.582882 0.835194 0.461953
vt 0.585277 0.456518
vn 0.012407 -0.082091 0.996548
v -0.573522 0.835971 0.461917
vt 0.621311 0.456557
vn 0.012429 -0.082173 0.996541
v -0.570090 0.689405 0.444990
vt 0.594508 0.328532
vn 0.029308 -0.156866 0.987185
v -0.561353 0.690114 0.444816
vt 0.630708 0.328571
vn 0.029336 -0.157004 0.987162
v -0.550124 0.435643 0.397028
vt 0.594735 0.102922
vn 0.080103 -0.865638 0.494221
v -0.542048 0.436298 0.396866
vt 0.631227 0.102999
vn 0.080103 -0.865636 0.494224
v -0.603861 1.218896 0.423685
vt 0.522303 0.795185
vn -0.016662 0.388208 0.921421
v -0.614253 1.218045 0.423881
vt 0.490412 0.779075
vn -0.016631 0.387678 0.921645
v -0.615312 1.342668 0.355841
vt 0.444078 0.890548
vn -0.030092 0.568848 0.821892
v -0.625612 1.341832 0.356048
vt 0.412197 0.874448
vn -0.030092 0.568848 0.821892
v -0.625347 1.426563 0.275503
vt 0.361595 0.949768
vn -0.058858 0.513571 -0.856026
v -0.632442 1.425987 0.275645
vt 0.329714 0.933668
vn -0.058858 0.513573 -0.856025
v -0.598169 0.401113 0.116095
vt 0.785634 0.602937
vn -0.954241 -0.017081 -0.298550
v -0.604418 0.481904 0.131446
vt 0.786319 0.526663
vn -0.954241 -0.017081 -0.298550
v -0.603195 0.475407 0.166137
vt 0.750608 0.526663
vn -0.931848 -0.135990 0.336402
v -0.596946 0.394616 0.150787
vt 0.751392 0.602937
vn -0.931848 -0.135990 0.336402
v -0.578804 0.471224 0.198082
vt 0.687350 0.526663
vn -0.370123 -0.200954 0.906988
v -0.572555 0.390433 0.182732
vt 0.687440 0.602937
vn -0.370123 -0.200954 0.906987
v -0.527432 0.475393 0.197051
vt 0.645327 0.526663
vn 0.433531 -0.135730 0.890858
v -0.521183 0.394602 0.181701
vt 0.645209 0.602937
vn 0.433531 -0.135730 0.890858
v -0.582313 0.489860 0.098567
vt 0.824075 0.526663
vn -0.433530 0.135731 -0.890859
v -0.530942 0.494030 0.097536
vt 0.858054 0.526663
vn 0.370124 0.200954 -0.906987
v -0.500302 0.409055 0.114131
vt 0.894339 0.602937
vn 0.931849 0.135990 -0.336399
v -0.506551 0.489847 0.129482
vt 0.891899 0.526663
vn 0.931849 0.135990 -0.336399
v -0.499079 0.402559 0.148823
vt 0.927008 0.602937
vn 0.954242 0.017083 0.298546
v -0.505328 0.483350 0.164173
vt 0.924551 0.526663
vn 0.954242 0.017083 0.298546
v -0.521183 0.394602 0.181701
vt 0.954758 0.602937
vn 0.433531 -0.135730 0.890858
v -0.527432 0.475393 0.197051
vt 0.952239 0.526663
vn 0.433531 -0.135730 0.890858
v -0.604418 0.481904 0.131446
vt 0.786319 0.526663
vn -0.075768 0.979600 0.186123
v -0.582313 0.489860 0.098567
vt 0.821370 0.504069
vn -0.075768 0.979601 0.186123
v -0.530942 0.494030 0.097536
vt 0.821629 0.449555
vn -0.075768 0.979601 0.186123
v -0.506551 0.489847 0.129482
vt 0.786905 0.424885
vn -0.075768 0.979600 0.186123
v -0.505328 0.483350 0.164173
vt 0.749766 0.424884
vn -0.075768 0.979601 0.186123
v -0.603195 0.475407 0.166137
vt 0.750608 0.526663
vn -0.075768 0.979601 0.186123
v -0.578804 0.471224 0.198082
vt 0.715474 0.504066
vn -0.075768 0.979601 0.186123
v -0.527432 0.475393 0.197051
vt 0.715128 0.449553
vn -0.075768 0.979601 0.186123
# Faces (1 to 162)
g Knife_0
f -160/-160/-160 -161/-161/-161 -162/-162/-162
f -159/-159/-159 -160/-160/-160 -162/-162/-162
f -159/-159/-159 -162/-162/-162 -158/-158/-158
f -162/-162/-162 -157/-157/-157 -158/-158/-158
f -158/-158/-158 -157/-157/-157 -156/-156/-156
f -155/-155/-155 -158/-158/-158 -156/-156/-156
f -154/-154/-154 -155/-155/-155 -156/-156/-156
f -153/-153/-153 -154/-154/-154 -156/-156/-156
f -154/-154/-154 -153/-153/-153 -152/-152/-152
f -153/-153/-153 -151/-151/-151 -152/-152/-152
f -150/-150/-150 -152/-152/-152 -151/-151/-151
f -149/-149/-149 -150/-150/-150 -151/-151/-151
f -150/-150/-150 -149/-149/-149 -148/-148/-148
f -147/-147/-147 -150/-150/-150 -148/-148/-148
f -147/-147/-147 -148/-148/-148 -146/-146/-146
f -148/-148/-148 -145/-145/-145 -146/-146/-146
f -158/-158/-158 -155/-155/-155 -144/-144/-144
f -158/-158/-158 -144/-144/-144 -143/-143/-143
f -142/-142/-142 -143/-143/-143 -144/-144/-144
f -141/-141/-141 -142/-142/-142 -144/-144/-144
f -143/-143/-143 -142/-142/-142 -140/-140/-140
f -140/-140/-140 -158/-158/-158 -143/-143/-143
f -142/-142/-142 -139/-139/-139 -140/-140/-140
f -142/-142/-142 -141/-141/-141 -139/-139/-139
f -141/-141/-141 -138/-138/-138 -139/-139/-139
f -141/-141/-141 -137/-137/-137 -138/-138/-138
f -137/-137/-137 -141/-141/-141 -144/-144/-144
f -137/-137/-137 -136/-136/-136 -138/-138/-138
f -136/-136/-136 -137/-137/-137 -135/-135/-135
f -134/-134/-134 -136/-136/-136 -135/-135/-135
f -134/-134/-134 -135/-135/-135 -133/-133/-133
f -133/-133/-133 -135/-135/-135 -137/-137/-137
f -132/-132/-132 -134/-134/-134 -133/-133/-133
f -132/-132/-132 -133/-133/-133 -131/-131/-131
f -131/-131/-131 -137/-137/-137 -144/-144/-144
f -131/-131/-131 -133/-133/-133 -137/-137/-137
f -155/-155/-155 -131/-131/-131 -144/-144/-144
f -155/-155/-155 -132/-132/-132 -131/-131/-131
f -128/-128/-128 -129/-129/-129 -130/-130/-130
f -127/-127/-127 -128/-128/-128 -130/-130/-130
f -130/-130/-130 -129/-129/-129 -126/-126/-126
f -129/-129/-129 -125/-125/-125 -126/-126/-126
f -125/-125/-125 -124/-124/-124 -126/-126/-126
f -124/-124/-124 -123/-123/-123 -126/-126/-126
f -124/-124/-124 -122/-122/-122 -123/-123/-123
f -122/-122/-122 -121/-121/-121 -123/-123/-123
f -122/-122/-122 -120/-120/-120 -121/-121/-121
f -120/-120/-120 -119/-119/-119 -121/-121/-121
f -120/-120/-120 -118/-118/-118 -119/-119/-119
f -118/-118/-118 -117/-117/-117 -119/-119/-119
f -117/-117/-117 -118/-118/-118 -116/-116/-116
f -118/-118/-118 -115/-115/-115 -116/-116/-116
f -112/-112/-112 -113/-113/-113 -114/-114/-114
f -111/-111/-111 -112/-112/-112 -114/-114/-114
f -111/-111/-111 -114/-114/-114 -110/-110/-110
f -109/-109/-109 -111/-111/-111 -110/-110/-110
f -109/-109/-109 -110/-110/-110 -108/-108/-108
f -107/-107/-107 -109/-109/-109 -108/-108/-108
f -107/-107/-107 -108/-108/-108 -106/-106/-106
f -105/-105/-105 -107/-107/-107 -106/-106/-106
f -105/-105/-105 -106/-106/-106 -104/-104/-104
f -103/-103/-103 -105/-105/-105 -104/-104/-104
f -103/-103/-103 -104/-104/-104 -102/-102/-102
f -101/-101/-101 -103/-103/-103 -102/-102/-102
f -98/-98/-98 -99/-99/-99 -100/-100/-100
f -97/-97/-97 -98/-98/-98 -100/-100/-100
f -96/-96/-96 -98/-98/-98 -97/-97/-97
f -95/-95/-95 -96/-96/-96 -97/-97/-97
f -96/-96/-96 -95/-95/-95 -94/-94/-94
f -93/-93/-93 -96/-96/-96 -94/-94/-94
f -93/-93/-93 -94/-94/-94 -92/-92/-92
f -94/-94/-94 -91/-91/-91 -92/-92/-92
f -92/-92/-92 -91/-91/-91 -90/-90/-90
f -91/-91/-91 -89/-89/-89 -90/-90/-90
f -90/-90/-90 -89/-89/-89 -88/-88/-88
f -89/-89/-89 -87/-87/-87 -88/-88/-88
f -86/-86/-86 -88/-88/-88 -87/-87/-87
f -85/-85/-85 -86/-86/-86 -87/-87/-87
f -82/-82/-82 -83/-83/-83 -84/-84/-84
f -81/-81/-81 -82/-82/-82 -84/-84/-84
f -81/-81/-81 -84/-84/-84 -80/-80/-80
f -79/-79/-79 -81/-81/-81 -80/-80/-80
f -80/-80/-80 -78/-78/-78 -79/-79/-79
f -78/-78/-78 -77/-77/-77 -79/-79/-79
f -74/-74/-74 -75/-75/-75 -76/-76/-76
f -73/-73/-73 -74/-74/-74 -76/-76/-76
f -75/-75/-75 -72/-72/-72 -76/-76/-76
f -72/-72/-72 -71/-71/-71 -76/-76/-76
f -70/-70/-70 -72/-72/-72 -75/-75/-75
f -69/-69/-69 -70/-70/-70 -75/-75/-75
f -68/-68/-68 -70/-70/-70 -69/-69/-69
f -67/-67/-67 -68/-68/-68 -69/-69/-69
f -68/-68/-68 -67/-67/-67 -66/-66/-66
f -67/-67/-67 -65/-65/-65 -66/-66/-66
f -64/-64/-64 -67/-67/-67 -69/-69/-69
f -63/-63/-63 -64/-64/-64 -69/-69/-69
f -63/-63/-63 -69/-69/-69 -75/-75/-75
f -74/-74/-74 -63/-63/-63 -75/-75/-75
f -62/-62/-62 -65/-65/-65 -67/-67/-67
f -64/-64/-64 -62/-62/-62 -67/-67/-67
f -62/-62/-62 -61/-61/-61 -65/-65/-65
f -61/-61/-61 -60/-60/-60 -65/-65/-65
f -65/-65/-65 -60/-60/-60 -59/-59/-59
f -66/-66/-66 -65/-65/-65 -59/-59/-59
f -56/-56/-56 -57/-57/-57 -58/-58/-58
f -55/-55/-55 -56/-56/-56 -58/-58/-58
f -55/-55/-55 -54/-54/-54 -56/-56/-56
f -54/-54/-54 -53/-53/-53 -56/-56/-56
f -52/-52/-52 -56/-56/-56 -53/-53/-53
f -56/-56/-56 -52/-52/-52 -57/-57/-57
f -51/-51/-51 -52/-52/-52 -53/-53/-53
f -50/-50/-50 -52/-52/-52 -51/-51/-51
f -52/-52/-52 -50/-50/-50 -49/-49/-49
f -52/-52/-52 -49/-49/-49 -57/-57/-57
f -50/-50/-50 -48/-48/-48 -49/-49/-49
f -50/-50/-50 -47/-47/-47 -48/-48/-48
f -47/-47/-47 -46/-46/-46 -48/-48/-48
f -45/-45/-45 -50/-50/-50 -51/-51/-51
f -50/-50/-50 -45/-45/-45 -44/-44/-44
f -47/-47/-47 -50/-50/-50 -44/-44/-44
f -47/-47/-47 -44/-44/-44 -43/-43/-43
f -42/-42/-42 -47/-47/-47 -43/-43/-43
f -47/-47/-47 -42/-42/-42 -46/-46/-46
f -42/-42/-42 -41/-41/-41 -46/-46/-46
f -38/-38/-38 -39/-39/-39 -40/-40/-40
f -37/-37/-37 -38/-38/-38 -40/-40/-40
f -38/-38/-38 -36/-36/-36 -39/-39/-39
f -36/-36/-36 -35/-35/-35 -39/-39/-39
f -36/-36/-36 -34/-34/-34 -35/-35/-35
f -34/-34/-34 -33/-33/-33 -35/-35/-35
f -33/-33/-33 -34/-34/-34 -32/-32/-32
f -31/-31/-31 -33/-33/-33 -32/-32/-32
f -37/-37/-37 -40/-40/-40 -30/-30/-30
f -29/-29/-29 -37/-37/-37 -30/-30/-30
f -30/-30/-30 -28/-28/-28 -29/-29/-29
f -28/-28/-28 -27/-27/-27 -29/-29/-29
f -28/-28/-28 -26/-26/-26 -27/-27/-27
f -26/-26/-26 -25/-25/-25 -27/-27/-27
f -22/-22/-22 -23/-23/-23 -24/-24/-24
f -21/-21/-21 -22/-22/-22 -24/-24/-24
f -20/-20/-20 -22/-22/-22 -21/-21/-21
f -19/-19/-19 -20/-20/-20 -21/-21/-21
f -18/-18/-18 -20/-20/-20 -19/-19/-19
f -17/-17/-17 -18/-18/-18 -19/-19/-19
f -24/-24/-24 -23/-23/-23 -153/-153/-153
f -23/-23/-23 -16/-16/-16 -153/-153/-153
f -153/-153/-153 -16/-16/-16 -151/-151/-151
f -16/-16/-16 -15/-15/-15 -151/-151/-151
f -151/-151/-151 -15/-15/-15 -14/-14/-14
f -15/-15/-15 -13/-13/-13 -14/-14/-14
f -14/-14/-14 -13/-13/-13 -12/-12/-12
f -13/-13/-13 -11/-11/-11 -12/-12/-12
f -12/-12/-12 -11/-11/-11 -10/-10/-10
f -11/-11/-11 -9/-9/-9 -10/-10/-10
f -6/-6/-6 -7/-7/-7 -8/-8/-8
f -5/-5/-5 -6/-6/-6 -8/-8/-8
f -4/-4/-4 -5/-5/-5 -8/-8/-8
f -3/-3/-3 -4/-4/-4 -8/-8/-8
f -3/-3/-3 -2/-2/-2 -4/-4/-4
f -2/-2/-2 -1/-1/-1 -4/-4/-4

