# Mesh "ThePass_Slim" exported with Unity Assets Bundle Extractor; 12 vertices, 36 indices, 384 bits per vertex
g ThePass_Slim
# SubMesh 0
# Vertices
v -0.000000 0.500000 -0.247159
vt 0.706173 0.500000
vn -0.000000 1.000000 0.000000
v -0.000000 0.500000 0.600000
vt -0.001399 0.500000
vn -0.000000 1.000000 0.000000
v -1.006917 0.500000 0.600000
vt -0.001399 0.998008
vn -0.000000 1.000000 0.000000
v -1.006917 0.500000 -0.247159
vt 0.706173 0.998008
vn -0.000000 1.000000 0.000000
v 1.006917 0.500000 -0.247159
vt 0.706173 0.001992
vn -0.000000 1.000000 0.000000
v 1.006917 0.500000 0.600000
vt -0.001399 0.001992
vn -0.000000 1.000000 0.000000
v -0.000000 0.500000 -0.472161
vt 0.894100 0.500000
vn -0.000000 1.000000 0.000000
v -1.006917 0.500000 -0.472161
vt 0.894100 0.998008
vn -0.000000 1.000000 0.000000
v 1.006917 0.500000 -0.472161
vt 0.894100 0.001992
vn -0.000000 1.000000 0.000000
v -0.000000 0.500000 -0.600000
vt 1.000876 0.500000
vn -0.000000 1.000000 0.000000
v -1.006917 0.500000 -0.600000
vt 1.000876 0.998008
vn -0.000000 1.000000 0.000000
v 1.006917 0.500000 -0.600000
vt 1.000876 0.001992
vn -0.000000 1.000000 0.000000
# Faces (1 to 12)
g ThePass_Slim_0
f -10/-10/-10 -11/-11/-11 -12/-12/-12
f -9/-9/-9 -10/-10/-10 -12/-12/-12
f -12/-12/-12 -11/-11/-11 -8/-8/-8
f -11/-11/-11 -7/-7/-7 -8/-8/-8
f -9/-9/-9 -12/-12/-12 -6/-6/-6
f -5/-5/-5 -9/-9/-9 -6/-6/-6
f -12/-12/-12 -8/-8/-8 -4/-4/-4
f -6/-6/-6 -12/-12/-12 -4/-4/-4
f -5/-5/-5 -6/-6/-6 -3/-3/-3
f -2/-2/-2 -5/-5/-5 -3/-3/-3
f -6/-6/-6 -4/-4/-4 -1/-1/-1
f -3/-3/-3 -6/-6/-6 -1/-1/-1

