g Base
v 0.4811736 0.4556984 -0.1022765
v 0.4811736 0.5443016 -0.1022765
v 0.4493943 0.5443016 -0.2000831
v 0.4493943 0.4556984 -0.2000831
v 0.3979743 0.5443016 -0.2891452
v 0.3979743 0.4556984 -0.2891452
v 0.329161 0.5443016 -0.3655701
v 0.329161 0.4556984 -0.3655701
v 0.2459617 0.5443016 -0.4260179
v 0.2459617 0.4556984 -0.4260179
v 0.1520127 0.5443016 -0.4678467
v 0.1520127 0.4556984 -0.4678467
v 0.05142006 0.5443016 -0.4892283
v 0.05142006 0.4556984 -0.4892283
v -0.05141989 0.5443016 -0.4892283
v -0.05141989 0.4556984 -0.4892283
v -0.1520126 0.5443016 -0.4678468
v -0.1520126 0.4556984 -0.4678468
v -0.2459615 0.5443016 -0.426018
v -0.2459615 0.4556984 -0.426018
v -0.3291608 0.5443016 -0.3655701
v -0.3291608 0.4556984 -0.3655701
v -0.3979742 0.5443016 -0.2891452
v -0.3979742 0.4556984 -0.2891452
v -0.449394 0.5443016 -0.2000832
v -0.449394 0.4556984 -0.2000832
v -0.4811734 0.5443016 -0.1022766
v -0.4811734 0.4556984 -0.1022766
v -0.4919231 0.5443016 -4.398133E-08
v -0.4919231 0.4556984 -4.398133E-08
v -0.4811733 0.5443016 0.1022765
v -0.4811733 0.4556984 0.1022765
v -0.449394 0.5443016 0.2000831
v -0.449394 0.4556984 0.2000831
v -0.3979741 0.5443016 0.2891451
v -0.3979741 0.4556984 0.2891451
v -0.3291608 0.5443016 0.3655699
v -0.3291608 0.4556984 0.3655699
v -0.2459615 0.5443016 0.4260178
v -0.2459615 0.4556984 0.4260178
v -0.1520126 0.5443016 0.4678465
v -0.1520126 0.4556984 0.4678465
v -0.05141998 0.5443016 0.4892281
v -0.05141998 0.4556984 0.4892281
v 0.05141991 0.5443016 0.4892281
v 0.05141991 0.4556984 0.4892281
v 0.1520125 0.5443016 0.4678465
v 0.1520125 0.4556984 0.4678465
v 0.2459615 0.5443016 0.4260177
v 0.2459615 0.4556984 0.4260177
v 0.3291606 0.5443016 0.3655699
v 0.3291606 0.4556984 0.3655699
v 0.3979739 0.5443016 0.289145
v 0.3979739 0.4556984 0.289145
v 0.4493939 0.5443016 0.200083
v 0.4493939 0.4556984 0.200083
v 0.4811731 0.5443016 0.1022765
v 0.4811731 0.4556984 0.1022765
v 0.4919228 0.5443016 0
v 0.4919228 0.4556984 0
v 0.4811736 0.5443016 -0.1022765
v 0.4811736 0.4556984 -0.1022765
v 0.4545162 0.5681038 -0.09661028
v 3.858106E-08 0.5681034 3.858106E-08
v 0.4244975 0.5681038 -0.1889983
v 0.3759262 0.5681038 -0.2731262
v 0.3109253 0.5681038 -0.3453172
v 0.2323352 0.5681038 -0.4024162
v 0.1435911 0.5681038 -0.4419276
v 0.04857138 0.5681038 -0.4621247
v -0.04857115 0.5681038 -0.4621247
v -0.1435909 0.5681038 -0.4419276
v -0.232335 0.5681038 -0.4024162
v -0.3109249 0.5681038 -0.3453173
v -0.375926 0.5681038 -0.2731262
v -0.4244972 0.5681038 -0.1889984
v -0.4545159 0.5681038 -0.09661035
v -0.4646701 0.5681038 -2.963676E-09
v -0.4545159 0.5681038 0.09661034
v -0.4244972 0.5681038 0.1889984
v 0.4397217 0.5595632 -0.1957766
v 0.4708171 0.5595631 -0.1000751
v 0.3894085 0.5595632 -0.2829217
v 0.3220763 0.5595632 -0.3577017
v 0.2406677 0.5595632 -0.4168485
v 0.1487409 0.5595632 -0.4577769
v 0.05031333 0.5595632 -0.4786984
v -0.05031313 0.5595632 -0.4786984
v -0.1487407 0.5595632 -0.4577771
v -0.2406675 0.5595632 -0.4168485
v -0.322076 0.5595632 -0.3577017
v -0.3894083 0.5595632 -0.2829217
v -0.4397214 0.5595632 -0.1957767
v -0.4708167 0.5595632 -0.1000752
v -0.4813351 0.5595631 -2.374419E-08
v -0.4708167 0.5595632 0.1000752
v -0.4397214 0.5595632 0.1957766
v -0.375926 0.5681038 0.2731262
v -0.3109249 0.5681038 0.3453171
v -0.232335 0.5681038 0.4024161
v -0.1435909 0.5681038 0.4419274
v -0.04857123 0.5681038 0.4621245
v 0.04857124 0.5681038 0.4621245
v 0.1435909 0.5681038 0.4419274
v 0.232335 0.5681038 0.402416
v 0.3109249 0.5681038 0.3453171
v 0.3759259 0.5681038 0.2731262
v 0.4244971 0.5681038 0.1889984
v 0.4545158 0.5681038 0.09661034
v 0.4646699 0.5681038 3.858106E-08
v -0.3894083 0.5595632 0.2829216
v -0.322076 0.5595632 0.3577016
v -0.2406675 0.5595632 0.4168484
v -0.1487407 0.5595632 0.4577768
v -0.05031322 0.5595631 0.4786983
v 0.05031319 0.5595631 0.4786983
v 0.1487407 0.5595632 0.4577768
v 0.2406675 0.5595632 0.4168482
v 0.322076 0.5595632 0.3577016
v 0.3894081 0.5595631 0.2829216
v 0.4397213 0.5595632 0.1957766
v 0.4708166 0.5595632 0.1000752
v 0.4813349 0.5595632 1.929053E-08
v -0.3979741 0.5443016 0.2891451
v -0.449394 0.5443016 0.2000831
v -0.4811733 0.5443016 0.1022765
v -0.4919231 0.5443016 -4.398133E-08
v -0.4811734 0.5443016 -0.1022766
v -0.449394 0.5443016 -0.2000832
v -0.3979742 0.5443016 -0.2891452
v -0.3291608 0.5443016 -0.3655701
v -0.2459615 0.5443016 -0.426018
v -0.1520126 0.5443016 -0.4678468
v -0.05141989 0.5443016 -0.4892283
v 0.05142006 0.5443016 -0.4892283
v 0.1520127 0.5443016 -0.4678467
v 0.2459617 0.5443016 -0.4260179
v 0.329161 0.5443016 -0.3655701
v 0.3979743 0.5443016 -0.2891452
v 0.4493943 0.5443016 -0.2000831
v 0.4811736 0.5443016 -0.1022765
v 0.4919228 0.5443016 0
v 0.4811731 0.5443016 0.1022765
v 0.4493939 0.5443016 0.200083
v 0.3979739 0.5443016 0.289145
v 0.3291606 0.5443016 0.3655699
v 0.2459615 0.5443016 0.4260177
v 0.1520125 0.5443016 0.4678465
v 0.05141991 0.5443016 0.4892281
v -0.05141998 0.5443016 0.4892281
v -0.1520126 0.5443016 0.4678465
v -0.2459615 0.5443016 0.4260178
v -0.3291608 0.5443016 0.3655699
v -0.6 0.1505673 0.6
v -0.6 0.5 0.6
v 0.6 0.5 0.6
v 0.6 0.1505673 0.6
v -0.6 0.5 0.6
v -0.6 0.5 -0.6
v 0.6 0.5 -0.6
v 0.6 0.5 0.6
v -0.6 0.5 -0.6
v -0.6 0.1505673 -0.6
v 0.6 0.1505673 -0.6
v 0.6 0.5 -0.6
v -0.5356079 1.907349E-08 -0.5356085
v -0.5356079 1.907349E-08 0.5356085
v 0.5356085 1.907349E-08 0.5356085
v 0.5356085 1.907349E-08 -0.5356085
v 0.6 0.1505673 0.6
v 0.6 0.5 0.6
v 0.6 0.5 -0.6
v 0.6 0.1505673 -0.6
v -0.6 0.1505673 -0.6
v -0.6 0.5 -0.6
v -0.6 0.5 0.6
v -0.6 0.1505673 0.6
v -0.5356079 1.907349E-08 0.5356085
v -0.5356079 0.1505673 0.5356085
v 0.5356085 0.1505673 0.5356085
v 0.5356085 1.907349E-08 0.5356085
v 0.5356085 1.907349E-08 0.5356085
v 0.5356085 0.1505673 0.5356085
v 0.5356085 0.1505673 -0.5356085
v 0.5356085 1.907349E-08 -0.5356085
v -0.5356079 0.1505673 -0.5356085
v -0.5356079 1.907349E-08 -0.5356085
v 0.5356085 1.907349E-08 -0.5356085
v 0.5356085 0.1505673 -0.5356085
v -0.5356079 1.907349E-08 -0.5356085
v -0.5356079 0.1505673 -0.5356085
v -0.5356079 0.1505673 0.5356085
v -0.5356079 1.907349E-08 0.5356085
v 0.6 0.1505673 0.6
v 0.5356085 0.1505673 0.5356085
v -0.5356079 0.1505673 0.5356085
v -0.6 0.1505673 0.6
v 0.6 0.1505673 -0.6
v 0.5356085 0.1505673 -0.5356085
v -0.5356079 0.1505673 -0.5356085
v -0.6 0.1505673 -0.6
v -0.6 0.1505673 -0.6
v -0.5356079 0.1505673 -0.5356085
v 0.5356085 0.1505673 -0.5356085
v 0.6 0.1505673 -0.6
vt 0.016946 0.4041785
vt 0.016946 0.5251575
vt 0.03111392 0.5251575
vt 0.03111392 0.4041785
vt 0.04528187 0.5251575
vt 0.04528187 0.4041785
vt 0.0594497 0.5251575
vt 0.0594497 0.4041785
vt 0.07361762 0.5251575
vt 0.07361762 0.4041785
vt 0.08778554 0.5251575
vt 0.08778554 0.4041785
vt 0.1019535 0.5251575
vt 0.1019535 0.4041785
vt 0.1161213 0.5251575
vt 0.1161213 0.4041785
vt 0.1302894 0.5251575
vt 0.1302894 0.4041785
vt 0.1444573 0.5251575
vt 0.1444573 0.4041785
vt 0.1586252 0.5251575
vt 0.1586252 0.4041785
vt 0.1727932 0.5251575
vt 0.1727932 0.4041785
vt 0.1869611 0.5251575
vt 0.1869611 0.4041785
vt 0.201129 0.5251575
vt 0.201129 0.4041785
vt 0.2152968 0.5251575
vt 0.2152968 0.4041785
vt 0.2294648 0.5251575
vt 0.2294648 0.4041785
vt 0.2436327 0.5251575
vt 0.2436327 0.4041785
vt 0.2578006 0.5251575
vt 0.2578006 0.4041785
vt 0.2719685 0.5251575
vt 0.2719685 0.4041785
vt 0.2861364 0.5251575
vt 0.2861364 0.4041785
vt 0.3003044 0.5251575
vt 0.3003044 0.4041785
vt 0.3144723 0.5251575
vt 0.3144723 0.4041785
vt 0.3286402 0.5251575
vt 0.3286402 0.4041785
vt 0.3428082 0.5251575
vt 0.3428082 0.4041785
vt 0.356976 0.5251575
vt 0.356976 0.4041785
vt 0.3711439 0.5251575
vt 0.3711439 0.4041785
vt 0.3853118 0.5251575
vt 0.3853118 0.4041785
vt 0.3994798 0.5251575
vt 0.3994798 0.4041785
vt 0.4136478 0.5251575
vt 0.4136478 0.4041785
vt 0.4278156 0.5251575
vt 0.4278156 0.4041785
vt 0.4419836 0.5251575
vt 0.4419836 0.4041785
vt 0.3209246 0.7905852
vt 0.2242637 0.7660864
vt 0.3145405 0.8102331
vt 0.304211 0.8281244
vt 0.2903874 0.8434771
vt 0.2736739 0.8556202
vt 0.2548008 0.864023
vt 0.2345932 0.8683183
vt 0.2139341 0.8683183
vt 0.1937265 0.864023
vt 0.1748535 0.8556202
vt 0.1581399 0.8434771
vt 0.1443163 0.8281244
vt 0.1339867 0.8102331
vt 0.1276027 0.7905852
vt 0.1254433 0.7700393
vt 0.1276027 0.7494934
vt 0.1339867 0.7298453
vt 0.359679 0.8323064
vt 0.369255 0.8028345
vt 0.3441847 0.8591434
vt 0.3234492 0.8821725
vt 0.2983789 0.9003871
vt 0.2700694 0.9129913
vt 0.239758 0.9194342
vt 0.2087693 0.9194342
vt 0.1784579 0.9129913
vt 0.1501484 0.9003871
vt 0.125078 0.8821725
vt 0.1043426 0.8591434
vt 0.08884828 0.8323064
vt 0.07927227 0.8028345
vt 0.07603304 0.7720157
vt 0.07927227 0.7411968
vt 0.08884825 0.7117248
vt 0.1443163 0.711954
vt 0.1581399 0.6966014
vt 0.1748535 0.6844582
vt 0.1937265 0.6760554
vt 0.2139341 0.6717601
vt 0.2345932 0.6717601
vt 0.2548009 0.6760554
vt 0.273674 0.6844583
vt 0.2903875 0.6966014
vt 0.3042111 0.711954
vt 0.3145407 0.7298453
vt 0.3209246 0.7494934
vt 0.323084 0.7700393
vt 0.1043426 0.6848879
vt 0.125078 0.6618588
vt 0.1501484 0.6436441
vt 0.1784579 0.6310399
vt 0.2087694 0.624597
vt 0.239758 0.624597
vt 0.2700695 0.6310399
vt 0.2983791 0.6436442
vt 0.3234494 0.6618588
vt 0.3441848 0.6848879
vt 0.3596792 0.7117248
vt 0.3692551 0.7411968
vt 0.3724942 0.7720157
vt 0.06436887 0.6578217
vt 0.04370977 0.6936044
vt 0.03094177 0.7329003
vt 0.02662286 0.7739921
vt 0.03094177 0.8150839
vt 0.0437098 0.8543798
vt 0.06436887 0.8901624
vt 0.09201615 0.9208678
vt 0.1254433 0.945154
vt 0.1631893 0.9619596
vt 0.2036045 0.9705502
vt 0.2449227 0.9705502
vt 0.285338 0.9619596
vt 0.323084 0.945154
vt 0.3565111 0.9208678
vt 0.3841584 0.8901624
vt 0.4048175 0.8543798
vt 0.4175854 0.8150839
vt 0.4219044 0.7739921
vt 0.4175857 0.7329003
vt 0.4048176 0.6936044
vt 0.3841586 0.6578217
vt 0.3565113 0.6271163
vt 0.3230842 0.6028301
vt 0.2853381 0.5860244
vt 0.2449228 0.5774338
vt 0.2036046 0.5774338
vt 0.1631893 0.5860244
vt 0.1254433 0.60283
vt 0.09201615 0.6271163
vt 0.475 0.125
vt 0.475 0.25
vt 0.725 0.25
vt 0.725 0.125
vt 0.475 0.25
vt 0.475 0.5
vt 0.725 0.5
vt 0.725 0.25
vt 0.475 0.5
vt 0.475 0.625
vt 0.725 0.625
vt 0.725 0.5
vt 0.475 0.75
vt 0.475 1
vt 0.725 1
vt 0.725 0.75
vt 0.725 0.125
vt 0.725 0.25
vt 0.975 0.25
vt 0.975 0.125
vt 0.225 0.125
vt 0.225 0.25
vt 0.475 0.25
vt 0.475 0.125
vt 0.475 0
vt 0.475 0.125
vt 0.725 0.125
vt 0.725 0
vt 0.725 0
vt 0.725 0.125
vt 0.975 0.125
vt 0.975 0
vt 0.475 0.625
vt 0.475 0.75
vt 0.725 0.75
vt 0.725 0.625
vt 0.225 0
vt 0.225 0.125
vt 0.475 0.125
vt 0.475 0
vt 0.725 0.125
vt 0.725 0.125
vt 0.475 0.125
vt 0.475 0.125
vt 0.975 0.125
vt 0.975 0.125
vt 0.225 0.125
vt 0.225 0.125
vt 0.475 0.625
vt 0.475 0.625
vt 0.725 0.625
vt 0.725 0.625
vn 0.9781481 0 -0.2079094
vn 0.9735121 0.09724557 -0.2069241
vn 0.9092156 0.09724579 -0.404809
vn 0.9135454 0 -0.4067367
vn 0.8051826 0.09724557 -0.5849994
vn 0.809017 0 -0.5877852
vn 0.6659593 0.09724551 -0.7396225
vn 0.6691307 0 -0.7431448
vn 0.4976301 0.0972456 -0.8619208
vn 0.5 0 -0.8660254
vn 0.3075523 0.09724577 -0.9465489
vn 0.3090168 0 -0.9510565
vn 0.1040331 0.09724578 -0.9898083
vn 0.1045284 0 -0.9945219
vn -0.1040328 0.09724547 -0.9898084
vn -0.1045283 0 -0.9945219
vn -0.3075522 0.09724537 -0.946549
vn -0.3090167 0 -0.9510565
vn -0.4976303 0.09724572 -0.8619207
vn -0.5 0 -0.8660254
vn -0.6659593 0.09724601 -0.7396225
vn -0.6691307 0 -0.7431448
vn -0.8051828 0.09724575 -0.584999
vn -0.8090172 0 -0.5877849
vn -0.9092157 0.09724575 -0.4048086
vn -0.9135455 0 -0.4067364
vn -0.9735116 0.09724586 -0.2069265
vn -0.9781476 0 -0.2079118
vn -0.9952604 0.09724561 3.315564E-07
vn -1 0 3.785327E-07
vn -0.9735116 0.09724569 0.2069265
vn -0.9781476 0 0.2079119
vn -0.9092157 0.09724553 0.4048086
vn -0.9135456 0 0.4067364
vn -0.8051827 0.0972454 0.5849994
vn -0.8090171 0 0.5877852
vn -0.6659592 0.09724554 0.7396227
vn -0.6691306 0 0.7431449
vn -0.4976301 0.0972456 0.8619209
vn -0.4999999 0 0.8660255
vn -0.3075523 0.09724555 0.9465489
vn -0.3090169 0 0.9510565
vn -0.1040333 0.09724522 0.9898083
vn -0.1045287 0 0.9945219
vn 0.1040333 0.09724517 0.9898084
vn 0.1045287 0 0.9945219
vn 0.3075529 0.09724545 0.9465488
vn 0.3090174 0 0.9510565
vn 0.4976301 0.09724555 0.8619208
vn 0.5 0 0.8660254
vn 0.6659595 0.09724533 0.7396225
vn 0.6691309 0 0.7431445
vn 0.8051828 0.09724506 0.5849992
vn 0.8090171 0 0.5877851
vn 0.9092156 0.09724513 0.4048091
vn 0.9135453 0 0.4067368
vn 0.9735117 0.09724541 0.2069261
vn 0.9781477 0 0.2079115
vn 0.9952604 0.09724546 2.252149E-06
vn 1 0 2.234349E-06
vn 0.9735121 0.09724557 -0.2069241
vn 0.9781481 0 -0.2079094
vn 0.03833244 0.9992318 -0.008147469
vn 0 1 0
vn 0.03580055 0.9992318 -0.01593987
vn 0.03170417 0.9992318 -0.02303453
vn 0.02622224 0.9992318 -0.02912248
vn 0.01959425 0.9992318 -0.03393802
vn 0.01210993 0.9992318 -0.03727058
vn 0.00409632 0.9992318 -0.03897404
vn -0.004096295 0.9992318 -0.03897383
vn -0.01210991 0.9992318 -0.03727053
vn -0.01959429 0.9992318 -0.03393849
vn -0.02622225 0.9992318 -0.02912275
vn -0.03170417 0.9992318 -0.0230345
vn -0.0358005 0.9992318 -0.0159393
vn -0.03833227 0.9992318 -0.00814799
vn -0.03918874 0.9992318 0
vn -0.03833226 0.9992318 0.008147976
vn -0.03580049 0.9992318 0.01593932
vn 0.6117766 0.7426561 -0.2723811
vn 0.6550398 0.7426556 -0.1392316
vn 0.541777 0.7426558 -0.3936242
vn 0.4480991 0.7426556 -0.4976644
vn 0.3348368 0.7426557 -0.5799542
vn 0.2069406 0.7426562 -0.6368967
vn 0.07000005 0.7426559 -0.6660046
vn -0.06999961 0.7426561 -0.6660046
vn -0.2069404 0.7426565 -0.6368963
vn -0.3348367 0.7426564 -0.5799533
vn -0.4480984 0.7426566 -0.4976635
vn -0.5417764 0.7426569 -0.3936231
vn -0.6117762 0.7426566 -0.2723802
vn -0.6550385 0.7426564 -0.1392331
vn -0.6696729 0.7426562 0
vn -0.6550391 0.7426561 0.139233
vn -0.6117769 0.7426559 0.2723807
vn -0.0317042 0.9992318 0.02303458
vn -0.02622224 0.9992318 0.02912275
vn -0.01959428 0.9992318 0.0339386
vn -0.0121099 0.9992318 0.03727074
vn -0.00409632 0.9992318 0.03897412
vn 0.004096325 0.9992318 0.0389742
vn 0.01210995 0.9992318 0.03727078
vn 0.01959427 0.9992318 0.03393826
vn 0.02622234 0.9992318 0.02912256
vn 0.03170436 0.9992318 0.02303468
vn 0.0358006 0.9992318 0.01593992
vn 0.0383322 0.9992318 0.008147972
vn 0.03918852 0.9992318 5.42864E-07
vn -0.5417771 0.7426558 0.3936241
vn -0.4480989 0.7426556 0.4976645
vn -0.3348366 0.7426553 0.5799548
vn -0.2069405 0.7426554 0.6368977
vn -0.07000002 0.742655 0.6660057
vn 0.07000006 0.7426548 0.666006
vn 0.2069412 0.7426549 0.6368981
vn 0.3348373 0.7426548 0.579955
vn 0.4480995 0.742655 0.4976649
vn 0.5417782 0.7426546 0.3936248
vn 0.611778 0.7426548 0.2723814
vn 0.6550402 0.742655 0.1392331
vn 0.6696739 0.7426553 1.382693E-06
vn -0.8051827 0.0972454 0.5849994
vn -0.9092157 0.09724553 0.4048086
vn -0.9735116 0.09724569 0.2069265
vn -0.9952604 0.09724561 3.315564E-07
vn -0.9735116 0.09724586 -0.2069265
vn -0.9092157 0.09724575 -0.4048086
vn -0.8051828 0.09724575 -0.584999
vn -0.6659593 0.09724601 -0.7396225
vn -0.4976303 0.09724572 -0.8619207
vn -0.3075522 0.09724537 -0.946549
vn -0.1040328 0.09724547 -0.9898084
vn 0.1040331 0.09724578 -0.9898083
vn 0.3075523 0.09724577 -0.9465489
vn 0.4976301 0.0972456 -0.8619208
vn 0.6659593 0.09724551 -0.7396225
vn 0.8051826 0.09724557 -0.5849994
vn 0.9092156 0.09724579 -0.404809
vn 0.9735121 0.09724557 -0.2069241
vn 0.9952604 0.09724546 2.252149E-06
vn 0.9735117 0.09724541 0.2069261
vn 0.9092156 0.09724513 0.4048091
vn 0.8051828 0.09724506 0.5849992
vn 0.6659595 0.09724533 0.7396225
vn 0.4976301 0.09724555 0.8619208
vn 0.3075529 0.09724545 0.9465488
vn 0.1040333 0.09724517 0.9898084
vn -0.1040333 0.09724522 0.9898083
vn -0.3075523 0.09724555 0.9465489
vn -0.4976301 0.0972456 0.8619209
vn -0.6659592 0.09724554 0.7396227
vn 0 0 1
vn 0 0 1
vn 0 0 1
vn 0 0 1
vn 0 1 0
vn 0 1 0
vn 0 1 0
vn 0 1 0
vn 0 0 -1
vn 0 0 -1
vn 0 0 -1
vn 0 0 -1
vn 0 -1 0
vn 0 -1 0
vn 0 -1 0
vn 0 -1 0
vn 1 0 0
vn 1 0 0
vn 1 0 0
vn 1 0 0
vn -1 0 0
vn -1 0 0
vn -1 0 0
vn -1 0 0
vn 0 0 1
vn 0 0 1
vn 0 0 1
vn 0 0 1
vn 1 0 0
vn 1 0 0
vn 1 0 0
vn 1 0 0
vn 0 0 -1
vn 0 0 -1
vn 0 0 -1
vn 0 0 -1
vn -1 0 0
vn -1 0 0
vn -1 0 0
vn -1 0 0
vn 0 -1 0
vn 0 -1 0
vn 0 -1 0
vn 0 -1 0
vn 0 -1 0
vn 0 -1 0
vn 0 -1 0
vn 0 -1 0
vn 0 -1 0
vn 0 -1 0
vn 0 -1 0
vn 0 -1 0
g Base_0
f 3/3/3 2/2/2 1/1/1
f 4/4/4 3/3/3 1/1/1
f 5/5/5 3/3/3 4/4/4
f 6/6/6 5/5/5 4/4/4
f 7/7/7 5/5/5 6/6/6
f 8/8/8 7/7/7 6/6/6
f 9/9/9 7/7/7 8/8/8
f 10/10/10 9/9/9 8/8/8
f 11/11/11 9/9/9 10/10/10
f 12/12/12 11/11/11 10/10/10
f 13/13/13 11/11/11 12/12/12
f 14/14/14 13/13/13 12/12/12
f 15/15/15 13/13/13 14/14/14
f 16/16/16 15/15/15 14/14/14
f 17/17/17 15/15/15 16/16/16
f 18/18/18 17/17/17 16/16/16
f 19/19/19 17/17/17 18/18/18
f 20/20/20 19/19/19 18/18/18
f 21/21/21 19/19/19 20/20/20
f 22/22/22 21/21/21 20/20/20
f 23/23/23 21/21/21 22/22/22
f 24/24/24 23/23/23 22/22/22
f 25/25/25 23/23/23 24/24/24
f 26/26/26 25/25/25 24/24/24
f 27/27/27 25/25/25 26/26/26
f 28/28/28 27/27/27 26/26/26
f 29/29/29 27/27/27 28/28/28
f 30/30/30 29/29/29 28/28/28
f 31/31/31 29/29/29 30/30/30
f 32/32/32 31/31/31 30/30/30
f 33/33/33 31/31/31 32/32/32
f 34/34/34 33/33/33 32/32/32
f 35/35/35 33/33/33 34/34/34
f 36/36/36 35/35/35 34/34/34
f 37/37/37 35/35/35 36/36/36
f 38/38/38 37/37/37 36/36/36
f 39/39/39 37/37/37 38/38/38
f 40/40/40 39/39/39 38/38/38
f 41/41/41 39/39/39 40/40/40
f 42/42/42 41/41/41 40/40/40
f 43/43/43 41/41/41 42/42/42
f 44/44/44 43/43/43 42/42/42
f 45/45/45 43/43/43 44/44/44
f 46/46/46 45/45/45 44/44/44
f 47/47/47 45/45/45 46/46/46
f 48/48/48 47/47/47 46/46/46
f 49/49/49 47/47/47 48/48/48
f 50/50/50 49/49/49 48/48/48
f 51/51/51 49/49/49 50/50/50
f 52/52/52 51/51/51 50/50/50
f 53/53/53 51/51/51 52/52/52
f 54/54/54 53/53/53 52/52/52
f 55/55/55 53/53/53 54/54/54
f 56/56/56 55/55/55 54/54/54
f 57/57/57 55/55/55 56/56/56
f 58/58/58 57/57/57 56/56/56
f 59/59/59 57/57/57 58/58/58
f 60/60/60 59/59/59 58/58/58
f 61/61/61 59/59/59 60/60/60
f 62/62/62 61/61/61 60/60/60
f 65/65/65 64/64/64 63/63/63
f 66/66/66 64/64/64 65/65/65
f 67/67/67 64/64/64 66/66/66
f 68/68/68 64/64/64 67/67/67
f 69/69/69 64/64/64 68/68/68
f 70/70/70 64/64/64 69/69/69
f 71/71/71 64/64/64 70/70/70
f 72/72/72 64/64/64 71/71/71
f 73/73/73 64/64/64 72/72/72
f 74/74/74 64/64/64 73/73/73
f 75/75/75 64/64/64 74/74/74
f 76/76/76 64/64/64 75/75/75
f 77/77/77 64/64/64 76/76/76
f 78/78/78 64/64/64 77/77/77
f 79/79/79 64/64/64 78/78/78
f 80/80/80 64/64/64 79/79/79
f 66/66/66 65/65/65 81/81/81
f 81/81/81 65/65/65 82/82/82
f 65/65/65 63/63/63 82/82/82
f 83/83/83 66/66/66 81/81/81
f 67/67/67 66/66/66 83/83/83
f 84/84/84 67/67/67 83/83/83
f 68/68/68 67/67/67 84/84/84
f 85/85/85 68/68/68 84/84/84
f 69/69/69 68/68/68 85/85/85
f 86/86/86 69/69/69 85/85/85
f 70/70/70 69/69/69 86/86/86
f 87/87/87 70/70/70 86/86/86
f 71/71/71 70/70/70 87/87/87
f 88/88/88 71/71/71 87/87/87
f 72/72/72 71/71/71 88/88/88
f 89/89/89 72/72/72 88/88/88
f 73/73/73 72/72/72 89/89/89
f 90/90/90 73/73/73 89/89/89
f 74/74/74 73/73/73 90/90/90
f 91/91/91 74/74/74 90/90/90
f 75/75/75 74/74/74 91/91/91
f 92/92/92 75/75/75 91/91/91
f 76/76/76 75/75/75 92/92/92
f 93/93/93 76/76/76 92/92/92
f 77/77/77 76/76/76 93/93/93
f 94/94/94 77/77/77 93/93/93
f 78/78/78 77/77/77 94/94/94
f 95/95/95 78/78/78 94/94/94
f 79/79/79 78/78/78 95/95/95
f 96/96/96 79/79/79 95/95/95
f 80/80/80 79/79/79 96/96/96
f 97/97/97 80/80/80 96/96/96
f 98/98/98 80/80/80 97/97/97
f 98/98/98 64/64/64 80/80/80
f 99/99/99 64/64/64 98/98/98
f 100/100/100 64/64/64 99/99/99
f 101/101/101 64/64/64 100/100/100
f 102/102/102 64/64/64 101/101/101
f 103/103/103 64/64/64 102/102/102
f 104/104/104 64/64/64 103/103/103
f 105/105/105 64/64/64 104/104/104
f 106/106/106 64/64/64 105/105/105
f 107/107/107 64/64/64 106/106/106
f 108/108/108 64/64/64 107/107/107
f 109/109/109 64/64/64 108/108/108
f 110/110/110 64/64/64 109/109/109
f 63/63/63 64/64/64 110/110/110
f 111/111/111 98/98/98 97/97/97
f 99/99/99 98/98/98 111/111/111
f 112/112/112 99/99/99 111/111/111
f 100/100/100 99/99/99 112/112/112
f 113/113/113 100/100/100 112/112/112
f 101/101/101 100/100/100 113/113/113
f 114/114/114 101/101/101 113/113/113
f 102/102/102 101/101/101 114/114/114
f 115/115/115 102/102/102 114/114/114
f 103/103/103 102/102/102 115/115/115
f 116/116/116 103/103/103 115/115/115
f 104/104/104 103/103/103 116/116/116
f 117/117/117 104/104/104 116/116/116
f 105/105/105 104/104/104 117/117/117
f 118/118/118 105/105/105 117/117/117
f 106/106/106 105/105/105 118/118/118
f 119/119/119 106/106/106 118/118/118
f 107/107/107 106/106/106 119/119/119
f 120/120/120 107/107/107 119/119/119
f 108/108/108 107/107/107 120/120/120
f 121/121/121 108/108/108 120/120/120
f 109/109/109 108/108/108 121/121/121
f 122/122/122 109/109/109 121/121/121
f 110/110/110 109/109/109 122/122/122
f 123/123/123 110/110/110 122/122/122
f 63/63/63 110/110/110 123/123/123
f 82/82/82 63/63/63 123/123/123
f 112/112/112 111/111/111 124/124/124
f 124/124/124 111/111/111 125/125/125
f 111/111/111 97/97/97 125/125/125
f 125/125/125 97/97/97 126/126/126
f 97/97/97 96/96/96 126/126/126
f 126/126/126 96/96/96 127/127/127
f 96/96/96 95/95/95 127/127/127
f 127/127/127 95/95/95 128/128/128
f 95/95/95 94/94/94 128/128/128
f 128/128/128 94/94/94 129/129/129
f 94/94/94 93/93/93 129/129/129
f 129/129/129 93/93/93 130/130/130
f 93/93/93 92/92/92 130/130/130
f 130/130/130 92/92/92 131/131/131
f 92/92/92 91/91/91 131/131/131
f 131/131/131 91/91/91 132/132/132
f 91/91/91 90/90/90 132/132/132
f 132/132/132 90/90/90 133/133/133
f 90/90/90 89/89/89 133/133/133
f 133/133/133 89/89/89 134/134/134
f 89/89/89 88/88/88 134/134/134
f 134/134/134 88/88/88 135/135/135
f 88/88/88 87/87/87 135/135/135
f 135/135/135 87/87/87 136/136/136
f 87/87/87 86/86/86 136/136/136
f 136/136/136 86/86/86 137/137/137
f 86/86/86 85/85/85 137/137/137
f 137/137/137 85/85/85 138/138/138
f 85/85/85 84/84/84 138/138/138
f 138/138/138 84/84/84 139/139/139
f 84/84/84 83/83/83 139/139/139
f 139/139/139 83/83/83 140/140/140
f 83/83/83 81/81/81 140/140/140
f 140/140/140 81/81/81 141/141/141
f 81/81/81 82/82/82 141/141/141
f 141/141/141 82/82/82 142/142/142
f 82/82/82 123/123/123 142/142/142
f 142/142/142 123/123/123 143/143/143
f 123/123/123 122/122/122 143/143/143
f 143/143/143 122/122/122 144/144/144
f 122/122/122 121/121/121 144/144/144
f 144/144/144 121/121/121 145/145/145
f 121/121/121 120/120/120 145/145/145
f 145/145/145 120/120/120 146/146/146
f 120/120/120 119/119/119 146/146/146
f 146/146/146 119/119/119 147/147/147
f 119/119/119 118/118/118 147/147/147
f 147/147/147 118/118/118 148/148/148
f 118/118/118 117/117/117 148/148/148
f 148/148/148 117/117/117 149/149/149
f 117/117/117 116/116/116 149/149/149
f 149/149/149 116/116/116 150/150/150
f 116/116/116 115/115/115 150/150/150
f 150/150/150 115/115/115 151/151/151
f 115/115/115 114/114/114 151/151/151
f 151/151/151 114/114/114 152/152/152
f 114/114/114 113/113/113 152/152/152
f 152/152/152 113/113/113 153/153/153
f 113/113/113 112/112/112 153/153/153
f 153/153/153 112/112/112 124/124/124
f 156/156/156 155/155/155 154/154/154
f 157/157/157 156/156/156 154/154/154
f 160/160/160 159/159/159 158/158/158
f 161/161/161 160/160/160 158/158/158
f 164/164/164 163/163/163 162/162/162
f 165/165/165 164/164/164 162/162/162
f 168/168/168 167/167/167 166/166/166
f 169/169/169 168/168/168 166/166/166
f 172/172/172 171/171/171 170/170/170
f 173/173/173 172/172/172 170/170/170
f 176/176/176 175/175/175 174/174/174
f 177/177/177 176/176/176 174/174/174
f 180/180/180 179/179/179 178/178/178
f 181/181/181 180/180/180 178/178/178
f 184/184/184 183/183/183 182/182/182
f 185/185/185 184/184/184 182/182/182
f 188/188/188 187/187/187 186/186/186
f 189/189/189 188/188/188 186/186/186
f 192/192/192 191/191/191 190/190/190
f 193/193/193 192/192/192 190/190/190
f 196/196/196 195/195/195 194/194/194
f 197/197/197 196/196/196 194/194/194
f 194/194/194 195/195/195 198/198/198
f 195/195/195 199/199/199 198/198/198
f 200/200/200 196/196/196 197/197/197
f 201/201/201 200/200/200 197/197/197
f 204/204/204 203/203/203 202/202/202
f 205/205/205 204/204/204 202/202/202
