g OnionDoor
v -0.2630279 0.00174898 -1.213611
v 0.2630279 0.001750506 -1.213611
v 0.2630279 0.2379285 -1.190349
v -0.2630279 0.2379288 -1.190349
v 0.2630279 0.4656067 -1.121285
v -0.2630286 0.4656048 -1.121285
v 0.2630279 0.6754309 -1.00913
v -0.2630279 0.6754327 -1.00913
v 0.2630286 0.8593481 -0.8581946
v -0.2630279 0.8593478 -0.8581952
v 0.2630286 1.010283 -0.6742804
v -0.2630279 1.010283 -0.674281
v 0.2630279 1.122439 -0.4644519
v -0.2630279 1.122439 -0.4644525
v 0.2630286 1.191504 -0.2367761
v -0.2630279 1.191504 -0.2367767
v 0.2630279 1.214824 -1.220703E-06
v -0.2630279 1.214824 0
v 0.2630286 1.191504 0.2367743
v -0.2630279 1.191504 0.2367761
v 0.2630279 1.122439 0.4644507
v -0.2630279 1.122439 0.4644531
v 0.2630286 1.010285 0.6742792
v -0.2630279 1.010285 0.6742792
v 0.2630286 0.8593497 0.8581933
v -0.2630279 0.8593494 0.8581933
v 0.2630279 0.6754333 1.009131
v -0.2630279 0.6754361 1.009129
v 0.2630279 0.4656055 1.121285
v -0.2630286 0.4656048 1.121285
v 0.2630279 0.2379309 1.19035
v -0.2630279 0.2379309 1.19035
v 0.2630279 0.001749896 1.213611
v -0.2630279 0.001751421 1.213611
v 0.3750079 1.122439 0.4644507
v 0.3750079 1.010285 0.6742792
v 0.3750079 0.8593497 0.8581933
v 0.3750079 0.675433 1.009131
v 0.3750079 0.4656058 1.121285
v 0.3750079 0.2379309 1.19035
v 0.3750079 0.001749896 1.213611
v 0.3750079 1.191504 0.2367743
v 0.3750079 1.214824 -1.220703E-06
v 0.3750079 1.191504 -0.2367761
v 0.3750079 1.122439 -0.4644519
v 0.3750079 1.010283 -0.6742804
v 0.3750079 0.8593484 -0.8581946
v 0.3750079 0.6754309 -1.00913
v 0.3750079 0.4656064 -1.121285
v 0.3750079 0.2379288 -1.190349
v 0.3750079 0.001750506 -1.213611
v -0.2630279 0.00174898 -1.213611
v -0.2630286 -2.362116 -1.213611
v 0.2630273 -2.362116 -1.213611
v 0.2630279 0.001750506 -1.213611
v 0.3750079 0.001750506 -1.213611
v 0.3750073 -2.362116 -1.213611
v 0.2630279 0.001749896 1.213611
v 0.2630273 -2.362116 1.213611
v -0.2630286 -2.362116 1.213611
v -0.2630279 0.001751421 1.213611
v 0.3750073 -2.362116 1.213611
v 0.3750079 0.001749896 1.213611
v 0.3750079 0.1800733 -0.8685119
v 0.3750079 0.2379288 -1.190349
v 0.3750079 0.001750506 -1.213611
v 0.3750079 0.007315387 -0.8855267
v 0.3750079 0.3461917 -0.8181207
v 0.3750079 0.4656064 -1.121285
v 0.3750079 0.4992877 -0.736289
v 0.3750079 0.6754309 -1.00913
v 0.3750079 0.6334774 -0.6261621
v 0.3750079 0.8593484 -0.8581946
v 0.3750079 0.7436044 -0.4919727
v 0.3750079 1.010283 -0.6742804
v 0.3750079 0.8254358 -0.3388769
v 0.3750079 1.122439 -0.4644519
v 0.3750079 0.8758279 -0.1727576
v 0.3750079 1.191504 -0.2367761
v 0.3750079 0.8928427 0
v 0.3750079 1.214824 -1.220703E-06
v 0.3750079 0.8758282 0.1727582
v 0.3750079 1.191504 0.2367743
v 0.3750079 0.8254364 0.3388763
v 0.3750079 1.122439 0.4644507
v 0.3750079 0.743605 0.4919727
v 0.3750079 1.010285 0.6742792
v 0.3750079 0.6334784 0.6261627
v 0.3750079 0.8593497 0.8581933
v 0.3750079 0.4992883 0.736289
v 0.3750079 0.675433 1.009131
v 0.3750079 0.3461926 0.8181207
v 0.3750079 0.4656058 1.121285
v 0.3750079 0.1800736 0.8685126
v 0.3750079 0.2379309 1.19035
v 0.3750079 0.007315997 0.8855273
v 0.3750079 0.001749896 1.213611
v 0.3750079 0.007315387 -0.8855267
v 0.3750079 0.001750506 -1.213611
v 0.3750073 -2.362116 -1.213611
v 0.3750073 -2.362114 -0.8855267
v 0.3750073 -2.362114 0.8855273
v 0.3750073 -2.362116 1.213611
v 0.3750079 0.001749896 1.213611
v 0.3750079 0.007315997 0.8855273
v 0.2630286 0.1800729 -0.8685119
v 0.3750079 0.1800733 -0.8685119
v 0.3750079 0.007315387 -0.8855267
v 0.2630279 0.007315387 -0.8855267
v 0.2630279 0.3461917 -0.8181207
v 0.3750079 0.3461917 -0.8181207
v 0.2630286 0.4992877 -0.736289
v 0.3750079 0.4992877 -0.736289
v 0.2630279 0.6334774 -0.6261621
v 0.3750079 0.6334774 -0.6261621
v 0.2630279 0.7436044 -0.4919727
v 0.3750079 0.7436044 -0.4919727
v 0.2630279 0.8254358 -0.3388769
v 0.3750079 0.8254358 -0.3388769
v 0.2630279 0.8758276 -0.1727576
v 0.3750079 0.8758279 -0.1727576
v 0.2630279 0.8928427 0
v 0.3750079 0.8928427 0
v 0.2630279 0.8758282 0.1727582
v 0.3750079 0.8758282 0.1727582
v 0.2630279 0.8254361 0.3388763
v 0.3750079 0.8254364 0.3388763
v 0.2630279 0.743605 0.4919727
v 0.3750079 0.743605 0.4919727
v 0.2630286 0.633478 0.6261627
v 0.3750079 0.6334784 0.6261627
v 0.2630286 0.4992886 0.736289
v 0.3750079 0.4992883 0.736289
v 0.2630279 0.3461926 0.8181207
v 0.3750079 0.3461926 0.8181207
v 0.2630286 0.1800736 0.8685126
v 0.3750079 0.1800736 0.8685126
v 0.2630279 0.007315692 0.8855273
v 0.3750079 0.007315997 0.8855273
v -0.2630279 0.007315997 0.8855273
v -0.2630279 0.1800736 0.8685126
v -0.2630279 0.3461926 0.8181207
v -0.2630279 0.4992886 0.736289
v -0.2630279 0.633478 0.6261627
v -0.2630279 0.743605 0.4919727
v -0.2630279 0.8254364 0.3388763
v -0.2630279 0.8758282 0.1727582
v -0.2630279 0.8928427 0
v -0.2630279 0.8758276 -0.1727576
v -0.2630279 0.8254361 -0.3388769
v -0.2630279 0.7436044 -0.4919727
v -0.2630279 0.6334774 -0.6261621
v -0.2630279 0.4992877 -0.736289
v -0.2630279 0.3461917 -0.8181207
v -0.2630279 0.1800729 -0.8685119
v -0.2630279 0.007315387 -0.8855267
v 0.2630279 0.007315387 -0.8855267
v 0.3750079 0.007315387 -0.8855267
v 0.3750073 -2.362114 -0.8855267
v 0.2630279 -2.362114 -0.8855267
v -0.2630279 0.007315387 -0.8855267
v -0.2630286 -2.362114 -0.8855267
v 0.2630279 -2.362114 0.8855273
v 0.3750073 -2.362114 0.8855273
v 0.3750079 0.007315997 0.8855273
v 0.2630279 0.007315692 0.8855273
v -0.2630286 -2.362114 0.8855273
v -0.2630279 0.007315997 0.8855273
vt 0.01922776 0.515907
vt 0.01922776 0.6133558
vt 0.02125287 0.6133558
vt 0.02125287 0.515907
vt 0.02327797 0.6133558
vt 0.02327797 0.515907
vt 0.02530308 0.6133558
vt 0.02530308 0.515907
vt 0.02732819 0.6133558
vt 0.02732819 0.515907
vt 0.02935329 0.6133558
vt 0.02935329 0.515907
vt 0.0313784 0.6133558
vt 0.0313784 0.515907
vt 0.03340352 0.6133558
vt 0.03340352 0.515907
vt 0.03542861 0.6133558
vt 0.03542861 0.515907
vt 0.03745373 0.6133558
vt 0.03745373 0.515907
vt 0.03947884 0.6133558
vt 0.03947884 0.515907
vt 0.04150395 0.6133558
vt 0.04150395 0.515907
vt 0.04352905 0.6133558
vt 0.04352905 0.515907
vt 0.04555416 0.6133558
vt 0.04555416 0.515907
vt 0.04757926 0.6133558
vt 0.04757926 0.515907
vt 0.04960437 0.6133558
vt 0.04960437 0.515907
vt 0.05162948 0.6133558
vt 0.05162948 0.515907
vt 0.03947884 0.6133558
vt 0.04150395 0.6133558
vt 0.04352905 0.6133558
vt 0.04555416 0.6133558
vt 0.04757926 0.6133558
vt 0.04960437 0.6133558
vt 0.05162948 0.6133558
vt 0.03745373 0.6133558
vt 0.03542861 0.6133558
vt 0.03340352 0.6133558
vt 0.0313784 0.6133558
vt 0.02935329 0.6133558
vt 0.02732819 0.6133558
vt 0.02530308 0.6133558
vt 0.02327797 0.6133558
vt 0.02125287 0.6133558
vt 0.01922776 0.6133558
vt 0.05314517 0.5158719
vt 0.05314517 0.6131473
vt 0.1504206 0.6131473
vt 0.1504206 0.5158719
vt 0.1504206 0.5158719
vt 0.1504206 0.6131473
vt 0.05314517 0.5158719
vt 0.05314517 0.6131473
vt 0.1504206 0.6131473
vt 0.1504206 0.5158719
vt 0.05314517 0.6131473
vt 0.05314517 0.5158719
vt 0.02125287 0.6133558
vt 0.02125287 0.6133558
vt 0.01922776 0.6133558
vt 0.01922776 0.6133558
vt 0.02327797 0.6133558
vt 0.02327797 0.6133558
vt 0.02530308 0.6133558
vt 0.02530308 0.6133558
vt 0.02732819 0.6133558
vt 0.02732819 0.6133558
vt 0.02935329 0.6133558
vt 0.02935329 0.6133558
vt 0.0313784 0.6133558
vt 0.0313784 0.6133558
vt 0.03340352 0.6133558
vt 0.03340352 0.6133558
vt 0.03542861 0.6133558
vt 0.03542861 0.6133558
vt 0.03745373 0.6133558
vt 0.03745373 0.6133558
vt 0.03947884 0.6133558
vt 0.03947884 0.6133558
vt 0.04150395 0.6133558
vt 0.04150395 0.6133558
vt 0.04352905 0.6133558
vt 0.04352905 0.6133558
vt 0.04555416 0.6133558
vt 0.04555416 0.6133558
vt 0.04757926 0.6133558
vt 0.04757926 0.6133558
vt 0.04960437 0.6133558
vt 0.04960437 0.6133558
vt 0.05162948 0.6133558
vt 0.05162948 0.6133558
vt 0.1504206 0.5158719
vt 0.1504206 0.5158719
vt 0.1504206 0.6131473
vt 0.1504206 0.6131473
vt 0.05314517 0.6131473
vt 0.05314517 0.6131473
vt 0.05314517 0.5158719
vt 0.05314517 0.5158719
vt 0.02125287 0.6133558
vt 0.02125287 0.6133558
vt 0.01922776 0.6133558
vt 0.01922776 0.6133558
vt 0.02327797 0.6133558
vt 0.02327797 0.6133558
vt 0.02530308 0.6133558
vt 0.02530308 0.6133558
vt 0.02732819 0.6133558
vt 0.02732819 0.6133558
vt 0.02935329 0.6133558
vt 0.02935329 0.6133558
vt 0.0313784 0.6133558
vt 0.0313784 0.6133558
vt 0.03340352 0.6133558
vt 0.03340352 0.6133558
vt 0.03542861 0.6133558
vt 0.03542861 0.6133558
vt 0.03745373 0.6133558
vt 0.03745373 0.6133558
vt 0.03947884 0.6133558
vt 0.03947884 0.6133558
vt 0.04150395 0.6133558
vt 0.04150395 0.6133558
vt 0.04352905 0.6133558
vt 0.04352905 0.6133558
vt 0.04555416 0.6133558
vt 0.04555416 0.6133558
vt 0.04757926 0.6133558
vt 0.04757926 0.6133558
vt 0.04960437 0.6133558
vt 0.04960437 0.6133558
vt 0.05162948 0.6133558
vt 0.05162948 0.6133558
vt 0.05162948 0.515907
vt 0.04960437 0.515907
vt 0.04757926 0.515907
vt 0.04555416 0.515907
vt 0.04352905 0.515907
vt 0.04150395 0.515907
vt 0.03947884 0.515907
vt 0.03745373 0.515907
vt 0.03542861 0.515907
vt 0.03340352 0.515907
vt 0.0313784 0.515907
vt 0.02935329 0.515907
vt 0.02732819 0.515907
vt 0.02530308 0.515907
vt 0.02327797 0.515907
vt 0.02125287 0.515907
vt 0.01922776 0.515907
vt 0.1504206 0.5158719
vt 0.1504206 0.5158719
vt 0.1504206 0.6131473
vt 0.1504206 0.6131473
vt 0.05314517 0.5158719
vt 0.05314517 0.6131473
vt 0.05314517 0.6131473
vt 0.05314517 0.6131473
vt 0.05314517 0.5158719
vt 0.05314517 0.5158719
vt 0.1504206 0.6131473
vt 0.1504206 0.5158719
vn 0 0.008946395 -0.9999601
vn 0 0.008946444 -0.9999601
vn -3.924458E-07 0.1952121 -0.9807611
vn 0 0.1952124 -0.9807609
vn 0 0.382683 -0.9238797
vn 1.747394E-07 0.3826827 -0.9238798
vn 5.336603E-07 0.5555702 -0.8314695
vn 3.51674E-07 0.5555705 -0.8314695
vn 0 0.7071048 -0.7071087
vn 0 0.7071047 -0.7071088
vn -1.637359E-07 0.8314693 -0.5555708
vn -3.653012E-07 0.8314693 -0.5555707
vn -1.920809E-07 0.9238792 -0.3826841
vn -3.72966E-07 0.9238794 -0.3826839
vn -2.638506E-07 0.9807854 -0.1950896
vn -3.200155E-07 0.9807854 -0.1950896
vn 1.648621E-07 1 -1.550458E-06
vn 1.999569E-07 1 -1.392096E-06
vn 7.708859E-07 0.9807854 0.1950891
vn 9.349822E-07 0.9807854 0.1950894
vn 8.763886E-07 0.9238799 0.3826826
vn 1.062941E-06 0.9238797 0.382683
vn 3.883126E-07 0.8314696 0.5555702
vn 4.709719E-07 0.8314695 0.5555704
vn 1.395817E-07 0.7071069 0.7071066
vn -2.227212E-07 0.7071071 0.7071064
vn 1.281681E-07 0.5555711 0.8314691
vn -2.743782E-07 0.5555717 0.8314686
vn 0 0.3826845 0.9238791
vn 1.474989E-07 0.3826846 0.9238791
vn 0 0.1952116 0.9807612
vn 1.994078E-07 0.1952118 0.9807611
vn 0 0.008946033 0.9999601
vn 0 0.00894609 0.9999601
vn 0 0.9238797 0.382683
vn 0 0.8314701 0.5555696
vn 1.841594E-06 0.7071058 0.7071077
vn 2.019235E-06 0.5555699 0.8314698
vn -1.196147E-06 0.3826841 0.9238793
vn -1.375527E-06 0.1952111 0.9807613
vn 0 0.008946042 0.9999601
vn 0 0.9807854 0.1950901
vn 0 1 -9.159368E-07
vn 0 0.9807853 -0.1950904
vn 6.576832E-07 0.9238785 -0.382686
vn 7.831725E-07 0.8314687 -0.5555716
vn 1.2549E-07 0.7071045 -0.707109
vn 1.388593E-06 0.5555707 -0.8314693
vn -3.974716E-07 0.3826819 -0.9238801
vn -1.788304E-06 0.1952119 -0.9807611
vn 0 0.008946387 -0.9999601
vn 0 0.008946395 -0.9999601
vn 0 0 -1
vn 0 0 -1
vn 0 0.008946444 -0.9999601
vn 0 0.008946387 -0.9999601
vn 0 0 -1
vn 0 0.008946033 0.9999601
vn 0 0 1
vn 0 0 1
vn 0 0.00894609 0.9999601
vn 0 0 1
vn 0 0.008946042 0.9999601
vn 1 1.443636E-06 0
vn 1 1.478085E-06 0
vn 1 0 0
vn 1 0 0
vn 1 -1.479249E-06 0
vn 1 -1.446508E-06 0
vn 1 -1.454835E-06 0
vn 1 -1.484415E-06 0
vn 1 -7.424094E-07 0
vn 1 -7.297278E-07 0
vn 1 -7.335285E-07 0
vn 1 -7.435208E-07 0
vn 1 3.713791E-07 0
vn 1 3.679211E-07 0
vn 1 9.721185E-07 0
vn 1 9.710126E-07 0
vn 1 6.016586E-07 0
vn 1 6.016608E-07 0
vn 1 0 0
vn 1 0 0
vn 1 7.362784E-07 0
vn 1 7.431854E-07 0
vn 1 0 0
vn 1 0 0
vn 1 -7.424085E-07 0
vn 1 -7.297299E-07 0
vn 1 1.454827E-06 0
vn 1 1.484402E-06 0
vn 1 1.479247E-06 0
vn 1 1.446496E-06 0
vn 1 0 0
vn 1 0 0
vn 1 -2.300165E-07 0
vn 1 -2.331092E-07 0
vn 1 0 0
vn 1 0 0
vn 1 -2.515418E-07 0
vn 1 -2.515418E-07 0
vn 1 -2.515425E-07 0
vn 1 -2.515425E-07 0
vn 1 -2.331092E-07 0
vn 1 -2.300165E-07 0
vn 0 -0.1950885 0.9807857
vn 0 -0.1950881 0.9807857
vn 0 -0.006692823 0.9999776
vn 0 -0.006692832 0.9999776
vn 0 -0.3826828 0.9238798
vn 0 -0.3826827 0.9238798
vn 0 -0.5555712 0.8314689
vn 0 -0.5555698 0.8314699
vn 0 -0.7071062 0.7071072
vn 0 -0.7071046 0.707109
vn 0 -0.8314688 0.5555715
vn 0 -0.8314681 0.5555725
vn 0 -0.9238797 0.3826829
vn 5.303775E-07 -0.9238796 0.3826833
vn 2.315173E-07 -0.9807853 0.1950903
vn 1.319131E-06 -0.9807854 0.1950897
vn 1.384322E-07 -1 1.991708E-06
vn 7.88755E-07 -1 1.264758E-06
vn 0 -0.9807854 -0.1950895
vn 7.798947E-07 -0.9807854 -0.1950894
vn 0 -0.9238792 -0.3826841
vn 2.041902E-06 -0.9238793 -0.3826841
vn 0 -0.8314701 -0.5555696
vn 1.783869E-06 -0.8314708 -0.5555683
vn 0 -0.7071066 -0.7071069
vn 3.933831E-07 -0.7071068 -0.7071068
vn 0 -0.5555702 -0.8314696
vn -1.284812E-07 -0.5555697 -0.83147
vn 0 -0.3826842 -0.9238792
vn 0 -0.3826838 -0.9238794
vn 0 -0.19509 -0.9807854
vn 1.305607E-06 -0.1950893 -0.9807854
vn 0 -0.006692824 -0.9999776
vn 1.774454E-07 -0.006692843 -0.9999776
vn 0 -0.006692825 -0.9999776
vn -2.779201E-07 -0.1950901 -0.9807854
vn 0 -0.3826843 -0.9238792
vn 0 -0.5555702 -0.8314696
vn 0 -0.7071066 -0.7071069
vn -2.686394E-07 -0.8314699 -0.5555698
vn -4.346534E-07 -0.9238793 -0.3826841
vn -1.660134E-07 -0.9807854 -0.1950896
vn 0 -1 2.148456E-06
vn 0 -0.9807853 0.1950904
vn -1.026255E-07 -0.9238798 0.3826829
vn -1.026256E-07 -0.8314689 0.5555713
vn 0 -0.7071068 0.7071068
vn 0 -0.5555716 0.8314687
vn 0 -0.3826829 0.9238798
vn 0 -0.1950886 0.9807855
vn 0 -0.006692824 0.9999776
vn 0 -0.006692832 0.9999776
vn 0 -0.006692823 0.9999776
vn 0 0 1
vn 0 0 1
vn 0 -0.006692824 0.9999776
vn 0 0 1
vn 0 0 -1
vn 0 0 -1
vn 1.774454E-07 -0.006692843 -0.9999776
vn 0 -0.006692824 -0.9999776
vn 0 0 -1
vn 0 -0.006692825 -0.9999776
g OnionDoor_0
f 3/3/3 2/2/2 1/1/1
f 4/4/4 3/3/3 1/1/1
f 5/5/5 3/3/3 4/4/4
f 6/6/6 5/5/5 4/4/4
f 7/7/7 5/5/5 6/6/6
f 8/8/8 7/7/7 6/6/6
f 9/9/9 7/7/7 8/8/8
f 10/10/10 9/9/9 8/8/8
f 11/11/11 9/9/9 10/10/10
f 12/12/12 11/11/11 10/10/10
f 13/13/13 11/11/11 12/12/12
f 14/14/14 13/13/13 12/12/12
f 15/15/15 13/13/13 14/14/14
f 16/16/16 15/15/15 14/14/14
f 17/17/17 15/15/15 16/16/16
f 18/18/18 17/17/17 16/16/16
f 19/19/19 17/17/17 18/18/18
f 20/20/20 19/19/19 18/18/18
f 21/21/21 19/19/19 20/20/20
f 22/22/22 21/21/21 20/20/20
f 23/23/23 21/21/21 22/22/22
f 24/24/24 23/23/23 22/22/22
f 25/25/25 23/23/23 24/24/24
f 26/26/26 25/25/25 24/24/24
f 27/27/27 25/25/25 26/26/26
f 28/28/28 27/27/27 26/26/26
f 29/29/29 27/27/27 28/28/28
f 30/30/30 29/29/29 28/28/28
f 31/31/31 29/29/29 30/30/30
f 32/32/32 31/31/31 30/30/30
f 33/33/33 31/31/31 32/32/32
f 34/34/34 33/33/33 32/32/32
f 21/21/21 35/35/35 19/19/19
f 36/36/36 35/35/35 21/21/21
f 23/23/23 36/36/36 21/21/21
f 37/37/37 36/36/36 23/23/23
f 25/25/25 37/37/37 23/23/23
f 38/38/38 37/37/37 25/25/25
f 27/27/27 38/38/38 25/25/25
f 39/39/39 38/38/38 27/27/27
f 29/29/29 39/39/39 27/27/27
f 40/40/40 39/39/39 29/29/29
f 31/31/31 40/40/40 29/29/29
f 41/41/41 40/40/40 31/31/31
f 33/33/33 41/41/41 31/31/31
f 35/35/35 42/42/42 19/19/19
f 19/19/19 42/42/42 17/17/17
f 42/42/42 43/43/43 17/17/17
f 17/17/17 43/43/43 15/15/15
f 43/43/43 44/44/44 15/15/15
f 15/15/15 44/44/44 13/13/13
f 44/44/44 45/45/45 13/13/13
f 13/13/13 45/45/45 11/11/11
f 45/45/45 46/46/46 11/11/11
f 11/11/11 46/46/46 9/9/9
f 46/46/46 47/47/47 9/9/9
f 9/9/9 47/47/47 7/7/7
f 47/47/47 48/48/48 7/7/7
f 7/7/7 48/48/48 5/5/5
f 48/48/48 49/49/49 5/5/5
f 5/5/5 49/49/49 3/3/3
f 49/49/49 50/50/50 3/3/3
f 3/3/3 50/50/50 2/2/2
f 50/50/50 51/51/51 2/2/2
f 54/54/54 53/53/53 52/52/52
f 55/55/55 54/54/54 52/52/52
f 55/55/55 56/56/56 54/54/54
f 56/56/56 57/57/57 54/54/54
f 60/60/60 59/59/59 58/58/58
f 61/61/61 60/60/60 58/58/58
f 59/59/59 62/62/62 58/58/58
f 62/62/62 63/63/63 58/58/58
f 66/66/66 65/65/65 64/64/64
f 67/67/67 66/66/66 64/64/64
f 64/64/64 65/65/65 68/68/68
f 65/65/65 69/69/69 68/68/68
f 68/68/68 69/69/69 70/70/70
f 69/69/69 71/71/71 70/70/70
f 70/70/70 71/71/71 72/72/72
f 71/71/71 73/73/73 72/72/72
f 72/72/72 73/73/73 74/74/74
f 73/73/73 75/75/75 74/74/74
f 74/74/74 75/75/75 76/76/76
f 75/75/75 77/77/77 76/76/76
f 76/76/76 77/77/77 78/78/78
f 77/77/77 79/79/79 78/78/78
f 78/78/78 79/79/79 80/80/80
f 79/79/79 81/81/81 80/80/80
f 80/80/80 81/81/81 82/82/82
f 81/81/81 83/83/83 82/82/82
f 82/82/82 83/83/83 84/84/84
f 83/83/83 85/85/85 84/84/84
f 84/84/84 85/85/85 86/86/86
f 85/85/85 87/87/87 86/86/86
f 86/86/86 87/87/87 88/88/88
f 87/87/87 89/89/89 88/88/88
f 88/88/88 89/89/89 90/90/90
f 89/89/89 91/91/91 90/90/90
f 90/90/90 91/91/91 92/92/92
f 91/91/91 93/93/93 92/92/92
f 92/92/92 93/93/93 94/94/94
f 93/93/93 95/95/95 94/94/94
f 94/94/94 95/95/95 96/96/96
f 95/95/95 97/97/97 96/96/96
f 100/100/100 99/99/99 98/98/98
f 101/101/101 100/100/100 98/98/98
f 104/104/104 103/103/103 102/102/102
f 105/105/105 104/104/104 102/102/102
f 108/108/108 107/107/107 106/106/106
f 109/109/109 108/108/108 106/106/106
f 106/106/106 107/107/107 110/110/110
f 107/107/107 111/111/111 110/110/110
f 110/110/110 111/111/111 112/112/112
f 111/111/111 113/113/113 112/112/112
f 112/112/112 113/113/113 114/114/114
f 113/113/113 115/115/115 114/114/114
f 114/114/114 115/115/115 116/116/116
f 115/115/115 117/117/117 116/116/116
f 116/116/116 117/117/117 118/118/118
f 117/117/117 119/119/119 118/118/118
f 118/118/118 119/119/119 120/120/120
f 119/119/119 121/121/121 120/120/120
f 120/120/120 121/121/121 122/122/122
f 121/121/121 123/123/123 122/122/122
f 122/122/122 123/123/123 124/124/124
f 123/123/123 125/125/125 124/124/124
f 124/124/124 125/125/125 126/126/126
f 125/125/125 127/127/127 126/126/126
f 126/126/126 127/127/127 128/128/128
f 127/127/127 129/129/129 128/128/128
f 128/128/128 129/129/129 130/130/130
f 129/129/129 131/131/131 130/130/130
f 130/130/130 131/131/131 132/132/132
f 131/131/131 133/133/133 132/132/132
f 132/132/132 133/133/133 134/134/134
f 133/133/133 135/135/135 134/134/134
f 134/134/134 135/135/135 136/136/136
f 135/135/135 137/137/137 136/136/136
f 136/136/136 137/137/137 138/138/138
f 137/137/137 139/139/139 138/138/138
f 136/136/136 138/138/138 140/140/140
f 141/141/141 136/136/136 140/140/140
f 134/134/134 136/136/136 141/141/141
f 142/142/142 134/134/134 141/141/141
f 132/132/132 134/134/134 142/142/142
f 143/143/143 132/132/132 142/142/142
f 130/130/130 132/132/132 143/143/143
f 144/144/144 130/130/130 143/143/143
f 128/128/128 130/130/130 144/144/144
f 145/145/145 128/128/128 144/144/144
f 126/126/126 128/128/128 145/145/145
f 146/146/146 126/126/126 145/145/145
f 124/124/124 126/126/126 146/146/146
f 147/147/147 124/124/124 146/146/146
f 122/122/122 124/124/124 147/147/147
f 148/148/148 122/122/122 147/147/147
f 120/120/120 122/122/122 148/148/148
f 149/149/149 120/120/120 148/148/148
f 118/118/118 120/120/120 149/149/149
f 150/150/150 118/118/118 149/149/149
f 116/116/116 118/118/118 150/150/150
f 151/151/151 116/116/116 150/150/150
f 114/114/114 116/116/116 151/151/151
f 152/152/152 114/114/114 151/151/151
f 112/112/112 114/114/114 152/152/152
f 153/153/153 112/112/112 152/152/152
f 110/110/110 112/112/112 153/153/153
f 154/154/154 110/110/110 153/153/153
f 106/106/106 110/110/110 154/154/154
f 155/155/155 106/106/106 154/154/154
f 109/109/109 106/106/106 155/155/155
f 156/156/156 109/109/109 155/155/155
f 159/159/159 158/158/158 157/157/157
f 160/160/160 159/159/159 157/157/157
f 160/160/160 157/157/157 161/161/161
f 162/162/162 160/160/160 161/161/161
f 165/165/165 164/164/164 163/163/163
f 166/166/166 165/165/165 163/163/163
f 166/166/166 163/163/163 167/167/167
f 168/168/168 166/166/166 167/167/167
